<svg height="512pt" viewBox="-5 0 512 512.001" width="512pt" xmlns="http://www.w3.org/2000/svg"><g fill-rule="evenodd"><path d="m129.40625 35.578125c-23.082031 23.101563-30.53125 56.152344-22.316406 85.660156-44.152344 53.089844-46.023438 130.078125-5.609375 185.183594l211.191406-211.375-22.148437-22.167969-.027344-.027344-37.269532-37.273437c-34.042968-34.101563-89.777343-34.101563-123.820312 0zm0 0" fill="#ffc15a"/><path d="m412.136719 204.886719-211.277344 211.484375 22.714844 22.765625h.027343l37.269532 37.300781c34.042968 34.074219 89.777344 34.074219 123.820312 0 23.082032-23.101562 30.53125-56.152344 22.316406-85.6875 44.351563-53.292969 46.050782-130.703125 5.128907-185.863281zm0 0" fill="#ffc15a"/><path d="m312.671875 95.046875-211.191406 211.375-22.742188 22.761719c-8.777343 8.757812-8.777343 23.101562 0 31.886718l7.648438 7.652344 56.753906 56.804688 8.355469 8.363281c8.75 8.757813 23.082031 8.757813 31.832031 0l17.53125-17.519531 211.277344-211.484375 12.261719-12.273438c8.75-8.761719 8.75-23.101562 0-31.863281l-8.636719-8.644531-56.191407-56.238281-7.929687-7.9375c-8.777344-8.785157-23.109375-8.785157-31.859375 0zm0 0" fill="#c68a65"/><path d="m86.386719 368.722656c-5.152344 1.730469-9.996094 4.648438-14.074219 8.730469-11.019531 11.027344-13.453125 27.523437-7.308594 40.960937 1.726563 3.828126 4.164063 7.425782 7.308594 10.574219l10.648438 10.628907c3.144531 3.144531 6.710937 5.582031 10.535156 7.34375 13.453125 6.148437 29.90625 3.683593 40.949218-7.34375 4.078126-4.082032 6.96875-8.929688 8.695313-14.089844zm0 0" fill="#e6b9a0"/><path d="m368.550781 80.957031c-4.308593 4.308594-7.28125 9.441407-8.980469 14.910157l56.191407 56.238281c5.464843-1.671875 10.617187-4.675781 14.921875-8.984375 11.019531-11.027344 13.453125-27.523438 7.308594-40.960938-1.726563-3.828125-4.191407-7.425781-7.308594-10.546875l-10.648438-10.65625c-3.144531-3.144531-6.710937-5.585937-10.535156-7.34375-13.449219-6.148437-29.933594-3.679687-40.949219 7.34375zm0 0" fill="#e6b9a0"/><path d="m458.609375 24.464844-49.109375 49.152344c3.824219 1.753906 7.394531 4.195312 10.535156 7.339843l10.648438 10.660157c3.117187 3.117187 5.582031 6.71875 7.308594 10.542968l49.109374-49.148437c7.84375-7.855469 7.84375-20.695313 0-28.546875-7.816406-7.851563-20.648437-7.851563-28.492187 0zm0 0" fill="#c68a65"/><path d="m65.003906 418.414062-49.136718 49.152344c-7.816407 7.851563-7.816407 20.691406 0 28.542969 7.84375 7.851563 20.671874 7.851563 28.519531 0l49.109375-49.152344c-3.824219-1.757812-7.394532-4.195312-10.535156-7.339843l-10.648438-10.632813c-3.144531-3.144531-5.582031-6.746094-7.308594-10.570313zm0 0" fill="#c68a65"/></g><path d="m494.1875 17.40625c-5.664062-5.6875-13.226562-8.824219-21.292969-8.832031-.011719 0-.019531 0-.027343 0-8.074219 0-15.648438 3.132812-21.332032 8.820312l-44.621094 44.664063c-4.054687-1.132813-8.289062-1.730469-12.621093-1.730469-12.425781 0-24.078125 4.816406-32.816407 13.558594-1.667968 1.671875-3.175781 3.453125-4.550781 5.324219-5.894531-5.089844-13.335937-7.871094-21.226562-7.871094-.007813 0-.015625 0-.023438 0-8.703125.007812-16.867187 3.390625-22.972656 9.523437l-.03125.035157-52.367187-52.386719c-18.355469-18.386719-42.855469-28.511719-68.988282-28.511719-26.132812 0-50.632812 10.125-68.984375 28.507812-23.582031 23.601563-33.363281 57.796876-26.144531 90.332032-20.742188 26.679687-32.636719 59.835937-33.609375 93.949218-.9375 32.785157 8.238281 65.28125 25.945313 92.453126l-16.84375 16.859374c-6.144532 6.125-9.523438 14.300782-9.523438 23.015626 0 7.859374 2.757812 15.28125 7.804688 21.167968-1.660157 1.261719-3.246094 2.621094-4.722657 4.097656-12.28125 12.292969-16.214843 29.816407-11.816406 45.472657l-44.625 44.636719c-.007813.007812-.011719.011718-.019531.015624-11.707032 11.761719-11.707032 30.898438.015625 42.671876 5.683593 5.6875 13.261719 8.820312 21.335937 8.820312 8.074219 0 15.648438-3.132812 21.332032-8.820312l44.625-44.664063c4.054687 1.132813 8.285156 1.730469 12.617187 1.730469 12.425781 0 24.082031-4.8125 32.820313-13.558594 1.464843-1.464844 2.800781-3.019531 4.039062-4.640625 5.976562 5.4375 13.675781 8.414063 21.851562 8.414063 8.703126 0 16.867188-3.371094 22.992188-9.5l10.4375-10.445313 15.652344 15.683594c.148437.152343.304687.292969.460937.433593l36.839844 36.875c18.355469 18.371094 42.855469 28.484376 68.984375 28.484376 26.132812 0 50.632812-10.113282 68.988281-28.484376 23.578125-23.601562 33.355469-57.804687 26.144531-90.359374 20.839844-26.785157 32.746094-60.09375 33.636719-94.367188.851563-32.945312-8.492187-65.542969-26.433593-92.738281l6.355468-6.363281c12.332032-12.339844 12.65625-32.214844.984375-44.960938 1.871094-1.378906 3.65625-2.878906 5.304688-4.527344 8.734375-8.746094 13.546875-20.40625 13.546875-32.832031 0-4.339844-.601563-8.582031-1.734375-12.640625l44.601562-44.640625c11.757813-11.765625 11.757813-30.914063.011719-42.671875zm-118.5625 70.621094c4.960938-4.960938 11.589844-7.695313 18.667969-7.695313 3.945312 0 7.746093.851563 11.199219 2.457031.574218.269532 1.132812.558594 1.683593.867188.132813.074219.269531.148438.402344.226562.5625.328126 1.109375.671876 1.644531 1.039063.113282.078125.222656.15625.332032.234375.546874.390625 1.082031.792969 1.597656 1.226562.074218.058594.144531.125.21875.1875.546875.464844 1.078125.945313 1.589844 1.457032l10.648437 10.65625c.535156.539062 1.042969 1.097656 1.527344 1.671875.027343.03125.054687.058593.078125.089843.484375.582032.941406 1.183594 1.371094 1.796876.007812.011718.015624.023437.023437.035156.875 1.265625 1.632813 2.601562 2.265625 4 .046875.101562.105469.191406.152344.292968 1.488281 3.339844 2.277344 6.996094 2.277344 10.789063 0 7.085937-2.734376 13.726563-7.695313 18.691406-1.648437 1.652344-3.515625 3.070313-5.535156 4.222657l-46.671875-46.714844c1.148437-2.015625 2.558594-3.863282 4.222656-5.53125zm-260.84375 39.605468c2.097656-2.523437 2.824219-5.914062 1.945312-9.078124-7.539062-27.078126.03125-56.167969 19.757813-75.910157 14.574219-14.601562 34.046875-22.640625 54.832031-22.640625s40.257813 8.039063 54.835938 22.644532l52.378906 52.398437-195.515625 195.6875c-30.664063-50.4375-26.367187-117.25 11.765625-163.101563zm-36.972656 320.875-40.496094 40.53125c-1.90625 1.90625-4.457031 2.957032-7.183594 2.957032-2.730468 0-5.28125-1.050782-7.175781-2.941406-3.957031-3.980469-3.960937-10.449219-.003906-14.425782l40.476562-40.488281c.023438.023437.050781.046875.070313.074219.566406.628906 1.144531 1.246094 1.75 1.851562l10.636718 10.621094c.019532.019531.042969.035156.0625.054688.570313.570312 1.15625 1.125 1.753907 1.660156.039062.035156.074219.070312.109375.105468zm49.5625-15.960937c-4.957032 4.964844-11.585938 7.695313-18.667969 7.695313-3.941406 0-7.746094-.847657-11.199219-2.460938-.570312-.265625-1.125-.554688-1.675781-.859375-.136719-.078125-.277344-.15625-.417969-.238281-.554687-.324219-1.097656-.664063-1.628906-1.03125-.117188-.078125-.234375-.160156-.351562-.246094-.542969-.382812-1.074219-.789062-1.589844-1.214844-.074219-.0625-.148438-.128906-.222656-.195312-.546876-.464844-1.082032-.945313-1.589844-1.457032l-10.640625-10.621093c-.519531-.519531-1.011719-1.0625-1.480469-1.621094-.046875-.054687-.09375-.109375-.140625-.164063-1.46875-1.773437-2.695313-3.726562-3.644531-5.832031-.070313-.15625-.15625-.296875-.234375-.445312-4.238281-9.6875-2.410157-21.414063 5.5-29.332031h-.003907c1.476563-1.476563 3.09375-2.753907 4.832032-3.820313l46.964844 47.003906c-1.066407 1.753907-2.335938 3.371094-3.808594 4.839844zm271.949218-48.195313c-2.097656 2.519532-2.828124 5.914063-1.949218 9.078126 7.539062 27.097656-.03125 56.199218-19.753906 75.9375-14.574219 14.585937-34.046876 22.621093-54.835938 22.621093-20.785156 0-40.257812-8.035156-54.835938-22.621093l-37.269531-37.304688c-.144531-.144531-.296875-.289062-.453125-.425781l-15.242187-15.273438 75.792969-75.859375c3.90625-3.910156 3.902343-10.242187-.003907-14.148437-3.910156-3.902344-10.242187-3.898438-14.144531.007812l-100.371094 100.457031c-2.34375 2.34375-5.484375 3.636719-8.839844 3.636719-3.359374 0-6.5-1.292969-8.84375-3.636719l-72.753906-72.820312c-2.359375-2.359375-3.660156-5.515625-3.660156-8.886719 0-3.359375 1.296875-6.503906 3.660156-8.863281l233.921875-234.128906s.003907 0 .003907-.003906c0 0 .003906 0 .003906-.003907l7.121094-7.125c2.339843-2.347656 5.472656-3.644531 8.824218-3.644531h.007813c3.363281 0 6.511719 1.296875 8.867187 3.660156l30.496094 30.519532 33.625 33.652343v.003907l8.636719 8.640624c4.878906 4.886719 4.878906 12.835938 0 17.722657l-87.484375 87.5625c-3.902344 3.90625-3.902344 10.238281.007812 14.144531 3.90625 3.902344 10.238282 3.902344 14.140625-.007812l66.65625-66.710938c31.199219 50.546875 27.078125 117.675781-11.324219 163.820312zm80.707032-338.410156-40.472656 40.503906c-.015626-.019531-.039063-.039062-.054688-.058593-.5625-.625-1.140625-1.242188-1.738281-1.839844l-10.648438-10.65625c-.019531-.023437-.042969-.039063-.0625-.0625-.570312-.566406-1.152343-1.117187-1.75-1.652344-.039062-.035156-.074219-.074219-.113281-.109375l40.5-40.53125c1.902344-1.90625 4.453125-2.957031 7.179688-2.957031h.007812c2.71875 0 5.253906 1.046875 7.152344 2.957031 3.964844 3.972656 3.964844 10.433594 0 14.40625zm0 0"/><path d="m303.746094 299.21875-.140625.140625c-3.898438 3.914063-3.886719 10.246094.023437 14.144531 1.953125 1.945313 4.507813 2.917969 7.058594 2.917969 2.566406 0 5.132812-.980469 7.085938-2.941406l.140624-.140625c3.902344-3.914063 3.890626-10.246094-.023437-14.148438-3.910156-3.898437-10.242187-3.886718-14.144531.027344zm0 0"/></svg>