<svg id="Capa_1" enable-background="new 0 0 513 513" height="512" viewBox="0 0 513 513" width="512" xmlns="http://www.w3.org/2000/svg"><g><g><path d="m154.414 9.564c-8.026.378-14.2 7.29-14.2 15.325v92.041c0 8.068-6.2 15.01-14.259 15.389-8.604.405-15.708-6.451-15.708-14.967v-92.462c0-8.035-6.174-14.948-14.2-15.326-8.569-.404-15.643 6.424-15.643 14.905v92.461c0 8.068-6.2 15.01-14.259 15.39-8.604.405-15.708-6.451-15.708-14.967v-92.885c0-8.241-6.681-14.922-14.922-14.922-8.241 0-14.922 6.681-14.922 14.922v128.176c0 13.293 5.281 26.041 14.68 35.44 6.275 6.942 14.09 12.147 22.697 15.286 11.487 4.189 18.683 15.646 17.984 27.853l-12.26 240.577c-1.158 18.257 13.338 33.7 31.631 33.7 18.294 0 32.789-15.444 31.631-33.7l-12.26-240.577c-.699-12.207 6.497-23.664 17.984-27.853 8.607-3.139 16.422-8.344 22.697-15.286 9.399-9.399 14.68-22.148 14.68-35.44v-128.176c.001-8.48-7.074-15.308-15.643-14.904z" fill="#e4fbff"/></g><g><path d="m368.992 123.676c0-64.162-37.031-116.176-82.712-116.176s-82.712 52.014-82.712 116.176c0 49.232 21.804 91.31 52.587 108.227 5.137 2.823 8.295 8.301 7.977 14.154-.001.024-.003.048-.004.071l-14.019 220.107c-1.324 20.877 15.252 38.537 36.171 38.537 20.919 0 37.495-17.66 36.171-38.537l-14.02-220.107c-.001-.023-.003-.047-.004-.071-.318-5.853 2.839-11.331 7.977-14.154 30.785-16.917 52.588-58.995 52.588-108.227z" fill="#e4fbff"/></g><g><ellipse cx="286.28" cy="123.676" fill="#9ae0ef" rx="49.279" ry="80.605"/></g><g><path d="m442.37 8.5c-10.9 0-20.009 8.295-21.026 19.148l-17.087 182.291c-1.05 11.203 7.763 20.881 19.015 20.881 10.548 0 19.098 8.551 19.098 19.098v37.835h36.59v-56.933-213.655c0-4.785-3.879-8.665-8.665-8.665z" fill="#c1eff8"/></g><g><path d="m485.211 287.752h-53.637c-3.976 0-7.198 3.224-7.196 7.2l.099 174.413c-1.241 19.576 14.301 36.134 33.916 36.134 19.615 0 35.157-16.559 33.916-36.134l.099-174.413c.001-3.975-3.221-7.2-7.197-7.2z" fill="#fee6b9"/></g><g><path d="m154.414 9.564c-8.026.378-14.2 7.29-14.2 15.325 0 17.663-.156 127.756-.156 127.756 0 13.293-5.281 26.041-14.68 35.44-6.275 6.942-14.09 12.147-22.697 15.286-11.487 4.189-18.683 15.646-17.984 27.853l12.259 240.576c.813 12.826-6.104 24.255-16.631 29.924 4.458 2.401 9.558 3.776 15 3.776 18.294 0 32.789-15.444 31.631-33.7l-12.26-240.577c-.699-12.207 6.497-23.664 17.984-27.853 8.607-3.139 16.422-8.344 22.697-15.286 9.399-9.399 14.68-22.148 14.68-35.44v-128.176c.001-8.48-7.074-15.308-15.643-14.904z" fill="#c1eff8"/></g><g><path d="m316.405 231.903c30.784-16.917 52.587-58.995 52.587-108.227 0-64.162-37.031-116.176-82.712-116.176-5.123 0-10.135.659-15 1.911 38.519 9.912 67.712 57.298 67.712 114.265 0 49.232-21.804 91.31-52.587 108.227-5.137 2.823-8.295 8.301-7.977 14.154.001.024.003.048.004.071l14.02 220.107c.984 15.525-7.934 29.265-21.171 35.292 4.564 2.078 9.637 3.245 15 3.245 20.919 0 37.495-17.66 36.171-38.537l-14.02-220.107c-.001-.023-.003-.047-.004-.071-.318-5.853 2.84-11.331 7.977-14.154z" fill="#c1eff8"/></g><g><path d="m286.28 43.071c-5.232 0-10.269 1.345-15 3.815 19.88 10.381 34.279 40.83 34.279 76.79s-14.4 66.408-34.279 76.79c4.731 2.47 9.768 3.815 15 3.815 27.216 0 49.279-36.088 49.279-80.605s-22.062-80.605-49.279-80.605z" fill="#80d8e9"/></g><g><path d="m470.295 8.5h-27.925c-.381 0-.754.034-1.131.054 4.341.471 7.721 4.145 7.721 8.611v213.655 56.933h30v-56.933-213.655c-.001-4.786-3.88-8.665-8.665-8.665z" fill="#9ae0ef"/></g><g><path d="m492.407 294.953c.002-3.976-3.221-7.2-7.197-7.2h-30c3.976 0 7.198 3.224 7.197 7.2l-.099 174.413c.9 14.189-7.022 26.786-18.916 32.649 4.516 2.226 9.602 3.486 15 3.486 19.615 0 35.157-16.559 33.916-36.134z" fill="#fdd27a"/></g><g><path d="m154.061 2.072c-11.97.564-21.347 10.586-21.347 22.816v92.041c0 4.17-3.19 7.713-7.112 7.897-2.082.099-4.043-.633-5.536-2.059-1.496-1.427-2.319-3.35-2.319-5.416v-92.461c0-12.232-9.377-22.254-21.347-22.818-6.19-.292-12.072 1.9-16.55 6.172-4.415 4.211-6.946 10.125-6.946 16.225v92.461c0 4.17-3.19 7.713-7.112 7.898-2.08.099-4.042-.633-5.536-2.059-1.496-1.427-2.319-3.35-2.319-5.416v-92.884c0-12.364-10.059-22.422-22.422-22.422s-22.422 10.058-22.422 22.422v90.166c0 4.142 3.358 7.5 7.5 7.5s7.5-3.358 7.5-7.5v-90.166c0-4.093 3.33-7.422 7.422-7.422s7.422 3.329 7.422 7.422v92.884c0 6.116 2.539 12.047 6.965 16.27 4.49 4.283 10.387 6.484 16.595 6.189 12.004-.565 21.407-10.616 21.407-22.881v-92.462c0-2.049.817-3.957 2.3-5.372 1.481-1.413 3.427-2.139 5.49-2.041 3.889.183 7.053 3.698 7.053 7.834v92.462c0 6.116 2.539 12.046 6.965 16.269 4.49 4.283 10.383 6.484 16.595 6.189 12.004-.565 21.407-10.616 21.407-22.881v-92.041c0-4.136 3.164-7.65 7.053-7.833 2.061-.101 4.009.628 5.49 2.042 1.483 1.415 2.3 3.323 2.3 5.372v128.176c0 11.384-4.434 22.087-12.483 30.137-.089.089-.176.18-.26.274-5.368 5.938-12.181 10.526-19.703 13.269-14.376 5.242-23.794 19.769-22.905 35.28l12.265 240.67c.427 6.74-1.883 13.164-6.505 18.089-4.622 4.924-10.887 7.637-17.642 7.637-6.754 0-13.019-2.712-17.641-7.637-4.622-4.924-6.933-11.349-6.5-18.182l12.257-240.529c.891-15.558-8.527-30.085-22.902-35.328-7.521-2.743-14.335-7.331-19.703-13.269-.084-.094-.171-.185-.26-.274-8.05-8.05-12.483-18.753-12.483-30.137v-8.01c0-4.142-3.358-7.5-7.5-7.5s-7.5 3.358-7.5 7.5v8.01c0 15.328 5.945 29.742 16.743 40.61 6.98 7.675 15.816 13.607 25.565 17.162 8.208 2.993 13.581 11.373 13.063 20.425l-12.254 240.483c-.682 10.761 3.159 21.442 10.538 29.304s17.796 12.371 28.578 12.371c10.783 0 21.199-4.509 28.579-12.371 7.379-7.862 11.22-18.542 10.543-29.211l-12.262-240.624c-.516-9.005 4.857-17.385 13.066-20.378 9.749-3.555 18.585-9.487 25.564-17.162 10.799-10.868 16.744-25.282 16.744-40.61v-128.175c0-6.1-2.532-12.013-6.946-16.225-4.478-4.272-10.349-6.464-16.552-6.172z"/><path d="m286.281 0c-24.587 0-47.527 13.203-64.596 37.177-16.519 23.202-25.616 53.921-25.616 86.499 0 50.885 22.168 95.947 56.475 114.8 2.648 1.456 4.258 4.271 4.1 7.176l-14.02 220.109c-.772 12.187 3.404 23.802 11.762 32.705 8.357 8.903 19.684 13.807 31.895 13.807s23.538-4.903 31.895-13.807c8.357-8.903 12.534-20.518 11.761-32.707l-14.02-220.108c-.157-2.903 1.452-5.719 4.1-7.174 34.307-18.854 56.475-63.915 56.475-114.8 0-32.577-9.097-63.297-25.616-86.499-17.068-23.975-40.009-37.178-64.595-37.178zm26.512 225.33c-7.669 4.215-12.322 12.51-11.858 21.036l14.032 220.343c.508 8.008-2.237 15.64-7.728 21.49-5.492 5.851-12.935 9.073-20.959 9.073-8.023 0-15.467-3.222-20.958-9.072-5.492-5.851-8.236-13.483-7.729-21.488l14.021-220.121.007-.127c.469-8.624-4.184-16.919-11.853-21.134-29.129-16.008-48.7-56.859-48.7-101.655 0-59.923 33.74-108.675 75.213-108.675 41.472 0 75.212 48.752 75.212 108.676-.001 44.795-19.571 85.647-48.7 101.654z"/><path d="m286.28 35.571c-15.874 0-30.522 9.659-41.245 27.196-10.018 16.386-15.535 38.017-15.535 60.908s5.517 44.523 15.535 60.908c10.722 17.538 25.37 27.197 41.245 27.197s30.522-9.659 41.245-27.197c10.018-16.386 15.535-38.017 15.535-60.908s-5.517-44.523-15.535-60.908c-10.723-17.538-25.37-27.196-41.245-27.196zm0 161.21c-22.647 0-41.779-33.478-41.779-73.105s19.132-73.105 41.779-73.105 41.779 33.478 41.779 73.105-19.132 73.105-41.779 73.105z"/><path d="m499.907 294.956c.002-3.927-1.526-7.619-4.302-10.397-2.48-2.481-5.691-3.957-9.146-4.246v-138.416c0-4.142-3.358-7.5-7.5-7.5s-7.5 3.358-7.5 7.5v138.356h-21.589v-30.335c0-14.666-11.932-26.598-26.599-26.598-3.305 0-6.35-1.345-8.575-3.789s-3.281-5.601-2.973-8.892l17.087-182.291c.66-7.04 6.49-12.348 13.56-12.348h27.925c.642 0 1.165.522 1.165 1.165v94.732c0 4.142 3.358 7.5 7.5 7.5s7.5-3.358 7.5-7.5v-94.732c-.001-8.914-7.252-16.165-16.165-16.165h-27.925c-14.857 0-27.107 11.155-28.494 25.948l-17.086 182.292c-.697 7.436 1.788 14.869 6.817 20.391s12.196 8.689 19.665 8.689c6.396 0 11.599 5.203 11.599 11.598v30.335h-3.295c-3.927 0-7.619 1.53-10.395 4.307-2.776 2.778-4.304 6.47-4.302 10.397l.099 174.186c-.647 11.304 3.416 22.504 11.168 30.764 7.809 8.321 18.834 13.093 30.247 13.093s22.438-4.772 30.247-13.094c7.753-8.26 11.816-19.46 11.169-30.764zm-15.083 174.884c.468 7.378-2.061 14.41-7.121 19.801s-11.918 8.359-19.311 8.359-14.251-2.969-19.311-8.359c-5.059-5.391-7.588-12.423-7.121-19.801l.015-.239-.099-174.348h53.03l-.099 174.109z"/></g></g></svg>