<svg id="Capa_1" enable-background="new 0 0 512 512" height="512" viewBox="0 0 512 512" width="512" xmlns="http://www.w3.org/2000/svg"><g><g><path clip-rule="evenodd" d="m328.946 163.52-24.173 51.539-24.144-51.539-62.413 2.265 38.268-39.192-37.476-18.322c-19.446 9.373-37.674 22.116-53.808 38.258-12.907 12.941-23.663 27.214-32.268 42.392 40.391 9.232 65.272 57.684 77.471 112.536 13.077 58.703 11.605 124.684-.877 157.647 74.98 41.373 171.189 30.244 234.763-33.387 77.075-77.082 77.075-202.078 0-279.188-16.106-16.141-34.334-28.856-53.78-38.258l-37.419 18.322 38.268 39.192z" fill="#ff7b79" fill-rule="evenodd"/></g><g><path clip-rule="evenodd" d="m284.705 81.256c-27.116 2.605-53.44 10.393-76.537 21.692l10.841 5.324 37.476 18.322-38.268 39.192 62.413-2.265 24.144 51.539 24.173-51.539 62.413 2.265-38.268-39.192 37.419-18.322 10.897-5.324c-23.125-11.299-49.421-19.086-76.537-21.692v-37.861c0-8.212-6.708-14.924-14.917-14.924h-10.331c-8.208 0-14.917 6.711-14.917 14.924v37.861z" fill="#a0e5a5" fill-rule="evenodd"/></g><g><path clip-rule="evenodd" d="m132.933 188.921c-12.341-2.803-26.154-1.954-41.495 3.54-81.264 28.998-47.298 131.028 4.019 205.419 35.098 50.831 78.264 88.749 98.304 81.584 6.369-2.265 11.662-9.543 15.766-20.361 12.483-32.962 13.954-98.943.877-157.647-12.199-54.851-37.08-103.303-77.471-112.535z" fill="#ffa96b" fill-rule="evenodd"/></g><g><path d="m458.665 225.617c-2.02-5.142-7.826-7.674-12.966-5.652-5.141 2.02-7.672 7.825-5.652 12.966 10.063 25.615 12.634 53.529 7.442 80.705-2.826 14.647-7.831 28.668-14.88 41.674-2.632 4.856-.828 10.928 4.028 13.559 1.515.82 3.147 1.21 4.757 1.21 3.552 0 6.992-1.897 8.802-5.238 8.023-14.805 13.72-30.759 16.938-47.433 5.905-30.912 2.977-62.652-8.469-91.791z"/><path d="m451.37 139.465c-12.348-12.374-26.122-23.072-41.099-31.934.721-1.395 1.138-2.954 1.138-4.585-.001-3.821-2.178-7.306-5.611-8.984-22.213-10.853-46.558-18.253-70.925-21.604v-28.963c0-13.744-11.179-24.926-24.919-24.926h-10.331c-13.74 0-24.919 11.182-24.919 24.926v28.961c-24.399 3.352-48.744 10.754-70.931 21.608-3.431 1.678-5.606 5.164-5.607 8.983 0 1.617.409 3.163 1.119 4.548-14.951 8.837-28.747 19.546-41.166 31.971-11.614 11.645-21.775 24.544-30.274 38.42-8.4-1.023-17.133-.587-26.166 1.299 2.157-27.206 15.141-43.381 38.723-48.14 5.415-1.093 8.919-6.368 7.826-11.782-1.092-5.415-6.366-8.921-11.783-7.827-24.023 4.847-40.668 18.703-48.98 40.097l-15.025-42.147c-1.855-5.202-7.573-7.92-12.78-6.062-5.203 1.855-7.917 7.577-6.063 12.78l15.03 42.16c-19.973-11.307-41.629-11.5-63.298-.048-4.884 2.582-6.75 8.633-4.168 13.516 2.582 4.884 8.632 6.751 13.517 4.169 21.271-11.245 41.562-6.934 60.448 12.779-22.246 11.656-36.235 30.507-40.744 55.179-7.577 41.452 12.164 89.555 30.059 122.609 21.135 39.038 51.383 77.832 78.939 101.239 17.725 15.056 32.823 22.633 45.033 22.633 3.086 0 5.987-.484 8.699-1.453 7.142-2.54 12.709-8.425 17.059-16.148 28.181 13.659 59.473 20.791 90.887 20.791 9.169 0 18.348-.606 27.461-1.831 45.335-6.097 86.432-26.469 118.843-58.91 80.849-80.857 80.849-212.444.008-293.324zm-165.708-48.252c5.13-.492 9.046-4.803 9.046-9.956v-37.862c0-2.668 2.25-4.922 4.915-4.922h10.331c2.665 0 4.915 2.254 4.915 4.922v37.861c0 5.153 3.916 9.464 9.046 9.956 18.027 1.732 36.202 5.943 53.501 12.341l-28.721 14.055c-2.882 1.41-4.913 4.119-5.459 7.281-.547 3.163.457 6.395 2.699 8.691l20.801 21.303-37.425-1.359c-4.013-.16-7.716 2.118-9.419 5.748l-15.112 32.22-15.092-32.216c-1.651-3.523-5.188-5.759-9.055-5.759-.121 0-.243.002-.365.007l-37.425 1.359 20.8-21.303c2.242-2.296 3.246-5.528 2.7-8.691-.546-3.162-2.577-5.87-5.459-7.281l-28.729-14.058c17.281-6.394 35.458-10.604 53.507-12.337zm151.552 327.434c-56.697 56.749-144.226 70.814-215.546 35.517 3.087-10.608 4.978-22.191 6.124-32.749.596-5.491-3.372-10.427-8.864-11.023-5.49-.6-10.426 3.372-11.023 8.864-3.981 36.663-13.185 49.25-17.51 50.789-3.497 1.25-14.6-1.05-34.063-17.583-14.472-12.293-30.238-29.653-45.006-49.619l35.721-12.73c5.204-1.855 7.918-7.576 6.064-12.78-1.854-5.203-7.575-7.917-12.779-6.064l-40.906 14.578c-16.647-25.144-30.999-53.006-39.247-79.507l39.628-14.122c5.204-1.855 7.918-7.576 6.064-12.78-1.854-5.203-7.577-7.917-12.779-6.064l-37.874 13.497c-2.739-14.087-3.343-27.455-1.157-39.415 4.08-22.32 17.379-37.219 40.659-45.546.03-.01.059-.022.088-.032 19.638-7.009 36.613-5.911 51.896 3.355 22.748 13.792 40.977 45.69 51.97 89.794l-39.836 14.229c-5.202 1.858-7.913 7.58-6.055 12.783 1.461 4.091 5.312 6.641 9.42 6.641 1.116 0 2.252-.189 3.364-.586l37.389-13.354c1.078 5.779 2.046 11.722 2.893 17.827.759 5.473 5.807 9.291 11.282 8.533 5.471-.759 9.291-5.811 8.532-11.281-4.323-31.153-12.02-59.879-22.259-83.073-12.212-27.66-27.799-47.382-46.328-58.616-2.959-1.794-5.978-3.358-9.05-4.705 7.012-10.684 15.135-20.683 24.252-29.823 13.834-13.841 29.561-25.319 46.798-34.18l20.596 10.079-28.608 29.299c-2.858 2.926-3.645 7.297-1.99 11.037 1.657 3.739 5.437 6.112 9.509 5.945l55.8-2.026 21.337 45.546c1.646 3.513 5.176 5.758 9.055 5.759h.002c3.879 0 7.409-2.243 9.055-5.755l21.364-45.55 55.802 2.026c4.092.162 7.854-2.206 9.509-5.945 1.656-3.74.868-8.111-1.989-11.037l-28.609-29.299 20.561-10.062c17.286 8.909 32.995 20.38 46.748 34.163 73.051 73.085 73.051 191.984-.004 265.045z"/><path d="m407.524 388.967c-3.906 3.906-3.906 10.239 0 14.145 1.954 1.952 4.513 2.929 7.073 2.929s5.119-.977 7.073-2.929l.028-.028c3.906-3.906 3.891-10.225-.015-14.131s-10.253-3.891-14.159.014z"/><path d="m219.433 365.536c-5.524 0-10.002 4.478-10.002 10.002v.056c0 5.523 4.478 9.975 10.002 9.975s10.002-4.507 10.002-10.03-4.478-10.003-10.002-10.003z"/></g></g></svg>