<svg height="512pt" viewBox="0 -7 512.00061 512" width="512pt" xmlns="http://www.w3.org/2000/svg"><g fill-rule="evenodd"><path d="m37.839844 232.375v217.105469c0 21.175781 17.320312 38.527343 38.496094 38.527343h301.558593c21.175781 0 38.523438-17.351562 38.523438-38.527343v-217.105469c78.921875-99.199219-18.367188-207.609375-155.425781-220.992188-9.300782-.90625-18.824219-1.386718-28.460938-1.386718-100.632812 0-192.734375 50.632812-216.574219 116.886718-7.625 21.175782-8.277343 43.96875 0 67.191407 4.535157 12.699219 11.707031 25.511719 21.882813 38.300781zm0 0" fill="#ffd89e"/><path d="m416.417969 232.375v217.105469c0 21.175781-17.347657 38.527343-38.523438 38.527343h57.320313c21.171875 0 38.496094-17.351562 38.496094-38.527343v-217.105469c84.304687-105.945312-32.402344-222.378906-183.863282-222.378906-9.722656 0-19.359375.480468-28.855468 1.386718 137.058593 13.382813 234.347656 121.792969 155.425781 220.992188zm0 0" fill="#ffc15a"/><path d="m138.246094 209.605469c10.09375 0 18.285156-8.476563 18.285156-18.90625 0-10.464844-8.191406-18.910157-18.285156-18.910157-10.089844 0-18.28125 8.445313-18.28125 18.910157 0 10.433593 8.191406 18.90625 18.28125 18.90625zm0 0" fill="#c68a65"/><path d="m267.964844 161.953125c0 10.429687 8.191406 18.90625 18.285156 18.90625 10.117188 0 18.308594-8.476563 18.308594-18.90625 0-10.433594-8.191406-18.910156-18.308594-18.910156-10.09375 0-18.285156 8.476562-18.285156 18.910156zm0 0" fill="#c68a65"/><path d="m323.242188 325.984375c0-10.460937-8.191407-18.910156-18.285157-18.910156-10.117187 0-18.308593 8.449219-18.308593 18.910156 0 10.433594 8.191406 18.910156 18.308593 18.910156 10.09375 0 18.285157-8.476562 18.285157-18.910156zm0 0" fill="#c68a65"/><path d="m191.710938 363.519531c0-10.429687-8.164063-18.910156-18.285157-18.910156-10.089843 0-18.285156 8.480469-18.285156 18.910156 0 10.433594 8.195313 18.910157 18.285156 18.910157 10.121094 0 18.285157-8.476563 18.285157-18.910157zm0 0" fill="#c68a65"/></g><path d="m500.152344 108.167969c-14.820313-30.730469-43.480469-58.332031-80.703125-77.722657-38.234375-19.917968-83.050781-30.445312-129.601563-30.445312-9.449218 0-19.105468.460938-28.722656 1.347656-9.429688-.890625-18.972656-1.347656-28.59375-1.347656-47.234375 0-95.257812 11.128906-135.214844 31.339844-40.109375 20.28125-70.605468 48.890625-85.875 80.558594-9.6875 20.089843-13.25 40.90625-10.585937 61.878906 2.699219 21.246094 11.777343 42.101562 26.992187 62.03125v44.050781c0 5.519531 4.472656 9.992187 9.992188 9.992187 5.519531 0 9.992187-4.472656 9.992187-9.992187v-47.484375c0-2.261719-.765625-4.457031-2.171875-6.226562-27.34375-34.355469-32.953125-70.863282-16.21875-105.566407 28.109375-58.289062 113.519532-100.597656 203.089844-100.597656 85.730469 0 164.816406 39.839844 192.324219 96.878906 17.453125 36.195313 11.835937 73.988281-16.253907 109.285157-1.40625 1.769531-2.175781 3.964843-2.175781 6.222656v217.105468c0 15.734376-12.796875 28.535157-28.527343 28.535157h-301.5625c-15.714844 0-28.503907-12.800781-28.503907-28.535157v-89.753906c0-5.519531-4.472656-9.996094-9.992187-9.996094-5.519532 0-9.992188 4.476563-9.992188 9.996094v89.753906c0 26.757813 21.753906 48.523438 48.488282 48.523438h358.878906c26.738281 0 48.488281-21.765625 48.488281-48.519531v-213.675781c30.84375-40.429688 36.703125-85.628907 16.449219-127.636719zm-34.261719 117.980469c-1.40625 1.769531-2.171875 3.964843-2.171875 6.222656v217.105468c0 15.734376-12.789062 28.535157-28.503906 28.535157h-18.101563c5.847657-8.011719 9.300781-17.875 9.300781-28.535157v-213.671874c30.839844-40.425782 36.699219-85.621094 16.441407-127.625-14.820313-30.734376-43.484375-58.339844-80.710938-77.730469-1.089843-.566407-2.1875-1.125-3.289062-1.679688-.03125-.015625-.0625-.035156-.097657-.054687 56.746094 14.71875 103.523438 46.941406 123.390626 88.136718 17.457031 36.199219 11.835937 73.996094-16.257813 109.296876zm0 0"/><path d="m138.246094 161.796875c-15.589844 0-28.277344 12.964844-28.277344 28.902344 0 15.933593 12.6875 28.902343 28.277344 28.902343 15.59375 0 28.277344-12.96875 28.277344-28.902343 0-15.9375-12.683594-28.902344-28.277344-28.902344zm0 37.816406c-4.570313 0-8.289063-4-8.289063-8.914062 0-4.917969 3.71875-8.917969 8.289063-8.917969 4.574218 0 8.292968 4 8.292968 8.917969 0 4.914062-3.71875 8.914062-8.292968 8.914062zm0 0"/><path d="m286.25 133.046875c-15.59375 0-28.277344 12.96875-28.277344 28.90625 0 15.933594 12.683594 28.902344 28.277344 28.902344 15.605469 0 28.304688-12.96875 28.304688-28.902344 0-15.9375-12.699219-28.90625-28.304688-28.90625zm0 37.820313c-4.574219 0-8.292969-4-8.292969-8.917969 0-4.914063 3.71875-8.914063 8.292969-8.914063 4.585938 0 8.320312 4 8.320312 8.914063 0 4.917969-3.734374 8.917969-8.320312 8.917969zm0 0"/><path d="m276.652344 325.984375c0 15.9375 12.699218 28.902344 28.304687 28.902344 15.59375 0 28.277344-12.964844 28.277344-28.902344s-12.683594-28.902344-28.277344-28.902344c-15.605469 0-28.304687 12.964844-28.304687 28.902344zm36.597656 0c0 4.917969-3.71875 8.917969-8.292969 8.917969-4.585937 0-8.320312-4-8.320312-8.917969s3.734375-8.917969 8.320312-8.917969c4.574219 0 8.292969 4 8.292969 8.917969zm0 0"/><path d="m145.148438 363.519531c0 15.9375 12.6875 28.90625 28.277343 28.90625 15.59375 0 28.277344-12.96875 28.277344-28.90625 0-15.933593-12.683594-28.902343-28.277344-28.902343-15.589843 0-28.277343 12.96875-28.277343 28.902343zm28.277343-8.914062c4.570313 0 8.292969 4 8.292969 8.914062 0 4.917969-3.71875 8.917969-8.292969 8.917969-4.570312 0-8.289062-4-8.289062-8.917969 0-4.914062 3.71875-8.914062 8.289062-8.914062zm0 0"/><path d="m37.839844 329.796875c-5.515625 0-9.992188-4.472656-9.992188-9.992187v-.199219c0-5.515625 4.476563-9.992188 9.992188-9.992188 5.519531 0 9.996094 4.476563 9.996094 9.992188v.199219c0 5.519531-4.476563 9.992187-9.996094 9.992187zm0 0"/></svg>