<svg height="511pt" viewBox="0 -3 511.99972 511" width="511pt" xmlns="http://www.w3.org/2000/svg"><g fill-rule="evenodd"><path d="m281.667969 156.574219c-32.710938-7.933594-53.1875-1.148438-66.027344 31.441406-11.199219 38.078125-6.71875 32.675781-40.726563 64.519531-26.59375 20.636719-34.058593 40.898438-16.597656 71.246094 15.882813 22.734375 19.988282 26.210938 22.285156 42.105469.976563 6.839843 1.609376 16.007812 2.730469 30.003906-.460937 33.683594 10.710938 52.164063 45.320313 57.421875 39.578125 2.472656 33.34375-.71875 71.914062 25.40625 6.921875 5.660156 13.5 10 19.90625 12.902344 12.03125 5.433594 23.492188 5.777344 35.46875 0 5.773438-2.757813 11.632813-6.925782 17.75-12.585938 26.621094-29.429687 20.21875-26.527344 64.675782-40.4375 32.914062-7.042968 48.421874-22.042968 45.867187-56.992187-6.40625-39.171875-8.128906-32.359375 8.730469-75.816407 5.171875-10.375 8.300781-19.714843 9.019531-28.335937.230469-2.53125.230469-5.03125 0-7.445313-1.179687-13.191406-8.960937-24.6875-24.957031-35.636718-34.609375-19.425782-30.359375-13.824219-53.792969-54.117188-13.988281-30.089844-31.738281-41.960937-64.277344-32.476562l-1.464843.433594c-36.734376 14.972656-29.726563 15.117187-75.824219 8.363281zm0 0" fill="#ffd89e"/><path d="m174.914062 252.535156c34.007813-31.84375 29.527344-26.441406 40.726563-64.519531 12.839844-32.589844 33.316406-39.375 66.027344-31.441406 46.097656 6.753906 39.089843 6.609375 75.824219-8.363281.488281-.144532.976562-.285157 1.464843-.429688.113281-4.253906.257813-9.054688.402344-14.570312 4.222656-35.410157-5.488281-56.101563-41.328125-65.5-41.417969-7.011719-35.210938-2.960938-72.921875-34.746094-25.015625-25.378906-47.246094-30.695313-76.941406-8.507813-31.304688 28.050781-24.242188 25.695313-72.605469 35.410157-35.441406 3.734374-53.421875 17.816406-54.597656 54.890624 2.382812 41.960938 4.9375 34.976563-17.636719 78.863282-19.15625 30.0625-19.382813 52.910156 8.847656 76.9375 34.265625 24.3125 30.414063 17.960937 50.632813 62.96875 11.546875 33.738281 29.238281 48.136718 65.628906 41.066406 16.167969-4.683594 24.699219-7.644531 32.164062-8.707031-2.296874-15.890625-6.402343-19.371094-22.285156-42.101563-17.464844-30.351562-9.996094-50.613281 16.597656-71.25zm0 0" fill="#ffc15a"/><path d="m251.511719 316.597656c10.054687 0 18.210937-8.449218 18.210937-18.851562 0-10.40625-8.15625-18.828125-18.210937-18.828125-10.050781 0-18.207031 8.421875-18.207031 18.828125 0 10.402344 8.15625 18.851562 18.207031 18.851562zm0 0" fill="#c68a65"/><path d="m366.335938 246.53125c10.054687 0 18.210937-8.449219 18.210937-18.855469 0-10.402343-8.15625-18.824219-18.210937-18.824219-10.078126 0-18.234376 8.421876-18.234376 18.824219 0 10.40625 8.15625 18.855469 18.234376 18.855469zm0 0" fill="#c68a65"/><path d="m402.753906 359.738281c10.054688 0 18.210938-8.453125 18.210938-18.855469 0-10.402343-8.15625-18.824218-18.210938-18.824218-10.082031 0-18.207031 8.421875-18.207031 18.824218 0 10.40625 8.125 18.855469 18.207031 18.855469zm0 0" fill="#c68a65"/><path d="m307.316406 412.820312c10.050782 0 18.210938-8.421874 18.210938-18.824218 0-10.40625-8.160156-18.855469-18.210938-18.855469-10.082031 0-18.207031 8.449219-18.207031 18.855469 0 10.402344 8.125 18.824218 18.207031 18.824218zm0 0" fill="#c68a65"/><path d="m126.207031 149.128906c10.050781 0 18.207031-8.417968 18.207031-18.824218 0-10.402344-8.15625-18.851563-18.207031-18.851563-10.082031 0-18.210937 8.449219-18.210937 18.851563 0 10.40625 8.128906 18.824218 18.210937 18.824218zm0 0" fill="#c68a65"/><path d="m226.210938 126.628906c10.050781 0 18.207031-8.453125 18.207031-18.855468 0-10.402344-8.15625-18.824219-18.207031-18.824219-10.050782 0-18.210938 8.421875-18.210938 18.824219 0 10.40625 8.15625 18.855468 18.210938 18.855468zm0 0" fill="#c68a65"/><path d="m107.996094 249.921875c10.050781 0 18.210937-8.421875 18.210937-18.824219 0-10.40625-8.160156-18.855468-18.210937-18.855468-10.082032 0-18.207032 8.449218-18.207032 18.855468 0 10.402344 8.125 18.824219 18.207032 18.824219zm0 0" fill="#c68a65"/></g><path d="m251.519531 268.78125c-15.609375 0-28.304687 12.980469-28.304687 28.933594 0 15.96875 12.695312 28.960937 28.304687 28.960937 15.605469 0 28.304688-12.992187 28.304688-28.960937-.003907-15.953125-12.699219-28.933594-28.304688-28.933594zm0 37.652344c-4.453125 0-8.074219-3.910156-8.074219-8.71875 0-4.792969 3.621094-8.691406 8.074219-8.691406 4.449219 0 8.070313 3.898437 8.070313 8.691406 0 4.808594-3.621094 8.71875-8.070313 8.71875zm0 0"/><path d="m307.257812 364.9375c-15.605468 0-28.304687 12.992188-28.304687 28.960938 0 15.953124 12.699219 28.933593 28.304687 28.933593 15.609376 0 28.304688-12.980469 28.304688-28.933593 0-15.96875-12.695312-28.960938-28.304688-28.960938zm0 37.652344c-4.449218 0-8.070312-3.898438-8.070312-8.691406 0-4.808594 3.621094-8.71875 8.070312-8.71875 4.453126 0 8.074219 3.910156 8.074219 8.71875 0 4.792968-3.621093 8.691406-8.074219 8.691406zm0 0"/><path d="m154.65625 130.390625c0-15.96875-12.695312-28.960937-28.304688-28.960937-15.605468 0-28.304687 12.992187-28.304687 28.960937 0 15.953125 12.699219 28.929687 28.304687 28.929687 15.609376 0 28.304688-12.976562 28.304688-28.929687zm-28.304688 8.691406c-4.449218 0-8.070312-3.902343-8.070312-8.691406 0-4.808594 3.621094-8.722656 8.070312-8.722656 4.453126 0 8.074219 3.914062 8.074219 8.722656 0 4.789063-3.621093 8.691406-8.074219 8.691406zm0 0"/><path d="m226.246094 78.9375c-15.609375 0-28.304688 12.980469-28.304688 28.933594 0 15.96875 12.695313 28.960937 28.304688 28.960937 15.605468 0 28.300781-12.992187 28.300781-28.960937 0-15.953125-12.695313-28.933594-28.300781-28.933594zm0 37.65625c-4.453125 0-8.074219-3.914062-8.074219-8.722656 0-4.789063 3.621094-8.691406 8.074219-8.691406 4.449218 0 8.070312 3.902343 8.070312 8.691406 0 4.808594-3.621094 8.722656-8.070312 8.722656zm0 0"/><path d="m79.859375 231.113281c0 15.953125 12.699219 28.929688 28.304687 28.929688 15.609376 0 28.304688-12.976563 28.304688-28.929688 0-15.972656-12.695312-28.960937-28.304688-28.960937-15.605468 0-28.304687 12.988281-28.304687 28.960937zm36.378906 0c0 4.789063-3.621093 8.6875-8.074219 8.6875-4.449218 0-8.070312-3.898437-8.070312-8.6875 0-4.808593 3.621094-8.722656 8.070312-8.722656 4.453126 0 8.074219 3.914063 8.074219 8.722656zm0 0"/><path d="m273.082031 67.53125.171875.085938c1.449219.722656 2.988282 1.066406 4.507813 1.066406 3.714843 0 7.289062-2.054688 9.058593-5.609375 2.492188-5 .460938-11.078125-4.539062-13.570313l-.171875-.085937c-5-2.496094-11.074219-.460938-13.566406 4.539062-2.496094 5.003907-.460938 11.078125 4.539062 13.574219zm0 0"/><path d="m394.515625 227.695312c0-15.953124-12.695313-28.933593-28.304687-28.933593-15.621094 0-28.332032 12.980469-28.332032 28.933593 0 15.96875 12.710938 28.960938 28.332032 28.960938 15.609374 0 28.304687-12.992188 28.304687-28.960938zm-28.304687 8.71875c-4.464844 0-8.101563-3.914062-8.101563-8.71875 0-4.792968 3.636719-8.691406 8.101563-8.691406 4.453124 0 8.074218 3.898438 8.074218 8.691406 0 4.808594-3.621094 8.71875-8.074218 8.71875zm0 0"/><path d="m402.589844 311.890625c-15.609375 0-28.304688 12.980469-28.304688 28.933594 0 15.96875 12.695313 28.960937 28.304688 28.960937 15.605468 0 28.304687-12.992187 28.304687-28.960937 0-15.953125-12.699219-28.933594-28.304687-28.933594zm0 37.652344c-4.453125 0-8.074219-3.910157-8.074219-8.71875 0-4.792969 3.621094-8.691407 8.074219-8.691407 4.449218 0 8.070312 3.898438 8.070312 8.691407 0 4.808593-3.621094 8.71875-8.070312 8.71875zm0 0"/><path d="m482.488281 226.035156c-.246093-.171875-.5-.328125-.761719-.476562-3.707031-2.082032-6.976562-3.878906-9.878906-5.476563-20.605468-11.339843-20.605468-11.339843-37.3125-40.132812l-2.515625-4.335938c-14.757812-31.5-34.460937-44.375-62.707031-40.394531.007812-.402344.019531-.792969.03125-1.203125 4.917969-42.386719-10.152344-65.824219-48.816406-75.96875-5.40625-1.417969-10.933594 1.816406-12.351563 7.222656s1.816407 10.941407 7.21875 12.355469c28.847657 7.570312 37.695313 21.820312 33.804688 54.46875-.039063.308594-.0625.621094-.070313.933594-.070312 2.777344-.144531 5.359375-.210937 7.792968-2.039063.84375-3.949219 1.640626-5.710938 2.378907-21.746093 9.082031-21.746093 9.082031-54.589843 4.238281l-5.050782-.742188c-39.476562-9.445312-63.324218 2.183594-77.289062 37.65625-.109375.28125-.207032.566407-.292969.855469-1.191406 4.042969-2.203125 7.601563-3.105469 10.769531-6.464844 22.683594-6.464844 22.683594-30.683594 45.339844l-3.761718 3.519532c-31.988282 24.996093-37.777344 50.90625-18.773438 83.949218.148438.253906.304688.507813.476563.75 2.425781 3.472656 4.578125 6.496094 6.492187 9.1875 6.292969 8.84375 9.6875 13.621094 11.773438 19.429688-3.359375.910156-7.105469 2.03125-11.542969 3.355468-3.148437.941407-6.671875 1.996094-10.667969 3.15625-28.980468 5.515626-43.039062-3.546874-53.613281-34.46875-.101563-.292968-.214844-.585937-.34375-.871093l-2.367187-5.28125c-16.304688-36.386719-17.480469-37.929688-41.96875-55.003907-2.734376-1.902343-5.789063-4.035156-9.242188-6.484374-22.40625-19.222657-24.097656-35.875-6.53125-63.453126.167969-.265624.324219-.535156.464844-.8125l2.6875-5.214843c18.234375-35.398438 18.703125-37.277344 16.757812-67.089844-.214844-3.316406-.457031-7.03125-.699218-11.25 1.050781-29.539063 12.996093-41.25 45.46875-44.675781.3125-.03125.625-.078125.929687-.140625l5.730469-1.148438c39.023437-7.808593 40.785156-8.613281 62.839844-28.726562 2.460937-2.242188 5.21875-4.757813 8.371093-7.585938 23.710938-17.582031 40.300781-15.523437 63.242188 7.761719.207031.210938.421875.410156.648437.605469 1.167969.992187 2.273438 1.925781 3.355469 2.832031 4.28125 3.589844 10.660156 3.03125 14.25-1.25 3.589844-4.285156 3.03125-10.667969-1.25-14.261719-.941406-.789062-1.90625-1.601562-2.914063-2.457031-30.039062-30.308594-57.746093-33.136719-89.796874-9.179688-.238282.179688-.46875.367188-.695313.570313-3.34375 2.996094-6.253906 5.648437-8.839844 8.007813-18.539062 16.90625-18.539062 16.90625-53.179687 23.835937l-5.285156 1.0625c-42.371094 4.601563-61.84375 24.523437-63.113282 64.546875-.007812.300781-.007812.597656.011719.898438.253906 4.46875.507813 8.390624.738281 11.875 1.632813 25.070312 1.632813 25.070312-14.554687 56.496093l-2.484375 4.824219c-22.808594 36.042969-19.386719 63.703125 11.0625 89.628906.226562.191406.460937.375.703125.542969 3.660156 2.597656 6.882812 4.847656 9.753906 6.847656 20.59375 14.359375 20.59375 14.359375 35.074219 46.675781l2.1875 4.875c11.5625 33.476563 29.890625 49.199219 58.253906 49.199219 5.785156 0 11.992188-.652343 18.644531-1.945312.296875-.058594.59375-.128907.886719-.214844 4.242188-1.230469 7.960938-2.339844 11.277344-3.332031 3.496094-1.042969 6.515625-1.945313 9.195312-2.699219.328125 3.671875.660156 7.90625 1.050782 12.90625l.394531 5.023437c-.425781 40.640626 16.207031 61.324219 53.871093 67.050782.292969.046875.589844.078125.890626.097656 4.226562.261719 7.933593.460938 11.230468.640625 23.5 1.265625 23.5 1.265625 51.046875 19.964844l4.132813 2.800781c15.652344 12.769531 30.082031 19.152344 44.078125 19.152344 14.136719 0 27.828125-6.511719 41.886719-19.53125.21875-.203125.429687-.414063.628906-.636719 2.851562-3.15625 5.332031-5.941406 7.53125-8.417969 15.625-17.582031 15.625-17.582031 47.363281-27.488281l4.785156-1.496094c39.660157-8.617187 56.109375-29.449219 53.328125-67.484375-.023437-.300781-.058594-.601562-.109375-.898437-.683593-4.191407-1.316406-7.863281-1.878906-11.128907-3.996094-23.203124-3.996094-23.203124 8.066406-54.238281l1.816407-4.671875c17.992187-36.421875 11.976562-62.28125-19.472657-83.8125zm1.152344 75.207032c-.136719.277343-2.351563 5.941406-2.351563 5.941406-13.703124 35.25-13.960937 37.074218-9.148437 65.011718.53125 3.09375 1.128906 6.5625 1.777344 10.503907 1.894531 27.46875-8.0625 39.496093-37.875 45.875-.304688.066406-.605469.144531-.902344.238281l-5.210937 1.628906c-36.0625 11.257813-37.644532 12.191406-56.460938 33.363282-2.085938 2.347656-4.425781 4.980468-7.109375 7.949218-20.269531 18.621094-35.863281 18.332032-59.425781-1.011718-.238282-.195313-.488282-.382813-.746094-.554688l-4.496094-3.054688c-31.300781-21.242187-33.019531-21.898437-61.320312-23.425781-3.125-.167969-6.628906-.355469-10.601563-.601562-27.167969-4.246094-36.65625-16.636719-36.242187-47.171875.003906-.3125-.003906-.625-.03125-.9375l-.429688-5.46875c-.808594-10.355469-1.441406-17.984375-2.269531-24.101563-.011719-.34375-.042969-.691406-.09375-1.042969-.050781-.355468-.121094-.703124-.207031-1.046874-2.21875-14.566407-5.984375-20.332032-17.382813-36.351563-1.820312-2.554687-3.851562-5.414063-6.136719-8.675781-13.621093-23.914063-9.867187-39.070313 14.234376-57.773438.246093-.195312.484374-.398437.710937-.609375l4.089844-3.824219c27.527343-25.75 28.546875-27.277343 36.324219-54.578124.855468-3.003907 1.8125-6.363282 2.929687-10.167969 10.183594-25.558594 24.363281-32.066407 53.992187-24.882813.304688.074219.609376.136719.917969.179688l5.492188.808594c37.324219 5.503906 39.15625 5.34375 65.332031-5.585938 2.878906-1.203125 6.101562-2.546875 9.769531-4.046875.335938-.101563.660157-.191406.992188-.285156.015625-.003907.03125-.007813.046875-.015625 25.644531-7.449219 39.382812-.246094 52.0625 27.042968.128906.28125.273437.554688.425781.824219l2.742187 4.71875c18.980469 32.710938 20.246094 34.046875 45.058594 47.703125 2.753906 1.515625 5.839844 3.214844 9.328125 5.171875 22.636719 15.636719 25.824219 30.929688 12.214844 58.253907zm0 0"/></svg>