<svg height="512pt" viewBox="0 -18 512 512" width="512pt" xmlns="http://www.w3.org/2000/svg"><g fill-rule="evenodd"><path d="m58.136719 410.050781h401.539062c0-.167969 0-.367187 0-.535156v-70.511719c-3.855469 2.210938-8.503906 3.457032-13.40625 3.371094-12.8125-.195312-23.101562-9.550781-22.847656-20.773438.144531-6.828124.085937-35.027343.257813-41.855468.992187-27.859375-54.398438-33.1875-55.191407 3.824218v30.496094c0 10.34375-10.089843 18.648438-21.9375 18.449219-11.820312-.199219-21.117187-8.816406-21.117187-19.160156v-46.875c0-27.320313-45.296875-26.042969-45.296875-.167969v63.425781c0 10.371094-9.269531 18.988281-21.117188 19.183594-11.820312.199219-21.570312-8.105469-21.570312-18.476563v-47.042968c-.792969-37.011719-55.527344-31.65625-54.507813-3.828125l.253906 11.875c.230469 11.222656-10.0625 20.574219-22.875 20.773437-12.808593.226563-23.582031-8.785156-23.75-19.980468l-.339843-23.410157c-.425781-29.699219-44.191407-29.699219-43.738281 0l.480468 32.421875v.367188c0 4.140625-1.160156 7.625-3.117187 10.488281-6.71875 9.890625-22.902344 12.296875-33.671875 6.914063v90.488281.539062zm0 0" fill="#ffc15a"/><path d="m56.179688 319.023438c13.972656 6.972656 37.078124.851562 36.792968-17.769532l-.484375-32.417968c-.453125-29.703126 43.3125-29.703126 43.738281 0l.339844 23.40625c.171875 11.195312 10.941406 20.207031 23.753906 19.980468 12.8125-.199218 23.101563-9.550781 22.875-20.773437l-.253906-11.875c-1.019531-27.828125 53.710938-33.183594 54.507813 3.828125v47.042968c0 10.371094 9.75 18.675782 21.570312 18.480469 11.847657-.199219 21.117188-8.816406 21.117188-19.1875v-63.425781c0-25.875 45.296875-27.148438 45.296875.171875v46.871094c0 10.34375 9.296875 18.960937 21.117187 19.160156 11.847657.199219 21.9375-8.105469 21.9375-18.449219v-30.496094c.792969-37.011718 56.179688-31.683593 55.1875-3.824218-.167969 6.828125-.113281 35.027344-.253906 41.859375-.257813 11.222656 10.03125 20.574219 22.84375 20.773437 4.90625.082032 9.554687-1.164062 13.410156-3.375v-122.769531c0-16.351563-13.378906-29.726563-29.734375-29.726563h-344.027344c-16.355468 0-29.734374 13.375-29.734374 29.726563zm0 0" fill="#ffe6c0"/><path d="m148.726562 186.507812h66.046876v-61.128906c0-6.066406-4.960938-11.054687-11.054688-11.054687h-43.964844c-6.066406 0-11.027344 4.988281-11.027344 11.054687zm0 0" fill="#cbe558"/><path d="m334.019531 114.324219h-21.996093c-6.0625 0-11.023438 4.988281-11.023438 11.054687v61.128906h66.042969v-61.128906c0-6.066406-4.957031-11.054687-11.023438-11.054687zm0 0" fill="#cbe558"/><path d="m457.746094 410.050781h-419.765625c-15.390625 0-27.976563 12.585938-27.976563 27.972657 0 15.390624 12.585938 27.972656 27.976563 27.972656h436.039062c15.363281 0 27.976563-12.582032 27.976563-27.972656 0-15.386719-12.613282-27.972657-27.976563-27.972657zm0 0" fill="#ff6977"/><path d="m181.75 82.355469c40.335938 0 9.410156-72.351563 0-72.351563-9.949219 0-38.40625 72.351563 0 72.351563zm0 0" fill="#ffc15a"/><path d="m334.019531 82.355469c40.335938 0 9.414063-72.351563 0-72.351563-9.949219 0-38.378906 72.351563 0 72.351563zm0 0" fill="#ffc15a"/></g><path d="m474.019531 400.046875h-4.339843v-183.8125c0-21.910156-17.828126-39.730469-39.738282-39.730469h-52.894531v-51.125c0-11.613281-9.433594-21.058594-21.03125-21.058594h-11.988281v-13.3125c6.785156-1.984374 11.085937-5.816406 13.6875-9.199218 4.324218-5.625 6.515625-13.113282 6.515625-22.253906 0-15.375-6.121094-30.84375-8.75-36.78125-10.09375-22.773438-18.351563-22.773438-21.460938-22.773438-2.867187 0-11.597656 0-21.265625 22.683594-5.230468 12.273437-8.230468 25.539062-8.230468 36.390625 0 16.742187 7.121093 28.058593 19.492187 31.867187v13.378906h-11.992187c-11.59375 0-21.03125 9.445313-21.03125 21.058594v51.125h-66.214844v-51.125c0-11.613281-9.449219-21.058594-21.058594-21.058594h-11.960938v-13.3125c6.785157-1.984374 11.085938-5.816406 13.6875-9.199218 4.324219-5.625 6.519532-13.113282 6.519532-22.253906 0-15.375-6.121094-30.84375-8.753906-36.78125-10.097657-22.773438-18.351563-22.773438-21.460938-22.773438-2.867188 0-11.601562 0-21.273438 22.683594-5.234374 12.277344-8.234374 25.542968-8.234374 36.394531 0 16.742187 7.121093 28.058594 19.503906 31.863281v13.378906h-11.992188c-11.597656 0-21.03125 9.445313-21.03125 21.058594v51.125h-52.808594c-21.910156 0-39.738281 17.820313-39.738281 39.730469v183.8125h-8.191406c-20.945313 0-37.984375 17.035156-37.984375 37.976563 0 20.941406 17.039062 37.976562 37.980469 37.976562h436.039062c20.941407 0 37.980469-17.035156 37.980469-37.976562 0-20.941407-17.039062-37.976563-37.980469-37.976563zm-140.035156-375.628906c5.738281 10.390625 13.199219 31.617187 9.132813 42.789062-.902344 2.488281-2.429688 5.144531-9.09375 5.144531-5.382813 0-7.164063-1.914062-8.292969-5-4.003907-10.9375 2.609375-32.390624 8.253906-42.933593zm-152.269531-.003907c5.734375 10.390626 13.195312 31.621094 9.132812 42.789063-.90625 2.492187-2.429687 5.148437-9.097656 5.148437-5.390625 0-7.175781-1.914062-8.304688-5.003906-4.003906-10.9375 2.617188-32.394531 8.269532-42.933594zm129.289062 100.964844c0-.550781.484375-1.050781 1.019532-1.050781h43.992187c.535156 0 1.019531.5 1.019531 1.050781v51.121094h-46.03125zm-152.269531 0c0-.550781.484375-1.050781 1.019531-1.050781h43.964844c.558594 0 1.046875.492187 1.046875 1.050781v51.121094h-46.03125zm-72.820313 71.132813h344.027344c10.878906 0 19.730469 8.847656 19.730469 19.722656v115.878906c-1.058594.183594-2.144531.273438-3.25.257813-4.042969-.0625-7.804687-1.59375-10.316406-4.203125-1.257813-1.308594-2.746094-3.472657-2.679688-6.359375.066407-3.320313.089844-11.277344.113281-19.699219.023438-9.113281.054688-18.539063.140626-22.0625.363281-10.804687-5.039063-20.476563-14.832032-26.539063-12.515625-7.75-29.488281-8.3125-42.230468-1.390624-11.394532 6.1875-17.832032 17.28125-18.132813 31.238281v.214843 30.492188c0 2.203125-1.257813 3.898438-2.308594 4.933594-2.300781 2.261718-5.824219 3.59375-9.460937 3.511718-6.21875-.101562-11.277344-4.210937-11.277344-9.152343v-46.875c0-9.277344-3.808594-17.417969-10.722656-22.917969-5.777344-4.589844-13.4375-7.121094-21.578125-7.121094-18.816407 0-33.003907 12.839844-33.003907 29.871094v63.421875c0 4.960937-5.0625 9.078125-11.28125 9.183594-3.574218.0625-6.839843-1.160157-9.058593-3.34375-1.066407-1.046875-2.339844-2.789063-2.339844-5.128907v-47.046874c0-.070313 0-.140626-.003906-.210938-.296875-14.015625-6.726563-25.128906-18.101563-31.300781-12.5625-6.816407-29.285156-6.253907-41.621094 1.394531-9.765624 6.0625-15.152343 15.738281-14.789062 26.570312l.09375 4.726563c.035156 1.855469.050781 2.699219.160156 7.074219.058594 2.878906-1.4375 5.050781-2.707031 6.363281-2.515625 2.609375-6.277344 4.140625-10.339844 4.203125-4.117187.082031-7.984375-1.363281-10.648437-3.941406-1.308594-1.269532-2.882813-3.371094-2.925782-6.179688l-.339843-23.40625c-.171875-12.214844-5.992188-22.410156-15.964844-27.972656-10.179687-5.683594-23.152344-5.53125-33.042969.382812-9.546875 5.703126-14.917968 15.867188-14.734375 27.878907l.480469 32.425781c.035156 2.164062-.378906 5.328125-4.339844 7.820312-3.34375 2.105469-8.101562 2.9375-12.445312 2.421876v-95.414063c0-10.875 8.851562-19.722656 19.730468-19.722656zm388.105469 259.476562h-436.039062c-9.90625 0-17.96875-8.058593-17.96875-17.964843s8.058593-17.964844 17.96875-17.964844h180.023437c5.523438 0 10.003906-4.480469 10.003906-10.003906 0-5.527344-4.480468-10.007813-10.003906-10.007813h-151.820312v-68.28125c8.089844.511719 16.390625-1.378906 23.101562-5.597656 8.859375-5.574219 13.847656-14.710938 13.691406-25.058594l-.480468-32.425781c-.074219-4.882813 1.601562-8.382813 4.988281-10.40625 3.75-2.238282 9.109375-2.273438 13.03125-.085938 3.714844 2.074219 5.636719 5.703125 5.707031 10.789063l.339844 23.414062c.117188 7.550781 3.320312 14.746094 9.019531 20.261719 6.457031 6.246094 15.558594 9.738281 24.894531 9.570312 9.328126-.144531 18.222657-3.902343 24.410157-10.316406 5.515625-5.714844 8.46875-13.050781 8.3125-20.710937-.109375-4.34375-.125-5.171875-.160157-6.996094l-.09375-4.835937c0-.050782-.003906-.105469-.003906-.15625-.132812-3.640626 1.660156-6.640626 5.335938-8.921876 6.125-3.800781 15.378906-4.148437 21.53125-.8125 4.902344 2.660157 7.46875 7.382813 7.636718 14.039063v46.929687c0 7.234376 2.953126 14.125 8.320313 19.398438 5.890625 5.792969 14.191406 9.089844 22.847656 9.089844.191407 0 .382813-.003906.574219-.007813 17.359375-.289062 30.953125-13.109375 30.953125-29.1875v-63.425781c0-9.746094 12.46875-9.859375 12.996094-9.859375 2.054687 0 12.292969.484375 12.292969 10.027344v46.875c0 15.792969 13.882812 28.875 30.953124 29.160156 9.035157.164063 17.6875-3.21875 23.824219-9.25 5.34375-5.257813 8.289063-12.078125 8.289063-19.203125v-30.375c.164062-6.605469 2.746094-11.3125 7.671875-13.984375 6.324219-3.4375 15.847656-3.085937 22.148437.816406 3.6875 2.285157 5.492188 5.265625 5.363282 8.871094 0 .035156 0 .070313-.003907.105469-.089843 3.707031-.117187 13.289062-.144531 22.558594-.023438 7.964843-.046875 16.199218-.109375 19.320312-.175781 7.609375 2.765625 14.949219 8.269531 20.671875 6.183594 6.421875 15.085938 10.1875 24.40625 10.332031 1.199219.019532 2.386719-.039062 3.574219-.136718v47.804687h-151.820313c-5.523437 0-10.003906 4.480469-10.003906 10.003906 0 5.527344 4.476563 10.007813 10.003906 10.007813h176.167969c9.910157 0 17.96875 8.058594 17.96875 17.964844s-8.058593 17.964843-17.96875 17.964843zm0 0"/><path d="m258.113281 400.046875h-.171875c-5.527344 0-10.003906 4.480469-10.003906 10.003906 0 5.527344 4.476562 10.007813 10.003906 10.007813h.171875c5.523438 0 10.003907-4.480469 10.003907-10.007813 0-5.523437-4.480469-10.003906-10.003907-10.003906zm0 0"/></svg>