<svg height="512pt" viewBox="0 -34 512 512" width="512pt" xmlns="http://www.w3.org/2000/svg"><g fill-rule="evenodd"><path d="m260.636719 140.214844h-129.804688c-18.878906 0-31.125 12.546875-35.066406 26.707031l-64.347656 231.476563c-6.746094 24.246093 9.582031 34.613281 24.292969 34.613281h409.847656c14.710937 0 31.039062-10.367188 24.292968-34.613281l-64.347656-231.476563c-3.941406-14.160156-16.1875-26.707031-35.066406-26.707031zm0 0" fill="#cbe558"/><path d="m260.636719 179.949219c-29.484375 0-56.1875 11.925781-75.492188 31.238281-19.332031 19.289062-31.292969 45.96875-31.292969 75.421875 0 29.457031 11.960938 56.136719 31.292969 75.421875 19.304688 19.316406 46.007813 31.269531 75.492188 31.269531 58.960937 0 106.78125-47.78125 106.78125-106.691406 0-29.453125-11.960938-56.132813-31.292969-75.421875-19.304688-19.3125-46.007812-31.238281-75.488281-31.238281zm0 0" fill="#f9fceb"/><path d="m502.011719 9.988281h-492.023438c0 35.402344 29 64.375 64.433594 64.375h363.15625c35.433594 0 64.433594-28.972656 64.433594-64.375zm0 0" fill="#cbe558"/><path d="m165.414062 74.363281h41.785157v65.851563h-41.785157zm0 0" fill="#ffc15a"/><path d="m309.195312 74.363281h41.8125v65.851563h-41.8125zm0 0" fill="#ffc15a"/><path d="m260.636719 268.0625c-9.921875 0-17.972657 8.296875-17.972657 18.550781 0 10.25 8.050782 18.578125 17.972657 18.578125s17.96875-8.328125 17.96875-18.578125c0-10.253906-8.050781-18.550781-17.96875-18.550781zm0 0" fill="#ff6977"/></g><path d="m178.625 369.585938c21.101562 20.824218 50.078125 33.703124 82.011719 33.703124 31.929687 0 60.90625-12.878906 82.007812-33.703124.183594-.160157.371094-.316407.542969-.492188.167969-.167969.320312-.347656.472656-.523438 20.851563-21.085937 33.746094-50.042968 33.746094-81.960937 0-31.792969-12.804688-60.652344-33.527344-81.714844-.214844-.261719-.445312-.519531-.691406-.765625-.25-.25-.507812-.480468-.777344-.699218-21.082031-20.6875-49.960937-33.46875-81.773437-33.46875-31.816407 0-60.699219 12.78125-81.78125 33.46875-.265625.21875-.527344.449218-.777344.699218-.242187.246094-.472656.503906-.6875.765625-20.722656 21.0625-33.527344 49.921875-33.527344 81.714844 0 31.914063 12.894531 60.875 33.746094 81.960937.152344.175782.304687.355469.472656.523438.171875.175781.359375.332031.542969.492188zm-14.273438-72.984376h11.4375c5.519532 0 9.988282-4.472656 9.988282-9.988281s-4.46875-9.988281-9.988282-9.988281h-11.4375c1.980469-19.1875 9.605469-36.722656 21.179688-50.929688l8.058594 8.050782c1.949218 1.949218 4.507812 2.925781 7.0625 2.925781 2.558594 0 5.113281-.976563 7.066406-2.929687 3.898438-3.902344 3.894531-10.226563-.007812-14.125l-8.039063-8.035157c14.21875-11.546875 31.773437-19.15625 50.976563-21.128906v11.390625c0 5.515625 4.46875 9.988281 9.988281 9.988281 5.515625 0 9.984375-4.472656 9.984375-9.988281v-11.390625c19.203125 1.972656 36.757812 9.582031 50.980468 21.132813l-8.042968 8.03125c-3.902344 3.898437-3.90625 10.222656-.007813 14.125 1.949219 1.953124 4.507813 2.929687 7.066407 2.929687 2.554687 0 5.109374-.972656 7.058593-2.921875l8.058594-8.054688c11.574219 14.207032 19.203125 31.742188 21.183594 50.929688h-11.441407c-5.515624 0-9.988281 4.472656-9.988281 9.988281s4.472657 9.988281 9.988281 9.988281h11.441407c-1.980469 19.1875-9.605469 36.726563-21.175781 50.9375l-8.066407-8.0625c-3.902343-3.898437-10.226562-3.898437-14.125.007813-3.898437 3.902344-3.894531 10.226563.007813 14.125l8.054687 8.042969c-14.226562 11.558594-31.785156 19.171875-50.992187 21.148437v-11.417969c0-5.519531-4.46875-9.988281-9.984375-9.988281-5.519531 0-9.988281 4.46875-9.988281 9.988281v11.417969c-19.210938-1.976562-36.765626-9.589843-50.992188-21.148437l8.054688-8.042969c3.902343-3.898437 3.902343-10.222656.007812-14.125-3.902344-3.90625-10.226562-3.90625-14.128906-.007813l-8.066406 8.058594c-11.570313-14.207031-19.191407-31.746094-21.171876-50.933594zm0 0"/><path d="m260.636719 315.179688c15.414062 0 27.957031-12.816407 27.957031-28.570313 0-12.144531-7.472656-22.535156-17.972656-26.648437v-15.890626c0-5.515624-4.472656-9.988281-9.988282-9.988281-5.515624 0-9.988281 4.472657-9.988281 9.988281v15.890626c-10.496093 4.113281-17.972656 14.503906-17.972656 26.648437.003906 15.753906 12.546875 28.570313 27.964844 28.570313zm0-19.976563c-4.40625 0-7.988281-3.855469-7.988281-8.589844 0-4.722656 3.582031-8.5625 7.988281-8.5625 4.402343 0 7.980469 3.839844 7.980469 8.5625 0 4.734375-3.578126 8.589844-7.980469 8.589844zm0 0"/><path d="m435.125 164.246094c-5.75-20.667969-23.289062-34.019532-44.6875-34.019532h-29.445312v-45.875h76.585937c41.035156 0 74.421875-33.359374 74.421875-74.363281 0-5.515625-4.472656-9.988281-9.988281-9.988281h-492.023438c-5.515625 0-9.988281 4.472656-9.988281 9.988281 0 41.003907 33.386719 74.367188 74.421875 74.367188h81.007813v45.871093h-24.597657c-21.394531 0-38.9375 13.351563-44.6875 34.019532l-23.554687 84.683594c-1.480469 5.3125 1.628906 10.820312 6.945312 12.296874 5.308594 1.480469 10.820313-1.628906 12.296875-6.945312l23.558594-84.679688c2.609375-9.378906 10.664063-19.398437 25.441406-19.398437h259.605469c14.78125 0 22.835938 10.019531 25.441406 19.394531l64.351563 231.480469c1.355469 4.875 2.234375 11.660156-1.28125 16.292969-3.167969 4.167968-8.996094 5.652344-13.390625 5.652344h-409.847656c-4.394532 0-10.222657-1.484376-13.386719-5.652344-3.519531-4.632813-2.640625-11.417969-1.28125-16.296875l18.566406-66.871094c1.476563-5.316406-1.636719-10.820313-6.949219-12.296875-5.3125-1.472656-10.820312 1.636719-12.296875 6.953125l-18.566406 66.863281c-4.65625 16.726563-.058594 27.574219 4.621094 33.730469 6.441406 8.480469 17.394531 13.546875 29.292969 13.546875h409.847656c11.902344 0 22.851562-5.066406 29.296875-13.546875 4.675781-6.15625 9.273437-17.003906 4.621093-33.726563zm-414.226562-144.269532h470.207031c-4.707031 25.238282-26.917969 44.402344-53.527344 44.402344h-363.15625c-26.609375-.003906-48.820313-19.164062-53.523437-44.402344zm278.308593 64.375v45.875h-82.019531v-45.875zm-123.804687 45.875v-45.875h21.808594v45.875zm143.78125 0v-45.875h21.835937v45.875zm0 0"/><path d="m57.316406 303.339844c1.046875.347656 2.113282.511718 3.160156.511718 4.179688 0 8.078126-2.644531 9.472657-6.832031l.058593-.167969c1.742188-5.234374-1.085937-10.890624-6.320312-12.632812-5.234375-1.746094-10.886719 1.082031-12.632812 6.316406l-.058594.167969c-1.742188 5.234375 1.085937 10.890625 6.320312 12.636719zm0 0"/></svg>