<svg height="511pt" viewBox="0 0 511 511.99988" width="511pt" xmlns="http://www.w3.org/2000/svg"><g fill-rule="evenodd"><path d="m473.460938 38.9375c-63.71875-63.714844-212.515626-18.1875-332.390626 101.644531-119.871093 119.863281-165.375 268.675781-101.652343 332.390625 63.71875 63.714844 212.515625 18.1875 332.390625-101.675781 119.871094-119.832031 165.375-268.644531 101.652344-332.359375zm0 0" fill="#ffcb7c"/><path d="m170.484375 341.914062c-31.285156-31.28125-63.660156-49.613281-72.324219-40.949218-8.664062 8.660156 9.667969 41.035156 40.953125 72.320312 31.285157 31.25 63.664063 49.582032 72.328125 40.921875 8.660156-8.664062-9.671875-41.039062-40.957031-72.292969zm0 0" fill="#c68a65"/><path d="m330.851562 329.742188c8.664063-8.660157-17.5-48.867188-58.425781-89.789063s-81.132812-67.050781-89.792969-58.390625c-8.664062 8.664062 17.496094 48.839844 58.421876 89.761719 40.929687 40.921875 81.132812 67.082031 89.796874 58.417969zm0 0" fill="#c68a65"/><path d="m414.976562 210.6875c8.664063-8.664062-9.667968-41.039062-40.953124-72.320312-31.285157-31.253907-63.664063-49.613282-72.324219-40.953126-8.664063 8.664063 9.667969 41.039063 40.953125 72.320313 31.285156 31.285156 63.664062 49.613281 72.324218 40.953125zm0 0" fill="#c68a65"/></g><path d="m480.644531 31.753906c-63.824219-63.816406-203.757812-28.816406-325.496093 81.414063-4.160157 3.765625-4.480469 10.1875-.714844 14.347656 3.769531 4.160156 10.191406 4.476563 14.351562.710937 55.050782-49.84375 116.285156-85.507812 172.421875-100.417968 54.394531-14.445313 98.8125-7.941406 125.070313 18.3125 28.035156 28.03125 33.535156 75.972656 15.488281 134.984375-18.71875 61.21875-60.320313 126.222656-117.140625 183.039062-56.824219 56.804688-121.828125 98.398438-183.039062 117.121094-22.8125 6.976563-43.960938 10.433594-62.953126 10.433594-30.140624 0-54.835937-8.714844-72.03125-25.910157-24.585937-24.585937-31.910156-65.675781-20.617187-115.703124 11.597656-51.386719 41.90625-108.792969 85.402344-161.703126 1.042969-1.292968 2.085937-2.554687 3.160156-3.820312 3.625-4.28125 3.097656-10.691406-1.183594-14.316406-4.28125-3.628906-10.691406-3.097656-14.320312 1.179687-1.171875 1.386719-2.316407 2.769531-3.40625 4.117188-45.414063 55.25-77.191407 115.648437-89.472657 170.070312-12.882812 57.070313-3.625 104.851563 26.070313 134.542969 21.121094 21.117188 50.753906 31.84375 86.382813 31.84375 21.050781 0 44.195312-3.746094 68.910156-11.304688 64.335937-19.675781 132.332031-63.070312 191.464844-122.183593 59.128906-59.125 102.53125-127.121094 122.207031-191.464844 20.347656-66.539063 13.050781-121.691406-20.554688-155.292969zm0 0"/><path d="m220.96875 183.648438c-14.253906-9.269532-34.480469-20.3125-45.519531-9.269532-11.042969 11.042969.007812 31.261719 9.285156 45.507813 11.40625 17.519531 28.855469 38.339843 49.136719 58.621093 20.28125 20.273438 41.105468 37.726563 58.640625 49.132813 10.007812 6.511719 22.964843 13.902344 33.617187 13.902344 4.515625 0 8.621094-1.328125 11.910156-4.617188 11.039063-11.042969-.011718-31.269531-9.285156-45.519531-11.410156-17.535156-28.863281-38.359375-49.140625-58.636719-20.277343-20.273437-41.105469-37.71875-58.644531-49.121093zm27.269531 80.492187c-34.476562-34.476563-51.761719-61.496094-56.039062-73.015625 11.53125 4.265625 38.570312 21.539062 73.042969 56.011719 34.480468 34.476562 51.765624 61.511719 56.042968 73.039062-11.53125-4.277343-38.566406-21.558593-73.046875-56.035156zm0 0"/><path d="m382.292969 214.03125c10.546875 5.972656 19.441406 8.960938 26.609375 8.960938 5.414062 0 9.84375-1.707032 13.261718-5.121094 7.9375-7.9375 6.644532-21.351563-3.839843-39.867188-8.175781-14.433594-21.355469-31.0625-37.117188-46.820312 0 0 0 0-.003906-.003906-15.765625-15.75-32.394531-28.921876-46.816406-37.09375-18.523438-10.492188-31.9375-11.789063-39.875-3.851563-7.933594 7.933594-6.644531 21.347656 3.84375 39.867187 8.171875 14.433594 21.355469 31.058594 37.113281 46.816407 15.761719 15.761719 32.390625 28.941406 46.824219 37.113281zm-72.375-108.390625c3.195312.628906 9.273437 2.78125 18.664062 8.628906 11.894531 7.410157 25.480469 18.519531 38.261719 31.285157 12.769531 12.769531 23.882812 26.355468 31.289062 38.25 5.851563 9.390624 7.996094 15.46875 8.625 18.664062-3.195312-.628906-9.269531-2.777344-18.664062-8.625-11.898438-7.40625-25.484375-18.519531-38.257812-31.292969-12.773438-12.769531-23.886719-26.355469-31.292969-38.253906-5.847657-9.386719-7.996094-15.464844-8.625-18.65625zm0 0"/><path d="m90.976562 293.78125c-7.9375 7.9375-6.648437 21.351562 3.839844 39.867188 8.171875 14.433593 21.355469 31.058593 37.117188 46.824218 15.761718 15.746094 32.390625 28.914063 46.824218 37.082032 10.546876 5.96875 19.4375 8.957031 26.605469 8.957031 5.414063 0 9.84375-1.707031 13.261719-5.121094 7.9375-7.9375 6.644531-21.351563-3.839844-39.867187-8.175781-14.433594-21.359375-31.050782-37.117187-46.796876-15.761719-15.757812-32.386719-28.933593-46.824219-37.109374-18.515625-10.480469-31.933594-11.773438-39.867188-3.835938zm72.328126 55.320312c12.769531 12.757813 23.882812 26.335938 31.292968 38.230469 5.847656 9.386719 7.992188 15.460938 8.625 18.65625-3.195312-.628906-9.273437-2.773437-18.667968-8.621093-11.894532-7.402344-25.484376-18.507813-38.257813-31.265626-12.773437-12.773437-23.886719-26.359374-31.292969-38.253906-5.847656-9.394531-7.996094-15.472656-8.625-18.664062 3.195313.628906 9.273438 2.773437 18.664063 8.625 11.898437 7.40625 25.484375 18.519531 38.257812 31.292968zm0 0"/><path d="m126.433594 156.949219c1.875 1.496093 4.117187 2.226562 6.34375 2.226562 2.976562 0 5.929687-1.304687 7.9375-3.8125l.113281-.144531c3.507813-4.382812 2.796875-10.773438-1.585937-14.28125-4.378907-3.503906-10.773438-2.792969-14.277344 1.585938l-.117188.144531c-3.503906 4.382812-2.792968 10.773437 1.585938 14.28125zm0 0"/></svg>