<svg height="512pt" viewBox="0 0 512 512" width="512pt" xmlns="http://www.w3.org/2000/svg"><g fill-rule="evenodd"><path d="m255.984375 10.007812c135.859375 0 246.007813 110.121094 246.007813 245.976563 0 135.859375-110.148438 246.007813-246.007813 246.007813-135.855469 0-245.976563-110.148438-245.976563-246.007813 0-135.855469 110.121094-245.976563 245.976563-245.976563zm0 311.457032c34.980469 0 63.324219-29.3125 63.324219-65.480469 0-36.136719-28.34375-65.476563-63.324219-65.476563-34.976563 0-63.320313 29.339844-63.320313 65.476563 0 36.167969 28.34375 65.480469 63.320313 65.480469zm0 0" fill="#ffd89e"/><path d="m202.355469 70.976562c-38.71875-9.410156-62.953125-1.386718-78.175781 37.1875-13.265626 45.042969-7.9375 38.664063-48.214844 76.335938-31.492188 24.40625-40.332032 48.386719-19.671875 84.300781 26.957031 38.460938 25.285156 30.328125 29.621093 85.316407-.539062 39.824218 12.671876 61.679687 53.65625 67.914062 46.882813 2.921875 39.488282-.847656 85.152344 30.046875 30.808594 25.257813 56.148438 28.542969 86.5625.398437 31.523438-34.835937 23.953125-31.40625 76.589844-47.847656 38.945312-8.332031 57.316406-26.105468 54.28125-67.433594-7.597656-46.34375-9.609375-38.292968 10.320312-89.710937 17.769532-35.660156 15.363282-61.085937-18.851562-84.46875-40.960938-22.988281-35.941406-16.355469-63.691406-64.003906-16.808594-36.140625-38.210938-50.085938-77.835938-37.925781-43.480468 17.6875-35.175781 17.882812-89.742187 9.890624zm53.628906 119.53125c34.980469 0 63.324219 29.335938 63.324219 65.476563 0 36.167969-28.34375 65.476563-63.324219 65.476563-34.976563 0-63.320313-29.308594-63.320313-65.476563 0-36.136719 28.34375-65.476563 63.320313-65.476563zm0 0" fill="#ff6977"/><path d="m183.820312 106.179688c-10.09375 0-18.253906 8.449218-18.253906 18.878906 0 10.429687 8.160156 18.878906 18.253906 18.878906 10.0625 0 18.253907-8.449219 18.253907-18.878906 0-10.429688-8.191407-18.878906-18.253907-18.878906zm0 0" fill="#f8a2aa"/><path d="m307.175781 106.179688c-10.089843 0-18.253906 8.449218-18.253906 18.878906 0 10.429687 8.164063 18.878906 18.253906 18.878906 10.09375 0 18.253907-8.449219 18.253907-18.878906 0-10.429688-8.160157-18.878906-18.253907-18.878906zm0 0" fill="#cbe558"/><path d="m389.09375 201.535156c-10.0625 0-18.253906 8.445313-18.253906 18.878906 0 10.429688 8.191406 18.875 18.253906 18.875 10.09375 0 18.253906-8.445312 18.253906-18.875 0-10.433593-8.160156-18.878906-18.253906-18.878906zm0 0" fill="#c68a65"/><path d="m383.792969 322.371094c-10.089844 0-18.253907 8.445312-18.253907 18.875 0 10.40625 8.164063 18.878906 18.253907 18.878906 10.09375 0 18.253906-8.472656 18.253906-18.878906.003906-10.429688-8.160156-18.875-18.253906-18.875zm0 0" fill="#f8a2aa"/><path d="m288.128906 396.691406c0-10.429687-8.191406-18.878906-18.28125-18.878906-10.066406 0-18.253906 8.449219-18.253906 18.878906 0 10.429688 8.191406 18.878906 18.253906 18.878906 10.089844 0 18.28125-8.449218 18.28125-18.878906zm0 0" fill="#ffd89e"/><path d="m147.308594 340.058594c-10.089844 0-18.253906 8.445312-18.253906 18.878906 0 10.429688 8.164062 18.875 18.253906 18.875 10.0625 0 18.253906-8.445312 18.253906-18.875.003906-10.433594-8.191406-18.878906-18.253906-18.878906zm0 0" fill="#c68a65"/><path d="m110.800781 218.117188c-10.089843 0-18.28125 8.445312-18.28125 18.878906 0 10.402344 8.191407 18.847656 18.28125 18.847656 10.0625 0 18.253907-8.445312 18.253907-18.847656 0-10.433594-8.191407-18.878906-18.253907-18.878906zm0 0" fill="#cbe558"/></g><path d="m437.011719 74.972656c-48.355469-48.347656-112.644531-74.972656-181.027344-74.972656-60.570313 0-119.339844 21.550781-165.488281 60.679688-4.214844 3.574218-4.730469 9.890624-1.15625 14.105468 3.574218 4.214844 9.886718 4.730469 14.101562 1.160156 42.535156-36.070312 96.707032-55.933593 152.542969-55.933593 130.132813 0 236.003906 105.855469 236.003906 235.972656 0 130.132813-105.871093 236.003906-236.003906 236.003906-130.113281 0-235.972656-105.871093-235.972656-236.003906 0-43.710937 12.035156-86.378906 34.796875-123.386719 2.894531-4.707031 1.429687-10.871094-3.277344-13.765625-4.707031-2.890625-10.871094-1.425781-13.765625 3.28125-24.707031 40.164063-37.765625 86.457031-37.765625 133.871094 0 68.382813 26.625 132.671875 74.972656 181.027344 48.351563 48.355469 112.632813 74.988281 181.011719 74.988281 68.382813 0 132.671875-26.632812 181.027344-74.988281s74.988281-112.644531 74.988281-181.027344c0-68.378906-26.632812-132.660156-74.988281-181.011719zm0 0"/><path d="m183.820312 153.941406c15.582032 0 28.257813-12.957031 28.257813-28.882812 0-15.925782-12.675781-28.882813-28.257813-28.882813-15.585937 0-28.261718 12.957031-28.261718 28.882813 0 15.925781 12.675781 28.882812 28.261718 28.882812zm0-37.753906c4.546876 0 8.246094 3.980469 8.246094 8.871094 0 4.894531-3.699218 8.875-8.246094 8.875-4.550781 0-8.25-3.980469-8.25-8.875 0-4.890625 3.699219-8.871094 8.25-8.871094zm0 0"/><path d="m307.175781 153.941406c15.585938 0 28.261719-12.957031 28.261719-28.882812 0-15.925782-12.675781-28.882813-28.261719-28.882813-15.582031 0-28.261719 12.957031-28.261719 28.882813 0 15.925781 12.679688 28.882812 28.261719 28.882812zm0-37.753906c4.550781 0 8.25 3.980469 8.25 8.871094 0 4.894531-3.699219 8.875-8.25 8.875-4.546875 0-8.246093-3.980469-8.246093-8.875 0-4.890625 3.699218-8.871094 8.246093-8.871094zm0 0"/><path d="m147.308594 330.050781c-15.582032 0-28.257813 12.957031-28.257813 28.882813 0 15.929687 12.675781 28.886718 28.257813 28.886718 15.585937 0 28.261718-12.957031 28.261718-28.886718 0-15.925782-12.675781-28.882813-28.261718-28.882813zm0 37.757813c-4.546875 0-8.246094-3.980469-8.246094-8.875 0-4.890625 3.699219-8.871094 8.246094-8.871094 4.550781 0 8.25 3.980469 8.25 8.871094 0 4.894531-3.699219 8.875-8.25 8.875zm0 0"/><path d="m269.847656 367.808594c-15.582031 0-28.261718 12.957031-28.261718 28.882812 0 15.925782 12.679687 28.882813 28.261718 28.882813 15.597656 0 28.289063-12.957031 28.289063-28.882813 0-15.925781-12.691407-28.882812-28.289063-28.882812zm0 37.753906c-4.546875 0-8.25-3.980469-8.25-8.871094s3.703125-8.871094 8.25-8.871094c4.5625 0 8.273438 3.980469 8.273438 8.871094s-3.710938 8.871094-8.273438 8.871094zm0 0"/><path d="m383.792969 312.363281c-15.582031 0-28.257813 12.957031-28.257813 28.882813 0 15.929687 12.675782 28.886718 28.257813 28.886718 15.585937 0 28.261719-12.957031 28.261719-28.886718 0-15.925782-12.675782-28.882813-28.261719-28.882813zm0 37.757813c-4.546875 0-8.246094-3.980469-8.246094-8.875 0-4.890625 3.699219-8.871094 8.246094-8.871094 4.550781 0 8.25 3.980469 8.25 8.871094 0 4.894531-3.699219 8.875-8.25 8.875zm0 0"/><path d="m389.09375 249.296875c15.585938 0 28.261719-12.957031 28.261719-28.882813 0-15.929687-12.675781-28.886718-28.261719-28.886718-15.582031 0-28.257812 12.957031-28.257812 28.886718 0 15.925782 12.675781 28.882813 28.257812 28.882813zm0-37.757813c4.550781 0 8.25 3.980469 8.25 8.875 0 4.890626-3.699219 8.871094-8.25 8.871094-4.546875 0-8.246094-3.980468-8.246094-8.871094 0-4.894531 3.699219-8.875 8.246094-8.875zm0 0"/><path d="m110.800781 265.851562c15.582031 0 28.261719-12.945312 28.261719-28.859374 0-15.925782-12.679688-28.882813-28.261719-28.882813-15.597656 0-28.289062 12.957031-28.289062 28.882813 0 15.914062 12.691406 28.859374 28.289062 28.859374zm0-37.730468c4.546875 0 8.25 3.980468 8.25 8.875 0 4.875-3.703125 8.84375-8.25 8.84375-4.5625 0-8.277343-3.96875-8.277343-8.84375 0-4.894532 3.714843-8.875 8.277343-8.875zm0 0"/><path d="m47.621094 273.789062c.148437.257813.308594.507813.480468.75 2.871094 4.097657 5.417969 7.671876 7.6875 10.851563 16.53125 23.167969 16.53125 23.167969 19.640626 62.972656l.476562 6.082031c-.507812 46.960938 18.679688 70.863282 62.164062 77.476563.289063.046875.585938.078125.882813.09375 5 .3125 9.386719.546875 13.289063.757813 28.417968 1.527343 28.417968 1.527343 61.46875 23.929687l5.027343 3.40625c18.148438 14.792969 34.863281 22.1875 51.0625 22.1875 16.304688 0 32.09375-7.496094 48.285157-22.480469.21875-.199218.425781-.410156.625-.628906 3.367187-3.722656 6.292968-7.011719 8.894531-9.941406 18.90625-21.253906 18.90625-21.253906 57.054687-33.136719l5.765625-1.796875c45.894531-9.949219 64.933594-33.976562 61.714844-77.851562-.023437-.296876-.058594-.59375-.105469-.886719-.808594-4.925781-1.554687-9.242188-2.214844-13.082031-4.84375-28.0625-4.84375-28.0625 9.601563-65.253907l2.21875-5.714843c20.84375-42.101563 13.933594-71.960938-22.367187-96.773438-.242188-.164062-.492188-.320312-.746094-.464844-4.40625-2.472656-8.28125-4.601562-11.726563-6.496094-24.886719-13.6875-24.886719-13.6875-45.007812-48.300781l-2.980469-5.121093c-19.925781-42.539063-47.589844-55.753907-89.648438-42.851563-.28125.085937-.558593.1875-.832031.296875-4.65625 1.894531-8.726562 3.589844-12.339843 5.097656-26.226563 10.933594-26.226563 10.933594-65.800782 5.101563l-5.925781-.871094c-45.660156-10.964844-73.238281 2.417969-89.390625 43.351563-.109375.277343-.203125.558593-.289062.84375-1.417969 4.816406-2.625 9.046874-3.699219 12.808593-7.796875 27.335938-7.796875 27.335938-37 54.605469l-4.417969 4.125c-37.054688 28.878906-43.785156 58.78125-21.847656 96.914062zm34.472656-81.382812c.246094-.1875.480469-.386719.707031-.597656l4.742188-4.429688c32.332031-30.191406 33.527343-31.980468 42.585937-63.742187 1.027344-3.601563 2.179688-7.636719 3.523438-12.207031 12.5625-31.53125 29.96875-39.570313 66.339844-30.730469.304687.074219.609374.132812.914062.175781l6.363281.9375c43.804688 6.453125 45.949219 6.273438 76.417969-6.429688 3.460938-1.441406 7.339844-3.058593 11.765625-4.863281 32.46875-9.84375 49.617187-1.246093 65.410156 32.710938.128907.277343.269531.550781.425781.816406l3.199219 5.503906c22.273438 38.308594 23.75 39.871094 52.667969 55.773438 3.296875 1.8125 6.996094 3.847656 11.183594 6.195312 27.925781 19.222657 31.886718 37.980469 15.179687 71.5-.136719.273438-.261719.558594-.375.847657l-2.378906 6.125c-15.996094 41.179687-16.292969 43.308593-10.667969 75.902343.632813 3.675781 1.34375 7.792969 2.113282 12.46875 2.371093 33.847657-9.824219 48.648438-46.425782 56.480469-.300781.0625-.597656.140625-.890625.230469l-6.183593 1.929687c-42.242188 13.15625-44.09375 14.25-66.058594 38.945313-2.492188 2.796875-5.28125 5.9375-8.480469 9.476562-24.972656 22.957031-44.148437 22.648438-73.105469-1.085937-.238281-.195313-.480468-.378906-.738281-.550782l-5.390625-3.652343c-36.597656-24.804688-38.605469-25.570313-71.621094-27.347657-3.734375-.199218-7.917968-.425781-12.671875-.71875-33.515625-5.210937-45.230469-20.390624-44.722656-57.820312.003906-.308594-.007813-.613281-.03125-.921875l-.511719-6.519531c-3.4375-44.078125-4.09375-46.125-23.296875-73.042969-2.171875-3.042969-4.601562-6.449219-7.332031-10.339844-16.824219-29.460937-12.253906-48.082031 17.34375-71.019531zm0 0"/><path d="m182.65625 255.984375c0 41.625 32.894531 75.484375 73.328125 75.484375 40.4375 0 73.332031-33.863281 73.332031-75.484375s-32.898437-75.480469-73.332031-75.480469-73.328125 33.859375-73.328125 75.480469zm73.328125-55.46875c29.402344 0 53.320313 24.882813 53.320313 55.46875 0 30.589844-23.917969 55.472656-53.320313 55.472656-29.398437 0-53.316406-24.882812-53.316406-55.472656 0-30.585937 23.917969-55.46875 53.316406-55.46875zm0 0"/><path d="m155.699219 295.5c2.5625 0 5.121093-.976562 7.078125-2.929688l.140625-.144531c3.90625-3.90625 3.90625-10.242187 0-14.148437-3.90625-3.910156-10.242188-3.910156-14.152344 0l-.140625.140625c-3.90625 3.90625-3.90625 10.242187 0 14.152343 1.953125 1.953126 4.515625 2.929688 7.074219 2.929688zm0 0"/><path d="m177.527344 187.816406c-4.320313-3.445312-10.617188-2.738281-14.0625 1.585938l-.113282.140625c-3.445312 4.320312-2.734374 10.617187 1.585938 14.0625 1.84375 1.46875 4.046875 2.183593 6.234375 2.183593 2.9375 0 5.851563-1.292968 7.828125-3.769531l.113281-.140625c3.445313-4.324218 2.734375-10.617187-1.585937-14.0625zm0 0"/><path d="m357.886719 286.230469c2.554687 0 5.109375-.972657 7.0625-2.917969l.144531-.140625c3.914062-3.902344 3.921875-10.238281.023438-14.152344-3.902344-3.914062-10.238282-3.925781-14.152344-.023437l-.140625.140625c-3.914063 3.902343-3.925781 10.238281-.023438 14.152343 1.953125 1.960938 4.519531 2.941407 7.085938 2.941407zm0 0"/><path d="m322.425781 175.109375-.140625.144531c-3.902344 3.914063-3.890625 10.25.023438 14.148438 1.953125 1.949218 4.507812 2.917968 7.0625 2.917968 2.566406 0 5.132812-.980468 7.089844-2.941406l.140624-.140625c3.902344-3.914062 3.890626-10.25-.023437-14.152343-3.914063-3.898438-10.25-3.890626-14.152344.023437zm0 0"/><path d="m308.464844 334.171875-.144532.144531c-3.90625 3.90625-3.90625 10.242188 0 14.148438 1.957032 1.957031 4.515626 2.933594 7.078126 2.933594s5.121093-.976563 7.074218-2.933594l.144532-.140625c3.90625-3.910157 3.90625-10.242188 0-14.152344-3.910157-3.90625-10.246094-3.90625-14.152344 0zm0 0"/><path d="m212.117188 345-.140626.144531c-3.910156 3.90625-3.910156 10.242188 0 14.148438 1.953126 1.953125 4.515626 2.933593 7.074219 2.933593 2.5625 0 5.121094-.980468 7.078125-2.933593l.140625-.140625c3.910157-3.910156 3.910157-10.242188 0-14.152344-3.910156-3.90625-10.242187-3.90625-14.152343 0zm0 0"/><path d="m243.144531 162.105469c2.5625 0 5.121094-.976563 7.078125-2.929688l.113282-.113281c3.90625-3.90625 3.90625-10.242188 0-14.152344-3.910157-3.90625-10.246094-3.90625-14.152344 0l-.113282.113282c-3.910156 3.910156-3.910156 10.246093 0 14.152343 1.953126 1.953125 4.515626 2.929688 7.074219 2.929688zm0 0"/><path d="m69.558594 105.472656c2.5625 0 5.121094-.976562 7.078125-2.929687l.140625-.144531c3.90625-3.90625 3.90625-10.242188 0-14.148438-3.910156-3.90625-10.242188-3.90625-14.152344 0l-.140625.140625c-3.910156 3.910156-3.910156 10.242187 0 14.152344 1.953125 1.953125 4.511719 2.929687 7.074219 2.929687zm0 0"/></svg>