<svg height="512pt" viewBox="0 -38 512 512" width="512pt" xmlns="http://www.w3.org/2000/svg"><g fill-rule="evenodd"><path d="m367.039062 51.921875h-314.285156v296.210937h314.285156zm0 0" fill="#f9fceb"/><path d="m470.214844 10.011719h-428.429688c-17.488281 0-31.773437 14.300781-31.773437 31.808593v318.03125c0 17.476563 14.285156 31.808594 31.773437 31.808594h428.429688c17.460937 0 31.773437-14.328125 31.773437-31.808594v-318.03125c0-17.507812-14.3125-31.808593-31.773437-31.808593zm-103.175782 41.910156v296.210937h-314.285156v-296.210937zm62.445313 239.742187c15.558594 0 28.203125 12.625 28.203125 28.234376 0 15.578124-12.644531 28.230468-28.203125 28.230468-15.589844 0-28.203125-12.652344-28.203125-28.230468 0-15.609376 12.613281-28.234376 28.203125-28.234376zm0 0" fill="#cbe558"/><path d="m429.484375 291.664062c-15.589844 0-28.203125 12.625-28.203125 28.234376 0 15.578124 12.613281 28.230468 28.203125 28.230468 15.558594 0 28.203125-12.652344 28.203125-28.230468 0-15.609376-12.644531-28.234376-28.203125-28.234376zm0 0" fill="#ff6977"/><path d="m124.070312 391.65625h-72.308593v24.320312c0 5.503907 4.507812 10.015626 10.007812 10.015626h52.296875c5.496094 0 10.003906-4.511719 10.003906-10.015626zm0 0" fill="#c68a65"/><path d="m387.929688 391.65625v24.320312c0 5.503907 4.476562 10.015626 9.976562 10.015626h52.296875c5.5 0 10.007813-4.511719 10.007813-10.015626v-24.320312zm0 0" fill="#c68a65"/></g><path d="m470.214844 0h-428.429688c-23.039062 0-41.785156 18.761719-41.785156 41.820312v318.03125c0 23.046876 18.726562 41.796876 41.753906 41.816407v14.308593c0 11.042969 8.976563 20.027344 20.015625 20.027344h52.292969c11.039062 0 20.019531-8.984375 20.019531-20.027344v-14.304687h81.796875c5.527344 0 10.011719-4.484375 10.011719-10.011719 0-5.53125-4.484375-10.011718-10.011719-10.011718h-174.09375c-12 0-21.761718-9.777344-21.761718-21.796876v-318.03125c0-12.019531 9.761718-21.796874 21.761718-21.796874h428.429688c12 0 21.761718 9.777343 21.761718 21.796874v318.03125c0 12.015626-9.761718 21.796876-21.761718 21.796876h-174.488282c-5.53125 0-10.011718 4.480468-10.011718 10.007812 0 5.53125 4.480468 10.011719 10.011718 10.011719h82.191407v14.308593c0 11.042969 8.96875 20.027344 19.988281 20.027344h52.296875c11.039063 0 20.015625-8.984375 20.015625-20.027344v-14.308593c23.039062-.003907 41.78125-18.761719 41.78125-41.820313v-318.027344c0-23.058593-18.746094-41.820312-41.785156-41.820312zm-356.152344 415.980469-52.289062-.003907v-14.304687h52.289062zm283.878906-.003907v-14.304687h52.257813l.003906 14.308594zm0 0"/><path d="m377.050781 348.132812v-296.210937c0-5.527344-4.480469-10.011719-10.011719-10.011719h-314.285156c-5.527344 0-10.011718 4.484375-10.011718 10.011719v296.210937c0 .097657.015624.191407.015624.292969.007813.222657.011719.445313.035157.667969.015625.152344.042969.300781.0625.453125.023437.171875.046875.34375.078125.515625.035156.164062.078125.324219.117187.488281.039063.152344.074219.308594.121094.460938.046875.160156.105469.316406.160156.472656.054688.152344.105469.304687.164063.453125.0625.148438.132812.289062.199218.433594.074219.152344.140626.304687.21875.457031.074219.136719.160157.269531.238282.40625.085937.144531.171875.292969.265625.433594s.199219.277343.300781.414062c.09375.125.179688.253907.277344.371094.140625.171875.289062.328125.4375.488281.070312.078125.132812.15625.207031.230469.003906.007813.011719.011719.019531.019531.230469.234375.476563.457032.730469.667969.101563.082031.210937.15625.316406.234375.15625.121094.308594.242188.472657.351562.144531.09375.292968.179688.4375.265626.136718.078124.265624.167968.40625.238281.148437.082031.300781.148437.453124.222656.144532.066406.289063.140625.433594.199219.148438.0625.296875.109375.441406.164062.164063.058594.324219.121094.488282.167969.144531.046875.292968.078125.4375.113281.171875.042969.339844.09375.515625.128906.167969.03125.339843.050782.511719.078126.152343.019531.304687.050781.460937.066406.324219.03125.652344.046875.980469.050781h.011718 314.28125c5.53125 0 10.011719-4.480469 10.011719-10.007813zm-20.023437-10.011718h-279.925782l115.375-114.195313c3.929688-3.890625 3.964844-10.226562.074219-14.15625-3.890625-3.929687-10.226562-3.964843-14.15625-.074219l-115.628906 114.441407v-52.472657l63.359375-62.722656c3.929688-3.886718 3.960938-10.226562.070312-14.15625-3.890624-3.929687-10.226562-3.960937-14.160156-.070312l-49.269531 48.773437v-181.554687h294.261719zm0 0"/><path d="m413.410156 80.035156h29.367188c5.527344 0 10.011718-4.480468 10.011718-10.011718 0-5.527344-4.484374-10.007813-10.011718-10.007813h-29.367188c-5.527344 0-10.007812 4.480469-10.007812 10.007813 0 5.53125 4.480468 10.011718 10.007812 10.011718zm0 0"/><path d="m413.410156 123.136719h29.367188c5.527344 0 10.011718-4.480469 10.011718-10.007813 0-5.53125-4.484374-10.011718-10.011718-10.011718h-29.367188c-5.527344 0-10.007812 4.480468-10.007812 10.011718-.003906 5.527344 4.480468 10.007813 10.007812 10.007813zm0 0"/><path d="m413.410156 166.210938h29.367188c5.527344 0 10.011718-4.480469 10.011718-10.011719 0-5.527344-4.484374-10.007813-10.011718-10.007813h-29.367188c-5.527344 0-10.007812 4.480469-10.007812 10.007813-.003906 5.53125 4.480468 10.011719 10.007812 10.011719zm0 0"/><path d="m413.410156 209.3125h29.367188c5.527344 0 10.011718-4.480469 10.011718-10.007812 0-5.53125-4.484374-10.011719-10.011718-10.011719h-29.367188c-5.527344 0-10.007812 4.480469-10.007812 10.011719-.003906 5.527343 4.480468 10.007812 10.007812 10.007812zm0 0"/><path d="m413.410156 252.414062h29.367188c5.527344 0 10.011718-4.480468 10.011718-10.007812 0-5.53125-4.484374-10.011719-10.011718-10.011719h-29.367188c-5.527344 0-10.007812 4.480469-10.007812 10.011719-.003906 5.527344 4.480468 10.007812 10.007812 10.007812zm0 0"/><path d="m391.269531 319.898438c0 21.085937 17.140625 38.242187 38.214844 38.242187 21.070313 0 38.210937-17.15625 38.210937-38.242187 0-21.089844-17.140624-38.246094-38.210937-38.246094-21.074219 0-38.214844 17.15625-38.214844 38.246094zm38.214844-18.222657c10.03125 0 18.191406 8.171875 18.191406 18.222657 0 10.046874-8.160156 18.21875-18.191406 18.21875s-18.195313-8.171876-18.195313-18.21875c.003907-10.046876 8.164063-18.222657 18.195313-18.222657zm0 0"/><path d="m213.675781 198.558594c2.191407 0 4.398438-.714844 6.246094-2.191406l.140625-.113282c4.320312-3.453125 5.019531-9.753906 1.566406-14.074218-3.457031-4.316407-9.757812-5.015626-14.074218-1.5625l-.140626.113281c-4.316406 3.453125-5.019531 9.753906-1.5625 14.074219 1.976563 2.46875 4.886719 3.753906 7.824219 3.753906zm0 0"/><path d="m255.984375 381.648438h-.167969c-5.53125 0-10.011718 4.480468-10.011718 10.007812 0 5.53125 4.480468 10.011719 10.011718 10.011719h.167969c5.53125 0 10.011719-4.480469 10.011719-10.011719 0-5.527344-4.480469-10.007812-10.011719-10.007812zm0 0"/></svg>