<svg height="512pt" viewBox="-40 0 512 512" width="512pt" xmlns="http://www.w3.org/2000/svg"><g fill-rule="evenodd"><path d="m355.621094 157.410156h-188.046875v-35.269531c0-19.414063 15.871093-35.296875 35.269531-35.296875h152.777344zm38.457031-115.96875h-291.304687c-51 0-92.726563 41.730469-92.726563 92.769532v140.816406c0 15.34375 12.542969 27.871094 27.847656 27.871094h356.183594c15.332031 0 27.878906-12.554688 27.878906-27.871094v-205.71875c-.003906-15.339844-12.546875-27.867188-27.878906-27.867188zm0 0" fill="#cbe558"/><path d="m149.195312 10.046875h-39.992187c-3.527344 0-6.429687 2.902344-6.429687 6.460937v24.933594h52.878906v-24.933594c0-3.558593-2.929688-6.460937-6.457032-6.460937zm0 0" fill="#ff6977"/><path d="m119.925781 302.898438h-82.035156v31.59375c0 4.5 3.699219 8.171874 8.195313 8.171874h65.648437c4.492187 0 8.191406-3.671874 8.191406-8.171874zm0 0" fill="#f0f7cd"/><path d="m192.175781 302.898438h-72.25v31.59375c0 4.5-3.695312 8.171874-8.191406 8.171874h72.28125c4.492187 0 8.164063-3.671874 8.164063-8.171874v-31.59375zm0 0" fill="#e2f1a1"/></g><path d="m365.667969 157.410156v-70.566406c0-5.546875-4.496094-10.042969-10.046875-10.042969h-152.777344c-24.988281 0-45.316406 20.339844-45.316406 45.339844v35.269531c0 5.546875 4.496094 10.042969 10.046875 10.042969h188.046875c5.550781 0 10.046875-4.496094 10.046875-10.042969zm-20.089844-10.046875h-167.960937v-25.222656c0-13.921875 11.316406-25.25 25.226562-25.25h142.734375zm0 0"/><path d="m394.078125 31.398438h-228.378906v-14.890626c0-9.101562-7.402344-16.507812-16.503907-16.507812h-39.992187c-9.082031 0-16.472656 7.40625-16.472656 16.507812v15.382813c-51.972657 5.066406-92.730469 49.019531-92.730469 102.320313v140.816406c0 17.425781 11.816406 32.132812 27.847656 36.550781v22.914063c0 10.042968 8.179688 18.214843 18.238282 18.214843h22.777343v37.933594c-19.894531 4.578125-34.785156 22.429687-34.785156 43.707031v32.792969c0 24.734375 20.109375 44.859375 44.832031 44.859375 14.023438 0 26.5625-6.480469 34.789063-16.601562 8.226562 10.121093 20.761719 16.601562 34.785156 16.601562 24.722656 0 44.835937-20.121094 44.835937-44.859375v-32.789063c0-21.28125-14.890624-39.132812-34.789062-43.710937v-37.933594h25.484375c10.039063 0 18.207031-8.171875 18.207031-18.214843v-21.550782h69.203125c5.546875 0 10.042969-4.496094 10.042969-10.042968 0-5.550782-4.496094-10.046876-10.042969-10.046876h-233.535156c-9.816406 0-17.800781-7.996093-17.800781-17.820312v-12.074219h73.894531c5.546875 0 10.046875-4.496093 10.046875-10.046875 0-5.546875-4.5-10.042968-10.046875-10.042968h-73.894531v-15.207032h73.894531c5.546875 0 10.046875-4.496094 10.046875-10.046875 0-5.546875-4.5-10.042969-10.046875-10.042969h-73.894531v-15.207031h73.894531c5.546875 0 10.046875-4.496093 10.046875-10.046875 0-5.546875-4.5-10.042968-10.046875-10.042968h-73.894531v-38.0625c0-45.613282 37.09375-82.722657 82.683594-82.722657h291.304687c9.832031 0 17.832031 7.996094 17.832031 17.824219v205.71875c0 9.824219-8 17.820312-17.832031 17.820312h-46.789063c-5.550781 0-10.046874 4.496094-10.046874 10.046876 0 5.546874 4.496093 10.042968 10.046874 10.042968h46.789063c20.910156 0 37.921875-17.007812 37.921875-37.910156v-205.722656c0-20.902344-17.011719-37.910156-37.921875-37.910156zm-346.140625 281.542968h61.945312v19.675782h-61.945312zm6.226562 154.199219v-32.789063c0-10.078124 6.050782-18.765624 14.699219-22.628906v78.046875c-8.648437-3.863281-14.699219-12.550781-14.699219-22.628906zm34.789063 22.628906v-78.046875c8.652344 3.863282 14.699219 12.550782 14.699219 22.628906v32.789063c0 10.078125-6.046875 18.765625-14.699219 22.628906zm34.789063-22.628906v-32.789063c0-10.078124 6.046874-18.765624 14.699218-22.628906v78.046875c-8.652344-3.863281-14.699218-12.550781-14.699218-22.628906zm49.488281-32.789063v32.789063c0 10.078125-6.050781 18.765625-14.699219 22.628906v-78.046875c8.648438 3.863282 14.699219 12.546875 14.699219 22.628906zm-34.789063-43.710937c-9.890625 2.273437-18.542968 7.824219-24.742187 15.453125-6.203125-7.628906-14.855469-13.179688-24.746094-15.453125v-37.933594h49.488281zm43.691406-58.023437h-52.160156v-19.675782h52.160156zm-36.523437-312.527344v11.308594h-32.789063v-11.308594zm0 0"/><path d="m311.703125 292.851562h-.199219c-5.546875 0-10.042968 4.496094-10.042968 10.046876 0 5.546874 4.496093 10.042968 10.042968 10.042968h.199219c5.546875 0 10.042969-4.496094 10.042969-10.042968 0-5.550782-4.496094-10.046876-10.042969-10.046876zm0 0"/></svg>