<svg height="512pt" viewBox="0 -25 512 512" width="512pt" xmlns="http://www.w3.org/2000/svg"><g fill-rule="evenodd"><path d="m430.960938 383.402344h-420.957032c0 37.742187 30.867188 68.597656 68.597656 68.597656h354.769532c37.757812 0 68.625-30.855469 68.625-68.597656zm0 0" fill="#f8a2aa"/><path d="m405.761719 121.363281h-294.707031c-45.269532 0-79.707032 36.238281-79.707032 74.066407v25.332031c0 50.007812 49.292969 41.679687 49.292969 11.585937-.140625-7.394531-.027344-15.523437-.167969-22.921875-1.078125-30.148437 58.757813-35.925781 59.609375 4.136719l.027344 33.011719c0 11.21875 10.914063 20.203125 23.695313 20.003906 12.785156-.226563 22.820312-9.550781 22.820312-20.769531v-50.746094c0-29.554688 48.953125-28.195312 48.953125-.171875v68.683594c0 11.191406 10.03125 20.542969 22.816406 20.742187 12.8125-.199218 22.820313-9.550781 22.820313-20.742187v-68.683594c0-28.023437 48.949218-29.382813 48.949218.171875v50.746094c0 11.222656 10.035157 20.542968 22.847657 20.769531 12.785156.199219 23.699219-8.785156 23.699219-20.003906v-33.011719c.878906-40.0625 60.714843-34.285156 59.636718-4.136719-.167968 7.394531-.027344 15.527344-.199218 22.921875 0 30.09375 49.324218 38.421875 49.324218-11.585937v-25.332031c-.003906-37.828126-34.46875-74.066407-79.710937-74.066407zm-146.574219 162.953125c-.253906 0-.539062 0-.792969 0zm-1.558594 0h.765625zm0 0" fill="#c68a65"/><path d="m140.082031 213.5625c-.851562-40.0625-60.6875-34.285156-59.609375-4.136719.140625 7.394531.027344 15.527344.167969 22.921875 0 3.96875-.851563 7.566406-2.324219 10.683594.878906-.085938 1.785156-.113281 2.695313-.113281h59.097656zm0 0" fill="#ffc15a"/><path d="m235.578125 194.890625c0-28.023437-48.953125-29.382813-48.953125.171875v47.855469h48.953125zm0 0" fill="#ffc15a"/><path d="m330.164062 195.0625c0-29.554688-48.949218-28.195312-48.949218-.171875v48.027344h48.949218zm0 0" fill="#ffc15a"/><path d="m436.347656 209.425781c1.078125-30.144531-58.757812-35.925781-59.636718 4.140625v29.351563h54.25c2.722656 0 5.386718.3125 7.9375.910156-1.726563-3.289063-2.75-7.171875-2.75-11.476563.171874-7.398437.03125-15.527343.199218-22.925781zm0 0" fill="#ffc15a"/><path d="m430.960938 242.917969h-54.25v3.65625c0 11.21875-10.914063 20.203125-23.699219 20.003906-12.8125-.226563-22.847657-9.550781-22.847657-20.769531v-2.890625h-48.949218v20.65625c0 11.191406-10.007813 20.542969-22.820313 20.742187-12.785156-.199218-22.816406-9.550781-22.816406-20.742187v-20.65625h-48.953125v2.890625c0 11.222656-10.035156 20.542968-22.820312 20.769531-12.78125.199219-23.695313-8.785156-23.695313-20.003906v-3.65625h-59.101563c-.90625 0-1.8125.027343-2.691406.113281-4.5625 9.550781-14.996094 14.792969-24.886718 13.316406-4.707032 5.980469-7.539063 13.542969-7.539063 21.703125 0 19.324219 15.816406 35.109375 35.117187 35.109375h349.953126c19.332031 0 35.148437-15.78125 35.148437-35.109375 0-8.074219-2.777344-15.523437-7.398437-21.476562-8.078126-.480469-15.84375-5.15625-19.8125-12.75-2.550782-.59375-5.214844-.90625-7.9375-.90625zm0 0" fill="#ffcb7c"/><path d="m430.960938 313.160156h-349.949219c-19.304688 0-35.121094 15.8125-35.121094 35.136719s15.816406 35.105469 35.121094 35.105469h349.953125c19.332031 0 35.144531-15.78125 35.144531-35.105469s-15.816406-35.136719-35.148437-35.136719zm0 0" fill="#ffc15a"/><path d="m299.4375 98.128906c0-24.566406-19.925781-44.457031-44.5-44.457031s-44.472656 19.890625-44.472656 44.457031c0 8.527344 2.378906 16.460938 6.546875 23.234375h75.878906c4.140625-6.773437 6.546875-14.707031 6.546875-23.234375zm0 0" fill="#ff6977"/></g><path d="m501.996094 373.398438h-33.535156c4.828124-7.183594 7.652343-15.820313 7.652343-25.101563 0-14.183594-6.582031-26.851563-16.84375-35.132813 10.261719-8.277343 16.84375-20.9375 16.84375-35.109374 0-4.921876-.828125-9.808594-2.40625-14.453126 4.332031-2.027343 8.230469-5.050781 11.476563-8.96875 6.828125-8.242187 10.289062-19.636718 10.289062-33.871093v-25.332031c0-21.195313-9.453125-42.484376-25.941406-58.414063-17.125-16.546875-39.773438-25.65625-63.769531-25.65625h-97.953125c1.078125-4.308594 1.632812-8.75 1.632812-13.230469 0-27.742187-20.867187-50.6875-47.738281-54.027344-2.230469-6.660156-2.925781-16.046874 2.585937-30.539062 1.960938-5.164062-.632812-10.941406-5.796874-12.90625-5.164063-1.964844-10.945313.632812-12.90625 5.796875-5.519532 14.519531-6.929688 27.183594-4.253907 38.933594-23.476562 6.054687-40.875 27.40625-40.875 52.742187 0 4.488282.554688 8.929688 1.628907 13.230469h-91.03125c-24.007813 0-46.660157 9.109375-63.78125 25.65625-16.480469 15.925781-25.929688 37.214844-25.929688 58.414063v25.332031c0 14.230469 3.460938 25.628906 10.285156 33.871093 2.214844 2.671876 4.734375 4.921876 7.484375 6.730469-2.109375 5.292969-3.230469 10.964844-3.230469 16.691407 0 14.171874 6.578126 26.832031 16.835938 35.109374-10.257812 8.28125-16.835938 20.949219-16.835938 35.132813 0 9.28125 2.820313 17.917969 7.652344 25.101563h-33.53125c-5.523437 0-10.003906 4.476562-10.003906 10.003906 0 43.339844 35.261719 78.601562 78.601562 78.601562h354.769532c43.355468 0 78.628906-35.261718 78.628906-78.601562 0-5.527344-4.480469-10.003906-10.003906-10.003906zm-281.527344-275.269532c0-18.992187 15.453125-34.445312 34.453125-34.453125.007813 0 .015625.003907.023437.003907.007813 0 .015626-.003907.019532-.003907 19.011718.019531 34.46875 15.464844 34.46875 34.453125 0 4.554688-.902344 9.046875-2.640625 13.230469h-63.695313c-1.730468-4.160156-2.628906-8.652344-2.628906-13.230469zm-179.117188 97.300782c0-30.9375 28.007813-64.0625 69.703126-64.0625h294.707031c41.695312 0 69.703125 33.125 69.703125 64.0625v25.332031c0 9.316406-1.96875 16.613281-5.691406 21.109375-3.238282 3.910156-7.074219 4.730468-9.71875 4.730468-.304688 0-.609376-.023437-.914063-.042968-.066406-.003906-.128906-.007813-.199219-.011719-6.4375-.539063-12.738281-5.71875-12.789062-14.097656.085937-3.765625.09375-7.71875.101562-11.542969.007813-3.746094.011719-7.621094.09375-11.195312.382813-11.390626-5.320312-21.589844-15.652344-27.992188-13.269531-8.222656-31.265624-8.820312-44.78125-1.488281-12.058593 6.542969-18.882812 18.300781-19.207031 33.113281 0 .074219-.003906.144531-.003906.21875v33.011719c0 2.683593-1.496094 4.722656-2.75 5.960937-2.636719 2.59375-6.671875 4.117188-10.765625 4.039063-7.175781-.128907-13.015625-4.957031-13.015625-10.765625v-50.75c0-9.78125-4.007813-18.355469-11.28125-24.148438-6.101563-4.859375-14.207031-7.53125-22.820313-7.53125-16.898437 0-34.859374 11.042969-34.859374 31.511719v68.683594c0 5.765625-5.734376 10.554687-12.816407 10.734375-7.078125-.179688-12.8125-4.96875-12.8125-10.734375v-68.683594c0-20.46875-17.960937-31.511719-34.859375-31.511719-8.617187 0-16.722656 2.671875-22.824218 7.53125-7.273438 5.792969-11.277344 14.367188-11.277344 24.148438v50.75c0 10.164062-11.964844 10.460937-13.328125 10.460937-.539063 0-13.179688-.109375-13.179688-9.703125l-.003906-3.589844c0-.019531.003906-.039062.003906-.058593 0-.023438-.003906-.042969-.003906-.0625l-.023437-29.300781c0-.070313 0-.136719 0-.207032-.316407-14.804687-7.125-26.566406-19.179688-33.113281-13.507812-7.335937-31.5-6.742187-44.773438 1.480469-10.332031 6.394531-16.035156 16.585937-15.660156 27.972656.066406 3.59375.074219 7.46875.082032 11.21875.003906 3.820312.011718 7.773438.082031 11.527344-.042969 8.867187-7.082031 14.167968-13.886719 14.167968-.476562 0-.996094-.027343-1.542969-.097656-.121093-.019531-.242187-.035156-.363281-.050781-2.398438-.367187-5.28125-1.535156-7.804688-4.582031-3.71875-4.496094-5.6875-11.792969-5.6875-21.113282zm384.996094 13.765624c-.089844 3.804688-.097656 7.804688-.105468 11.675782-.003907 3.765625-.011719 7.65625-.09375 11.25-.003907.074218-.003907.152344-.003907.226562 0 .191406.011719.378906.015625.566406h-39.449218v-19.234374c.191406-7.480469 3.132812-12.816407 8.742187-15.863282 7.0625-3.828125 17.683594-3.4375 24.703125.910156 4.261719 2.640626 6.34375 6.121094 6.195312 10.34375-.003906.042969-.003906.085938-.003906.125zm-135.128906 23.71875v-38.023437c0-9.082031 9.335938-11.503906 14.851562-11.503906 4.046876 0 7.820313 1.160156 10.355469 3.179687 2.515625 2 3.734375 4.777344 3.734375 8.496094v37.851562zm-65.644531 0h-28.945313v-37.851562c0-11.113281 11.738282-11.675781 14.09375-11.675781 4.195313 0 8.183594 1.226562 10.945313 3.359375 2.628906 2.027344 3.90625 4.695312 3.90625 8.144531zm-134.929688-.757812c-.070312-3.609375-.078125-7.511719-.085937-11.285156-.003906-3.859375-.011719-7.851563-.085938-11.636719 0-.054687 0-.109375-.003906-.164063-.152344-4.226562 1.933594-7.703124 6.195312-10.34375 7.023438-4.351562 17.636719-4.738281 24.691407-.90625 5.605469 3.042969 8.539062 8.378907 8.722656 15.859376l.015625 19.234374h-39.460938c0-.1875.011719-.375.011719-.566406 0-.0625 0-.125 0-.191406zm-34.75 116.140625c0-13.859375 11.265625-25.132813 25.117188-25.132813h135.035156c5.527344 0 10.003906-4.480468 10.003906-10.003906 0-5.523437-4.476562-10.003906-10.003906-10.003906h-135.039063c-13.847656 0-25.113281-11.261719-25.113281-25.101562 0-4.066407.976563-7.972657 2.824219-11.515626 9.410156-.597656 18.984375-5.457031 25.164062-13.617187h46.898438c1.414062 6.515625 5.023438 12.191406 10.523438 16.359375 5.949218 4.511719 13.757812 6.996094 21.988281 6.996094 14.476562 0 29.105469-7.992188 32.566406-23.355469h29.710937v10.652344c0 16.671875 14.65625 30.464843 32.667969 30.746093h.15625.15625c18.011719-.28125 32.667969-14.070312 32.667969-30.746093v-10.652344h29.824219c3.371093 13.457031 16.128906 23.382813 31.8125 23.660156 9.546875.144531 18.667969-3.421875 25.132812-9.789062 4.011719-3.949219 6.730469-8.734375 7.964844-13.871094h45.011719c.671875 0 1.34375.039063 2.011718.089844 5.035157 6.601562 12.292969 11.023437 19.878907 12.761719 2.128906 3.746093 3.25 7.925781 3.25 12.28125 0 13.839843-11.277344 25.101562-25.140625 25.101562h-135.039063c-5.527343 0-10.003906 4.480469-10.003906 10.003906 0 5.523438 4.476563 10.003906 10.003906 10.003906h135.039063c13.863281 0 25.140625 11.273438 25.140625 25.132813 0 13.839844-11.277344 25.101563-25.140625 25.101563h-349.957032c-13.847656 0-25.113281-11.261719-25.113281-25.101563zm377.476563 93.699219h-354.769532c-28.898437 0-52.980468-21.03125-57.738281-48.589844h470.273438c-4.761719 27.558594-28.851563 48.589844-57.765625 48.589844zm0 0"/><path d="m256.183594 303.15625h-.199219c-5.523437 0-10.003906 4.476562-10.003906 10.003906 0 5.523438 4.480469 10.003906 10.003906 10.003906h.199219c5.527344 0 10.003906-4.480468 10.003906-10.003906 0-5.527344-4.476562-10.003906-10.003906-10.003906zm0 0"/></svg>