<svg height="512pt" viewBox="-76 0 512 512.002" width="512pt" xmlns="http://www.w3.org/2000/svg"><g fill-rule="evenodd"><path d="m91.984375 173.984375c-43.46875-.257813-81.523437 36.847656-81.980469 82 0 11.085937 2.210938 21.6875 6.261719 31.324219 13.800781 13.804687 44.859375 6.292968 44.460937-18.992188l-.339843-22.222656c-.480469-31.773438 46.273437-31.804688 46.757812 0l.167969 12.527344c.171875 12.019531 11.675781 21.65625 25.390625 21.429687 13.6875-.226562 24.683594-10.230469 24.425781-22.25l-.28125-12.726562c-1.078125-29.820313 57.410156-35.546875 58.261719 4.109375v16.414062c0 11.082032 10.398437 19.980469 23.066406 19.785156 12.636719-.199218 22.554688-9.46875 22.554688-20.550781v-8.871093c0-27.722657 48.398437-29.054688 48.398437.195312v25.085938c0 11.082031 9.890625 20.324218 22.554688 20.550781 1.132812 0 2.269531-.058594 3.375-.171875 8.78125-13.066406 13.941406-28.769532 13.941406-45.632813 0-45.097656-36.867188-82.003906-81.949219-82.003906zm0 0" fill="#ff6977"/><path d="m91.984375 10.007812c-43.46875-.257812-81.527344 36.816407-81.980469 82 0 11.085938 2.210938 21.65625 6.261719 31.324219 13.800781 13.773438 44.859375 6.261719 44.460937-19.019531l-.339843-22.195312c-.480469-31.804688 46.273437-31.804688 46.757812 0l.167969 12.527343c.171875 11.992188 11.675781 21.628907 25.390625 21.402344 13.6875-.226563 24.683594-10.234375 24.425781-22.222656l-.28125-12.753907c-1.078125-29.792968 57.410156-35.546874 58.261719 4.109376v16.4375c0 11.085937 10.398437 19.984374 23.066406 19.757812 12.636719-.195312 22.554688-9.4375 22.554688-20.519531v-8.875c0-27.722657 48.398437-29.082031 48.398437.167969v25.117187c0 11.082031 9.890625 20.324219 22.554688 20.519531 1.132812.027344 2.269531-.027344 3.375-.167968 8.78125-13.039063 13.941406-28.773438 13.941406-45.609376 0-45.097656-36.867188-82.003906-81.949219-82.003906h-175.066406zm0 0" fill="#ffe6c0"/><path d="m215.105469 85.175781c-.847657-39.652343-59.335938-33.898437-58.257813-4.109375l.28125 12.753906c.253906 11.992188-10.738281 21.996094-24.425781 22.226563-13.714844.226563-25.21875-9.414063-25.390625-21.402344l-.167969-12.53125c-.484375-31.800781-47.238281-31.800781-46.757812 0l.339843 22.195313c.398438 25.285156-30.660156 32.796875-44.460937 19.019531 12.355469 29.679687 41.683594 50.652344 75.714844 50.652344h175.066406c28.222656 0 53.246094-14.453125 68.007813-36.367188-1.105469.144531-2.238282.199219-3.371094.171875-12.667969-.199218-22.554688-9.4375-22.554688-20.523437v-25.113281c0-29.25-48.402344-27.890626-48.402344-.167969v8.871093c0 11.082032-9.917968 20.324219-22.554687 20.523438-12.667969.226562-23.066406-8.675781-23.066406-19.757812zm0 0" fill="#ffc15a"/><path d="m91.984375 337.988281c-43.46875-.253906-81.523437 36.820313-81.980469 82.003907 0 11.082031 2.210938 21.65625 6.261719 31.320312 13.800781 13.777344 44.859375 6.265625 44.460937-19.019531l-.339843-22.191407c-.480469-31.804687 46.273437-31.804687 46.757812 0l.167969 12.527344c.171875 12.019532 11.675781 21.65625 25.390625 21.429688 13.6875-.226563 24.683594-10.261719 24.425781-22.25l-.28125-12.757813c-1.078125-29.789062 57.410156-35.515625 58.261719 4.140625v16.410156c0 11.082032 10.398437 19.984376 23.066406 19.757813 12.636719-.199219 22.554688-9.4375 22.554688-20.523437v-8.871094c0-27.722656 48.398437-29.082032 48.398437.171875v25.113281c0 11.082031 9.890625 20.324219 22.554688 20.519531 1.132812.03125 2.269531-.027343 3.375-.140625 8.78125-13.066406 13.941406-28.800781 13.941406-45.636718 0-45.097657-36.867188-82.003907-81.949219-82.003907zm0 0" fill="#c68a65"/><path d="m215.105469 413.1875c-.847657-39.652344-59.335938-33.925781-58.257813-4.136719l.28125 12.753907c.253906 11.992187-10.738281 22.023437-24.425781 22.253906-13.714844.226562-25.21875-9.414063-25.390625-21.429688l-.167969-12.53125c-.484375-31.800781-47.238281-31.800781-46.757812 0l.339843 22.195313c.398438 25.285156-30.660156 32.796875-44.460937 19.019531 12.355469 29.679688 41.683594 50.679688 75.714844 50.679688h175.066406c28.222656 0 53.246094-14.480469 68.007813-36.363282-1.105469.109375-2.238282.167969-3.371094.140625-12.667969-.199219-22.554688-9.441406-22.554688-20.523437v-25.113282c0-29.25-48.402344-27.890624-48.402344-.167968v8.871094c0 11.082031-9.917968 20.324218-22.554687 20.519531-12.667969.230469-23.066406-8.671875-23.066406-19.753907zm0 0" fill="#ffc15a"/><path d="m215.105469 249.183594c-.847657-39.65625-59.335938-33.929688-58.257813-4.109375l.28125 12.726562c.253906 12.015625-10.738281 22.023438-24.425781 22.25-13.714844.226563-25.21875-9.410156-25.390625-21.429687l-.167969-12.527344c-.484375-31.804688-47.238281-31.777344-46.757812 0l.339843 22.222656c.398438 25.285156-30.660156 32.796875-44.460937 18.992188 12.355469 29.675781 41.683594 50.679687 75.714844 50.679687h175.066406c28.222656 0 53.246094-14.484375 68.007813-36.367187-1.105469.113281-2.238282.167968-3.371094.167968-12.667969-.226562-22.554688-9.464843-22.554688-20.546874v-25.085938c0-29.253906-48.402344-27.921875-48.402344-.199219v8.871094c0 11.082031-9.917968 20.351563-22.554687 20.550781-12.667969.199219-23.066406-8.703125-23.066406-19.785156zm0 0" fill="#ffc15a"/></g><path d="m359.003906 255.984375c0-35.730469-20.464844-66.765625-50.277344-82 29.8125-15.226563 50.277344-46.253906 50.277344-81.976563 0-50.730468-41.25-92.007812-91.953125-92.007812h-175.007812c-.171875 0-.335938 0-.507813 0-49.167968 0-91.03125 41.972656-91.535156 91.90625v.101562c0 35.855469 20.625 66.980469 50.632812 82.144532-29.445312 15.40625-50.277343 46.597656-50.62890575 81.734375v.101562c0 35.867188 20.62499975 67 50.63281275 82.171875-29.449219 15.402344-50.28125 46.597656-50.63281275 81.734375v.097657c0 50.734374 41.26171875 92.011718 91.98046875 92.011718h47.605469c5.527344 0 10.007812-4.480468 10.007812-10.007812 0-5.523438-4.480468-10.003906-10.007812-10.003906h-47.605469c-21.300781 0-40.460937-9.3125-53.652344-24.074219 3.734375-.421875 7.472657-1.378907 11.078125-2.90625 13.582032-5.757813 21.554688-18.046875 21.320313-32.871094l-.339844-22.191406c-.191406-12.847657 10.609375-13.664063 12.777344-13.695313h.246093c6.292969 0 13.570313 3.648438 13.726563 13.980469l.171875 12.535156c.113281 7.910157 3.457031 15.449219 9.417969 21.230469 6.761719 6.554688 16.273437 10.21875 26.140625 10.058594 9.777344-.160156 19.101562-4.113282 25.582031-10.84375 5.765625-5.992188 8.851563-13.671875 8.679687-21.640625-.082031-3.660157-.113281-5.007813-.140624-6.355469-.027344-1.359375-.058594-2.714844-.140626-6.398438-.003906-.042968-.003906-.085937-.003906-.132812-.152344-4.175781 1.882813-7.601562 6.050782-10.183594 6.839843-4.238281 16.785156-4.609375 23.65625-.882812 5.488281 2.980468 8.367187 8.257812 8.550781 15.683594v16.296874c0 7.558594 3.089843 14.757813 8.703125 20.269532 6.304687 6.199218 15.230468 9.671875 24.523437 9.488281 17.867188-.277344 32.40625-13.972656 32.40625-30.523437v-8.871094c0-8.902344 9.160157-11.277344 14.574219-11.277344 3.972656 0 7.675781 1.132812 10.160156 3.117188 2.460938 1.957031 3.652344 4.683593 3.652344 8.328124v25.113282c0 11.566406 7.101562 21.730468 17.445312 26.902344-12.910156 12.28125-30.34375 19.84375-49.519531 19.84375h-47.632812c-5.527344 0-10.007813 4.476562-10.007813 10.003906s4.480469 10.003906 10.003906 10.003906h47.632813c50.707031 0 91.957031-41.273438 91.957031-92.007812 0-35.730469-20.464844-66.769532-50.28125-82.003907 29.816406-15.230469 50.28125-46.269531 50.28125-82.003906zm-267.414062-235.976563c.128906 0 .265625 0 .394531.003907h175.066406c39.667969 0 71.945313 32.296875 71.945313 71.996093 0 12.929688-3.445313 25.0625-9.4375 35.5625-5.917969-.96875-10.425782-5.25-10.425782-10.304687v-25.117187c0-9.707032-3.972656-18.222657-11.1875-23.976563-6.050781-4.824219-14.089843-7.480469-22.636718-7.480469-16.761719 0-34.582032 10.964844-34.582032 31.289063v8.871093c0 5.691407-5.699218 10.410157-12.730468 10.519532-3.941406.054687-7.664063-1.300782-10.167969-3.757813-1.238281-1.214843-2.714844-3.246093-2.714844-5.996093v-16.441407c0-.070312 0-.140625-.003906-.210937-.3125-14.753906-7.0625-26.449219-19.003906-32.929688-13.195313-7.160156-30.769531-6.570312-43.738281 1.464844-10.253907 6.355469-15.90625 16.507812-15.519532 27.863281.082032 3.609375.109375 4.949219.140625 6.292969.027344 1.355469.054688 2.714844.140625 6.378906.070313 3.3125-1.636718 5.792969-3.078125 7.289063-2.8125 2.925781-7.011719 4.644531-11.511719 4.71875-4.605468.070312-8.914062-1.535157-11.890624-4.421875-1.492188-1.449219-3.285157-3.859375-3.328126-7.113282l-.171874-12.542968c-.335938-22.222656-17.921876-33.953125-34.285157-33.703125-16.390625.25-32.808593 12.007812-32.476562 34.007812l.339843 22.199219c.132813 8.429688-4.890624 12.339844-9.125 14.136719-5.847656 2.480469-12.675781 1.898437-16.972656-1.269531-2.972656-7.867188-4.609375-16.386719-4.617187-25.28125.417969-39.152344 33.113281-72.046876 71.578125-72.046876zm-53.242188 119.921876c3.730469-.421876 7.464844-1.375 11.0625-2.902344 13.582032-5.757813 21.554688-18.046875 21.320313-32.871094l-.339844-22.191406c-.191406-12.847656 10.609375-13.660156 12.777344-13.695313h.246093c6.292969 0 13.570313 3.648438 13.726563 13.984375l.171875 12.53125c.113281 7.894532 3.453125 15.421875 9.410156 21.199219 6.761719 6.558594 16.28125 10.226563 26.148438 10.0625 9.785156-.160156 19.113281-4.113281 25.59375-10.84375 5.757812-5.980469 8.835937-13.652344 8.667968-21.613281-.085937-3.65625-.113281-5.007813-.140624-6.355469-.027344-1.355469-.058594-2.714844-.144532-6.398437 0-.042969 0-.085938-.003906-.132813-.148438-4.179687 1.890625-7.609375 6.0625-10.195313 6.839844-4.238281 16.789062-4.613281 23.65625-.886718 5.484375 2.976562 8.355469 8.25 8.539062 15.671875v16.324219c0 7.558593 3.089844 14.757812 8.703126 20.269531 6.308593 6.199219 15.230468 9.667969 24.527343 9.488281 17.867188-.277344 32.402344-13.972656 32.402344-30.523438v-8.871093c0-8.902344 9.160156-11.277344 14.574219-11.277344 3.972656 0 7.679687 1.136719 10.164062 3.117187 2.457032 1.957032 3.652344 4.683594 3.652344 8.328126v25.117187c0 11.558594 7.09375 21.71875 17.425781 26.894531-12.90625 12.265625-30.335937 19.820313-49.503906 19.820313h-87.957031s0 0-.003906 0h-87.042969c-.019531 0-.035157 0-.054688 0h-.003906c-21.292969-.003907-40.449219-9.304688-53.636719-24.050781zm53.242188 44.054687c.128906 0 .265625 0 .394531.003906h175.0625c39.671875 0 71.945313 32.296875 71.945313 71.996094 0 12.9375-3.441407 25.078125-9.4375 35.582031-5.917969-.988281-10.421876-5.277344-10.421876-10.324218v-25.085938c0-9.714844-3.976562-18.234375-11.195312-23.988281-6.054688-4.824219-14.097656-7.484375-22.648438-7.484375-16.757812 0-34.5625 10.960937-34.5625 31.273437v8.871094c0 5.707031-5.703124 10.4375-12.710937 10.546875-3.957031.074219-7.683594-1.316406-10.191406-3.785156-1.238281-1.21875-2.714844-3.246094-2.714844-5.996094v-16.410156c0-.074219 0-.144532 0-.214844-.316406-14.757812-7.070313-26.453125-19.011719-32.9375-13.191406-7.160156-30.765625-6.574219-43.730468 1.460938-10.253907 6.355468-15.90625 16.511718-15.519532 27.871093.082032 3.582031.109375 4.929688.136719 6.253907.03125 1.367187.058594 2.710937.144531 6.394531.070313 3.328125-1.640625 5.820312-3.085937 7.324219-2.8125 2.917968-7.007813 4.636718-11.503907 4.710937-4.59375.074219-8.90625-1.535156-11.882812-4.417969-1.496094-1.453125-3.292969-3.871094-3.339844-7.144531l-.167968-12.542969c-.332032-21.984375-17.550782-33.695312-33.769532-33.695312-.167968 0-.339844 0-.507812.003906-16.394532.25-32.820313 12.007812-32.484375 33.996094l.339843 22.226562c.128907 8.433594-4.890624 12.34375-9.128906 14.136719-5.851562 2.476563-12.683594 1.886719-16.976562-1.292969-2.96875-7.871094-4.605469-16.386718-4.613282-25.28125.421876-39.15625 33.121094-72.050781 71.582032-72.050781zm247.402344 236.007813c0 12.929687-3.4375 25.0625-9.425782 35.5625-5.925781-.964844-10.433594-5.25-10.433594-10.308594v-25.113282c0-9.707031-3.972656-18.226562-11.1875-23.976562-6.054687-4.824219-14.089843-7.480469-22.636718-7.480469-16.765625 0-34.582032 10.964844-34.582032 31.289063v8.871094c0 5.691406-5.703124 10.410156-12.730468 10.519531-3.941406.058593-7.667969-1.300781-10.167969-3.757813-1.238281-1.214844-2.714844-3.246094-2.714844-5.996094v-16.414062c0-.070312-.003906-.140625-.003906-.210938-.316406-14.757812-7.066406-26.457031-19.011719-32.941406-13.195312-7.160156-30.773437-6.574218-43.738281 1.460938-10.25 6.351562-15.898437 16.496094-15.511719 27.851562.082032 3.609375.109375 4.949219.140625 6.289063.027344 1.359375.054688 2.71875.140625 6.382812.070313 3.320313-1.640625 5.808594-3.089844 7.316407-2.816406 2.921874-7.007812 4.644531-11.5 4.71875-4.597656.078124-8.90625-1.535157-11.882812-4.417969-1.496094-1.453125-3.292969-3.875-3.339844-7.144531l-.167968-12.542969c-.335938-22.222657-17.921876-33.910157-34.285157-33.703125-16.390625.25-32.808593 12.011718-32.476562 34.007812l.339843 22.195313c.132813 8.433593-4.890624 12.34375-9.125 14.140625-5.851562 2.480468-12.683593 1.898437-16.980468-1.273438-2.96875-7.867187-4.605469-16.382812-4.609375-25.277344.417969-39.152343 33.113281-72.046874 71.578125-72.046874h.394531 175.066406c39.667969 0 71.941407 32.300781 71.941407 72zm-246.949219-92.007813c-.019531 0-.035157 0-.054688 0h-.003906c-21.292969 0-40.445313-9.304687-53.632813-24.054687 3.722657-.417969 7.453126-1.371094 11.046876-2.894532 13.589843-5.753906 21.566406-18.042968 21.332031-32.871094l-.339844-22.222656c-.195313-12.835937 10.613281-13.652344 12.78125-13.683594 6.335937-.089843 13.808594 3.511719 13.96875 13.972657l.167969 12.53125c.113281 7.910156 3.457031 15.449219 9.417968 21.230469 6.761719 6.558593 16.289063 10.222656 26.140626 10.0625 9.785156-.164063 19.109374-4.113282 25.585937-10.839844 5.765625-5.988282 8.847656-13.667969 8.679687-21.648438-.085937-3.675781-.113281-5.007812-.144531-6.367187-.027343-1.34375-.054687-2.710938-.140625-6.359375 0-.042969-.003906-.085938-.003906-.128906-.152344-4.1875 1.886719-7.625 6.0625-10.214844 6.835938-4.234375 16.78125-4.605469 23.644531-.878906 5.492188 2.980468 8.367188 8.253906 8.550781 15.679687v16.296875c0 7.550781 3.082032 14.742188 8.683594 20.257812 6.300782 6.203126 15.253906 9.683594 24.542969 9.53125 17.867187-.28125 32.40625-13.988281 32.40625-30.554687v-8.871094c0-8.890625 9.148437-11.261719 14.554687-11.261719 3.976563 0 7.683594 1.136719 10.175782 3.121094 2.460937 1.960938 3.65625 4.691406 3.65625 8.339844v25.085938c0 11.757812 6.96875 21.851562 17.371094 26.972656-12.902344 12.238281-30.308594 19.769531-49.445313 19.769531zm0 0"/><path d="m179.6875 491.992188h-.171875c-5.523437 0-10.003906 4.476562-10.003906 10.003906s4.480469 10.003906 10.003906 10.003906h.171875c5.523438 0 10.003906-4.480469 10.003906-10.003906 0-5.527344-4.480468-10.003906-10.003906-10.003906zm0 0"/></svg>