<svg height="511pt" viewBox="1 0 511 511.99996" width="511pt" xmlns="http://www.w3.org/2000/svg"><g fill-rule="evenodd"><path d="m236.394531 276.058594c31.179688 31.1875 33.164063 80.484375 5.980469 113.964844-20.523438-12.613282-43.683594-31.070313-66.25-53.664063-22.589844-22.59375-41.046875-45.757813-53.660156-66.28125 33.480468-27.15625 82.773437-25.175781 113.929687 5.980469zm0 0" fill="#ff6977"/><path d="m356.957031 155.488281c31.179688 31.15625 33.167969 80.457031 5.980469 113.964844-20.523438-12.644531-43.65625-31.097656-66.246094-53.664063-22.59375-22.597656-41.050781-45.757812-53.664062-66.28125 33.476562-27.1875 82.773437-25.175781 113.929687 5.980469zm0 0" fill="#cbe558"/><path d="m477.546875 34.917969c31.152344 31.15625 33.136719 80.457031 5.953125 113.9375-20.496094-12.617188-43.65625-31.070313-66.25-53.664063-22.589844-22.566406-41.046875-45.730468-53.660156-66.253906 33.480468-27.1875 82.773437-25.203125 113.957031 5.980469zm0 0" fill="#ffe6c0"/><path d="m115.832031 276.058594c-33.308593 33.3125-33.308593 87.289062 0 120.601562 33.28125 33.28125 87.28125 33.28125 120.5625 0 2.125-2.15625 4.136719-4.367187 5.980469-6.636718-20.523438-12.613282-43.683594-31.070313-66.25-53.664063-22.589844-22.59375-41.046875-45.757813-53.660156-66.28125-2.296875 1.871094-4.507813 3.855469-6.632813 5.980469zm0 0" fill="#ffc15a"/><path d="m236.394531 276.058594c.027344.03125.054688.058594.082031.113281-.027343-.054687-.054687-.082031-.082031-.113281zm0-120.570313c-33.253906 33.253907-33.28125 87.148438-.113281 120.457031 0 0 0 .027344.027344.027344.027344.03125.058594.058594.085937.085938.027344.027344.054688.058594.082031.113281.03125 0 .03125 0 .058594.027344 33.308594 33.167969 87.167969 33.113281 120.421875-.140625 2.152344-2.125 4.136719-4.335938 5.980469-6.605469-20.523438-12.644531-43.65625-31.101563-66.246094-53.667969-22.59375-22.59375-41.050781-45.753906-53.664062-66.277344-2.296875 1.871094-4.507813 3.855469-6.632813 5.980469zm0 0" fill="#ffc15a"/><path d="m356.957031 155.488281c.054688.027344.085938.058594.113281.085938-.027343-.027344-.058593-.054688-.113281-.085938zm0-120.570312c-33.253906 33.253906-33.28125 87.117187-.113281 120.429687 0 .027344.027344.027344.027344.058594.027344.027344.058594.054688.085937.082031.054688.03125.085938.058594.113281.085938 0 .027343.027344.027343.027344.058593 33.308594 33.167969 87.195313 33.109376 120.449219-.144531 2.125-2.125 4.109375-4.335937 5.953125-6.632812-20.496094-12.617188-43.65625-31.070313-66.25-53.664063-22.589844-22.566406-41.046875-45.730468-53.660156-66.253906-2.269532 1.84375-4.507813 3.855469-6.632813 5.980469zm0 0" fill="#ffc15a"/></g><path d="m484.613281 27.851562c-34.65625-34.65625-89.578125-36.964843-126.949219-6.953124-.113281.082031-.21875.167968-.328124.253906-2.570313 2.082031-5.054688 4.3125-7.445313 6.699218-17.984375 17.984376-27.886719 41.90625-27.886719 67.351563 0 10.457031 1.675782 20.652344 4.890625 30.285156-29.992187-9.980469-63.992187-4.671875-89.722656 15.933594-.167969.117187-.328125.242187-.484375.375-2.539062 2.058594-5 4.265625-7.363281 6.628906-26.355469 26.378907-33.972657 64.480469-22.90625 97.652344-30.046875-10.035156-64.128907-4.71875-89.878907 15.960937-.113281.082032-.222656.167969-.332031.257813-2.566406 2.082031-5.054687 4.308594-7.441406 6.695313-18 18-27.910156 41.921874-27.910156 67.367187 0 22.082031 7.472656 43.019531 21.210937 59.933594l-98.640625 98.648437c-3.902343 3.902344-3.902343 10.230469 0 14.132813 1.953125 1.949219 4.507813 2.925781 7.066407 2.925781 2.554687 0 5.113281-.976562 7.066406-2.925781l98.644531-98.65625c17.402344 14.105469 38.652344 21.160156 59.910156 21.160156 24.386719 0 48.78125-9.285156 67.347657-27.851563 2.359374-2.359374 4.574218-4.824218 6.652343-7.375.003907-.007812.007813-.011718.011719-.019531 13.761719-16.917969 21.242188-37.871093 21.242188-59.972656 0-10.417969-1.664063-20.578125-4.859376-30.183594 9.601563 3.195313 19.761719 4.859375 30.179688 4.859375 25.4375 0 49.355469-9.914062 67.332031-27.90625 2.304688-2.304687 4.476563-4.707031 6.511719-7.195312.101562-.117188.195312-.242188.292969-.367188 13.671875-16.878906 21.105469-37.757812 21.105469-59.78125 0-10.453125-1.675782-20.644531-4.894532-30.28125 9.789063 3.257813 20 4.910156 30.214844 4.910156 24.394531 0 48.792969-9.289062 67.363281-27.859374 17.980469-17.984376 27.886719-41.902344 27.886719-67.351563 0-25.445313-9.90625-49.367187-27.886719-67.351563zm-67.363281-7.882812c19.277344 0 38.554688 7.339844 53.230469 22.015625 14.210937 14.210937 22.035156 33.109375 22.035156 53.21875 0 14.4375-4.050781 28.234375-11.582031 40.136719-18.480469-12.3125-37.890625-28.488282-56.621094-47.222656-18.71875-18.695313-34.882812-38.09375-47.191406-56.578126 12.214844-7.699218 26.167968-11.570312 40.128906-11.570312zm-294.351562 369.625c-14.222657-14.226562-22.054688-33.128906-22.054688-53.234375 0-18.980469 6.988281-36.890625 19.738281-50.800781 12.871094 19.023437 29.4375 38.824218 48.476563 57.863281 19.007812 19.03125 38.800781 35.601563 57.835937 48.484375-29.492187 27-75.449219 26.234375-103.996093-2.3125zm128.484374-53.234375c0 14.433594-4.054687 28.234375-11.59375 40.144531-18.488281-12.308594-37.894531-28.480468-56.597656-47.210937-18.726562-18.730469-34.894531-38.140625-47.195312-56.609375 12.210937-7.699219 26.160156-11.566406 40.117187-11.566406 19.269531 0 38.542969 7.335937 53.214844 22.007812 14.222656 14.226562 22.054687 33.128906 22.054687 53.234375zm120.5625-120.574219c0 14.429688-4.054687 28.226563-11.59375 40.125-11.15625-7.457031-22.851562-16.453125-34.257812-26.371094-4.164062-3.621093-10.472656-3.183593-14.097656.984376-3.621094 4.164062-3.179688 10.476562.984375 14.097656 11.601562 10.089844 23.15625 19.027344 34.472656 26.699218-13.898437 12.742188-31.792969 19.730469-50.765625 19.730469-20.101562 0-39.003906-7.832031-53.226562-22.058593-28.535157-28.535157-29.296876-74.5-2.316407-104 6.496094 9.589843 13.976563 19.441406 22.355469 29.414062 1.976562 2.351562 4.804688 3.566406 7.65625 3.566406 2.265625 0 4.546875-.769531 6.421875-2.34375 4.222656-3.550781 4.773437-9.851562 1.222656-14.078125-8.429687-10.035156-15.871093-19.902343-22.222656-29.4375 12.210937-7.691406 26.15625-11.554687 40.109375-11.554687 19.269531 0 38.542969 7.335937 53.207031 22 14.21875 14.21875 22.050781 33.125 22.050781 53.226562zm-7.921874-67.363281c-14.207032-14.207031-22.035157-33.109375-22.035157-53.21875 0-18.984375 6.980469-36.886719 19.71875-50.789063 12.882813 19.039063 29.449219 38.832032 48.476563 57.84375 19.035156 19.03125 38.832031 35.601563 57.855468 48.484376-29.5 27-75.464843 26.234374-104.015624-2.320313zm0 0"/><path d="m288.480469 207.582031c-3.902344 3.902344-3.902344 10.230469 0 14.132813l.144531.140625c1.949219 1.953125 4.507812 2.925781 7.066406 2.925781 2.554688 0 5.113282-.972656 7.0625-2.925781 3.902344-3.902344 3.902344-10.230469 0-14.132813l-.140625-.140625c-3.902343-3.902343-10.230469-3.902343-14.132812 0zm0 0"/></svg>