<svg height="512pt" viewBox="0 0 512 512" width="512pt" xmlns="http://www.w3.org/2000/svg"><path d="m345.519531 190.574219c-.679687-.933594-1.445312-1.839844-2.296875-2.691407l-5.554687-5.582031-11.054688-11.058593-11.707031-11.675782-3.429688-3.460937-9.015624-9.011719-1.558594-1.53125c-8.105469-8.136719-21.402344-8.136719-29.539063 0-6.800781 6.800781-7.90625 17.234375-3.316406 25.226562.90625 1.53125 2.015625 2.976563 3.316406 4.3125l7.484375 7.484376 23.613282 23.609374 11.226562 11.226563c2.125 2.125 4.648438 3.714844 7.3125 4.734375 7.453125 2.835938 16.242188 1.246094 22.222656-4.734375 7.285156-7.285156 8.050782-18.710937 2.296875-26.847656zm0 0" fill="#f0c9b4" fill-rule="evenodd"/><path d="m349.800781 187.117188 114.265625-92.890626c19.757813-16.046874 18-47.453124 0-65.453124s-49.382812-19.730469-65.453125 0l-92.894531 114.265624c-1.105469 1.359376-2.183594 2.71875-3.257812 4.054688l9.011718 9.011719 3.429688 3.457031 11.707031 11.679688 11.054687 11.054687 5.558594 5.585937c.847656.847657 1.617188 1.757813 2.296875 2.691407 1.417969-1.132813 2.835938-2.265625 4.28125-3.457031zm0 0" fill="#dca98b" fill-rule="evenodd"/><path d="m345.5 190.71875-.0625-.085938c-.699219-.960937-1.46875-1.863281-2.285156-2.679687l-5.554688-5.585937-11.058594-11.054688-11.703124-11.679688-3.433594-3.457031-9.074219-9.078125.054687-.070312c.476563-.589844.957032-1.1875 1.4375-1.785156.601563-.753907 1.207032-1.511719 1.824219-2.265626l92.890625-114.265624c6.941406-8.519532 17.207032-13.539063 28.910156-14.136719 13.449219-.679688 27.160157 4.597656 36.691407 14.128906 9.546875 9.546875 14.832031 23.28125 14.132812 36.746094-.605469 11.691406-5.625 21.9375-14.140625 28.851562l-114.265625 92.894531c-1.429687 1.175782-2.855469 2.316407-4.234375 3.417969zm-42.90625-43.632812 8.953125 8.949218 3.429687 3.457032 11.707032 11.679687 11.054687 11.054687 5.554688 5.585938c.800781.800781 1.558593 1.683594 2.246093 2.621094 1.367188-1.09375 2.78125-2.222656 4.199219-3.394532l114.265625-92.890624c8.46875-6.878907 13.46875-17.074219 14.066406-28.707032.695313-13.410156-4.566406-27.089844-14.074218-36.597656-9.492188-9.492188-23.152344-14.75-36.539063-14.066406-11.648437.589844-21.863281 5.585937-28.765625 14.058594l-92.894531 114.265624c-.613281.757813-1.21875 1.511719-1.820313 2.265626-.464843.574218-.921874 1.148437-1.382812 1.71875zm0 0" fill="#dca98b"/><g fill-rule="evenodd"><path d="m432.003906 326.128906-245.566406-245.566406c-8.902344-8.902344-23.5-8.902344-32.429688 0l-8.109374 8.105469-66.019532 66.019531c-8.929687 8.929688-8.929687 23.527344 0 32.457031l46.40625 46.402344 33.617188 33.59375 90.3125 90.3125 75.207031 75.230469c8.925781 8.929687 23.527344 8.929687 32.457031 0l74.125-74.125c8.929688-8.902344 8.929688-23.527344 0-32.429688zm0 0" fill="#ffcb7c"/><path d="m88.667969 145.902344 57.234375-57.234375c-1.703125-5.582031-4.761719-10.800781-9.15625-15.191407-11.226563-11.226562-28.007813-13.722656-41.699219-7.457031-3.882813 1.785157-7.539063 4.253907-10.714844 7.457031l-10.855469 10.855469c-3.203124 3.175781-5.671874 6.832031-7.457031 10.714844-6.265625 13.691406-3.769531 30.472656 7.457031 41.726563 4.390626 4.367187 9.609376 7.425781 15.191407 9.128906zm0 0" fill="#ffc15a"/><path d="m427.695312 438.523438 10.828126-10.828126c3.203124-3.203124 5.699218-6.832031 7.457031-10.742187 6.261719-13.691406 3.769531-30.472656-7.457031-41.695313-4.167969-4.167968-9.070313-7.117187-14.34375-8.875l-57.796876 57.800782c1.757813 5.269531 4.707032 10.175781 8.871094 14.339844 11.226563 11.226562 28.007813 13.722656 41.699219 7.457031 3.910156-1.757813 7.539063-4.253907 10.742187-7.457031zm0 0" fill="#ffc15a"/><path d="m496.011719 496.011719c7.996093-7.964844 7.996093-21.03125 0-29.027344l-17.773438-17.800781-32.257812-32.230469c-1.757813 3.910156-4.253907 7.539063-7.457031 10.742187l-10.828126 10.828126c-3.203124 3.203124-6.832031 5.699218-10.742187 7.457031l50.03125 50.03125c3.148437 3.175781 7.117187 5.074219 11.253906 5.726562 6.292969 1.019531 12.953125-.90625 17.773438-5.726562zm0 0" fill="#ffd89e"/><path d="m84.332031 73.476562c3.175781-3.203124 6.832031-5.671874 10.714844-7.457031l-50.003906-50.03125c-.511719-.480469-.992188-.933593-1.53125-1.359375-7.511719-6.152344-18.480469-6.152344-25.992188 0-.539062.421875-1.050781.878906-1.53125 1.359375-7.996093 7.992188-7.996093 21.0625 0 29.054688l50.03125 50.003906c1.785157-3.882813 4.253907-7.539063 7.457031-10.714844zm0 0" fill="#ffd89e"/></g><path d="m503.078125 459.917969-45.523437-45.523438c4.507812-15.898437.527343-33.714843-11.964844-46.207031-1.554688-1.554688-3.207032-2.96875-4.933594-4.273438 5.195312-5.96875 8.039062-13.535156 8.039062-21.570312 0-8.828125-3.421874-17.097656-9.625-23.28125l-17.574218-17.574219c-3.902344-3.902343-10.230469-3.902343-14.132813 0-3.898437 3.902344-3.898437 10.230469 0 14.128907l17.585938 17.585937c2.425781 2.417969 3.761719 5.664063 3.761719 9.140625 0 3.472656-1.335938 6.71875-3.769532 9.148438l-7.824218 7.820312v.003906l-57.800782 57.796875-8.503906 8.503907c-5.050781 5.054687-13.273438 5.054687-18.324219 0l-74.847656-74.84375c-.246094-.273438-.503906-.535157-.78125-.78125l-34.261719-34.261719c-.210937-.234375-.433594-.457031-.671875-.675781l-54.5625-54.5625c-.265625-.296876-.542969-.574219-.832031-.832032l-79.585938-79.582031c-5.050781-5.050781-5.050781-13.269531 0-18.324219l74.128907-74.125c2.417969-2.417968 5.667969-3.75 9.148437-3.75 3.480469 0 6.730469 1.332032 9.148438 3.75l172.347656 172.347656c3.902344 3.902344 10.230469 3.902344 14.132812 0 3.902344-3.902343 3.902344-10.230468 0-14.132812l-18.65625-18.65625c1.082032-.828125 2.117188-1.726562 3.09375-2.699219 5.828126-5.832031 9.035157-13.597656 9.027344-21.875-.003906-3.175781-.480468-6.273437-1.398437-9.214843l112.445312-91.414063c10.71875-8.703125 17.035157-21.496094 17.789063-36.023437.835937-16.214844-5.523438-32.757813-17.019532-44.253907-11.476562-11.476562-27.996093-17.839843-44.191406-17.011719-14.535156.742188-27.347656 7.050782-36.082031 17.773438l-90 110.707031c-4.449219-2.414062-9.464844-3.703125-14.6875-3.707031-.011719 0-.019531 0-.03125 0-8.261719 0-16.019531 3.203125-21.84375 9.027344-.976563.976562-1.875 2.011718-2.703125 3.09375l-68.089844-68.09375c-6.195312-6.191406-14.460937-9.601563-23.28125-9.601563-8.078125 0-15.683594 2.867188-21.664062 8.101563-1.4375-1.972656-3.007813-3.847656-4.742188-5.582032-8.851562-8.867187-20.671875-13.753906-33.277344-13.753906-4.441406 0-8.777343.617188-12.925781 1.789063l-45.503906-45.523438v-.003906c-5.753906-5.753906-13.421875-8.921875-21.59375-8.921875s-15.839844 3.167969-21.59375 8.921875-8.921875 13.421875-8.921875 21.59375 3.167969 15.839844 8.925781 21.59375l45.527344 45.503906c-1.171875 4.148438-1.792969 8.488281-1.792969 12.929688 0 12.605469 4.882813 24.429687 13.773438 33.320312 1.714844 1.703125 3.570312 3.253907 5.515625 4.671875-11.964844 12.902344-11.679688 33.128906.867187 45.675782l36.617188 36.617187c-31.121094 16.011719-53.375 30.609375-66.242188 43.476563-28.074218 28.078124-43.003906 59.574218-43.1718748 91.078124-.1562502 29.28125 12.0859378 57.085938 35.4062498 80.40625 23.175781 23.175782 50.773438 35.410157 79.851563 35.410157h.554687c31.507813-.167969 63-15.097657 91.078125-43.175781 12.785156-12.785157 28.058594-34.371094 45.472656-64.242188l65.972657 65.972656c6.421875 6.421875 14.859375 9.632813 23.292969 9.632813 8.007812 0 16.011718-2.902344 22.296874-8.6875 1.292969 1.710937 2.699219 3.347656 4.242188 4.890625 9.179688 9.179687 21.230469 13.765625 33.285156 13.765625 4.351563 0 8.703125-.605469 12.921875-1.800781l45.523438 45.523437c5.753906 5.753906 13.421875 8.921875 21.589843 8.921875h.027344c8.164063-.007812 15.820313-3.179688 21.527344-8.910156 5.757812-5.734375 8.929688-13.386719 8.9375-21.554688.007812-8.179687-3.160156-15.855468-8.921875-21.617187zm-96.71875-424.832031c5.113281-6.277344 12.785156-9.980469 21.601563-10.429688 10.652343-.546875 21.492187 3.636719 29.039062 11.183594 7.558594 7.558594 11.742188 18.433594 11.191406 29.089844-.453125 8.796874-4.15625 16.449218-10.429687 21.542968l-111.320313 90.496094-30.5625-30.585938zm-127.929687 117.542968c2.046874-2.050781 4.785156-3.175781 7.714843-3.175781h.007813c2.917968 0 5.640625 1.125 7.683594 3.175781l42.320312 42.320313c.03125.027343.054688.058593.082031.085937.222657.226563.433594.457032.632813.699219.023437.023437.042968.050781.0625.078125 1.550781 1.910156 2.398437 4.292969 2.398437 6.820312.003907 2.929688-1.125 5.671876-3.175781 7.722657-1 1-2.183594 1.777343-3.480469 2.3125l-56.566406-56.566407c.535156-1.285156 1.3125-2.46875 2.320313-3.472656zm-148.757813-72.09375c.003906 0 .003906.003906.007813.003906 1.761718 1.761719 3.238281 3.703126 4.421874 5.800782l-47.765624 47.765625c-2.097657-1.179688-4.039063-2.648438-5.796876-4.394531-5.089843-5.09375-7.894531-11.898438-7.894531-19.167969 0-7.265625 2.800781-14.0625 7.894531-19.144531l10.863282-10.863282c5.078125-5.089844 11.875-7.886718 19.136718-7.886718 7.261719 0 14.058594 2.796874 19.132813 7.886718zm-65.226563-1.191406-41.390624-41.367188c-1.980469-1.976562-3.070313-4.628906-3.070313-7.460937s1.089844-5.484375 3.070313-7.460937c1.976562-1.980469 4.628906-3.070313 7.460937-3.070313s5.484375 1.089844 7.460937 3.066406l41.367188 41.390625c-.082031.074219-.15625.152344-.234375.222656-.628906.566407-1.242187 1.144532-1.84375 1.746094l-10.847656 10.847656c-.609375.609376-1.195313 1.230469-1.765625 1.863282-.066406.078125-.140625.148437-.207032.222656zm-14.890624 352.308594s-.003907 0-.003907-.003906c-8.257812-8.246094-5.074219-22.667969-.949219-33.316407 7.59375-19.59375 24.933594-43.273437 50.136719-68.480469 12.3125-12.3125 32.546875-28.964843 60.175781-49.542968l42.964844 42.964844c-21.117187 26.878906-38.097656 46.785156-50.511718 59.203124-25.203126 25.199219-48.882813 42.535157-68.480469 50.125-10.652344 4.125-25.074219 7.308594-33.332031-.949218zm7.769531-143.214844c12.175781-12.175781 34.6875-26.542969 66.972656-42.746094l20.339844 20.339844c-27.226563 20.367188-47.40625 37.066406-60.027344 49.6875-27.542969 27.542969-45.925781 52.910156-54.640625 75.394531-1.128906 2.917969-2.0625 5.707031-2.816406 8.375-15.398438-35.5625-5.175782-75.703125 30.171875-111.050781zm135.453125 135.453125c-35.355469 35.355469-75.503906 45.578125-111.070313 30.164063 2.675781-.753907 5.46875-1.683594 8.394531-2.816407 22.492188-8.710937 47.855469-27.09375 75.394532-54.632812 12.667968-12.667969 29.679687-32.539063 50.613281-59.101563l21.648437 21.652344c-17.644531 30.753906-32.761718 52.519531-44.980468 64.734375zm189.542968 7.570313c-1.550781-1.554688-2.886718-3.253907-3.996093-5.089844l48.046875-48.046875c1.835937 1.109375 3.535156 2.445312 5.089844 3.996093 10.558593 10.5625 10.558593 27.75 0 38.3125l-10.828126 10.828126c-10.566406 10.558593-27.75 10.558593-38.3125 0zm106.613282 57.5c-1.960938 1.964843-4.59375 3.050781-7.414063 3.054687-.003906 0-.007812 0-.011719 0-2.828124 0-5.476562-1.089844-7.457031-3.070313l-41.382812-41.382812c.054687-.046875.105469-.101562.160156-.152344.65625-.585937 1.304687-1.191406 1.933594-1.820312l10.828125-10.828125s.003906 0 .003906-.003907c.628906-.628906 1.230469-1.273437 1.816406-1.929687.050782-.054687.101563-.105469.152344-.160156l41.382812 41.382812c1.980469 1.980469 3.070313 4.632813 3.070313 7.46875-.003906 2.820313-1.085937 5.453125-3.082031 7.441407zm0 0"/><path d="m380.222656 271.964844c-4.300781 3.457031-4.988281 9.746094-1.53125 14.046875l.113282.144531c1.972656 2.457031 4.871093 3.734375 7.796874 3.734375 2.195313 0 4.40625-.722656 6.25-2.203125 4.304688-3.457031 4.988282-9.746094 1.53125-14.050781l-.113281-.140625c-3.457031-4.300782-9.746093-4.988282-14.046875-1.53125zm0 0"/></svg>