<svg height="512pt" viewBox="0 -38 512 512" width="512pt" xmlns="http://www.w3.org/2000/svg"><g fill-rule="evenodd"><path d="m95.238281 390.109375h321.496094c39.796875-17.332031 66.046875-42.421875 66.046875-74.960937v-20.503907c-8.304688 6.371094-18.710938 10.195313-29.992188 10.195313-27.152343 0-49.179687-22.003906-49.207031-49.136719 0 27.132813-22.023437 49.136719-49.179687 49.136719-27.183594 0-49.207032-22.003906-49.207032-49.136719-.03125 27.132813-22.027343 49.136719-49.210937 49.136719-27.152344 0-49.179687-22.035156-49.179687-49.164063 0 27.128907-22.023438 49.164063-49.207032 49.164063s-49.207031-22.035156-49.207031-49.164063c0 27.128907-22.027344 49.164063-49.179687 49.164063-11.113282 0-21.34375-3.683594-29.566407-9.855469 3.882813 50.410156 32.171875 76.859375 65.59375 95.125zm0 0" fill="#fbc2c7"/><path d="m112.726562 425h286.546876c9.609374 0 17.460937-7.84375 17.460937-17.445312v-17.445313h-321.496094v17.445313c0 9.601562 7.878907 17.445312 17.488281 17.445312zm0 0" fill="#f8a2aa"/><path d="m108.390625 255.675781c0 27.128907 22.023437 49.164063 49.207031 49.164063s49.207032-22.035156 49.207032-49.164063c0 27.128907 22.023437 49.164063 49.179687 49.164063 27.183594 0 49.179687-22.003906 49.207031-49.136719 0 27.132813 22.027344 49.136719 49.210938 49.136719 27.152344 0 49.179687-22.003906 49.179687-49.136719.027344 27.132813 22.050781 49.136719 49.207031 49.136719 11.28125 0 21.683594-3.824219 29.988282-10.195313 11.679687-9.007812 19.21875-23.109375 19.21875-38.96875 0-23.335937-16.296875-42.875-38.125-47.917969-21.285156-50.746093-85.800782-80.964843-158.109375-90.679687-33.449219-4.503906-68.570313-4.585937-101.875-.3125-72.820313 9.347656-136.910157 39.675781-155.761719 90.992187-21.855469 5.042969-38.125 24.582032-38.125 47.917969 0 16.054688 7.710938 30.328125 19.644531 39.308594 8.21875 6.171875 18.453125 9.855469 29.566407 9.855469 27.152343 0 49.179687-22.035156 49.179687-49.164063zm0 0" fill="#ffc15a"/><path d="m254.824219 60.242188c-28.289063 0-51.222657 22.910156-51.222657 51.171874 0 1.8125.113282 3.597657.285157 5.355469 33.304687-4.304687 68.425781-4.191406 101.875.308594.195312-1.867187.308593-3.765625.308593-5.664063 0-28.261718-22.929687-51.171874-51.246093-51.171874zm0 0" fill="#ff6977"/></g><path d="m262.332031 209.230469v-46.300781c0-5.523438-4.480469-10-10.003906-10s-10 4.476562-10 10v46.300781c0 5.527343 4.476563 10.003906 10 10.003906s10.003906-4.480469 10.003906-10.003906zm0 0"/><path d="m512 255.675781c0-25.984375-16.585938-48.449219-40.921875-56.292969-19.339844-40.65625-65.535156-71.175781-130.789063-86.222656-7.941406-1.832031-16.058593-3.390625-24.289062-4.691406-1.425781-29.898438-24.445312-54.226562-53.785156-57.769531-1.648438-10 1.667968-26.289063 8.84375-33.777344 3.820312-3.988281 3.6875-10.320313-.300782-14.140625-3.988281-3.820312-10.320312-3.6875-14.140624.300781-10.738282 11.203125-16.339844 31.945313-14.429688 48.476563-26.675781 5.613281-47.007812 28.628906-48.496094 56.5625-14.242187 2.175781-28.078125 5.132812-41.222656 8.882812-5.3125 1.515625-8.386719 7.050782-6.871094 12.363282s7.050782 8.386718 12.363282 6.871093c14.933593-4.261719 30.808593-7.445312 47.171874-9.550781h.023438c32.484375-4.171875 66.808594-4.066406 99.269531.300781.023438.003907.050781.003907.078125.003907 10.636719 1.433593 21.109375 3.308593 31.289063 5.65625 61.203125 14.113281 103.410156 42.164062 118.855469 78.976562 1.246093 2.964844 3.839843 5.152344 6.972656 5.875 17.882812 4.132812 30.375 19.828125 30.375 38.171875 0 12.6875-6.074219 23.976563-15.464844 31.136719-.050781.039062-.101562.078125-.148438.117187-6.570312 4.960938-14.742187 7.910157-23.59375 7.910157-21.597656 0-39.183593-17.5625-39.207031-39.144532-.007812-5.519531-4.480469-9.992187-10.003906-9.992187h-.003906c-5.519531.003906-9.996094 4.480469-9.996094 10 0 21.578125-17.574219 39.136719-39.179687 39.136719-21.617188 0-39.203126-17.558594-39.203126-39.136719 0-5.519531-4.476562-9.996094-10-10 0 0 0 0-.003906 0-5.519531 0-9.996094 4.472656-10 9.992187-.023437 21.582032-17.613281 39.144532-39.207031 39.144532-21.601563 0-39.179687-17.570313-39.179687-39.164063 0-5.523437-4.476563-10-10-10-5.523438 0-10 4.476563-10 10 0 21.59375-17.589844 39.164063-39.207032 39.164063-21.621094 0-39.207031-17.570313-39.207031-39.164063 0-5.523437-4.480469-10-10-10-5.523437 0-10.003906 4.476563-10.003906 10 0 21.59375-17.574219 39.164063-39.175781 39.164063-21.621094 0-39.207032-17.570313-39.207032-39.164063 0-18.347656 12.488282-34.046875 30.371094-38.171875 3.289062-.757812 5.976562-3.125 7.140625-6.296875 6.042969-16.441406 17.585937-31.179687 34.308594-43.808594 4.410156-3.328125 5.285156-9.597656 1.957031-14.007812-3.328125-4.40625-9.601562-5.285157-14.007812-1.957031-18.230469 13.765624-31.367188 29.902343-39.109376 48.03125-24.195312 7.917968-40.664062 30.316406-40.664062 56.214843 0 17.644531 7.78125 33.5 20.082031 44.351563 5.699219 53.78125 38.4375 80.4375 65.152344 95.929687v11.597657c0 15.132812 12.332031 27.445312 27.492187 27.445312h286.546876c15.140624 0 27.464843-12.3125 27.464843-27.445312v-11.007813c43.234375-20.34375 66.042969-48.390625 66.042969-81.402344v-15.882812c11.804688-10.824219 19.21875-26.355469 19.21875-43.585938zm-218.0625-150.042969c-.304688-.027343-.613281-.058593-.917969-.089843-1.789062-.171875-3.582031-.335938-5.378906-.484375-.070313-.007813-.144531-.011719-.214844-.019532-11.191406-.929687-22.507812-1.40625-33.824219-1.40625-13.265624 0-26.53125.640626-39.582031 1.921876 2.855469-19.929688 20.054688-35.300782 40.78125-35.3125.011719 0 .019531.003906.03125.003906.007813 0 .015625-.003906.027344-.003906 20.820313.019531 38.082031 15.515624 40.832031 35.5625-.585937-.058594-1.167968-.113282-1.753906-.171876zm112.792969 301.921876c0 4.105468-3.34375 7.441406-7.457031 7.441406h-286.546876c-4.058593 0-7.488281-3.40625-7.488281-7.441406v-7.445313h301.492188zm66.046875-92.40625c0 32.019531-31.171875 52.894531-58.152344 64.960937h-316.800781c-31.070313-17.507813-48.726563-38.898437-55.457031-67.71875 5.34375 1.585937 10.992187 2.449219 16.84375 2.449219 20.472656 0 38.550781-10.445313 49.179687-26.289063 10.636719 15.84375 28.722656 26.289063 49.207031 26.289063 20.480469 0 38.570313-10.445313 49.207032-26.289063 10.628906 15.84375 28.707031 26.289063 49.179687 26.289063s38.558594-10.449219 49.199219-26.292969c10.632812 15.84375 28.726562 26.292969 49.214844 26.292969 20.484374 0 38.566406-10.445313 49.195312-26.289063 10.636719 15.84375 28.722656 26.289063 49.195312 26.289063 7.011719 0 13.738282-1.230469 19.988282-3.476563zm0 0"/><path d="m148.726562 203.460938c2.574219 0 5.148438-.988282 7.101563-2.964844l30.246094-30.527344c3.890625-3.925781 3.859375-10.257812-.066407-14.144531-3.921874-3.890625-10.253906-3.859375-14.144531.066406l-30.242187 30.527344c-3.890625 3.925781-3.859375 10.257812.066406 14.144531 1.949219 1.933594 4.492188 2.898438 7.039062 2.898438zm0 0"/><path d="m356.046875 203.460938c2.542969 0 5.089844-.964844 7.039063-2.898438 3.921874-3.886719 3.953124-10.21875.066406-14.144531l-30.246094-30.527344c-3.890625-3.925781-10.222656-3.957031-14.144531-.066406-3.921875 3.886719-3.953125 10.21875-.066407 14.144531l30.246094 30.527344c1.957032 1.976562 4.53125 2.964844 7.105469 2.964844zm0 0"/><path d="m116.53125 151.011719c1.503906 0 3.03125-.339844 4.464844-1.058594l.171875-.082031c4.941406-2.472656 6.941406-8.480469 4.472656-13.417969-2.46875-4.941406-8.480469-6.945313-13.417969-4.472656l-.171875.082031c-4.941406 2.472656-6.941406 8.480469-4.472656 13.417969 1.753906 3.507812 5.285156 5.53125 8.953125 5.53125zm0 0"/></svg>