<svg height="512pt" viewBox="0 -69 512 512" width="512pt" xmlns="http://www.w3.org/2000/svg"><g fill-rule="evenodd"><path d="m30.003906 131.382812c0-163.191406 453.871094-158.859374 453.871094 0 0 10.855469-7.488281 27.601563-30.683594 27.632813-.171875 0-.34375-.027344-.542968-.027344h-391.988282c-23.199218-.003906-30.65625-16.75-30.65625-27.605469zm0 0" fill="#ffd89e"/><path d="m313.808594 158.984375v38.597656c0 30.195313 35.777344 23.816407 35.863281 4.386719.285156-19.484375 31.933594-25.691406 33.757813-.425781-2.050782 29.9375 44.457031 33.699219 44.457031-2.25v-40.308594h24.761719l.542968.03125c17.21875.167969 32.417969 9.3125 41.097656 22.957031 4.839844 7.632813 7.660157 16.691406 7.660157 26.378906 0 9.652344-2.820313 18.714844-7.660157 26.347657-8.109374 12.734375-21.886718 21.5625-37.710937 22.816406-1.28125.113281-2.589844.171875-3.898437.171875h-393.332032c-1.195312 0-2.390625-.058594-3.585937-.144531v-.027344h-.339844c-25.304687-2.023437-45.371094-23.359375-45.371094-49.195313 0-27.117187 22.171875-49.335937 49.296875-49.335937zm0 0" fill="#c68a65"/><path d="m384.453125 290.671875c23.851563 21.648437 63.246094 13.132813 68.226563-32.984375 1.308593 0 2.617187-.058594 3.898437-.171875h18.074219v58.652344c0 23.640625-4.527344 46.65625-46.453125 46.886719l-177.410157.910156h-162.804687c-41.925781 0-51.035156-18.855469-51.035156-42.5v-63.949219h18.472656c.113281 0 .226563.03125.339844.03125 4.925781 46.230469 44.375 54.804687 68.253906 33.125 17.648437-16.007813 41.613281-5.867187 46.9375-.683594 8.59375 8.347657 19.894531 13.617188 32.019531 13.617188 12.011719 0 22.742188-6.039063 31.738282-13.386719 6.742187-5.5 13.460937-7.550781 19.523437-7.519531 6.035156-.03125 12.75 2.019531 19.496094 7.519531 9.023437 7.347656 19.753906 13.386719 31.765625 13.386719 12.125 0 23.398437-5.269531 31.992187-13.617188 5.351563-5.183593 29.316407-15.324219 46.964844.683594zm0 0" fill="#ffd89e"/><path d="m395.128906 158.984375h32.757813v40.308594c0 35.949219-46.507813 32.1875-44.457031 2.25-1.824219-25.265625-33.472657-19.058594-33.757813.425781-.085937 19.429688-35.863281 25.808594-35.863281-4.386719v-38.597656zm0 0" fill="#ffc15a"/><path d="m452.679688 257.6875c-4.980469 46.117188-44.375 54.632812-68.226563 32.984375-17.648437-16.007813-41.613281-5.867187-46.964844-.683594-8.59375 8.347657-19.867187 13.617188-31.992187 13.617188-12.011719 0-22.742188-6.039063-31.765625-13.390625-6.746094-5.496094-13.460938-7.546875-19.496094-7.519532-6.0625-.027343-12.78125 2.023438-19.523437 7.519532-8.996094 7.351562-19.726563 13.390625-31.738282 13.390625-12.125 0-23.425781-5.269531-32.019531-13.617188-5.324219-5.183593-29.289063-15.324219-46.9375.683594-23.878906 21.679687-63.328125 13.105469-68.253906-33.128906 1.195312.085937 2.390625.144531 3.585937.144531zm0 0" fill="#cbe558"/></g><path d="m512 208.320312c0-21.546874-11.53125-40.453124-28.742188-50.859374 7.472657-7.738282 10.625-17.941407 10.667969-26.035157.117188-27.691406-11.703125-52.246093-35.128906-72.976562-26.359375-23.324219-66.683594-40.753907-116.621094-50.402344-46.191406-8.921875-98.058593-10.484375-146.046875-4.394531-5.507812.699218-9.402344 5.730468-8.703125 11.238281.695313 5.507813 5.722657 9.402344 11.234375 8.707031 45.933594-5.828125 95.546875-4.339844 139.703125 4.1875 46.40625 8.964844 83.445313 24.777344 107.113281 45.71875 18.902344 16.726563 28.4375 36.183594 28.347657 57.828125-.011719 1.800781-.667969 17.601563-20.632813 17.601563-.058594 0-.121094.007812-.179687.007812-.121094 0-.238281-.007812-.359375-.007812h-391.992188c-6.824218 0-12.09375-1.816406-15.65625-5.398438-3.675781-3.695312-4.96875-8.671875-4.949218-12.089844.296874-49.054687 45.925781-76.214843 84.148437-90.363281 5.207031-1.925781 7.867187-7.707031 5.9375-12.914062-1.921875-5.207031-7.707031-7.863281-12.914063-5.9375-62.441406 23.109375-96.988281 61.851562-97.273437 109.101562-.050781 9.25 3.648437 18.671875 9.9375 25.46875-17.839844 10.257813-29.890625 29.507813-29.890625 51.550781 0 20.765626 10.714844 39.066407 26.898438 49.683594v63.429688c0 35.363281 19.980468 52.550781 61.085937 52.550781h162.859375l177.414062-.910156c50.027344-.273438 56.445313-30.574219 56.445313-56.941407v-57.875c16.402344-10.578124 27.296875-29.011718 27.296875-49.96875zm-94.164062-39.28125v30.253907c0 4.878906-1.144532 11.324219-6.609376 14.316406-3.90625 2.136719-9.097656 1.933594-12.917968-.507813-2.445313-1.566406-5.269532-4.722656-4.851563-10.867187.023438-.382813.039063-.785156.011719-1.171875-1.203125-18.210938-13.671875-26.230469-25.714844-26.230469-.257812 0-.519531.003907-.777344.011719-13.257812.378906-27.117187 10.574219-27.355468 26.980469v.101562c-.019532 4.136719-5.003906 6.414063-8.453125 6.414063-.007813 0-.011719 0-.019531 0-4.835938-.011719-7.289063-3.628906-7.289063-10.757813v-28.546875h93.976563zm46.765624 147.128907c0 21.449219-2.617187 36.648437-36.453124 36.832031l-177.355469.914062h-162.808594c-37.820313 0-40.984375-16.03125-40.984375-32.449218v-54.972656c4.179688 20.890624 15.710938 36.191406 32.386719 42.542968 17.097656 6.515625 36.789062 2.332032 51.382812-10.917968 13.488281-12.234376 31.558594-2.414063 33.179688-.917969 10.929687 10.613281 24.789062 16.457031 39.023437 16.457031 12.742188 0 25.203125-5.121094 38.085938-15.648438 4.285156-3.492187 8.675781-5.261718 13.148437-5.261718h.152344c4.359375 0 8.738281 1.769531 13.027344 5.261718 12.925781 10.53125 25.390625 15.648438 38.109375 15.648438 14.21875 0 28.066406-5.84375 38.976562-16.441406 1.628906-1.5 19.730469-11.339844 33.226563.898437 14.582031 13.238281 34.253906 17.421875 51.347656 10.925781 16.523437-6.285156 28.007813-21.351562 32.289063-41.945312 1.097656-.160156 2.1875-.34375 3.265624-.566406zm-396.640624-48.429688h372.535156c-3.332032 11.304688-9.738282 19.144531-18.597656 22.511719-9.980469 3.796875-21.738282 1.105469-30.691407-7.019531-22.199219-20.140625-52.425781-8.488281-60.722656-.453125-7.15625 6.949218-16.03125 10.777344-24.988281 10.777344-7.910156 0-16.222656-3.640626-25.414063-11.128907-7.855469-6.402343-16.746093-9.78125-25.632812-9.78125-.054688 0-.109375 0-.167969 0-9.078125-.039062-18.019531 3.339844-25.933594 9.789063-9.15625 7.480468-17.457031 11.117187-25.375 11.117187-8.980468 0-17.863281-3.824219-25.007812-10.761719-8.265625-8.050781-38.460938-19.742187-60.703125.441407-8.964844 8.132812-20.734375 10.824219-30.71875 7.019531-8.851563-3.371094-15.25-11.207031-18.582031-22.511719zm402.28125-24.285156c-.171876.082031-.34375.167969-.507813.261719-5.167969 2.511718-10.964844 3.921875-17.082031 3.921875h-393.300782c-.5 0-.992187-.019531-1.484374-.039063-.425782-.019531-.863282-.042968-1.339844-.078125-.015625 0-.035156 0-.050782 0-5.125-.375-9.976562-1.730469-14.371093-3.890625-.414063-.246094-.839844-.472656-1.285157-.660156-12.320312-6.636719-20.714843-19.671875-20.714843-34.648438 0-21.660156 17.605469-39.285156 39.246093-39.285156h244.40625v28.546875c0 21.164063 14.175782 30.832031 27.351563 30.859375h.058594c13.671875 0 28.445312-10.0625 28.554687-26.363281.09375-4.71875 4.722656-7.050781 7.832032-7.140625 1.410156-.039062 5.105468-.148438 5.800781 6.742188-.5625 11.933593 4.554687 22.230468 14.121093 28.351562 5.335938 3.414062 11.570313 5.136719 17.796876 5.136719 5.40625 0 10.8125-1.300781 15.609374-3.925781 10.839844-5.933594 17.058594-17.582032 17.058594-31.949219v-30.257813h14.710938c21.640625 0 39.246094 17.625 39.246094 39.316406 0 15.332032-8.828126 28.632813-21.65625 35.101563zm0 0"/><path d="m207.5625 112.507812c1.851562 1.484376 4.074219 2.207032 6.277344 2.207032 4.210937 0 8.371094-2.632813 9.824218-7.613282 1.089844-3.730468-.371093-7.75-3.40625-10.179687-3.945312-3.164063-9.722656-3.199219-13.402343.269531-4.558594 4.292969-4.144531 11.433594.5625 15.203125zm0 0"/><path d="m131.226562 111.546875.101563.097656c1.960937 1.972657 4.539063 2.957031 7.121094 2.957031 3.476562 0 6.953125-1.792968 8.925781-5.382812 2.125-3.867188 1.238281-8.707031-1.875-11.832031l-.074219-.074219c-4.648437-4.664062-12.746093-3.808594-16.128906 2.582031-2.035156 3.835938-1.132813 8.578125 1.929687 11.652344zm0 0"/><path d="m157.488281 31.199219c1.054688 0 2.128907-.167969 3.1875-.519531l.117188-.039063c4.117187-1.375 7.050781-5.214844 6.945312-9.554687-.167969-7.226563-7.007812-11.617188-13.265625-9.53125l-.140625.050781c-4.066406 1.359375-6.976562 5.128906-6.925781 9.417969.078125 6.074218 4.859375 10.175781 10.082031 10.175781zm0 0"/><path d="m358.6875 112.40625c1.851562 1.476562 4.066406 2.195312 6.261719 2.195312 4.222656 0 8.382812-2.644531 9.828125-7.636718 1.078125-3.730469-.386719-7.746094-3.425782-10.171875l-.023437-.019531c-3.9375-3.140626-9.6875-3.15625-13.355469.292968-4.574218 4.300782-4.152344 11.457032.570313 15.226563zm0 0"/><path d="m289.558594 114.488281c3.726562 0 7.453125-2.058593 9.328125-6.1875 1.664062-3.660156.738281-7.988281-2.097657-10.84375-3.769531-3.800781-9.933593-4.269531-13.964843-.75-4.421875 3.855469-4.609375 10.574219-.539063 14.671875l.140625.140625c1.964844 1.976563 4.546875 2.96875 7.132813 2.96875zm0 0"/><path d="m162.113281 66.160156c.707031 5.007813 5.238281 8.589844 10.292969 8.589844 3.964844 0 7.648438-2.332031 9.097656-6.023438 2.828125-7.226562-2.417968-14.078124-9.269531-14.078124h-.171875c-6.03125 0-10.824219 5.3125-9.949219 11.511718zm0 0"/><path d="m333.050781 74.75c6.847657 0 12.097657-6.851562 9.265625-14.074219-1.445312-3.691406-5.128906-6.027343-9.09375-6.027343-5.054687 0-9.585937 3.585937-10.292968 8.589843-.875 6.203125 3.917968 11.511719 9.949218 11.511719zm0 0"/><path d="m252.8125 74.75c6.847656 0 12.097656-6.851562 9.269531-14.074219-1.449219-3.691406-5.128906-6.027343-9.097656-6.027343-5.054687 0-9.585937 3.585937-10.292969 8.589843-.871094 6.203125 3.917969 11.511719 9.949219 11.511719zm0 0"/></svg>