<svg height="512pt" viewBox="0 -1 512 512" width="512pt" xmlns="http://www.w3.org/2000/svg"><g fill-rule="evenodd"><path d="m189.769531 112.183594c0-36.410156 29.792969-66.191406 66.214844-66.191406 36.425781 0 66.214844 29.78125 66.214844 66.191406v43.042968h36v-43.042968c0-56.191406-46.003907-102.179688-102.214844-102.179688-56.207031 0-102.210937 45.988282-102.210937 102.179688v43.042968h36v-43.042968zm0 0" fill="#ffc15a"/><path d="m394.453125 275.203125-17.574219-101.726563c-1.699218-9.886718-8.21875-18.25-18.253906-18.25h-205.25c-10.035156 0-16.582031 8.359376-18.253906 18.25l-17.574219 101.726563c-1.785156 10.371094-19.160156 27.855469-19.160156 38.367187v167.296876c0 10.515624 8.617187 19.128906 19.160156 19.128906h276.90625c10.515625 0 19.132813-8.613282 19.132813-19.128906v-167.296876c0-10.539062-17.347657-27.996093-19.132813-38.367187zm0 0" fill="#fbc2c7"/><path d="m296.40625 438.222656c28.828125 0 52.410156-23.546875 52.410156-52.363281v-39.8125c0-6.492187-5.042968-11.902344-11.394531-12.496094-.394531-.03125-.792969-.058593-1.191406-.058593h-155.726563c-1.816406 0-3.574218.398437-5.132812 1.105468-4.363282 1.984375-7.425782 6.375-7.425782 11.449219v39.8125c0 28.816406 23.554688 52.363281 52.382813 52.363281zm0 0" fill="#ffc15a"/></g><path d="m336.230469 323.488281h-40.304688c-5.527343 0-10.003906 4.476563-10.003906 10.003907 0 5.523437 4.476563 10.003906 10.003906 10.003906h40.304688c1.375 0 2.582031 1.191406 2.582031 2.546875v39.8125c0 23.359375-19.023438 42.363281-42.40625 42.363281h-76.078125c-23.367187 0-42.378906-19.003906-42.378906-42.363281v-39.8125c0-1.378907 1.167969-2.546875 2.554687-2.546875h33.246094c5.527344 0 10.003906-4.480469 10.003906-10.003906 0-5.523438-4.476562-10.003907-10.003906-10.003907h-33.246094c-12.441406 0-22.5625 10.117188-22.5625 22.554688v39.8125c0 34.390625 27.984375 62.371093 62.386719 62.371093h76.078125c34.414062 0 62.414062-27.980468 62.414062-62.371093v-39.8125c0-12.4375-10.132812-22.554688-22.589843-22.554688zm0 0"/><path d="m502.007812 275.328125c-6.027343-6.476563-14.480468-10.1875-23.183593-10.1875-15.429688 0-31.050781 11.625-31.050781 33.835937v82.886719c0 6.011719-1.523438 10.792969-4.398438 13.828125-2.175781 2.292969-5.132812 3.554688-8.324219 3.554688-5.703125 0-11.460937-3.988282-11.460937-12.90625v-72.765625c0-8.683594-5.914063-17.695313-11.632813-26.410157-3.027343-4.617187-7.175781-10.9375-7.644531-13.660156l-17.574219-101.722656c-2.074219-12.070312-9.101562-21.125-18.535156-24.78125v-34.8125c0-61.863281-50.339844-112.1875-112.21875-112.1875-61.875 0-112.214844 50.324219-112.214844 112.183594v34.816406c-9.453125 3.660156-16.46875 12.71875-18.507812 24.773438l-17.574219 101.734374c-.46875 2.71875-4.628906 9.050782-7.664062 13.675782-5.988282 9.113281-11.640626 17.722656-11.640626 26.386718v72.769532c0 8.914062-5.757812 12.90625-11.460937 12.90625-3.191406 0-6.148437-1.265625-8.324219-3.558594-2.875-3.035156-4.398437-7.816406-4.398437-13.828125v-82.882813c0-22.214843-15.613281-33.835937-31.035157-33.835937-8.703124 0-17.152343 3.710937-23.175781 10.1875-4.554687 4.898437-9.988281 13.753906-9.988281 28.125v65.203125c0 5.523438 4.480469 10.003906 10.003906 10.003906 5.527344 0 10.003906-4.480468 10.003906-10.003906v-65.203125c0-6.226563 1.601563-11.238281 4.628907-14.492187 2.285156-2.457032 5.3125-3.8125 8.527343-3.8125 5.085938 0 11.027344 3.621093 11.027344 13.828124v82.882813c0 14.191406 5.378906 22.839844 9.886719 27.597656 5.992187 6.316407 14.105469 9.796875 22.84375 9.796875 3.851563 0 7.761719-.734375 11.460937-2.179687v63.792969c0 16.0625 13.082032 29.132812 29.164063 29.132812h276.90625c16.066406 0 29.136719-13.070312 29.136719-29.132812v-63.792969c3.699218 1.441406 7.609375 2.179687 11.460937 2.179687 8.738281 0 16.851563-3.480468 22.84375-9.796875 4.511719-4.757812 9.886719-13.40625 9.886719-27.597656v-82.882813c0-10.207031 5.949219-13.828124 11.042969-13.828124 3.214843 0 6.25 1.355468 8.539062 3.8125 3.027344 3.253906 4.628907 8.265624 4.628907 14.492187v65.203125c0 5.523438 4.480468 10.003906 10.003906 10.003906 5.523437 0 10.003906-4.476562 10.003906-10.003906v-65.199219c0-14.378906-5.433594-23.230469-9.992188-28.128906zm-338.230468-163.144531c0-50.824219 41.363281-92.175782 92.207031-92.175782s92.210937 41.351563 92.210937 92.175782v33.039062h-15.992187v-33.039062c0-42.015625-34.191406-76.195313-76.21875-76.195313-42.023437 0-76.21875 34.179688-76.21875 76.195313v33.039062h-15.988281zm148.417968 33.039062h-112.417968v-33.039062c0-30.980469 25.214844-56.1875 56.207031-56.1875 30.996094 0 56.210937 25.207031 56.210937 56.1875zm91.386719 335.644532c0 5.03125-4.09375 9.121093-9.128906 9.121093h-276.90625c-5.050781 0-9.15625-4.089843-9.15625-9.121093v-167.292969c.070313-2.796875 5.667969-11.3125 8.355469-15.40625 4.875-7.425781 9.484375-14.4375 10.660156-21.261719l17.578125-101.761719c.171875-1.015625 1.863281-9.914062 8.390625-9.914062h.386719.011719 204.425781.011719.414062c6.496094 0 8.222656 8.925781 8.398438 9.949219l17.570312 101.722656c1.175781 6.820312 5.769531 13.824218 10.636719 21.238281 2.691406 4.101563 8.289062 12.632813 8.351562 15.429687zm0 0"/><path d="m255.984375 343.496094h.199219c5.527344 0 10.003906-4.480469 10.003906-10.003906 0-5.523438-4.476562-10.003907-10.003906-10.003907h-.199219c-5.523437 0-10.003906 4.480469-10.003906 10.003907 0 5.523437 4.480469 10.003906 10.003906 10.003906zm0 0"/></svg>