<svg height="511pt" viewBox="1 -10 511.99988 511" width="511pt" xmlns="http://www.w3.org/2000/svg"><path d="m20.078125 246.132812 72.679687 73.238282c-.085937 10.085937-.113281 19.179687 0 27.339844h113.207032l-32.371094-32.636719-12.78125-12.890625c-13.519531-13.601563-13.40625-35.753906.199219-49.269532 13.601562-13.484374 35.769531-13.402343 49.289062.199219l19.898438 20.058594v-77.402344c0-50.257812 29.082031-94.03125 71.257812-115.394531 8.136719-4.105469 16.753907-7.394531 25.765625-9.71875-23.101562-35.527344-63.179687-59.15625-108.476562-59.15625-71.113282 0-129.277344 58.136719-129.277344 129.222656v77.371094l-19.898438-20.027344c-13.492187-13.601562-35.6875-13.714844-49.292968-.199218-13.605469 13.484374-13.691406 35.640624-.199219 49.265624zm0 0" fill="#f8a2aa" fill-rule="evenodd"/><path d="m205.964844 346.964844h-113.207032c-.140624 0-.253906-.109375-.257812-.25-.097656-7.109375-.097656-15.511719 0-27.238282l-72.601562-73.164062c-13.617188-13.753906-13.527344-36.019531.203124-49.628906 6.585938-6.542969 15.355469-10.140625 24.707032-10.140625h.160156c9.40625.039062 18.207031 3.714843 24.78125 10.34375l19.460938 19.589843v-76.753906c0-34.449218 13.515624-66.925781 38.046874-91.449218 24.535157-24.523438 57.027344-38.027344 91.488282-38.027344 43.925781 0 84.558594 22.160156 108.691406 59.273437.042969.070313.050781.15625.023438.230469-.03125.078125-.09375.136719-.175782.15625-8.820312 2.273438-17.46875 5.535156-25.710937 9.695312-43.871094 22.21875-71.121094 66.347657-71.121094 115.167969v77.402344c0 .101563-.0625.195313-.15625.234375-.097656.039062-.207031.019531-.277344-.054688l-19.898437-20.058593c-13.445313-13.527344-35.398438-13.613281-48.933594-.199219-6.535156 6.492188-10.15625 15.164062-10.195312 24.425781-.039063 9.261719 3.511718 17.957031 10 24.484375l45.152343 45.527344c.074219.074219.09375.183594.054688.277344-.039063.09375-.132813.15625-.234375.15625zm-112.957032-.507813h112.34375l-44.722656-45.09375c-6.585937-6.625-10.1875-15.449219-10.144531-24.847656.039063-9.394531 3.714844-18.195313 10.34375-24.785156 13.738281-13.613281 36.011719-13.519531 49.652344.203125l19.464843 19.617187v-76.78125c0-24.324219 6.863282-48.070312 19.851563-68.671875 12.628906-20.03125 30.453125-36.265625 51.546875-46.949218 8.167969-4.125 16.734375-7.371094 25.472656-9.648438-24.0625-36.789062-64.433594-58.742188-108.070312-58.742188-71.144532 0-129.023438 57.851563-129.023438 128.964844v77.371094c0 .101562-.0625.195312-.160156.234375-.09375.042969-.203125.019531-.277344-.054687l-19.898437-20.03125c-6.480469-6.53125-15.152344-10.148438-24.421875-10.1875-.050782 0-.105469 0-.15625 0-9.214844 0-17.859375 3.542968-24.351563 9.992187-13.527343 13.410156-13.617187 35.351563-.195312 48.910156l72.675781 73.234375c.046875.046875.074219.113282.074219.183594-.097657 11.640625-.101563 20.007812-.003907 27.082031zm0 0" fill="#221f20"/><g fill-rule="evenodd"><path d="m90.855469 346.710938c-6.207031 0-11.28125 5.070312-11.28125 11.246093v57.0625c0 6.175781 5.074219 11.246094 11.28125 11.246094h129.453125v-13.230469c0-6.109375 5.132812-11.273437 11.25-11.273437h1.929687c0-2.722657 0-25.015625 0-27.339844l-27.523437-27.710937zm0 0" fill="#ffcb7c"/><path d="m220.308594 413.035156v57.03125c0 6.203125 5.074218 11.277344 11.25 11.277344h259.15625c6.207031 0 11.28125-5.074219 11.28125-11.277344v-57.03125c0-6.207031-5.074219-11.277344-11.28125-11.277344h-259.15625c-6.175782 0-11.25 5.070313-11.25 11.277344zm0 0" fill="#ffd89e"/><path d="m161.011719 251.914062c-13.605469 13.515626-13.722657 35.667969-.199219 49.269532l12.78125 12.890625 59.894531 60.34375c-.058593 6.886719-.085937 13.261719-.058593 19.210937 0 2.804688.027343 5.523438.058593 8.128906h255.242188v-206.988281c0-71.054687-58.164063-129.21875-129.28125-129.21875-20.804688 0-40.53125 4.984375-57.992188 13.824219-42.175781 21.363281-71.257812 65.136719-71.257812 115.394531v77.402344l-19.898438-20.058594c-13.519531-13.601562-35.6875-13.683593-49.289062-.199219zm0 0" fill="#fbc2c7"/></g><path d="m498.734375 393.335938v-198.566407c0-76.769531-62.484375-139.222656-139.285156-139.222656-9.542969 0-18.867188.96875-27.875 2.804687-26.292969-36.347656-67.953125-57.851562-112.828125-57.851562-76.800782 0-139.28125 62.453125-139.28125 139.222656v53.109375l-2.792969-2.8125c-8.410156-8.472656-19.652344-13.171875-31.660156-13.222656-.070313 0-.136719 0-.203125 0-11.945313 0-23.152344 4.601563-31.574219 12.964844-17.542969 17.390625-17.664063 45.839843-.253906 63.421875l69.742187 70.277344c-.039062 5.695312-.054687 10.550781-.039062 14.882812-7.691406 3.207031-13.113282 10.789062-13.113282 19.617188v57.058593c0 11.71875 9.550782 21.25 21.285157 21.25h119.449219v33.796875c0 11.734375 9.535156 21.28125 21.257812 21.28125h83.613281c5.527344 0 10.003907-4.480468 10.003907-10.003906 0-5.527344-4.476563-10.003906-10.003907-10.003906h-83.617187c-.664063 0-1.246094-.59375-1.246094-1.273438v-57.03125c0-.675781.582031-1.269531 1.246094-1.269531h259.15625c.679687 0 1.277344.59375 1.277344 1.269531v57.03125c0 .679688-.597657 1.273438-1.277344 1.273438h-86.109375c-5.527344 0-10.003907 4.476562-10.003907 10.003906 0 5.523438 4.476563 10.003906 10.003907 10.003906h86.109375c11.738281 0 21.285156-9.546875 21.285156-21.28125v-57.03125c0-8.898437-5.492188-16.523437-13.265625-19.699218zm-20.003906-198.566407v196.988281h-235.3125c-.007813-4.863281.015625-10.4375.070312-17.253906.023438-2.671875-1.019531-5.238281-2.902343-7.132812l-72.679688-73.242188c-4.648438-4.675781-7.195312-10.914062-7.164062-17.570312.027343-6.511719 2.519531-12.621094 7.011718-17.238282.214844-.195312.421875-.402343.621094-.617187 9.746094-9.320313 25.277344-9.148437 34.824219.453125l19.898437 20.058594c2.855469 2.878906 7.164063 3.75 10.910156 2.207031 3.75-1.546875 6.195313-5.195313 6.195313-9.25v-77.402344c0-55.199219 37.722656-101.75 88.742187-115.257812.472657-.082031.941407-.207031 1.40625-.363281 9.316407-2.34375 19.0625-3.59375 29.101563-3.59375 65.769531 0 119.277344 53.476562 119.277344 119.214843zm-451.542969 44.328125c-9.539062-9.636718-9.582031-25.160156-.167969-34.820312.21875-.199219.429688-.410156.628907-.628906 4.617187-4.421876 10.6875-6.847657 17.160156-6.847657h.113281c6.667969.027344 12.898437 2.625 17.550781 7.3125l19.898438 20.03125c2.855468 2.875 7.164062 3.746094 10.910156 2.199219s6.191406-5.199219 6.191406-9.25v-77.371094c0-65.738281 53.503906-119.214844 119.273438-119.214844 35.964844 0 69.527344 16.152344 92.15625 43.773438-52.917969 19.742188-90.707032 70.785156-90.707032 130.488281v53.113281l-2.800781-2.824218c-17.425781-17.527344-45.878906-17.640625-63.433593-.242188-8.476563 8.417969-13.171876 19.660156-13.226563 31.65625-.050781 12.007813 4.558594 23.289063 12.976563 31.757813l28.261718 28.476562h-79.285156c-.007812-4.902343.015625-10.523437.074219-17.25.019531-2.671875-1.023438-5.238281-2.902344-7.132812zm63.667969 177.164063c-.679688 0-1.277344-.582031-1.277344-1.242188v-57.0625c0-.660156.597656-1.242187 1.277344-1.242187h110.96875l21.628906 21.792968c-.039063 5.746094-.054687 10.574219-.039063 14.878907-7.6875 3.207031-13.109374 10.800781-13.109374 19.648437v3.226563zm0 0"/><path d="m361.351562 471.339844h-.199218c-5.527344 0-10.003906 4.476562-10.003906 10.003906 0 5.523438 4.476562 10.003906 10.003906 10.003906h.199218c5.523438 0 10-4.480468 10-10.003906 0-5.527344-4.476562-10.003906-10-10.003906zm0 0"/></svg>