<svg height="512pt" viewBox="-7 0 512 512.00032" width="512pt" xmlns="http://www.w3.org/2000/svg"><g fill-rule="evenodd"><path d="m256.1875 42.011719c-18.003906 0-32.605469 14.566406-32.605469 32.566406 0 6.234375 1.757813 12.074219 4.792969 17.035156h55.597656c3.058594-4.960937 4.820313-10.800781 4.820313-17.035156 0-17.996094-14.601563-32.566406-32.605469-32.566406zm0 0" fill="#ff6977"/><path d="m56.761719 453.15625h390.121093c0-.144531 0-.3125 0-.453125v-61.539063c-3.769531 1.925782-8.277343 3.003907-13.011718 2.949219-12.476563-.199219-22.457032-8.363281-22.230469-18.140625.140625-5.953125.113281-30.585937.253906-36.539062.964844-24.292969-52.820312-28.96875-53.613281 3.347656v26.613281c0 9.015625-9.808594 16.269531-21.320312 16.101563-11.480469-.171875-20.496094-7.710938-20.496094-16.726563v-40.929687c0-23.808594-44.003906-22.730469-44.003906-.140625v55.386719c0 9.011718-9.015626 16.554687-20.527344 16.722656-11.480469.171875-20.949219-7.085938-20.949219-16.128906v-41.042969c-.765625-32.3125-53.957031-27.636719-52.960937-3.34375l.226562 10.375c.253906 9.777343-9.753906 17.941406-22.199219 18.109375-12.476562.199218-22.910156-7.652344-23.078125-17.429688l-.339844-20.4375c-.425781-25.90625-42.925781-25.90625-42.5 0l.480469 28.316406v.3125c0 3.597657-1.132812 6.632813-3.035156 9.152344-6.519531 8.617188-22.253906 10.714844-32.6875 6.039063v78.96875.457031zm0 0" fill="#ff6977"/><path d="m54.890625 373.730469c13.550781 6.066406 36.003906.738281 35.722656-15.503907l-.484375-28.316406c-.421875-25.90625 42.074219-25.90625 42.5 0l.339844 20.4375c.171875 9.777344 10.605469 17.628906 23.078125 17.433594 12.449219-.171875 22.457031-8.335938 22.203125-18.113281l-.230469-10.375c-.992187-24.292969 52.199219-28.96875 52.960938 3.34375v41.046875c0 9.039062 9.472656 16.296875 20.953125 16.125 11.511718-.167969 20.527344-7.707032 20.527344-16.722656v-55.386719c0-22.589844 44.003906-23.667969 44.003906.144531v40.929688c0 9.011718 9.015625 16.550781 20.496094 16.722656 11.511718.171875 21.320312-7.085938 21.320312-16.101563v-26.613281c.792969-32.3125 54.578125-27.636719 53.613281-3.347656-.140625 5.953125-.113281 30.585937-.253906 36.539062-.226563 9.777344 9.753906 17.941406 22.226563 18.140625 4.734374.058594 9.242187-1.019531 13.015624-2.949219v-107.171874c0-14.257813-13.015624-25.9375-28.890624-25.9375h-334.242188c-15.875 0-28.859375 11.679687-28.859375 25.9375zm0 0" fill="#c68a65"/><path d="m444.984375 453.15625h-407.789063c-14.96875 0-27.1875 10.996094-27.1875 24.402344 0 13.4375 12.21875 24.433594 27.1875 24.433594h423.609376c14.941406 0 27.1875-10.996094 27.1875-24.433594 0-13.40625-12.246094-24.402344-27.1875-24.402344zm0 0" fill="#e2f1a1"/><path d="m86.898438 258.054688h332.851562c0-.113282 0-.253907 0-.394532v-52.496094c-3.203125 1.644532-7.03125 2.578126-11.085938 2.523438-10.632812-.171875-19.164062-7.144531-18.96875-15.476562.113282-5.101563.085938-26.105469.230469-31.179688.820313-20.746094-45.082031-24.714844-45.734375 2.863281l-.027344 22.675781c0 7.710938-8.363281 13.917969-18.175781 13.777344-9.808593-.171875-17.492187-6.578125-17.492187-14.285156v-34.921875c0-20.324219-37.535156-19.386719-37.535156-.113281v47.25c0 7.710937-7.714844 14.117187-17.523438 14.257812-9.808594.144532-17.890625-6.035156-17.890625-13.746094v-35.035156c-.652344-27.550781-46.015625-23.582031-45.191406-2.863281l.226562 8.875c.195313 8.332031-8.335937 15.304687-18.96875 15.445313-10.632812.171874-19.53125-6.519532-19.675781-14.878907l-.285156-17.433593c-.367188-22.109376-36.628906-22.109376-36.261719 0l.398437 24.152343c.027344.113281.027344.195313.027344.28125-.027344 3.0625-.992187 5.667969-2.605468 7.796875-5.585938 7.367188-18.996094 9.152344-27.898438 5.15625v67.378906.394532h1.585938zm0 0" fill="#cbe558"/><path d="m85.308594 190.285156c11.570312 5.183594 30.734375.621094 30.480468-13.238281l-.398437-24.152344c-.367187-22.105469 35.894531-22.105469 36.261719 0l.285156 17.433594c.140625 8.363281 9.042969 15.050781 19.675781 14.882813 10.632813-.144532 19.164063-7.117188 18.96875-15.449219l-.230469-8.871094c-.820312-20.722656 44.542969-24.691406 45.195313 2.863281v35.03125c0 7.710938 8.078125 13.890625 17.890625 13.75 9.808594-.144531 17.519531-6.550781 17.519531-14.261718v-47.25c0-19.273438 37.539063-20.210938 37.539063.113281v34.921875c0 7.710937 7.683594 14.117187 17.492187 14.285156 9.8125.140625 18.175781-6.066406 18.175781-13.777344l.027344-22.675781c.652344-27.578125 46.554688-23.609375 45.730469-2.859375-.140625 5.070312-.113281 26.074219-.226563 31.175781-.195312 8.335938 8.335938 15.308594 18.96875 15.476563 4.054688.058594 7.882813-.878906 11.085938-2.523438v-91.410156c0-12.191406-11.085938-22.140625-24.640625-22.140625h-285.160156c-13.554688 0-24.640625 9.949219-24.640625 22.140625zm0 0" fill="#c68a65"/></g><path d="m460.804688 443.148438h-3.914063v-159.15625c0-16.03125-11.417969-29.640626-27.132813-34.257813v-135.984375c0-17.722656-15.542968-32.144531-34.644531-32.144531h-96.921875c.390625-2.3125.609375-4.65625.609375-7.027344 0-21.085937-15.421875-38.628906-35.585937-41.988281-1.105469-4.351563-1.035156-10.199219 2.324218-19.019532 1.96875-5.164062-.621093-10.945312-5.789062-12.914062-5.160156-1.964844-10.945312.625-12.914062 5.789062-3.878907 10.1875-5.113282 19.210938-3.734376 27.621094-17.109374 5.53125-29.523437 21.597656-29.523437 40.511719 0 2.367187.21875 4.714844.605469 7.027344h-104.234375c-19.105469 0-34.644531 14.421875-34.644531 32.144531v135.164062c-17.382813 3.578126-30.421876 17.941407-30.421876 35.078126v159.15625h-7.683593c-20.511719 0-37.199219 15.4375-37.199219 34.410156 0 18.992187 16.6875 34.441406 37.195312 34.441406h423.609376c20.507812 0 37.195312-15.449219 37.195312-34.441406 0-18.972656-16.6875-34.410156-37.195312-34.410156zm-335.40625-290.417969c-.042969-2.421875.757812-3.992188 2.59375-5.09375 2.90625-1.742188 7.417968-1.765625 10.503906-.054688 2.136718 1.1875 3.109375 2.878907 3.152344 5.476563l.285156 17.4375c.230468 13.730468 13.316406 24.722656 29.257812 24.722656.183594 0 .371094 0 .558594-.003906 8.597656-.113282 16.664062-3.433594 22.128906-9.105469 4.46875-4.636719 6.851563-10.527344 6.707032-16.628906-.070313-2.519531-.09375-3.449219-.113282-4.382813-.019531-.953125-.042968-1.90625-.113281-4.488281 0-.039063-.003906-.078125-.003906-.117187-.023438-.5625-.082031-2.058594 2.703125-3.796876 4.871094-3.039062 12.894531-3.328124 17.878906-.640624 3.066406 1.652343 4.488281 4.070312 4.601562 7.828124v34.902344c0 5.792969 2.410157 11.359375 6.78125 15.667969 5.230469 5.152344 12.785157 8.085937 20.789063 8.085937h.472656c15.355469-.222656 27.382813-10.882812 27.382813-24.265624v-47.25c0-3.617188 6.101562-4.789063 9.054687-4.789063.34375 0 8.46875.058594 8.46875 4.902344v34.917969c0 13.359374 12.003907 24.027343 27.355469 24.292968 8.273438.132813 16.136719-2.875 21.554688-8.214844 4.367187-4.304687 6.773437-9.832031 6.773437-15.554687l.023437-22.546875c.113282-3.730469 1.542969-6.140625 4.632813-7.808594 5.128906-2.765625 13.378906-2.472656 18.386719.652344 2.789062 1.742188 2.730468 3.203125 2.707031 3.757812 0 .039063 0 .078126-.003906.117188-.078125 2.824219-.105469 10.085938-.128907 17.109375-.023437 5.816406-.046874 11.835937-.097656 14.109375-.144531 6.046875 2.230469 11.929688 6.6875 16.570312 5.457032 5.675782 13.519532 9.011719 22.144532 9.152344.40625.003906.8125-.011718 1.21875-.019531v30.375h-314.425782v-45.695313c7.042969.070313 14.125-1.753906 19.625-5.390624 7.148438-4.722657 11.003906-11.859376 10.851563-20.082032zm108.191406-78.152344c0-12.433594 10.125-22.550781 22.578125-22.5625.007812 0 .015625.003906.027343.003906.007813 0 .015626-.003906.027344-.003906 12.445313.019531 22.558594 10.132813 22.558594 22.5625 0 2.40625-.378906 4.777344-1.117188 7.027344h-42.960937c-.734375-2.253907-1.113281-4.625-1.113281-7.027344zm-123.640625 27.042969h285.164062c7.929688 0 14.628907 5.554687 14.628907 12.128906v83.890625c-.304688.015625-.609376.042969-.917969.039063-3.835938-.0625-6.65625-1.59375-8.011719-3.007813-.519531-.539063-1.132812-1.359375-1.109375-2.238281.054687-2.476563.074219-8.316406.101563-14.496094.023437-6.542969.050781-13.949219.121093-16.578125.320313-8.636719-4.09375-16.457031-12.113281-21.460937-11.15625-6.964844-26.984375-7.492188-38.484375-1.289063-9.503906 5.125-14.878906 14.019531-15.140625 25.046875 0 .074219-.003906.148438-.003906.222656l-.027344 22.691406c0 .3125-.316406.828126-.804688 1.308594-1.214843 1.199219-3.691406 2.460938-7 2.460938-.0625 0-.125 0-.1875 0-4.605468-.082032-7.660156-2.628906-7.660156-4.28125v-34.921875c0-14.433594-11.976562-24.914063-28.484375-24.914063-16.570312 0-29.066406 10.664063-29.066406 24.800782v47.25c0 1.648437-3.054687 4.1875-7.65625 4.253906-3.347656.042968-5.75-1.171875-6.921875-2.324219-.246094-.242187-.816406-.867187-.816406-1.417969v-35.035156c0-.078125-.003906-.15625-.003906-.234375-.261719-11.054687-5.628907-19.960937-15.117188-25.074219-11.347656-6.121094-26.960938-5.597656-37.976562 1.277344-8.015626 5.003906-12.425782 12.835938-12.105469 21.5.066406 2.480469.089843 3.40625.109375 4.332031.019531.953125.042968 1.90625.113281 4.445313.019531.863281-.59375 1.6875-1.113281 2.226562-1.355469 1.40625-4.164063 2.929688-8.007813 2.980469-5.484375.09375-9.476562-2.953125-9.511719-5.039063l-.28125-17.4375c-.164062-9.734374-5.066406-17.984374-13.449218-22.640624-9.277344-5.152344-21.539063-4.996094-30.515625.386718-7.984375 4.789063-12.46875 13.023438-12.308594 22.585938l.394531 24.171875c.011719.707031.03125 1.777343-1.871094 3.035156-2.164062 1.429687-5.417968 2.140625-8.59375 2.078125v-68.59375c-.003906-6.574219 6.695313-12.128906 14.628907-12.128906zm-26.199219 166.441406h334.242188c10.234374 0 18.882812 7.296875 18.882812 15.929688v99.933593c-.9375.128907-1.890625.195313-2.847656.179688-4.269532-.066407-8.230469-1.578125-10.597656-4.039063-.835938-.867187-1.824219-2.246094-1.785157-3.855468.074219-3.078126.101563-10.554688.128907-18.46875.027343-7.414063.058593-15.074219.125-18 .34375-9.476563-4.527344-18.070313-13.375-23.597657-12.375-7.726562-30.621094-8.34375-43.382813-1.472656-10.574219 5.695313-16.5625 15.589844-16.863281 27.863281-.003906.082032-.003906.164063-.003906.246094v26.613281c0 1.074219-.78125 2.070313-1.4375 2.71875-1.703126 1.675781-5.132813 3.453125-9.726563 3.375-6.089844-.089843-10.636719-3.617187-10.636719-6.714843v-40.929688c0-15.925781-13.324218-27.480469-31.675781-27.480469-18.742187 0-32.34375 11.496094-32.34375 27.339844v55.382813c0 3.097656-4.5625 6.628906-10.667969 6.71875-3.734375.035156-7.21875-1.144532-9.316406-3.214844-.675781-.664063-1.480469-1.710938-1.480469-2.90625v-41.042969c0-.082031 0-.160156-.003906-.238281-.289063-12.320313-6.265625-22.238282-16.824219-27.925782-12.789062-6.890624-30.382812-6.289062-42.785156 1.464844-8.847656 5.53125-13.710938 14.152344-13.359375 23.667969.070313 2.90625.089844 3.984375.113281 5.070313.019532 1.109374.042969 2.226562.113282 5.25.042968 1.601562-.9375 2.964843-1.765626 3.824218-2.363281 2.460938-6.3125 3.964844-10.589843 4.023438-7.238281.117187-12.851563-3.992188-12.914063-7.59375l-.339844-20.433594c-.316406-19.347656-16.808593-29.539062-32.167968-29.269531-15.316406.25-30.65625 10.5-30.34375 29.605469l.480468 28.320312c.027344 1.496094-.304687 3.265625-2.96875 5.019531-3.242187 2.136719-8.171874 3.054688-12.742187 2.625v-82.054687c.003906-8.636719 8.640625-15.933594 18.859375-15.933594zm377.054688 223.921875h-423.609376c-9.3125 0-17.179687-6.605469-17.179687-14.425781 0-7.800782 7.867187-14.394532 17.179687-14.394532h169.601563c5.527344 0 10.007813-4.480468 10.007813-10.007812s-4.480469-10.007812-10.007813-10.007812h-141.902344v-57.035157c8.46875.429688 17.132813-1.613281 23.757813-5.980469 7.875-5.191406 12.125-13.03125 11.964844-22.074218l-.480469-28.3125c-.140625-8.421875 8.125-9.214844 10.660156-9.253906 1.183594-.023438 11.671875.078124 11.828125 9.585937l.339844 20.445313c.265625 15.320312 15.136718 27.523437 33.21875 27.265624 9.632812-.132812 18.644531-3.839843 24.726562-10.167968 4.90625-5.105469 7.515625-11.574219 7.34375-18.1875-.070312-2.953125-.089844-4.050782-.113281-5.136719-.019531-1.117187-.042969-2.222656-.113281-5.238281-.003906-.058594-.003906-.117188-.007813-.171875-.03125-.84375-.136719-3.40625 3.96875-5.972657 6.175781-3.863281 16.351563-4.230468 22.683594-.816406 4.152344 2.238282 6.160156 5.628906 6.304687 10.671875v40.914063c0 6.335937 2.644532 12.433594 7.449219 17.164062 5.804688 5.71875 14.203125 8.976563 23.117188 8.976563.179687 0 .359375 0 .539062-.003907 17.039063-.253906 30.386719-11.992187 30.386719-26.730468v-55.390625c0-5.335938 7.5625-7.324219 12.328125-7.324219 3.597656 0 6.917969.894531 9.101563 2.457031 1.792968 1.277344 2.558593 2.777344 2.558593 5.011719v40.929688c0 14.734374 13.335938 26.476562 30.359375 26.726562 9.261719.164062 18.039063-3.191406 24.066406-9.132812 4.777344-4.703126 7.410157-10.734376 7.410157-16.972657v-26.480469c.148437-4.996093 2.167969-8.375 6.339843-10.621093 6.503907-3.503907 16.953126-3.128907 23.292969.828125 4.105469 2.566406 4.007813 5.085937 3.972657 5.917968-.003907.050782-.003907.101563-.003907.15625-.074219 3.078126-.101562 10.554688-.132812 18.46875-.027344 7.46875-.054688 15.191407-.125 18.074219-.152344 6.636719 2.464843 13.097657 7.371093 18.199219 6.074219 6.316406 15.078126 10.027344 24.742188 10.179688 1.046875.011718 2.085938-.03125 3.125-.101563v39.132813h-146.070312c-5.527344 0-10.003907 4.480468-10.003907 10.007812s4.476563 10.007812 10.003907 10.007812h170c9.3125 0 17.179687 6.59375 17.179687 14.394532 0 7.820312-7.867187 14.425781-17.179687 14.425781zm0 0"/><path d="m251.054688 443.148438h-.167969c-5.527344 0-10.007813 4.480468-10.007813 10.007812s4.480469 10.007812 10.007813 10.007812h.167969c5.527343 0 10.007812-4.480468 10.007812-10.007812s-4.480469-10.007812-10.007812-10.007812zm0 0"/></svg>