<svg height="512pt" viewBox="-58 0 511 512" width="512pt" xmlns="http://www.w3.org/2000/svg"><g fill-rule="evenodd"><path d="m142.078125 10.007812c-40.191406 0-72.777344 78.914063-72.777344 176.25 0 31.800782 3.488281 61.621094 9.554688 87.386719 1.789062-.652343 3.546875-1.503906 5.277343-2.609375 15.429688-9.835937 36.386719-3.597656 41.039063-.425781 7.515625 5.132813 17.386719 8.390625 27.996094 8.390625 10.519531 0 19.910156-3.710938 27.765625-8.246094 3.007812-1.703125 6.011718-2.890625 8.933594-3.601562 2.808593-.707032 5.53125-1.019532 8.140624-.992188 2.78125-.027344 5.703126.3125 8.707032 1.136719 5.191406-24.265625 8.140625-51.816406 8.140625-81.039063 0-1.871093-.027344-3.769531-.058594-5.667968-1.21875-94.703125-33.324219-170.582032-72.71875-170.582032zm0 0" fill="#c68a65"/><path d="m328.136719 64.375c-34.121094-11.113281-81.96875 39.425781-113.339844 116.214844.027344 1.898437.058594 3.796875.058594 5.667968 0 29.222657-2.949219 56.773438-8.140625 81.039063 2.75.734375 5.558594 1.867187 8.367187 3.457031 7.855469 4.535156 17.242188 8.246094 27.738281 8.246094 10.609376 0 20.480469-3.257812 27.996094-8.390625 4.679688-3.171875 25.636719-9.410156 41.066406.425781 7.488282 4.789063 15.488282 4.820313 23.769532 3.230469 2.4375-6.433594 4.765625-13.007813 6.976562-19.753906 30.207032-92.546875 23.710938-177.664063-14.492187-190.136719zm0 0" fill="#ffcb7c"/><path d="m30.554688 274.4375-19.996094 207.9375c-1.046875 10.742188 13.84375 19.617188 30.773437 19.617188h313.320313c16.960937 0 31.851562-8.875 30.804687-19.617188l-19.996093-207.9375c-.511719-5.128906-4.707032-6.71875-7.035157-6.152344-7.714843 1.816406-15.371093 4.535156-22.773437 5.984375-8.285156 1.585938-16.28125 1.558594-23.769532-3.234375-15.429687-9.835937-36.390624-3.597656-41.070312-.421875-7.515625 5.128907-17.382812 8.390625-27.992188 8.390625-10.496093 0-19.882812-3.714844-27.738281-8.25-2.808593-1.585937-5.617187-2.722656-8.367187-3.457031-3.007813-.824219-5.929688-1.164063-8.707032-1.136719-2.609374-.027344-5.332031.285156-8.140624.992188-2.921876.710937-5.929688 1.902344-8.933594 3.601562-7.855469 4.535156-17.246094 8.25-27.765625 8.25-10.609375 0-20.480469-3.261718-27.996094-8.390625-4.652344-3.175781-25.609375-9.410156-41.039063.421875-1.730468 1.105469-3.492187 1.957032-5.277343 2.609375-12.820313 4.566407-26.914063-1.984375-41.265625-5.355469-2.324219-.566406-6.523438 1.019532-7.035156 6.148438zm0 0" fill="#ffc15a"/><path d="m198.007812 434.390625c47.675782 0 86.589844-18.652344 86.589844-41.527344s-38.910156-41.523437-86.589844-41.523437c-47.707031 0-86.589843 18.648437-86.589843 41.523437s38.882812 41.527344 86.589843 41.527344zm0 0" fill="#ff6977"/></g><path d="m281.496094 154.503906 31.113281 10.144532c1.03125.335937 2.074219.496093 3.105469.496093 4.214844 0 8.132812-2.683593 9.511718-6.90625 1.714844-5.253906-1.15625-10.90625-6.410156-12.621093l-31.113281-10.144532c-5.261719-1.714844-10.90625 1.15625-12.621094 6.410156-1.714843 5.257813 1.15625 10.90625 6.414063 12.621094zm0 0"/><path d="m253.386719 212.070312 47.992187 15.648438c1.027344.335938 2.074219.496094 3.101563.496094 4.214843 0 8.136719-2.6875 9.515625-6.910156 1.714844-5.253907-1.15625-10.90625-6.414063-12.617188l-47.988281-15.648438c-5.253906-1.714843-10.90625 1.160157-12.617188 6.414063-1.714843 5.253906 1.15625 10.90625 6.410157 12.617187zm0 0"/><path d="m125.710938 110.125h32.730468c5.527344 0 10.007813-4.480469 10.007813-10.007812 0-5.527344-4.476563-10.007813-10.007813-10.007813h-32.730468c-5.527344 0-10.007813 4.480469-10.007813 10.007813 0 5.527343 4.480469 10.007812 10.007813 10.007812zm0 0"/><path d="m116.835938 173.589844h50.484374c5.527344 0 10.007813-4.480469 10.007813-10.007813 0-5.527343-4.480469-10.011719-10.007813-10.011719h-50.484374c-5.53125 0-10.011719 4.484376-10.011719 10.011719 0 5.527344 4.480469 10.007813 10.011719 10.007813zm0 0"/><path d="m158.441406 217.007812h-32.730468c-5.527344 0-10.007813 4.480469-10.007813 10.007813 0 5.53125 4.480469 10.011719 10.007813 10.011719h32.730468c5.527344 0 10.007813-4.480469 10.007813-10.011719 0-5.527344-4.476563-10.007813-10.007813-10.007813zm0 0"/><path d="m263.511719 354.496094c-17.710938-8.488282-40.976563-13.167969-65.503907-13.167969-24.539062 0-47.808593 4.679687-65.515624 13.167969-20.042969 9.617187-31.085938 23.242187-31.085938 38.367187s11.042969 28.75 31.085938 38.363281c17.707031 8.492188 40.976562 13.171876 65.515624 13.171876 24.527344 0 47.792969-4.679688 65.503907-13.171876 20.050781-9.613281 31.097656-23.238281 31.097656-38.363281-.003906-15.125-11.046875-28.75-31.097656-38.367187zm-65.503907 69.882812c-43.832031 0-76.582031-16.636718-76.582031-31.515625 0-14.875 32.75-31.515625 76.582031-31.515625 43.832032 0 76.582032 16.640625 76.582032 31.515625 0 14.878907-32.75 31.515625-76.582032 31.515625zm0 0"/><path d="m365.152344 372.085938v.199218c0 5.527344 4.480468 10.007813 10.007812 10.007813s10.007813-4.480469 10.007813-10.007813v-.199218c0-5.527344-4.480469-10.007813-10.007813-10.007813s-10.007812 4.480469-10.007812 10.007813zm0 0"/><path d="m395.417969 481.421875-7.089844-73.839844c-.527344-5.503906-5.417969-9.53125-10.921875-9.007812-5.5.527343-9.535156 5.417969-9.003906 10.917969l7.089844 73.859374c.070312.699219-.824219 1.746094-1.101563 2.050782-2.875 3.167968-10.277344 6.578125-19.738281 6.578125h-313.320313c-9.441406 0-16.835937-3.410157-19.707031-6.578125-.277344-.300782-1.171875-1.347656-1.101562-2.066406l19.621093-204.050782c1.484375.410156 2.992188.84375 4.542969 1.289063 13.925781 4.003906 29.707031 8.542969 44.824219-1.097657 11.222656-7.152343 27.449219-2.164062 30.019531-.597656 5.980469 4.085938 12.890625 7.023438 20.191406 8.648438 4.378906.980468 8.898438 1.484375 13.445313 1.484375 10.871093 0 21.59375-3.136719 32.730469-9.570313 3.839843-2.191406 7.914062-3.269531 12.054687-3.269531h.15625c2.019531-.027344 4 .242187 5.964844.777344.003906.003906.011719.003906.019531.003906.011719.003906.019531.007813.03125.011719 2.019531.542968 4.050781 1.382812 5.953125 2.457031 11.175781 6.453125 21.886719 9.589844 32.742187 9.589844 12.117188 0 24.0625-3.597657 33.554688-10.078125.167969-.101563.382812-.214844.648438-.339844 4-1.851562 18.945312-5.828125 29.476562.882812 15.121094 9.640626 30.902344 5.101563 44.828125 1.097657 1.542969-.441407 3.050781-.875 4.539063-1.289063l5.300781 55.210938c.527343 5.503906 5.421875 9.539062 10.921875 9.007812 5.5-.527344 9.53125-5.417968 9.003906-10.921875l-5.675781-59.132812c-.511719-5.148438-2.976563-9.535157-6.945313-12.34375-3.660156-2.59375-8.300781-3.542969-12.347656-2.554688-1.582031.371094-3.148438.78125-4.695312 1.199219.238281-.710938.480468-1.414062.714843-2.128906 15.003907-45.976563 21.707031-91.773438 18.871094-128.964844-3.066406-40.214844-17.191406-66.421875-39.78125-73.796875-20.515625-6.679687-44.023437 2.90625-67.996094 27.710937-14.40625 14.90625-28.375 34.898438-40.773437 58.109376-3.320313-30.996094-10.027344-59.492188-19.675782-82.863282-15.394531-37.285156-36.953124-57.816406-60.710937-57.816406s-45.316406 20.53125-60.714844 57.816406c-14.234375 34.476563-22.074219 80.101563-22.074219 128.46875 0 27.28125 2.574219 54.277344 7.46875 78.800782-4.625-.410157-9.988281-1.867188-16.539062-3.75-3.335938-.960938-6.789062-1.953126-10.257812-2.773438-4.117188-1-8.757813-.050781-12.417969 2.542969-3.96875 2.808593-6.4375 7.191406-6.949219 12.375l-19.996094 207.921875c-.6054685 6.179687 1.597656 12.378906 6.199219 17.449218 7.355469 8.109376 20.589844 13.148438 34.535156 13.148438h313.320313c13.964844 0 27.210937-5.039062 34.566406-13.148438 4.601562-5.074218 6.800781-11.269531 6.199219-17.429687zm-170.554688-295.136719c.277344-1.136718.03125-2.339844-.015625-3.507812-.003906-.089844 0-.179688-.003906-.269532 32.28125-77.949218 76.160156-116.445312 100.183594-108.617187 28.222656 9.210937 38.484375 84.382813 8.089844 177.503906-1.539063 4.6875-3.132813 9.296875-4.769532 13.761719-4.539062.269531-7.945312-.550781-11.085937-2.558594-19.265625-12.28125-44.703125-5.261718-52.089844-.25-6.28125 4.285156-14.21875 6.644532-22.351563 6.644532-7.246093 0-14.683593-2.257813-22.773437-6.925782-.609375-.347656-1.234375-.667968-1.855469-.984375-.007812-.007812-.007812-.019531-.015625-.023437 0-.007813 0-.015625-.003906-.023438 4.4375-23.554687 6.691406-48.652344 6.691406-74.75zm-82.785156-166.265625c29.6875 0 62.769531 68.28125 62.769531 166.265625 0 24.046875-2.109375 48-6.125 69.867188-.132812 0-.265625 0-.398437 0-.160157 0-.320313 0-.484375 0-7.546875 0-15.105469 2.042968-21.910156 5.933594-8.050782 4.648437-15.496094 6.90625-22.761719 6.90625-8.132813 0-16.070313-2.359376-22.351563-6.644532-6.453125-4.40625-26.847656-10.375-44.800781-3.410156-.023437.007812-.042969.011719-.0625.019531-4.359375-22.644531-6.644531-47.503906-6.644531-72.671875 0-97.984375 33.078125-166.265625 62.769531-166.265625zm0 0"/></svg>