<svg height="512pt" viewBox="0 -65 512 512" width="512pt" xmlns="http://www.w3.org/2000/svg"><path d="m240.339844 29.59375c.421875 46.113281-201.578125 33.5625-201.578125 240.820312 0 22.6875-.085938 35.40625 4.054687 42.402344h434.222656c4.136719-6.996094 4.054688-19.714844 4.054688-42.402344 0-207.257812-202.003906-194.710937-201.550781-240.820312.113281-10.820312-8.84375-19.601562-19.617188-19.601562-10.742187 0-19.699219 8.78125-19.585937 19.601562zm0 0" fill="#ffedd1" fill-rule="evenodd"/><path d="m477.035156 312.816406h-467.046875c0 33.113282 29 60.191406 64.433594 60.191406h363.15625c35.433594 0 64.433594-27.078124 64.433594-60.191406zm0 0" fill="#b3b0b5" fill-rule="evenodd"/><path d="m502.011719 302.828125h-11.878907c.945313-7.8125.945313-17.773437.945313-31.074219v-1.34375c0-34.234375-5.453125-65.070312-16.214844-91.65625-9.378906-23.171875-23.089843-43.832031-40.753906-61.410156-32.113281-31.957031-70.820313-48.324219-101.917969-61.472656-21.011718-8.886719-42.742187-18.074219-42.660156-26.175782.082031-7.839843-2.9375-15.25-8.496094-20.867187-5.632812-5.691406-13.128906-8.828125-21.109375-8.828125-7.964843 0-15.449219 3.132812-21.078125 8.820312-5.5625 5.617188-8.582031 13.035157-8.5 20.859376.074219 8.109374-21.65625 17.300781-42.671875 26.1875-20.351562 8.609374-45.679687 19.320312-69.671875 35.320312-4.589844 3.058594-5.828125 9.261719-2.769531 13.851562 3.0625 4.589844 9.261719 5.828126 13.855469 2.769532 22.425781-14.957032 45.769531-24.828125 66.371094-33.542969 30.757812-13.007813 55.054687-23.285156 54.863281-44.78125-.023438-2.464844.941406-4.8125 2.722656-6.613281 1.847656-1.867188 4.289063-2.894532 6.878906-2.894532 2.605469 0 5.058594 1.03125 6.910157 2.902344 1.777343 1.796875 2.742187 4.144532 2.71875 6.613282-.210938 21.492187 24.089843 31.769531 54.855468 44.777343 58.414063 24.699219 146.691406 62.027344 146.691406 196.140625v1.34375c0 13.738282 0 24.609375-1.132812 31.070313h-420.085938c-1.132812-6.460938-1.132812-17.332031-1.132812-31.070313v-1.34375c0-42.625 9.035156-79.050781 26.859375-108.269531 2.871094-4.707031 1.382813-10.855469-3.328125-13.730469-4.710938-2.871094-10.855469-1.382812-13.726562 3.328125-19.761719 32.398438-29.78125 72.324219-29.78125 118.671875v1.34375c-.003907 13.296875-.003907 23.261719.945312 31.070313h-19.730469c-5.515625.003906-9.988281 4.476562-9.988281 9.992187 0 38.695313 33.386719 70.179688 74.421875 70.179688h363.15625c41.035156 0 74.421875-31.484375 74.421875-70.179688 0-5.515625-4.472656-9.988281-9.988281-9.988281zm-64.433594 60.191406h-363.15625c-26.3125 0-48.324219-17.300781-53.363281-40.214843h21.734375c.011719 0 .019531.003906.03125.003906s.019531-.003906.03125-.003906h434.144531c.007812 0 .019531.003906.027344.003906.011718 0 .023437-.003906.03125-.003906h13.882812c-5.039062 22.914062-27.050781 40.214843-53.363281 40.214843zm0 0"/><path d="m165.453125 169.496094 31.605469-31.894532c3.882812-3.917968 3.855468-10.242187-.0625-14.125-3.917969-3.882812-10.242188-3.855468-14.125.0625l-31.609375 31.894532c-3.882813 3.917968-3.851563 10.242187.066406 14.125 1.945313 1.929687 4.488281 2.894531 7.03125 2.894531 2.570313 0 5.140625-.984375 7.09375-2.957031zm0 0"/><path d="m374.929688 172.453125c2.542968 0 5.085937-.964844 7.03125-2.894531 3.917968-3.882813 3.949218-10.207032.066406-14.125l-31.609375-31.894532c-3.882813-3.917968-10.207031-3.945312-14.125-.0625-3.917969 3.882813-3.945313 10.207032-.0625 14.125l31.605469 31.894532c1.953124 1.972656 4.523437 2.957031 7.09375 2.957031zm0 0"/><path d="m276.578125 178.921875v-48.351563c0-5.515624-4.472656-9.988281-9.988281-9.988281-5.519532 0-9.992188 4.472657-9.992188 9.988281v48.351563c0 5.515625 4.472656 9.988281 9.992188 9.988281 5.515625 0 9.988281-4.472656 9.988281-9.988281zm0 0"/><path d="m89.191406 138.097656c2.550782 0 5.101563-.972656 7.050782-2.914062l.140624-.144532c3.90625-3.894531 3.917969-10.21875.023438-14.125-3.890625-3.90625-10.21875-3.917968-14.125-.023437l-.140625.140625c-3.90625 3.894531-3.917969 10.21875-.023437 14.128906 1.949218 1.957032 4.511718 2.9375 7.074218 2.9375zm0 0"/></svg>