<svg height="512pt" viewBox="0 0 512.00016 512" width="512pt" xmlns="http://www.w3.org/2000/svg"><g fill-rule="evenodd"><path d="m90.199219 281.113281c-25.640625 6.34375-45.941407 45.617188-20.976563 77.75l2.566406-2.566406 284.671876-284.652344c-32.132813-24.960937-73.46875-6.136719-77.777344 20.949219-3.570313 22.691406-26.46875 33.757812-33.546875 34.4375-11.390625 1.03125-22.808594 5.929688-31.601563 14.722656-8.675781 8.675782-12.71875 20.183594-14.695312 31.246094-1.472656 8.324219-5.074219 14.429688-9.46875 18.796875-4.339844 4.367187-10.476563 7.996094-18.765625 9.472656-11.066407 1.945313-22.574219 5.988281-31.277344 14.695313-8.761719 8.761718-13.660156 20.210937-14.722656 31.601562-.648438 7.050782-11.921875 27.96875-34.40625 33.546875zm0 0" fill="#cbe558"/><path d="m356.460938 71.644531-284.671876 284.652344-34.375 34.375-.175781.207031c-3.984375 3.953125-7.257812 8.378906-9.855469 13.074219-12.511718 22.511719-9.234374 51.636719 9.855469 70.726563 19.058594 19.0625 48.183594 22.335937 70.726563 9.855468 4.691406-2.597656 9.085937-5.902344 13.039062-9.855468l32.015625-32.015626c-.027343-.027343-.058593-.058593-.089843-.058593.914062-.796875 1.800781-1.652344 2.65625-2.507813l284.671874-284.679687 34.554688-34.554688c.527344-.5 1-1.03125 1.503906-1.53125 21.539063-23.164062 21.039063-59.722656-1.503906-82.265625-22.515625-22.542968-59.101562-23.046875-82.234375-1.476562-.53125.472656-1.035156.976562-1.535156 1.476562zm0 0" fill="#ff6977"/><path d="m379.121094 22.132812c-79.78125-79.785156-442.96875 268.304688-355.191406 355.171876l13.484374 13.367187 31.808594-31.808594c-24.964844-32.132812-4.664062-71.40625 20.976563-77.75 22.484375-5.574219 33.757812-26.496093 34.40625-33.546875 1.0625-11.390625 5.960937-22.839844 14.722656-31.601562 8.703125-8.707032 20.210937-12.75 31.277344-14.695313 8.289062-1.476562 14.425781-5.105469 18.765625-9.472656 4.394531-4.367187 7.996094-10.472656 9.46875-18.796875 1.976562-11.0625 6.019531-22.570312 14.695312-31.246094 8.792969-8.792968 20.210938-13.691406 31.601563-14.722656 7.078125-.679688 29.976562-11.746094 33.546875-34.4375 4.308594-27.085938 45.644531-45.910156 77.777344-20.949219l34.582031-34.582031c.5-.5 1.003906-1.003906 1.535156-1.472656zm0 0" fill="#ffc15a"/><path d="m440.257812 155.414062-284.671874 284.679688-2.566407 2.570312c32.132813 24.960938 71.402344 4.691407 77.746094-20.980468 5.578125-22.484375 26.496094-33.757813 33.578125-34.40625 11.390625-1.0625 22.808594-5.957032 31.601562-14.722656 8.675782-8.703126 12.71875-20.210938 14.695313-31.277344 1.445313-8.289063 5.074219-14.398438 9.46875-18.765625 4.339844-4.398438 10.476563-7.996094 18.765625-9.472657 11.066406-1.976562 22.574219-5.988281 31.25-14.695312 8.792969-8.792969 13.691406-20.210938 14.75-31.601562.652344-7.082032 11.746094-29.976563 34.40625-33.546876 27.117188-4.308593 45.910156-45.648437 20.976562-77.78125zm0 0" fill="#cbe558"/><path d="m264.34375 387.277344c-7.082031.648437-28 11.921875-33.578125 34.40625-6.34375 25.671875-45.613281 45.941406-77.746094 20.980468l-31.808593 31.804688 13.367187 13.488281c86.863281 87.78125 434.945313-275.417969 355.191406-355.203125l-13.453125-13.457031c-.503906.53125-.976562 1.0625-1.507812 1.566406l-34.550782 34.550781c24.933594 32.132813 6.136719 73.472657-20.976562 77.78125-22.664062 3.570313-33.757812 26.46875-34.40625 33.546876-1.0625 11.390624-5.960938 22.808593-14.753906 31.601562-8.671875 8.707031-20.179688 12.71875-31.246094 14.695312-8.289062 1.476563-14.425781 5.074219-18.765625 9.472657-4.394531 4.367187-8.027344 10.476562-9.472656 18.765625-1.976563 11.066406-6.015625 22.574218-14.691407 31.277344-8.792968 8.765624-20.210937 13.660156-31.601562 14.722656zm0 0" fill="#ffc15a"/></g><path d="m191.59375 324.871094c14.199219-3.453125 28.203125-11.535156 39.425781-22.761719 9.976563-9.976563 17.332031-22.515625 22.492188-38.359375 2.035156-6.292969 5.421875-11.828125 10.105469-16.484375 4.617187-4.640625 10.148437-8.027344 16.464843-10.066406 15.820313-5.15625 28.359375-12.507813 38.335938-22.488281 11.203125-11.203126 19.296875-25.199219 22.792969-39.4375 1.039062-4.183594 13.449218-26.679688 33.054687-32.070313 28.132813-7.804687 56.886719-36.953125 54.847656-67.902344-.378906-5.742187-5.332031-10.097656-11.078125-9.710937-5.742187.378906-10.085937 5.339844-9.710937 11.078125 1.203125 18.230469-17.6875 40.375-39.605469 46.457031-27.714844 7.621094-45.152344 36.496094-47.746094 47.214844-2.59375 10.5625-8.734375 21.089844-17.285156 29.644531-7.601562 7.601563-17.433594 13.296875-30.035156 17.398437-9.484375 3.066407-17.828125 8.175782-24.765625 15.15625-7.019531 6.976563-12.132813 15.324219-15.1875 24.785157-4.113281 12.625-9.808594 22.457031-17.410157 30.058593-8.558593 8.558594-19.078124 14.6875-29.640624 17.253907-10.738282 2.640625-39.574219 20.128906-47.210938 47.738281-6.058594 21.960938-28.191406 40.859375-46.445312 39.621094-5.742188-.390625-10.703126 3.953125-11.089844 9.695312-.382813 5.738282 3.957031 10.703125 9.695312 11.089844 1.066406.070312 2.125.105469 3.183594.105469 29.789062-.003907 57.230469-27.765625 64.734375-54.964844 5.410156-19.5625 27.921875-32.007813 32.078125-33.050781zm0 0"/><path d="m497.132812 125.386719-6.878906-6.878907c18.726563-27.132812 16.046875-64.683593-8.078125-88.808593-13.113281-13.113281-30.605469-20.335938-49.25-20.335938-14.371093 0-28.046875 4.304688-39.566406 12.273438l-6.871094-6.871094c-14.871093-14.867187-45.785156-26.042969-108.628906 5.179687-41.375 20.554688-89.75 56.0625-136.21875 99.988282-4.179687 3.949218-4.363281 10.542968-.410156 14.722656 2.046875 2.167969 4.804687 3.261719 7.570312 3.261719 2.566407 0 5.140625-.945313 7.152344-2.847657 45.007813-42.546874 91.59375-76.808593 131.171875-96.46875 40.382812-20.0625 70.4375-23.296874 84.628906-9.105468l6.0625 6.058594-22.675781 22.675781c-16.796875-9.722657-36.546875-11.4375-54.398437-4.382813-17.40625 6.875-29.800782 21.097656-32.347657 37.125-2.675781 16.996094-20.636719 25.210938-24.199219 25.679688-14.394531 1.304687-27.898437 7.605468-38.027343 17.734375-9.019531 9.019531-14.769531 21.050781-17.585938 36.792969-.957031 5.40625-3.164062 9.855468-6.605469 13.273437-3.367187 3.390625-7.808593 5.597656-13.179687 6.554687-15.71875 2.765626-27.769531 8.519532-36.835937 17.585938-10.089844 10.089844-16.382813 23.585938-17.722657 37.949219-.550781 3.773437-8.933593 20.089843-26.539062 24.457031-16.445313 4.066406-30.585938 17.929688-36.902344 36.183594-5.84375 16.886718-3.960937 34.800781 5.035156 50.367187l-18.433593 18.433594-6.144532-6.085937c-13.535156-13.390626-14.0625-36.261719-1.570312-67.976563 12.109375-30.734375 35.863281-67.46875 68.699218-106.230469 3.71875-4.386718 3.175782-10.960937-1.214843-14.679687s-10.960938-3.175781-14.679688 1.214843c-34.292969 40.480469-59.253906 79.230469-72.183593 112.058594-19.726563 50.070313-7.460938 76.808594 6.292968 90.414063l6.605469 6.546875c-20.265625 27.257812-18.046875 66.074218 6.667969 90.792968 13.113281 13.113282 30.605468 20.332032 49.25 20.332032 15.195312 0 29.621094-4.796875 41.535156-13.667969l6.523438 6.582031c11.019531 11.128906 25.425781 16.710938 43.027343 16.710938 8.59375 0 17.949219-1.332032 28.035157-3.996094 49.996093-13.203125 118.914062-61.070312 184.351562-128.035156 64.785156-66.289063 111.570312-135.914063 125.15625-186.242188 8.144531-30.148437 4.570312-53.140625-10.617188-68.335937zm-426.648437 188.609375c3.910156-11.304688 12.835937-20.453125 22.222656-22.773438 27.386719-6.792968 41.242188-31.566406 42.265625-42.691406.894532-9.589844 5.058594-18.542969 11.71875-25.203125 5.941406-5.941406 14.355469-9.800781 25.738282-11.804687 9.558593-1.699219 17.972656-5.984376 24.28125-12.339844 6.496093-6.449219 10.664062-14.648438 12.382812-24.351563 2.035156-11.394531 5.898438-19.804687 11.804688-25.714843 6.691406-6.6875 15.632812-10.847657 25.230468-11.71875 10.769532-1.03125 38.398438-14.925782 42.839844-43.167969 1.394531-8.773438 8.839844-16.824219 19.429688-21.007813 4.800781-1.894531 9.824218-2.824218 14.855468-2.824218 5.546875 0 11.101563 1.128906 16.378906 3.34375l-268.324218 268.304687c-4.890625-11.714844-2.871094-22.136719-.824219-28.050781zm43.363281 153.109375-.207031.207031c-9.179687 9.179688-21.4375 14.230469-34.519531 14.230469-13.082032 0-25.339844-5.050781-34.519532-14.230469-19.039062-19.042969-19.039062-50.027344 0-69.070312l31.011719-31.007813c.511719-.394531 1-.828125 1.441407-1.316406.46875-.519531.980468-1.078125 1.484374-1.613281l285.015626-285.023438.273437-.269531 34.578125-34.582031c9.179688-9.179688 21.4375-14.234376 34.519531-14.234376s25.339844 5.054688 34.519531 14.234376c19.042969 19.042968 19.042969 50.027343 0 69.066406l-319.261718 319.273437c-.859375.855469-1.507813 1.46875-2.09375 1.976563-.542969.476562-1.027344 1.003906-1.453125 1.570312zm324.8125-263.613281c-4.1875 10.582031-12.238281 18.019531-21 19.414062-28.347656 4.464844-42.167968 32.109375-43.15625 42.871094-.890625 9.570312-5.0625 18.519531-11.757812 25.214844-5.878906 5.894531-14.285156 9.753906-25.695313 11.792968-9.59375 1.707032-18 5.984375-24.320312 12.375-6.515625 6.488282-10.667969 14.671875-12.347657 24.285156-2.035156 11.394532-5.898437 19.820313-11.792968 25.730469-6.695313 6.671875-15.648438 10.839844-25.199219 11.730469-11.148437 1.019531-35.941406 14.875-42.738281 42.277344-2.316406 9.375-11.464844 18.304687-22.769532 22.222656-5.914062 2.046875-16.34375 4.070312-28.0625-.816406l268.332032-268.34375c4.226562 10.070312 4.5 21.15625.507812 31.246094zm48.980469-15.195313c-12.511719 46.34375-58.46875 114.207031-119.941406 177.113281-62.925781 64.390625-128.261719 110.167969-174.773438 122.453125-23.035156 6.085938-40.175781 3.648438-50.945312-7.234375 0 0-.003907-.003906-.003907-.003906l-6.066406-6.121094 18.429688-18.429687c9.578125 5.527343 20.039062 8.375 30.609375 8.375 6.605469 0 13.257812-1.109375 19.753906-3.359375 18.25-6.320313 32.113281-20.460938 36.175781-36.898438 4.375-17.636718 20.703125-26 24.433594-26.539062 14.378906-1.34375 27.867188-7.632813 38.011719-17.742188 9.015625-9.046875 14.761719-21.085937 17.578125-36.84375.933594-5.34375 3.136718-9.773437 6.550781-13.164062.027344-.023438.050781-.046875.074219-.074219 3.328125-3.371094 7.757812-5.570313 13.183594-6.53125 15.765624-2.816406 27.800781-8.574219 36.78125-17.585937 10.105468-10.105469 16.414062-23.601563 17.753906-37.976563.472656-3.640625 8.664062-21.570313 25.671875-24.25 16.011719-2.542969 30.234375-14.929687 37.117187-32.324219 7.058594-17.855468 5.351563-37.613281-4.367187-54.421875l22.679687-22.679687 6.058594 6.0625c9.53125 9.53125 11.292969 25.742187 5.234375 48.175781zm0 0"/><path d="m112.542969 165.226562c1.921875 1.539063 4.222656 2.285157 6.507812 2.285157 3.054688 0 6.078125-1.335938 8.136719-3.902344l.117188-.148437c3.597656-4.488282 2.871093-11.042969-1.617188-14.640626-4.488281-3.597656-11.042969-2.871093-14.640625 1.617188l-.117187.144531c-3.597657 4.492188-2.875 11.046875 1.613281 14.644531zm0 0"/></svg>