<svg height="511pt" viewBox="1 -30 511.999 511" width="511pt" xmlns="http://www.w3.org/2000/svg"><g fill-rule="evenodd"><path d="m255.25 54.742188c-24.917969 0-45.097656 20.195312-45.097656 45.09375 0 8.609374 2.4375 16.679687 6.632812 23.535156h76.957032c4.195312-6.855469 6.632812-14.925782 6.632812-23.535156 0-24.898438-20.210938-45.09375-45.125-45.09375zm0 0" fill="#ff6977"/><path d="m443.378906 123.371094h-387.34375c-11.820312 0-21.484375 9.65625-21.484375 21.46875 0 11.808594 9.664063 21.46875 21.484375 21.46875h365.859375v213.976562h42.96875v-235.445312c0-11.8125-9.664062-21.46875-21.484375-21.46875zm0 0" fill="#c68a65"/><path d="m62.496094 166.308594h359.398437v77.261718h-359.398437zm0 0" fill="#ffd89e"/><path d="m62.496094 309.195312h359.398437v71.089844h-359.398437zm0 0" fill="#ffd89e"/><path d="m62.496094 243.570312h359.398437v65.625h-359.398437zm0 0" fill="#ff6977"/><path d="m421.894531 380.285156h-411.890625c0 3.285156.28125 6.515625.820313 9.660156 4.988281 28.578126 31.691406 50.554688 63.609375 50.554688h363.136718c35.429688 0 64.429688-27.105469 64.429688-60.214844zm0 0" fill="#fbc2c7"/></g><path d="m501.996094 370.285156h-27.128906v-224.808594c.015624-.210937.019531-.425781.019531-.636718 0-.261719-.007813-.519532-.027344-.773438-.414063-16.996094-14.375-30.699218-31.480469-30.699218h-134.695312c1.117187-4.402344 1.695312-8.945313 1.695312-13.53125 0-28.09375-21.15625-51.328126-48.382812-54.667969-2.296875-6.769531-3.03125-16.324219 2.601562-31.101563 1.964844-5.164062-.621094-10.941406-5.785156-12.910156-5.164062-1.964844-10.941406.625-12.910156 5.785156-5.617188 14.742188-7.035156 27.59375-4.285156 39.507813-23.8125 6.082031-41.46875 27.710937-41.46875 53.386719 0 4.585937.578124 9.128906 1.695312 13.53125h-145.808594c-17.363281 0-31.488281 14.117187-31.488281 31.472656 0 16.15625 12.246094 29.5 27.949219 31.265625v194.175781h-42.492188c-5.527344.003906-10.003906 4.480469-10.003906 10.003906 0 3.789063.324219 7.605469.972656 11.378906 2.847656 16.316407 11.828125 31.261719 25.292969 42.074219 13.460937 10.808594 30.566406 16.765625 48.164063 16.765625h363.136718c41.042969 0 74.433594-31.5 74.433594-70.21875 0-5.523437-4.476562-10-10.003906-10zm-281.84375-270.449218c0-19.34375 15.738281-35.082032 35.082031-35.089844h.023437.019532c19.355468.015625 35.097656 15.75 35.097656 35.089844 0 4.664062-.929688 9.261718-2.71875 13.53125h-64.785156c-1.789063-4.269532-2.71875-8.867188-2.71875-13.53125zm-175.601563 45.003906c0-6.324219 5.152344-11.46875 11.484375-11.46875h387.34375c6.332032 0 11.484375 5.144531 11.484375 11.46875v225.445312h-22.96875v-203.976562c0-5.523438-4.480469-10.003906-10.003906-10.003906h-365.855469c-6.332031 0-11.484375-5.144532-11.484375-11.464844zm27.949219 108.734375h136.800781c5.523438 0 10-4.476563 10-10.003907 0-5.523437-4.476562-10-10-10h-136.800781v-57.261718h339.390625v57.261718h-120.417969c-5.523437 0-10 4.476563-10 10 0 5.527344 4.476563 10.003907 10 10.003907h120.417969v45.621093h-339.390625zm0 65.625h339.390625v51.085937h-339.390625zm365.066406 111.300781h-363.132812c-25.6875 0-48.234375-17.160156-53.347656-40.210938h469.824218c-5.039062 22.910157-27.042968 40.210938-53.34375 40.210938zm0 0"/><path d="m251.734375 233.570312h-.199219c-5.523437 0-10 4.476563-10 10 0 5.527344 4.476563 10.003907 10 10.003907h.199219c5.523437 0 10-4.476563 10-10.003907 0-5.523437-4.476563-10-10-10zm0 0"/></svg>