<svg height="512pt" viewBox="0 -26 512.00034 512" width="512pt" xmlns="http://www.w3.org/2000/svg"><g fill-rule="evenodd"><path d="m207.15625 105.746094c-104.710938 17.351562-197.046875 99.757812-197.046875 244.640625 0 88.792969 71.164063 98.355469 97.519531 98.386719l290.097656.140624c26.070313 0 110.667969-7.902343 103.761719-99.816406-10.96875-146.027344-106.113281-226.34375-209.820312-243.378906-28.046875-4.609375-56.722657-4.582031-84.511719.027344zm0 0" fill="#ffc15a"/><path d="m128.601562 195.941406c-.542968-36.222656 47.242188-38.683594 48.101563-3.695312v16.921875c0 9.792969 10.226563 17.640625 22.6875 17.46875 12.464844-.171875 22.230469-8.332031 22.230469-18.125v-31.554688c0-24.453125 47.671875-25.65625 47.671875.171875v24.078125c0 9.792969 9.742187 17.953125 22.203125 18.125 12.464844.203125 23.0625-7.644531 23.09375-17.4375v-8.617187c.855468-34.992188 59.042968-24.625 58.011718 1.6875-.171874 6.441406-.058593 18.699218-.230468 25.167968-3.292969 26.316407 11.777344 40.117188 28.246094 42.464844 17.792968 2.546875 37.273437-8.304687 37.128906-31.296875l-.285156-45.527343c-38.246094-43.867188-89.582032-70.292969-143.355469-79.65625v.054687c-29.910157-5.210937-60.535157-5.152344-90.128907.144531-.03125 0-.03125-.027344-.03125-.027344-50.761718 9.074219-98.433593 33.527344-133.789062 73.042969l.316406 70.609375c-.285156 21.070313 10.859375 29.949219 22.632813 31.007813 13.003906 1.144531 37.871093-3.550781 35.523437-33.988281-.171875-6.464844.113282-44.546876-.027344-51.019532zm0 0" fill="#c68a65"/><path d="m207.15625 105.746094c27.789062-4.609375 56.464844-4.636719 84.511719-.027344.832031.113281 1.632812.257812 2.433593.402344.34375-2.207032.515626-4.46875.515626-6.789063 0-25.167969-20.425782-45.554687-45.605469-45.554687-25.183594 0-45.582031 20.386718-45.582031 45.554687 0 2.378907.171874 4.699219.515624 6.960938 1.0625-.203125 2.121094-.375 3.210938-.546875zm0 0" fill="#ff6977"/></g><path d="m292.367188 116.136719c-.097657.007812-.089844.007812 0 0zm0 0"/><path d="m293.445312 438.660156h-.203124c-5.582032 0-10.109376 4.527344-10.109376 10.113282 0 5.582031 4.527344 10.109374 10.109376 10.109374h.203124c5.582032 0 10.109376-4.527343 10.109376-10.109374 0-5.585938-4.527344-10.113282-10.109376-10.113282zm0 0"/><path d="m511.570312 348.339844c-6.148437-81.742188-38.523437-149.472656-93.621093-195.871094-32.527344-27.386719-71.417969-45.992188-113.261719-54.6875-.746094-27.070312-20.917969-49.371094-47.066406-53.445312-.488282-7.128907 1.292968-16.152344 9.539062-28.65625 3.078125-4.660157 1.789063-10.933594-2.871094-14.007813-4.660156-3.074219-10.933593-1.789063-14.007812 2.875-9.316406 14.125-13.5 27.199219-12.828125 40.335937-24.765625 5.25-43.496094 27-44.097656 53.15625-45.640625 9.746094-87.019531 31.335938-119.503907 62.863282-48.316406 46.890625-73.851562 112.414062-73.851562 189.484375 0 52.1875 23.785156 78.300781 43.738281 91.015625 23.863281 15.210937 50.507813 17.480468 64.265625 17.480468h142.957032c5.582031 0 10.109374-4.527343 10.109374-10.109374 0-5.585938-4.527343-10.113282-10.109374-10.113282h-58.5625c-.824219-.214844-1.683594-.34375-2.574219-.34375-.199219 0-.398438.003906-.597657.003906-67.207031-.003906-88.265624-49.667968-94.207031-71.066406-4.675781-16.84375-5.71875-34.726562-2.945312-50.359375 2.1875-12.320312 6.617187-21.894531 12.023437-26.210937 7.410156-1.019532 16.574219-3.847656 23.898438-11.089844 5.605468-5.542969 11.996094-15.785156 10.734375-33.128906-.078125-3.550782-.042969-15.664063-.011719-26.375.027344-10.824219.058594-21.046875-.011719-24.328125-.175781-12.441407 7.25-18.164063 14.691407-18.308594.09375-.003906.1875-.003906.28125-.003906 6.097656 0 12.597656 3.910156 12.910156 14.933593v16.785157c0 6.664062 2.78125 13.078125 7.832031 18.058593 6.269531 6.183594 15.460937 9.644532 25.105469 9.515626 18.058594-.246094 32.203125-12.648438 32.203125-28.234376v-31.550781c0-6.355469 8.425781-8.664062 14.089843-8.664062 4.046876 0 7.792969 1.019531 10.28125 2.796875 2.128907 1.523437 3.078126 3.382812 3.078126 6.039062v24.078125c0 15.585938 14.132812 27.988281 32.152343 28.234375 9.851563.183594 19.109375-3.347656 25.496094-9.617187 5.054687-4.960938 7.847656-11.316407 7.867187-17.929688v-8.480469c.148438-4.996093 1.953126-8.261718 5.675782-10.265624 6.644531-3.578126 17.953125-2.578126 25.746094 2.285156 2.457031 1.535156 6.550781 4.761718 6.378906 9.136718 0 .042969-.003906.085938-.003906.125-.089844 3.339844-.105469 8.15625-.117188 12.816407-.015625 4.320312-.027344 8.777343-.101562 11.886719-3.816407 32.390624 16.40625 50.285156 36.910156 53.207031 2.804687.402343 5.628906.523437 8.421875.40625 11.648437 11.792969 19.019531 50.292969 10.648437 77.847656-3.847656 12.664063-9.863281 19.082031-17.878906 19.082031-.019531 0-.039062 0-.0625 0h-199.660156c-12.511719-.046875-19.429688-6.535156-20.507813-18.132812s4.167969-26.4375 13.695313-38.734375c11.164062-14.402344 26.976562-24.1875 44.53125-27.550781 31.679687-6.082032 55.804687 3.804687 70.464844 13.167968 17.910156 11.4375 26.25 24.570313 27.253906 27.6875.484375 5.289063 5.023437 9.367188 10.394531 9.171875 5.582031-.179687 9.960937-4.851562 9.777344-10.433593-.34375-10.660157-13.875-26.207032-26.300781-36.140626-15.683594-12.535156-48.941407-32.230468-95.398438-23.3125-47.90625 9.175782-77.738281 53.75-74.550781 88.015626 2.039062 21.90625 17.773437 36.398437 40.5625 36.480468h199.660156.15625c17.449219 0 30.664063-11.863281 37.210937-33.421875 4.898438-16.121093 5.71875-37.507812 2.191407-57.207031-1.535157-8.578125-4.820313-21.785156-11.46875-32.515625 2.136719-1.257813 4.160156-2.6875 6.015625-4.308594 8.796875-7.675781 13.597656-18.851562 13.519531-31.46875l-.101563-15.648437c23.542969 35.125 39.542969 79.648437 43.648438 134.265625 1.972656 26.214843-3.984375 46.992187-17.707031 61.75-23.40625 25.175781-63.566407 27.199219-75.714844 27.199219-.082031 0-.160156 0-.238281 0l-64.113282-.144532c-.007812 0-.015624 0-.023437 0-5.574219 0-10.097656 4.511719-10.109375 10.089844-.011719 5.582031 4.503906 10.117188 10.085938 10.132812l64.117187.144532h.316406c18.066407 0 62.308594-3.34375 90.488281-33.652344 17.710938-19.050781 25.472657-44.96875 23.0625-77.035156zm-262.59375-284.449219h.027344.023438c17.875.007813 32.695312 13.269531 35.128906 30.457031-14.722656-1.878906-29.726562-2.574218-44.882812-2.007812-8.5625.324218-17.039063 1.058594-25.402344 2.164062 2.359375-17.253906 17.203125-30.597656 35.105468-30.613281zm-136.933593 368.207031c2.738281 2.347656 5.578125 4.527344 8.511719 6.5625h-12.550782c-26.394531 0-87.78125-8.601562-87.78125-88.273437 0-57.839844 15.332032-104.691407 39.957032-141.054688l.183593 40.570313c-.257812 21.066406 9.316407 32.855468 20.398438 38.03125-3.914063 6.96875-6.84375 15.554687-8.597657 25.425781-3.292968 18.546875-2.09375 39.609375 3.371094 59.300781 6.703125 24.148438 19.328125 44.703125 36.507813 59.4375zm309-184.625c-4.832031 4.21875-11.929688 6.132813-18.996094 5.117188-11.183594-1.59375-22.21875-10.628906-19.644531-31.199219.042968-.324219.066406-.65625.074218-.984375.089844-3.355469.105469-8.171875.121094-12.832031.011719-4.515625.027344-9.183594.109375-12.289063.386719-10.621094-5.398437-20.460937-15.882812-27-14.046875-8.769531-32.976563-9.976562-46.039063-2.9375-10.210937 5.5-16.003906 15.332032-16.304687 27.683594-.003907.082031-.003907.164062-.003907.246094v8.589844c-.003906 1.453124-.984374 2.71875-1.808593 3.527343-2.476563 2.433594-6.691407 3.941407-11.03125 3.832031-7.210938-.101562-12.234375-4.304687-12.234375-8.015624v-24.082032c0-16.832031-14.121094-29.050781-33.578125-29.050781-8.328125 0-16.273438 2.324219-22.375 6.550781-7.699219 5.332032-11.9375 13.265625-11.9375 22.328125v31.554688c0 3.710937-5.035157 7.914062-12.261719 8.015625-4.246094.097656-8.222656-1.320313-10.625-3.695313-.828125-.8125-1.8125-2.113281-1.8125-3.660156v-16.921875c0-.085938-.003906-.167969-.003906-.25-.5625-22.941406-16.992188-34.765625-33.15625-34.765625-.21875 0-.4375 0-.65625.003906-17.003906.335938-34.878906 14.070313-34.503906 38.855469v.070312c.066406 2.976563.035156 13.597657.003906 23.871094-.035156 12.175782-.066406 23.679688.023437 27.203125.007813.167969.015625.339844.027344.507813.605469 7.863281-1 13.742187-4.773437 17.476562-5.074219 5.019532-13.832032 6.191406-19.765626 5.664063-8.832031-.796875-13.597656-8.183594-13.429687-20.804688.003906-.058593.003906-.121093.003906-.179687l-.296875-65.867188c42.695313-45.996094 102.402344-69.332031 159.746094-71.484375 17.261719-.648437 34.863281.523438 52.335938 3.582031v.003907c.007812.003906.03125.003906.058593.003906 46.949219 8.226563 92.96875 30.097656 129.015625 67.007813 1.964844 2.125 3.941406 4.285156 5.929688 6.492187l.265625 41.726563c.042969 6.832031-2.175781 12.253906-6.59375 16.105468zm0 0"/></svg>