<svg height="512pt" viewBox="0 -14 512 512" width="512pt" xmlns="http://www.w3.org/2000/svg"><g fill-rule="evenodd"><path d="m93.472656 148.46875c0 4.65625 3.808594 8.433594 8.433594 8.433594h67.730469c4.625 0 8.433593-3.777344 8.433593-8.433594v-32.554688h-84.597656zm0 0" fill="#cbe558"/><path d="m178.070312 115.914062h294.960938c15.9375 0 28.96875-13.03125 28.96875-28.972656v-47.757812c0-15.96875-13.03125-29-28.96875-29h-403.847656c-15.9375 0-29 13.03125-29 29v47.757812c0 15.941406 13.0625 28.972656 29 28.972656zm0 0" fill="#e2f1a1"/><path d="m393.703125 115.914062h79.324219v313.640626h-79.324219zm0 0" fill="#cbe558"/><path d="m34.597656 473.816406h439.222656c12.15625 0 22.113282-9.957031 22.113282-22.117187 0-12.1875-9.957032-22.144531-22.113282-22.144531h-439.222656c-12.15625 0-22.113281 9.957031-22.113281 22.144531-.003906 12.160156 9.957031 22.117187 22.113281 22.117187zm0 0" fill="#e2f1a1"/><path d="m238.46875 429.554688c81.128906 0 110.328125-43.640626 110.328125-110.359376v-25.21875c0-8.320312-5.332031-21.242187-21.921875-21.242187h-294.957031c-6.542969 0-11.339844 2.03125-14.753907 4.964844-5.21875 4.515625-7.164062 11.230469-7.164062 16.277343v25.21875c0 18.449219 2.230469 35.125 7.164062 49.625 12.949219 37.882813 44.457032 60.734376 103.164063 60.734376zm0 0" fill="#ff6977"/><path d="m180.921875 326.898438c0 25.5 28.265625 25.023437 31.507813 6.769531.113281-.648438.199218-1.296875.253906-1.976563.058594-.957031.058594-1.972656 0-3.046875.960937-14.105469 13.117187-15.457031 19.804687-9.421875 2.539063 2.285156 4.257813 5.644532 4.316407 9.761719.027343 3.074219 1.128906 5.726563 2.847656 7.816406 6.6875 7.925781 22.792968 7.21875 22.792968-11.199219v-52.867187h-81.523437zm0 0" fill="#ffe6c0"/></g><path d="m315.886719 52.917969h-.167969c-5.492188 0-9.945312 4.457031-9.945312 9.953125 0 5.5 4.453124 9.953125 9.945312 9.953125h.167969c5.492187 0 9.949219-4.457031 9.949219-9.953125s-4.457032-9.953125-9.949219-9.953125zm0 0"/><path d="m371.753906 52.917969h-.195312c-5.496094 0-9.949219 4.457031-9.949219 9.953125 0 5.5 4.453125 9.953125 9.949219 9.953125h.195312c5.492188 0 9.949219-4.457031 9.949219-9.953125-.003906-5.496094-4.457031-9.953125-9.949219-9.953125zm0 0"/><path d="m427.789062 52.917969h-.195312c-5.492188 0-9.949219 4.457031-9.949219 9.953125 0 5.5 4.453125 9.953125 9.949219 9.953125h.195312c5.492188 0 9.949219-4.457031 9.949219-9.953125s-4.453125-9.953125-9.949219-9.953125zm0 0"/><path d="m512 86.789062v-47.804687c0-21.496094-17.460938-38.984375-38.921875-38.984375h-403.933594c-21.480469 0-38.953125 17.488281-38.953125 38.984375v47.804687c0 21.480469 17.472656 38.957032 38.953125 38.957032h14.34375v22.632812c0 10.144532 8.25 18.394532 18.382813 18.394532h23.941406v39.871093c-20.503906 4.558594-35.890625 22.898438-35.890625 44.773438v11.394531h-58.050781c-20.921875 0-31.871094 15.703125-31.871094 31.214844v25.246094c0 37.683593 9.1875 66.941406 27.308594 86.960937 4.617187 5.097656 9.828125 9.613281 15.613281 13.550781h-8.371094c-17.683593 0-32.070312 14.410156-32.070312 32.121094.003906 17.695312 14.386719 32.09375 32.070312 32.09375h439.3125c17.683594 0 32.070313-14.398438 32.070313-32.09375 0-14.523438-9.675782-26.820312-22.910156-30.777344v-296.679687c16.660156-4.410157 28.976562-19.621094 28.976562-37.660157zm-408.617188 60.078126v-21.121094h64.726563v21.121094zm290.351563 61.417968c5.492187 0 9.945313-4.457031 9.945313-9.957031v-72.582031h59.449218v294.039062h-59.449218v-139.59375c0-5.496094-4.453126-9.953125-9.945313-9.953125-5.496094 0-9.949219 4.457031-9.949219 9.953125v139.59375h-67.957031c5.785156-3.9375 10.996094-8.453125 15.613281-13.550781 18.128906-20.027344 27.320313-49.285156 27.320313-86.960937v-25.246094c0-15.511719-10.949219-31.214844-31.871094-31.214844h-145.296875v-11.394531c0-21.878907-15.382812-40.214844-35.890625-44.773438v-39.871093h23.914063c10.136718 0 18.382812-8.253907 18.382812-18.398438v-22.632812h195.785156v72.585937c.003906 5.5 4.457032 9.957031 9.949219 9.957031zm-193.621094 127.765625c-1.695312 1.074219-3.882812 1.171875-5.570312.242188-2.382813-1.308594-3.691407-4.617188-3.691407-9.3125v-44.261719h61.648438v42.964844c0 1.417968-.175781 6.054687-2.457031 6.0625 0 0-.003907 0-.007813 0-1.109375 0-3.277344-.820313-3.292968-2.804688-.183594-14.019531-11.480469-22.695312-22.296876-22.984375-.179687-.007812-.359374-.007812-.539062-.007812-9.582031 0-20.136719 6.839843-21.15625 22.121093-.027344.429688-.027344.863282-.003906 1.292969.144531 2.199219-.199219 5.140625-2.632813 6.6875zm-38.410156-84.632812v11.394531h-15.996094v-35.371094c9.382813 3.910156 15.996094 13.183594 15.996094 23.976563zm-51.886719 0c0-10.792969 6.613282-20.066407 15.996094-23.980469v35.375h-15.996094zm-89.921875 67.855469v-25.246094c0-1.886719.574219-11.308594 11.976563-11.308594h139.085937v44.261719c0 12.113281 5.105469 21.867187 14.007813 26.757812 3.773437 2.078125 7.945312 3.109375 12.121094 3.109375 4.753906 0 9.515624-1.339844 13.695312-3.996094 7.855469-4.996093 12.253906-13.910156 11.859375-23.960937.214844-2.070313.800781-2.898437.945313-2.996094.125-.0625.835937-.117187 1.699218.410157 1.023438.625 1.554688 1.597656 1.570313 2.824218.070312 12.433594 10.460937 22.523438 23.179687 22.523438h.066406c10.738282-.027344 22.292969-8.167969 22.292969-25.96875v-42.964844h54.496094c11.402344 0 11.976563 9.421875 11.976563 11.308594v25.246094c0 68.574218-31.902344 100.511718-100.402344 100.511718h-118.167969c-68.5 0-100.402344-31.9375-100.402344-100.511718zm466.144531 132.632812c0 6.71875-5.460937 12.1875-12.175781 12.1875h-439.3125c-6.714843 0-12.175781-5.46875-12.175781-12.1875 0-6.734375 5.460938-12.210938 12.175781-12.210938h439.3125c6.714844 0 12.175781 5.476563 12.175781 12.210938zm-12.960937-346.070312h-403.933594c-10.511719 0-19.0625-8.542969-19.0625-19.046876v-47.804687c0-10.519531 8.550781-19.074219 19.0625-19.074219h403.933594c10.492187 0 19.027344 8.554688 19.027344 19.074219v47.804687c0 10.503907-8.535157 19.046876-19.027344 19.046876zm0 0"/><path d="m383.789062 238.117188c0 5.496093 4.453126 9.953124 9.945313 9.953124 5.496094 0 9.949219-4.457031 9.949219-9.953124v-.195313c0-5.5-4.453125-9.957031-9.949219-9.957031-5.492187 0-9.945313 4.457031-9.945313 9.957031zm0 0"/></svg>