<svg height="512pt" viewBox="0 -12 512.001 512" width="512pt" xmlns="http://www.w3.org/2000/svg"><g fill-rule="evenodd"><path d="m409.976562 134.8125v72.585938h41.175782c2.464844 0 4.464844-2 4.464844-4.464844v-63.65625c0-2.464844-2-4.460938-4.464844-4.460938h-41.175782zm0 0" fill="#ffd89e"/><path d="m409.976562 248.890625v72.582031h41.175782c2.464844 0 4.464844-2 4.464844-4.460937v-63.660157c0-2.460937-2-4.460937-4.464844-4.460937zm0 0" fill="#ffd89e"/><path d="m382.980469 393.449219v37.636719c0 2.464843 2 4.464843 4.4375 4.464843h63.734375c2.464844 0 4.464844-2 4.464844-4.464843v-63.6875c0-2.433594-2-4.433594-4.464844-4.433594h-41.175782v7.011718c0 12.894532-10.554687 23.472657-23.488281 23.472657zm0 0" fill="#ffd89e"/><path d="m270.035156 435.550781h63.734375c2.464844 0 4.46875-2 4.46875-4.460937v-37.640625h-72.640625v37.640625c0 2.460937 2 4.460937 4.4375 4.460937zm0 0" fill="#ffd89e"/><path d="m148.21875 393.449219v37.636719c0 2.464843 2 4.464843 4.433594 4.464843h63.738281c2.464844 0 4.464844-2 4.464844-4.464843v-37.636719zm0 0" fill="#ffd89e"/><path d="m125.539062 476.78125h352.753907c12.933593 0 23.488281-10.546875 23.488281-23.46875v-336.261719c0-12.921875-10.554688-23.5-23.488281-23.5h-68.316407v41.261719h41.175782c2.464844 0 4.464844 2 4.464844 4.464844v63.65625c0 2.464844-2 4.464844-4.464844 4.464844h-41.175782v41.492187h41.175782c2.464844 0 4.464844 1.996094 4.464844 4.460937v63.660157c0 2.460937-2 4.460937-4.464844 4.460937h-41.175782v41.492188h41.175782c2.464844 0 4.464844 2 4.464844 4.433594v63.6875c0 2.464843-2 4.460937-4.464844 4.460937h-63.738282c-2.433593 0-4.433593-1.996094-4.433593-4.460937v-37.636719h-44.746094v37.636719c0 2.464843-2 4.460937-4.464844 4.460937h-63.734375c-2.4375 0-4.4375-1.996094-4.4375-4.460937v-37.636719h-44.742187v37.636719c0 2.464843-2.003907 4.460937-4.46875 4.460937h-63.734375c-2.4375 0-4.4375-1.996094-4.4375-4.460937v-37.636719h-46.191406v59.859375c0 12.925781 10.585937 23.472656 23.515624 23.472656zm0 0" fill="#ffc15a"/><path d="m10.21875 33.6875v336.289062c0 12.894532 10.582031 23.472657 23.488281 23.472657h352.78125c12.933594 0 23.488281-10.578125 23.488281-23.472657v-336.289062c0-12.894531-10.554687-23.46875-23.488281-23.46875h-352.78125c-12.90625 0-23.488281 10.574219-23.488281 23.46875zm0 0" fill="#ffc15a"/><path d="m60.847656 238.113281h63.734375c2.4375 0 4.4375-2 4.4375-4.433593v-63.6875c0-2.4375-2-4.433594-4.4375-4.433594h-63.734375c-2.4375 0-4.4375 1.996094-4.4375 4.433594v63.6875c0 2.433593 2 4.433593 4.4375 4.433593zm0 0" fill="#ffd89e"/><path d="m60.847656 124.035156h63.734375c2.4375 0 4.4375-2 4.4375-4.433594v-63.6875c0-2.4375-2-4.433593-4.4375-4.433593h-63.734375c-2.4375 0-4.4375 1.996093-4.4375 4.433593v63.6875c0 2.433594 2 4.433594 4.4375 4.433594zm0 0" fill="#ffd89e"/><path d="m178.230469 124.035156h63.734375c2.4375 0 4.4375-2 4.4375-4.433594v-63.6875c0-2.4375-2-4.433593-4.4375-4.433593h-63.734375c-2.4375 0-4.4375 1.996093-4.4375 4.433593v63.6875c0 2.433594 2 4.433594 4.4375 4.433594zm0 0" fill="#ffd89e"/><path d="m291.175781 119.601562c0 2.433594 2 4.433594 4.433594 4.433594h63.738281c2.433594 0 4.4375-2 4.4375-4.433594v-63.6875c0-2.4375-2.003906-4.433593-4.4375-4.433593h-63.738281c-2.433594 0-4.4375 1.996093-4.4375 4.433593v63.6875zm0 0" fill="#ffd89e"/><path d="m291.175781 169.988281v63.6875c0 2.4375 2 4.433594 4.433594 4.433594h63.738281c2.433594 0 4.4375-1.996094 4.4375-4.433594v-63.6875c0-2.433593-2.003906-4.433593-4.4375-4.433593h-63.738281c-2.433594 0-4.433594 2-4.433594 4.433593zm0 0" fill="#ffd89e"/><path d="m178.230469 238.113281h63.734375c2.4375 0 4.4375-2 4.4375-4.433593v-63.6875c0-2.4375-2-4.433594-4.4375-4.433594h-63.734375c-2.4375 0-4.4375 1.996094-4.4375 4.433594v63.6875c0 2.433593 2 4.433593 4.4375 4.433593zm0 0" fill="#ffd89e"/><path d="m178.230469 352.1875h63.734375c2.4375 0 4.4375-2 4.4375-4.433594v-63.6875c0-2.433594-2-4.433594-4.4375-4.433594h-63.734375c-2.4375 0-4.4375 2-4.4375 4.433594v63.6875c0 2.433594 2 4.433594 4.4375 4.433594zm0 0" fill="#ffd89e"/><path d="m56.410156 284.066406v63.6875c0 2.433594 2 4.433594 4.4375 4.433594h63.738282c2.433593 0 4.433593-2 4.433593-4.433594v-63.6875c0-2.433594-2-4.433594-4.433593-4.433594h-63.738282c-2.4375 0-4.4375 2-4.4375 4.433594zm0 0" fill="#ffd89e"/><path d="m291.175781 347.753906c0 2.433594 2 4.433594 4.433594 4.433594h63.738281c2.433594 0 4.4375-2 4.4375-4.433594v-63.6875c0-2.433594-2.003906-4.433594-4.4375-4.433594h-63.738281c-2.433594 0-4.4375 2-4.4375 4.433594v63.6875zm0 0" fill="#ffd89e"/></g><path d="m478.292969 83.332031h-58.097657v-49.644531c0-18.574219-15.121093-33.6875-33.707031-33.6875h-352.78125c-18.585937 0-33.707031 15.113281-33.707031 33.6875v127.320312c0 5.644532 4.574219 10.21875 10.21875 10.21875 5.640625 0 10.21875-4.574218 10.21875-10.21875v-127.320312c0-7.308594 5.953125-13.25 13.269531-13.25h352.78125c7.316407 0 13.269531 5.945312 13.269531 13.25v336.289062c0 7.308594-5.953124 13.253907-13.269531 13.253907h-352.78125c-7.316406 0-13.269531-5.945313-13.269531-13.253907v-124.96875c0-5.644531-4.578125-10.21875-10.21875-10.21875-5.644531 0-10.21875 4.574219-10.21875 10.21875v124.96875c0 18.578126 15.121094 33.691407 33.707031 33.691407h58.097657v49.644531c0 18.574219 15.132812 33.6875 33.734374 33.6875h352.757813c18.585937 0 33.703125-15.113281 33.703125-33.6875v-336.261719c0-18.589843-15.121094-33.71875-33.707031-33.71875zm-58.097657 175.777344h25.203126v52.144531h-25.203126zm0-114.078125h25.203126v52.148438h-25.203126zm-.15625 228.152344h25.359376v52.148437h-52.203126v-22.335937c14.363282-2.910156 25.433594-14.976563 26.84375-29.8125zm-144.222656 30.484375h52.203125v21.664062h-52.203125zm-117.382812 0h52.203125v21.664062h-52.203125zm333.128906 49.644531c0 7.308594-5.953125 13.253906-13.269531 13.253906h-352.753907c-7.332031 0-13.296874-5.945312-13.296874-13.253906v-49.644531h25.757812v27.421875c0 8.09375 6.574219 14.679687 14.652344 14.679687h63.738281c8.09375 0 14.679687-6.585937 14.679687-14.679687v-27.421875h24.308594v27.421875c0 8.09375 6.574219 14.679687 14.65625 14.679687h63.734375c8.097657 0 14.683594-6.585937 14.683594-14.679687v-27.421875h24.308594v27.421875c0 8.09375 6.574219 14.679687 14.652343 14.679687h63.738282c8.09375 0 14.683594-6.585937 14.683594-14.679687v-63.6875c0-8.078125-6.589844-14.652344-14.683594-14.652344h-30.960938v-21.058594h30.960938c8.09375 0 14.683594-6.585937 14.683594-14.679687v-63.660157c0-8.09375-6.589844-14.679687-14.683594-14.679687h-30.960938v-21.054687h30.960938c8.09375 0 14.683594-6.585938 14.683594-14.683594v-63.65625c0-8.097656-6.589844-14.683594-14.683594-14.683594h-30.960938v-20.824219h58.101563c7.316406 0 13.269531 5.957031 13.269531 13.28125zm0 0"/><path d="m60.847656 134.25h63.734375c8.082031 0 14.65625-6.570312 14.65625-14.648438v-63.6875c0-8.078124-6.574219-14.652343-14.65625-14.652343h-63.734375c-8.082031 0-14.65625 6.574219-14.65625 14.652343v63.6875c0 8.078126 6.574219 14.648438 14.65625 14.648438zm5.78125-72.550781h52.171875v52.117187h-52.171875zm0 0"/><path d="m178.230469 134.25h63.734375c8.082031 0 14.65625-6.570312 14.65625-14.648438v-63.6875c0-8.078124-6.574219-14.652343-14.65625-14.652343h-63.734375c-8.082031 0-14.65625 6.574219-14.65625 14.652343v63.6875c0 8.078126 6.574219 14.648438 14.65625 14.648438zm5.78125-72.550781h52.171875v52.117187h-52.171875zm0 0"/><path d="m295.609375 134.25h63.738281c8.078125 0 14.652344-6.570312 14.652344-14.648438v-63.6875c0-8.078124-6.574219-14.652343-14.652344-14.652343h-63.738281c-8.082031 0-14.652344 6.574219-14.652344 14.652343v63.6875c0 8.078126 6.574219 14.648438 14.652344 14.648438zm5.78125-72.550781h52.175781v52.117187h-52.175781zm0 0"/><path d="m46.191406 233.675781c0 8.078125 6.574219 14.652344 14.65625 14.652344h63.734375c8.082031 0 14.65625-6.574219 14.65625-14.652344v-63.6875c0-8.078125-6.574219-14.648437-14.65625-14.648437h-63.734375c-8.082031 0-14.65625 6.570312-14.65625 14.648437zm20.4375-57.902343h52.171875v52.117187h-52.171875zm0 0"/><path d="m163.574219 233.675781c0 8.078125 6.574219 14.652344 14.65625 14.652344h63.734375c8.082031 0 14.65625-6.574219 14.65625-14.652344v-63.6875c0-8.078125-6.574219-14.648437-14.65625-14.648437h-63.734375c-8.082031 0-14.65625 6.570312-14.65625 14.648437zm20.4375-57.902343h52.171875v52.117187h-52.171875zm0 0"/><path d="m280.957031 233.675781c0 8.078125 6.574219 14.652344 14.652344 14.652344h63.738281c8.078125 0 14.652344-6.574219 14.652344-14.652344v-63.6875c0-8.078125-6.574219-14.648437-14.652344-14.648437h-63.738281c-8.082031 0-14.652344 6.570312-14.652344 14.648437zm20.433594-57.902343h52.175781v52.117187h-52.175781zm0 0"/><path d="m46.191406 347.753906c0 8.078125 6.574219 14.652344 14.65625 14.652344h63.734375c8.082031 0 14.65625-6.574219 14.65625-14.652344v-63.6875c0-8.078125-6.574219-14.652344-14.65625-14.652344h-63.734375c-8.082031 0-14.65625 6.574219-14.65625 14.652344zm20.4375-57.902344h52.171875v52.117188h-52.171875zm0 0"/><path d="m163.574219 347.753906c0 8.078125 6.574219 14.652344 14.65625 14.652344h63.734375c8.082031 0 14.65625-6.574219 14.65625-14.652344v-63.6875c0-8.078125-6.574219-14.652344-14.65625-14.652344h-63.734375c-8.082031 0-14.65625 6.574219-14.65625 14.652344zm20.4375-57.902344h52.171875v52.117188h-52.171875zm0 0"/><path d="m280.957031 347.753906c0 8.078125 6.574219 14.652344 14.652344 14.652344h63.738281c8.078125 0 14.652344-6.574219 14.652344-14.652344v-63.6875c0-8.078125-6.574219-14.652344-14.652344-14.652344h-63.738281c-8.082031 0-14.652344 6.574219-14.652344 14.652344zm20.433594-57.902344h52.175781v52.117188h-52.175781zm0 0"/><path d="m10.21875 212.050781c5.640625 0 10.21875-4.574219 10.21875-10.21875v-.203125c0-5.640625-4.578125-10.214844-10.21875-10.214844-5.644531 0-10.21875 4.574219-10.21875 10.214844v.203125c0 5.644531 4.574219 10.21875 10.21875 10.21875zm0 0"/></svg>