<svg height="512pt" viewBox="0 -19 512.001 512" width="512pt" xmlns="http://www.w3.org/2000/svg"><g fill-rule="evenodd"><path d="m67.222656 271.660156-23.363281 130.996094h113.660156l17.195313-133.433594c-1.4375-.257812-2.84375-.632812-4.164063-1.121094-10.933593-3.957031-17.851562-16.554687-15.152343-33.136718l3.355468-20.652344c4.738282-29.0625-43.941406-42.460938-49.222656 0l-4.046875 32.472656c-2.785156 22.550782-23.882813 31.128906-38.261719 24.875zm0 0" fill="#cbe558"/><path d="m157.519531 402.65625h174.113281l-6.371093-121.988281c-12.574219-.542969-24.515625-8.148438-25.171875-23.957031l-1.4375-33.277344c-.199219-46.476563-73.304688-54.367188-82.089844-12.367188l-5.195312 31.503906c-3.328126 20.195313-22.042969 29.289063-36.652344 26.652344zm0 0" fill="#d8ec84"/><path d="m325.261719 280.667969 6.371093 121.988281h123.996094l-17.683594-122.648438c-11.652343 2.554688-26.175781-4.761718-31.253906-22.492187l-9.589844-33.652344c-9.816406-34.425781-41.847656-27.628906-41.847656-.199219v32.128907c0 16.613281-15.441406 25.480469-29.992187 24.875zm0 0" fill="#cbe558"/><path d="m74.511719 462.875h362.976562c35.417969 0 64.378907-27.109375 64.378907-60.21875h-491.734376c0 33.109375 28.960938 60.21875 64.378907 60.21875zm0 0" fill="#fbc2c7"/><path d="m216.5625 211.070312c8.78125-42.003906 81.886719-34.113281 82.089844 12.363282l1.433594 33.28125c.660156 15.808594 12.601562 23.410156 25.171874 23.953125 14.554688.605469 29.996094-8.261719 29.996094-24.871094v-32.132813c0-27.425781 32.03125-34.226562 41.847656.199219l9.585938 33.65625c5.082031 17.726563 19.605469 25.042969 31.257812 22.488281 10.363282-2.265624 18.484376-12.335937 15.699219-29.777343l-21.582031-79.097657c-6.714844-24.644531-31.660156-48.082031-74.570312-48.082031h-219.976563c-52.242187 0-64.699219 27.3125-69.980469 52.871094l-13.746094 66.390625-.085937 5.707031c-.230469 12.394531 5.625 20.226563 13.519531 23.640625 14.378906 6.253906 35.476563-2.324218 38.261719-24.875l4.046875-32.472656c5.28125-42.460938 53.960938-29.0625 49.222656 0l-3.355468 20.652344c-2.699219 16.582031 4.21875 29.179687 15.152343 33.136718 1.320313.488282 2.726563.863282 4.164063 1.121094 14.609375 2.636719 33.324218-6.457031 36.652344-26.652344zm0 0" fill="#c68a65"/><path d="m252.585938 53.5625c-25.230469 0-45.695313 20.429688-45.695313 45.644531 0 8.75 2.464844 16.898438 6.714844 23.84375h77.925781c4.25-6.945312 6.71875-15.09375 6.71875-23.84375 0-25.214843-20.4375-45.644531-45.664062-45.644531zm0 0" fill="#ff6977"/></g><path d="m501.867188 392.527344h-37.464844l-15.304688-106.175782c10.273438-6.121093 17.570313-18.808593 14.554688-37.714843-.054688-.363281-.132813-.71875-.230469-1.074219l-21.582031-79.09375c-6.984375-25.625-33.265625-55.546875-84.347656-55.546875h-50.824219c1.132812-4.464844 1.714843-9.066406 1.714843-13.714844 0-27.574219-20.125-50.519531-46.460937-54.976562-.859375-11.84375.15625-18.3125 8.707031-27.003907 3.925782-3.984374 3.871094-10.398437-.117187-14.320312-3.992188-3.921875-10.40625-3.867188-14.332031.121094-13.835938 14.0625-15.394532 27.1875-14.53125 41.488281-25.5625 5.09375-44.890626 27.675781-44.890626 54.691406 0 4.648438.585938 9.25 1.714844 13.714844h-60.957031c-60.328125 0-74.496094 34.785156-79.898437 60.945313l-13.75 66.386718c-.128907.625-.199219 1.265625-.207032 1.902344l-.085937 5.671875c-.253907 13.355469 5.039062 22.886719 12.476562 28.765625l-20.679687 115.933594h-25.238282c-5.597656 0-10.132812 4.535156-10.132812 10.128906 0 38.789062 33.425781 70.34375 74.511719 70.34375h362.976562c41.085938 0 74.511719-31.554688 74.511719-70.34375 0-5.59375-4.535156-10.128906-10.132812-10.128906zm-160.621094 0-5.359375-102.722656c15.453125-3.359376 29.5-15.144532 29.5-34.011719v-32.128907c0-8.175781 3.992187-12.453124 7.699219-12.972656 4.644531-.660156 10.875 4.027344 14.273437 15.945313l9.585937 33.65625c5.320313 18.652343 18.976563 28.34375 32.253907 30.046875l14.734375 102.1875zm-124.222656-293.320313c0-19.574219 15.941406-35.503906 35.539062-35.515625h.007812.019532c19.589844.003906 35.527344 15.933594 35.527344 35.515625 0 4.730469-.941407 9.386719-2.75 13.714844h-65.59375c-1.808594-4.328125-2.75-8.984375-2.75-13.714844zm-153.117188 144.214844 13.554688-65.449219c4.476562-21.675781 13.179687-44.796875 60.054687-44.796875h219.976563c39.65625 0 59.6875 21.882813 64.792968 40.621094l21.433594 78.535156c1.417969 9.738281-1.523438 16.371094-7.921875 17.785157-6.828125 1.511718-15.9375-3.363282-19.363281-15.375l-9.585938-33.652344c-7.199218-25.242188-24.199218-32.191406-36.566406-30.457032-14.8125 2.070313-25.160156 15.652344-25.160156 33.03125v32.132813c0 11.363281-11.738282 14.617187-17.941406 14.75-.347657.007813-.765626.007813-1.234376-.007813-.121093-.007812-.246093-.015624-.371093-.015624-4.910157-.238282-14.847657-2.207032-15.363281-14.246094l-1.429688-33.09375c-.242188-30.570313-25.246094-47.015625-48.421875-49.359375-26.726563-2.703125-48.820313 11.757812-53.714844 35.171875-.027343.140625-.054687.28125-.078125.421875l-5.195312 31.507812c-1.417969 8.621094-6.441406 13.199219-10.40625 15.523438-5.308594 3.105469-11.960938 3.945312-16.960938 2.128906-6.882812-2.488281-10.339844-11.328125-8.605468-21.988281l3.359374-20.652344c1.9375-11.902344-2.542968-23.496094-11.988281-31.015625-9.867187-7.851563-23.53125-9.957031-34.808593-5.355469-7.207032 2.9375-19.710938 11.195313-22.484376 33.492188l-4.046874 32.480468c-1.5625 12.582032-11.015626 18.566407-19.550782 17.945313-1.15625-.082031-2.789062-.335937-4.476562-1.042969-.160156-.070312-.3125-.148437-.476563-.210937-3.582031-1.671875-7.25-5.476563-7.089843-14.058594zm11.453125 40.308594c17.402344.757812 37.148437-11.289063 40.175781-35.691407l4.050782-32.480468c.785156-6.316406 3.160156-14.441406 10.023437-17.238282 4.53125-1.847656 10.375-.863281 14.535156 2.449219 2.644531 2.105469 5.59375 5.878907 4.609375 11.917969l-3.359375 20.652344c-3.097656 19.054687 4.160157 35.71875 18.214844 42.777344l-15 116.414062h-92.652344zm362.128906 169.015625h-362.976562c-26.15625 0-48.046875-17.179688-53.132813-39.964844h22.445313c.015625 0 .03125.003906.046875.003906s.027344-.003906.042968-.003906h113.605469c.003907 0 .007813.003906.011719.003906.007812 0 .015625-.003906.023438-.003906h53.46875c5.59375 0 10.132812-4.53125 10.132812-10.125s-4.539062-10.128906-10.132812-10.128906h-41.984376l14.550782-112.910156c6.0625-.566407 12.125-2.476563 17.617187-5.691407 10.898438-6.382812 18.058594-16.9375 20.15625-29.710937l5.160157-31.269532c3.253906-14.992187 18.289062-20.335937 31.796874-18.96875 14.976563 1.515626 30.121094 11.222657 30.199219 29.5 0 .132813.003907.261719.007813.394532l1.4375 33.277344c.695312 16.203124 10.726562 28.296874 25.605468 32.261718l5.382813 103.117188h-29.820313c-5.597656 0-10.132812 4.535156-10.132812 10.128906 0 5.589844 4.535156 10.125 10.132812 10.125h39.867188c.207031.011719.414062.03125.621094.03125.179687 0 .359375-.003906.539062-.015625.050782-.003906.101563-.011719.152344-.015625h123.257812.042969.027344 34.980469c-5.085938 22.785156-26.976563 39.964844-53.132813 39.964844zm0 0"/><path d="m250.863281 392.527344h-.175781c-5.59375 0-10.132812 4.535156-10.132812 10.128906s4.539062 10.125 10.132812 10.125h.175781c5.59375 0 10.132813-4.53125 10.132813-10.125s-4.535156-10.128906-10.132813-10.128906zm0 0"/></svg>