<svg height="512pt" viewBox="0 -48 512 512" width="512pt" xmlns="http://www.w3.org/2000/svg"><g fill-rule="evenodd"><path d="m437.492188 406.863281c31.945312 0 58.640624-22.042969 63.578124-50.625.515626-3.097656.804688-6.277343.804688-9.519531h-.804688c-163.667968 0-327.304687 0-490.945312 0 0 33.082031 28.964844 60.144531 64.382812 60.144531zm0 0" fill="#fbc2c7"/><path d="m152.007812 79.816406c13.316407-1.632812 27.324219 7.253906 27.785157 26.75v18.175782c0 10.492187 10.992187 18.917968 24.367187 18.71875 13.375-.199219 23.882813-8.945313 23.882813-19.4375v-33.855469c0-26.230469 51.175781-27.523438 51.175781.171875v25.859375c0 10.492187 10.476562 19.265625 23.855469 19.4375 13.375.199219 24.769531-8.230469 24.769531-18.722657l.027344-9.230468c.402344-17.34375 13.953125-24.28125 28.304687-23.964844-5.167969-15.339844-13.863281-29.730469-26.0625-41.914062-42.367187-42.316407-111.054687-42.316407-153.421875 0-11.195312 11.152343-19.402344 24.167968-24.683594 38.011718zm0 0" fill="#ff6977"/><path d="m152.007812 79.816406c-14.726562 38.675782-6.515624 84.054688 24.683594 115.21875 42.367188 42.3125 111.054688 42.3125 153.421875 0 30.136719-30.128906 38.835938-73.535156 26.0625-111.316406-14.351562-.316406-27.902343 6.621094-28.304687 23.964844l-.027344 9.230468c0 10.492188-11.394531 18.921876-24.769531 18.722657-13.378907-.171875-23.855469-8.945313-23.855469-19.4375v-25.859375c0-27.695313-51.175781-26.402344-51.175781-.171875v33.855469c0 10.492187-10.507813 19.238281-23.882813 19.4375-13.375.199218-24.367187-8.226563-24.367187-18.71875v-18.175782c-.460938-19.496094-14.46875-28.382812-27.785157-26.75zm0 0" fill="#ffd89e"/><path d="m243.457031 243.511719c13.347657-1.605469 27.324219 7.285156 27.785157 26.777343v18.148438c0 10.519531 11.019531 18.917969 24.398437 18.746094 13.375-.199219 23.851563-8.972656 23.851563-19.464844v-33.828125c0-26.257813 51.179687-27.550781 51.179687.144531v25.859375c0 10.519531 10.476563 19.261719 23.851563 19.464844 13.375.199219 24.769531-8.226563 24.800781-18.71875v-9.261719c.429687-17.316406 13.976562-24.28125 28.328125-23.96875-5.167969-15.308594-13.863282-29.699218-26.089844-41.910156-42.367188-42.316406-111.054688-42.316406-153.421875 0-11.164063 11.179688-19.402344 24.167969-24.683594 38.011719zm0 0" fill="#cbe558"/><path d="m243.457031 243.511719c-14.726562 38.675781-6.488281 84.085937 24.683594 115.21875 42.367187 42.3125 111.054687 42.3125 153.421875 0 30.136719-30.101563 38.835938-73.535157 26.089844-111.320313-14.351563-.3125-27.898438 6.652344-28.332032 23.96875v9.261719c-.027343 10.492187-11.421874 18.917969-24.796874 18.71875-13.378907-.203125-23.855469-8.945313-23.855469-19.464844v-25.859375c0-27.691406-51.175781-26.402344-51.175781-.144531v33.828125c0 10.496094-10.476563 19.265625-23.855469 19.46875-13.375.171875-24.398438-8.230469-24.398438-18.75v-18.148438c-.457031-19.492187-14.433593-28.382812-27.78125-26.777343zm0 0" fill="#ffd89e"/><path d="m68.136719 245.492188c13.347656-1.636719 27.324219 7.25 27.785156 26.746093v18.175781c0 10.492188 11.019531 18.921876 24.398437 18.71875 13.375-.199218 23.851563-8.941406 23.851563-19.464843v-33.828125c0-26.261719 51.179687-27.519532 51.179687.144531v25.886719c0 10.492187 10.476563 19.234375 23.851563 19.4375 13.375.199218 24.769531-8.230469 24.800781-18.722656v-9.257813c.429688-17.316406 13.976563-24.253906 28.328125-23.96875-5.167969-15.308594-13.863281-29.699219-26.089843-41.914063-42.367188-42.3125-111.054688-42.3125-153.421876 0-11.164062 11.183594-19.402343 24.171876-24.683593 38.046876zm0 0" fill="#c68a65"/><path d="m68.136719 245.492188c-14.726563 38.644531-6.488281 84.054687 24.683593 115.1875 42.367188 42.3125 111.054688 42.3125 153.421876 0 30.136718-30.101563 38.835937-73.535157 26.089843-111.316407-14.351562-.289062-27.898437 6.648438-28.328125 23.964844v9.261719c-.03125 10.492187-11.425781 18.921875-24.800781 18.71875-13.378906-.199219-23.855469-8.945313-23.855469-19.4375v-25.886719c0-27.664063-51.175781-26.402344-51.175781-.140625v33.828125c0 10.519531-10.476563 19.261719-23.855469 19.464844-13.375.199219-24.394531-8.230469-24.394531-18.722657v-18.175781c-.460937-19.492187-14.4375-28.382812-27.785156-26.746093zm0 0" fill="#ffd89e"/><path d="m74.507812 406.863281h362.984376c31.945312 0 58.640624-22.042969 63.578124-50.625.515626-3.097656.804688-6.277343.804688-9.519531h-491.75c0 33.082031 28.964844 60.144531 64.382812 60.144531zm0 0" fill="#fbc2c7"/></g><path d="m501.871094 336.59375h-51.660156c9.914062-19.152344 14.472656-40.832031 12.96875-62.652344-.6875-9.972656-2.636719-19.742187-5.738282-29.09375-.125-.46875-.277344-.925781-.464844-1.367187-5.824218-16.867188-15.433593-32.332031-28.261718-45.144531-18.636719-18.617188-41.988282-29.722657-66.253906-33.332032 18.910156-44.015625 9.484374-95.726562-25.195313-130.363281-46.242187-46.1875-121.484375-46.1875-167.730469 0-11.585937 11.574219-20.574218 25.425781-26.507812 40.503906-.339844.652344-.605469 1.34375-.800782 2.0625-3.414062 9.179688-5.710937 18.789063-6.757812 28.605469-.441406 4.152344-.660156 8.3125-.660156 12.46875-.003906 17.183594 3.746094 34.21875 10.902344 49.765625-22.019532 4.476563-43.003907 15.214844-60.050782 32.238281-11.742187 11.738282-20.800781 25.734375-26.71875 40.984375-.214844.46875-.40625.953125-.546875 1.457031-3.804687 10.191407-6.214843 20.925782-7.089843 31.910157-1.710938 21.460937 2.472656 42.902343 11.890624 61.957031h-53.070312c-5.589844 0-10.125 4.53125-10.125 10.125 0 38.75 33.425781 70.273438 74.507812 70.273438h362.984376c41.082031 0 74.507812-31.527344 74.507812-70.273438 0-5.59375-4.535156-10.125-10.128906-10.125zm-226.003906 0c3.316406-6.710938 5.988281-13.71875 7.976562-20.917969 3.601562 1.070313 7.425781 1.640625 11.328125 1.640625.207031 0 .414063-.003906.621094-.007812 18.96875-.285156 33.824219-13.28125 33.824219-29.589844v-33.828125c0-7.363281 9.492187-10.035156 15.871093-10.035156 4.492188 0 8.664063 1.140625 11.453125 3.128906 2.492188 1.78125 3.601563 3.953125 3.601563 7.050781v25.859375c0 16.308594 14.859375 29.304688 33.828125 29.589844.207031.003906.414062.003906.625.003906 10.117187 0 19.65625-3.683593 26.242187-10.15625 5.277344-5.183593 8.191407-11.8125 8.210938-18.695312v-9.121094c.253906-8.433594 5.371093-11.902344 10.683593-13.230469 6.519532 26.257813 2.234376 54.875-13.40625 78.308594zm157.359374-97.402344c-14.4375 4.390625-23.632812 16.066406-24.027343 31.9375-.003907.082032-.003907.167969-.003907.25v9.234375c-.003906 1.789063-1.171874 3.3125-2.148437 4.273438-2.804687 2.753906-7.53125 4.40625-12.371094 4.347656-8.300781-.125-13.878906-4.929687-13.878906-9.339844v-25.859375c0-9.609375-4.292969-17.96875-12.085937-23.53125-6.234376-4.453125-14.484376-6.902344-23.222657-6.902344-17.953125 0-36.125 10.40625-36.125 30.289063v33.828125c0 4.320312-5.699219 9.21875-13.878906 9.339844-2.824219.015625-5.566406-.53125-7.902344-1.542969.671875-6.90625.742188-13.890625.1875-20.878906-.757812-9.527344-2.671875-18.867188-5.648437-27.828125-.125-.492188-.289063-.96875-.488282-1.429688-3.136718-9.066406-7.371093-17.730468-12.605468-25.792968 1.996094-2.417969 4.082031-4.738282 6.269531-6.921876 38.351563-38.304687 100.757813-38.304687 139.109375 0 7.894531 7.886719 14.164062 16.882813 18.820312 26.527344zm-249.464843-190.136718c.027343-.027344.058593-.058594.085937-.085938 38.351563-38.304688 100.753906-38.304688 139.109375 0 7.90625 7.894531 14.222657 16.863281 18.910157 26.472656-14.519532 4.359375-23.75 16.078125-24.121094 32.007813v.203125l-.027344 9.261718c0 1.777344-1.15625 3.289063-2.128906 4.246094-2.792969 2.753906-7.496094 4.425782-12.386719 4.347656-8.167969-.101562-13.855469-4.988281-13.855469-9.308593v-25.859375c0-9.613282-4.296875-17.972656-12.09375-23.539063-6.234375-4.449219-14.484375-6.898437-23.226562-6.898437-17.945313 0-36.113282 10.394531-36.113282 30.261718v33.859376c0 4.304687-5.710937 9.191406-13.902343 9.3125-.105469.003906-.210938.003906-.3125.003906-4.632813 0-8.960938-1.550782-11.621094-4.171875-.984375-.96875-2.160156-2.527344-2.160156-4.425781v-18.175782c0-.078125 0-.160156-.003907-.238281-.273437-11.757813-4.699218-21.921875-12.457031-28.625-3.117187-2.691406-6.707031-4.761719-10.5625-6.148437 4.429688-8.082032 10.050781-15.675782 16.867188-22.5zm-24.722657 41.238281c1.921876.53125 3.695313 1.453125 5.175782 2.738281 3.402344 2.941406 5.289062 7.664062 5.449218 13.664062v18.046876c0 6.949218 2.914063 13.644531 8.199219 18.855468 6.46875 6.371094 15.851563 9.996094 25.832031 9.996094.203126 0 .410157-.003906.617188-.007812 18.984375-.285157 33.855469-13.269532 33.855469-29.5625v-33.855469c0-7.347657 9.484375-10.011719 15.859375-10.011719 4.492187 0 8.671875 1.140625 11.460937 3.132812 2.492188 1.777344 3.605469 3.953126 3.605469 7.050782v25.859375c0 16.332031 14.867188 29.316406 33.824219 29.5625 10.386719.199219 20.164062-3.550781 26.886719-10.171875 5.265624-5.1875 8.164062-11.820313 8.164062-18.644532l.027344-9.117187c.230468-8.421875 5.148437-12 10.835937-13.320313 5.738281 22.828126 3.1875 47.480469-8.207031 69.269532-28.949219 1.023437-57.59375 12.535156-79.640625 34.558594-1.601563 1.597656-3.148437 3.273437-4.671875 4.980468-.953125-1.027344-1.921875-2.039062-2.917969-3.03125-23.71875-23.691406-55.070312-35.226562-86.222656-34.613281-13.066406-23.648437-15.554687-50.742187-8.132813-75.378906zm-59.0625 124.320312c38.351563-38.304687 100.757813-38.304687 139.109376 0 7.941406 7.933594 14.257812 16.914063 18.949218 26.507813-14.488281 4.378906-23.761718 16.074218-24.15625 31.957031-.003906.082031-.003906.167969-.003906.25v9.234375c-.003906 1.789062-1.171875 3.3125-2.148438 4.273438-2.804687 2.753906-7.5625 4.375-12.371093 4.347656-8.304688-.125-13.878907-4.914063-13.878907-9.3125v-25.886719c0-9.609375-4.296874-17.964844-12.09375-23.527344-6.238281-4.445312-14.484374-6.894531-23.226562-6.894531-17.945312 0-36.109375 10.402344-36.109375 30.277344v33.828125c0 4.410156-5.578125 9.214843-13.882813 9.339843-4.761718.050782-9.230468-1.492187-11.960937-4.179687-.984375-.96875-2.15625-2.519531-2.15625-4.414063v-18.175781c0-.078125 0-.160156-.003906-.238281-.277344-11.761719-4.699219-21.925781-12.449219-28.625-3.113281-2.691406-6.699219-4.753906-10.546875-6.140625 4.4375-8.132813 10.074219-15.769531 16.929687-22.621094zm337.515626 182.125h-362.984376c-26.15625 0-48.046874-17.148437-53.136718-39.894531h105.835937c5.59375 0 10.128907-4.53125 10.128907-10.125s-4.535157-10.128906-10.128907-10.128906h-40.8125c-15.65625-24.605469-19.164062-54.019532-11.179687-80.617188 1.90625.535156 3.664062 1.453125 5.136718 2.726563 3.398438 2.9375 5.28125 7.660156 5.441407 13.667969v18.046874c0 6.945313 2.910156 13.636719 8.199219 18.84375 6.472656 6.378907 15.867187 10.007813 25.855468 10.007813.207032 0 .414063-.003906.621094-.007813 18.96875-.28125 33.828125-13.28125 33.828125-29.589843v-33.828125c0-7.355469 9.484375-10.023438 15.859375-10.023438 4.492188 0 8.671875 1.140625 11.464844 3.132813 2.488281 1.773437 3.601562 3.945312 3.601562 7.035156v25.886719c0 16.289062 14.855469 29.277344 33.824219 29.5625.210937.003906.417969.003906.628906.003906 10.117188 0 19.652344-3.683594 26.242188-10.15625 5.273437-5.179688 8.191406-11.8125 8.210937-18.691406v-9.121094c.25-8.410156 5.167969-12.007812 10.878906-13.328125 3.09375 12.25 3.792969 25.003906 2.027344 37.542969-.214844.773437-.335937 1.566406-.363281 2.367187-2.105469 12.707031-6.75 25.140625-14.007813 36.542969h-41.726562c-5.59375 0-10.128906 4.535156-10.128906 10.125 0 5.59375 4.535156 10.128906 10.128906 10.128906h279.691406c-5.089844 22.742188-26.980468 39.890625-53.136718 39.890625zm0 0"/><path d="m170.664062 336.59375h-.171874c-5.59375 0-10.125 4.53125-10.125 10.125s4.53125 10.128906 10.125 10.128906h.171874c5.59375 0 10.125-4.535156 10.125-10.128906s-4.53125-10.125-10.125-10.125zm0 0"/></svg>