<svg height="512pt" viewBox="0 -69 512 512" width="512pt" xmlns="http://www.w3.org/2000/svg"><g fill-rule="evenodd"><path d="m420.492188 148.382812c-42.421876-41.746093-103.242188-64.792968-164.261719-63.757812-57.175781-.976562-114.175781 19.195312-156.027344 56.085938l.402344 46.519531c-.257813 18.390625 9.472656 26.175781 19.71875 27.066406 11.367187 1.007813 33.035156-3.074219 30.972656-29.679687-.117187-5.660157.054687-12.554688-.085937-18.1875-.488282-31.664063 41.214843-33.789063 41.933593-3.21875v14.769531c0 8.5625 8.953125 15.402343 19.800781 15.257812 10.851563-.171875 19.375-7.300781 19.375-15.832031v-27.554688c0-21.378906 41.5625-22.414062 41.5625.144532v21.03125c0 8.5625 8.523438 15.660156 19.375 15.832031 10.875.171875 20.117188-6.695313 20.117188-15.230469l.03125-7.527344c.714844-30.570312 50.570312-24.566406 50.570312 1.464844-.140624 5.632813.117188 18.992188 0 24.652344-5.679687 45.429688 57.0625 45.082031 56.800782 7.070312zm0 0" fill="#ff6977"/><path d="m122.191406 304.664062h355.960938c0-4.253906-.515625-27.011718-.773438-31.148437-3.070312-50.945313-24.683594-93.410156-56.890625-125.132813l.289063 48.90625c.257812 38.011719-62.484375 38.359376-56.800782-7.070312.113282-5.660156-.144531-19.019531 0-24.652344 0-26.03125-49.855468-32.035156-50.574218-1.464844l-.027344 7.527344c0 8.535156-9.242188 15.402344-20.121094 15.230469-10.847656-.171875-19.375-7.269531-19.375-15.832031v-21.03125c0-22.558594-41.558594-21.523438-41.558594-.144532v27.554688c0 8.53125-8.527343 15.660156-19.375 15.832031-10.847656.144531-19.804687-6.695312-19.804687-15.257812v-14.769531c-.71875-30.570313-42.421875-28.445313-41.933594 3.21875.144531 5.632812-.027343 12.527343.085938 18.1875 2.066406 26.605468-19.605469 30.6875-30.96875 29.679687-10.25-.890625-19.976563-8.675781-19.71875-27.066406l-.402344-46.519531c-36.765625 32.414062-61.851563 77.695312-65.152344 132.921874-.261719 4.105469-.375 26.804688-.375 31.03125zm0 0" fill="#ffc15a"/><path d="m206.949219 71.09375c4.074219 6.378906 8.984375 11.636719 14.179687 15.570312 11.59375-1.550781 23.332032-2.238281 35.101563-2.039062 1.550781-.027344 3.070312-.027344 4.621093-.027344-3.558593-7.472656-3.960937-17.472656-1.234374-28.015625-1.519532-4.886719-3.816407-9.855469-6.859376-14.65625-12.34375-19.421875-32.605468-28.644531-45.234374-20.601562-12.660157 8.046875-12.917969 30.34375-.574219 49.769531zm0 0" fill="#cbe558"/><path d="m260.851562 84.597656c14.40625.054688 28.789063 1.40625 42.878907 4.050782 6.203125-4.542969 12.054687-10.746094 16.847656-18.304688 14.121094-22.210938 13.835937-47.667969-.628906-56.863281-14.464844-9.222657-37.601563 1.324219-51.722657 23.53125-4.074218 6.410156-6.945312 13.101562-8.609374 19.570312-2.726563 10.546875-2.324219 20.542969 1.234374 28.015625zm0 0" fill="#e2f1a1"/><path d="m437.484375 364.945312c35.417969 0 64.378906-27.125 64.378906-60.28125h-491.726562c0 33.15625 28.960937 60.28125 64.378906 60.28125zm0 0" fill="#fbc2c7"/></g><path d="m501.863281 294.523438h-13.734375c-.179687-8.335938-.457031-18.855469-.632812-21.617188-3.023438-50.136719-23.90625-95.933594-59.355469-131.164062-.292969-.335938-.605469-.648438-.9375-.941407-5.195313-5.097656-10.691406-9.96875-16.492187-14.59375-25.015626-19.964843-54.917969-34.710937-86.707032-43.25 1.820313-2.285156 3.546875-4.671875 5.128906-7.171875 7.871094-12.382812 12.128907-26.183594 11.988282-38.863281-.15625-14.078125-5.894532-25.738281-15.722656-31.988281-7.410157-4.71875-16.410157-6.089844-26.035157-3.953125-14.753906 3.277343-29.59375 14.710937-39.695312 30.597656-.277344.4375-.542969.878906-.8125 1.316406-8.867188-12.28125-20.976563-21.039062-33.066407-23.726562-8.753906-1.945313-16.953124-.699219-23.703124 3.601562-17.660157 11.222657-19.28125 39.230469-3.683594 63.78125.75 1.171875 1.542968 2.3125 2.351562 3.433594-36.386718 7.820313-70.832031 23.714844-99.066406 46.257813-2.699219 2.152343-5.324219 4.363281-7.890625 6.621093-.097656.078125-.191406.160157-.285156.246094-41.078125 36.238281-65.328125 85.527344-68.578125 139.886719-.1875 2.96875-.292969 13.398437-.347656 21.53125h-14.449219c-5.597657-.003906-10.136719 4.539062-10.136719 10.136718 0 38.828126 33.429688 70.417969 74.515625 70.417969h362.96875c41.085937 0 74.515625-31.589843 74.515625-70.417969 0-5.597656-4.539062-10.140624-10.136719-10.140624zm-91.222656-97.167969c.0625 8.785156-4.660156 13.132812-8.636719 15.238281-6.566406 3.472656-15.222656 3.09375-21.042968-.925781-5.691407-3.929688-8.085938-10.910157-6.925782-20.191407.042969-.347656.070313-.699218.078125-1.050781.058594-2.84375.027344-7.289062-.007812-11.992187-.03125-4.832032-.066407-9.832032.003906-12.605469.003906-.089844.003906-.175781.003906-.261719 0-19.875-18.867187-31.972656-37.109375-32.183594-19.460937-.253906-33.308594 12.304688-33.734375 30.480469 0 .066407-.003906.132813-.003906.199219l-.027344 7.566406c0 .84375-.734375 1.691406-1.171875 2.121094-1.503906 1.480469-4.527344 3.03125-8.652344 2.972656-5.820312-.09375-9.394531-3.378906-9.394531-5.695312v-21.03125c0-15.464844-12.871093-26.6875-30.601562-26.6875-7.53125 0-14.726563 2.117187-20.265625 5.964844-7.074219 4.910156-10.96875 12.21875-10.96875 20.578124v27.554688c0 2.316406-3.574219 5.601562-9.371094 5.695312-3.988281.074219-6.90625-1.441406-8.339844-2.859374-.542968-.535157-1.191406-1.363282-1.191406-2.261719v-14.769531c0-.078126 0-.15625-.003906-.238282-.496094-21.171875-15.851563-31.9375-30.8125-31.664062-15.476563.300781-31.738282 12.765625-31.394532 35.277344 0 .035156.003907.066406.003907.101562.070312 2.808594.0625 6.082031.050781 9.25-.011719 2.984375-.023438 6.074219.035156 8.886719.003906.191406.011719.386719.027344.578125.503906 6.484375-.765625 11.28125-3.773438 14.253906-4.09375 4.050781-11.277343 4.980469-16.210937 4.542969-8.832031-.765625-10.5625-9.574219-10.460937-16.824219 0-.078125 0-.152344 0-.230469l-.355469-41.398437c40.332031-33.878906 94.023437-51.875 145.667969-50.984375.117187.003906.230468.003906.347656 0 1.214844-.019531 2.417968-.03125 3.636718-.03125 54.148438 0 110.164063 20.625 150.34375 58.433593zm-133.859375-154.902344c7.164062-11.269531 17.503906-19.574219 26.976562-21.679687 4.316407-.957032 7.929688-.535157 10.753907 1.265624 5.402343 3.4375 6.289062 10.941407 6.335937 15.105469.097656 8.671875-3.121094 18.792969-8.828125 27.773438-3.171875 5-6.972656 9.421875-11.117187 13-10.765625-1.824219-21.660156-2.941407-32.578125-3.3125-1.445313-9.132813 1.65625-21.449219 8.457031-32.152344zm-61.277344 23.203125c-9.683594-15.242188-9.332031-31.460938-2.535156-35.78125 2.152344-1.371094 4.984375-1.679688 8.421875-.914062 7.984375 1.773437 16.722656 8.828124 22.804687 18.394531 2.027344 3.199219 3.667969 6.492187 4.90625 9.816406-1.25 5.960937-1.65625 11.828125-1.171874 17.335937-7.910157.144532-15.8125.671876-23.671876 1.585938-3.230468-2.917969-6.21875-6.46875-8.753906-10.4375zm221.980469 289.152344h-362.96875c-26.152344 0-48.042969-17.199219-53.125-40.007813h192.074219c5.597656 0 10.136718-4.539062 10.136718-10.136719 0-5.597656-4.539062-10.140624-10.136718-10.140624h-168.601563c.054688-8.09375.160157-17.949219.308594-20.289063 2.609375-43.667969 19.621094-80.371094 45.105469-108.988281l.191406 21.960937c-.308594 25.5625 15.40625 36.007813 28.964844 37.1875 4.695312.417969 20.894531.898438 32.242187-10.324219 5.082031-5.027343 10.878907-14.296874 9.75-29.929687-.046875-2.507813-.035156-5.367187-.027343-8.132813.011718-3.292968.023437-6.695312-.054688-9.78125-.136719-9.964843 5.679688-14.539062 11.511719-14.648437 2.316406-.011719 9.839843.667969 10.148437 11.761719v14.636718c0 6.167969 2.566406 12.097657 7.226563 16.695313 5.71875 5.644531 14.097656 8.824219 22.878906 8.699219 16.457031-.261719 29.351563-11.667969 29.351563-25.96875v-27.554688c0-4.566406 6.71875-6.265625 10.957031-6.265625 1.058593 0 10.324219.179688 10.324219 6.410157v21.03125c0 14.300781 12.894531 25.707031 29.351562 25.96875 8.914062.136718 17.375-3.0625 23.195312-8.796876 4.660157-4.582031 7.222657-10.46875 7.222657-16.527343l.03125-7.417969c.269531-9.351562 8.421875-10.648438 13.222656-10.597656 6.855469.078125 16.988281 3.886718 17.074219 11.808594-.074219 3.117187-.039063 8.195312-.003906 13.109374.023437 4.097657.054687 8.324219.015624 10.953126-1.902343 16.53125 3.761719 30.660156 15.589844 38.824218 6.578125 4.542969 14.648438 6.855469 22.769532 6.855469 6.652343 0 13.34375-1.550781 19.277343-4.691406 12.445313-6.585938 19.527344-18.722657 19.425781-33.285157l-.125-21.542968c20.640626 26.894531 34.152344 59.972656 36.472657 98.464844.152343 2.445312.414062 12.378906.585937 20.375h-171.175781c-5.597656 0-10.140625 4.539062-10.140625 10.136718s4.539062 10.140625 10.140625 10.140625h193.9375c-5.082031 22.804688-26.972656 40.007813-53.125 40.007813zm0 0"/><path d="m256.402344 294.523438h-.171875c-5.597657 0-10.140625 4.539062-10.140625 10.140624 0 5.597657 4.539062 10.136719 10.140625 10.136719h.171875c5.597656 0 10.136718-4.539062 10.136718-10.136719 0-5.597656-4.539062-10.140624-10.136718-10.140624zm0 0"/></svg>