<svg height="512pt" viewBox="0 0 512 512" width="512pt" xmlns="http://www.w3.org/2000/svg"><g fill-rule="evenodd"><path d="m10 34.464844v443.046875c0 13.460937 10.996094 24.488281 24.464844 24.488281h443.046875c13.460937 0 24.488281-11.027344 24.488281-24.492188v-443.042968c0-13.46875-11.027344-24.464844-24.492188-24.464844h-443.042968c-13.46875 0-24.464844 10.996094-24.464844 24.464844zm64.175781 112.472656h368.128907c8.472656 0 15.417968 6.917969 15.417968 15.394531v279.035157c0 8.476562-6.945312 15.421874-15.417968 15.421874h-368.128907c-8.476562 0-15.421875-6.945312-15.421875-15.421874v-279.035157c0-8.476562 6.945313-15.394531 15.421875-15.394531zm0 0" fill="#cbe558"/><path d="m58.753906 293.6875h398.96875v38.152344h-398.96875zm0 0" fill="#c68a65"/><path d="m58.753906 293.6875h398.96875v-131.355469c0-8.476562-6.945312-15.394531-15.417968-15.394531h-368.128907c-8.476562 0-15.421875 6.917969-15.421875 15.394531zm0 0" fill="#f9fceb"/><path d="m74.175781 456.789062h368.128907c8.472656 0 15.417968-6.945312 15.417968-15.421874v-109.527344h-398.96875v109.527344c0 8.476562 6.945313 15.421874 15.421875 15.421874zm0 0" fill="#f9fceb"/><path d="m359.617188 58.074219c-12.132813 8.363281-15.222657 24.972656-6.886719 37.105469 8.363281 12.160156 24.972656 15.25 37.105469 6.886718 12.160156-8.332031 15.25-24.941406 6.886718-37.101562-8.332031-12.132813-24.945312-15.222656-37.105468-6.890625zm0 0" fill="#ff6977"/><path d="m111.703125 95.179688c8.363281 12.160156 24.976563 15.25 37.105469 6.886718 12.160156-8.332031 15.25-24.945312 6.890625-37.105468-8.335938-12.132813-24.945313-15.222657-37.105469-6.886719-12.132812 8.363281-15.222656 24.972656-6.890625 37.105469zm0 0" fill="#ff6977"/><path d="m232.230469 95.179688c8.335937 12.160156 24.945312 15.25 37.105469 6.886718 12.132812-8.332031 15.222656-24.945312 6.890624-37.105468-8.363281-12.132813-24.972656-15.222657-37.105468-6.886719-12.160156 8.363281-15.25 24.972656-6.890625 37.105469zm0 0" fill="#ffd89e"/><path d="m149.433594 293.6875h218.152344c0-1.304688-.257813-8.335938-.371094-9.609375-3.515625-36.398437-55.980469-58.847656-108.789063-58.253906-52.839843-.59375-105.335937 21.855469-108.820312 58.28125-.117188 1.277343-.171875 8.277343-.171875 9.582031zm0 0" fill="#ffc15a"/></g><path d="m477.515625 0h-443.058594c-19 0-34.457031 15.457031-34.457031 34.457031v177.109375c0 5.519532 4.472656 9.992188 9.992188 9.992188 5.519531 0 9.992187-4.472656 9.992187-9.992188v-177.109375c0-7.980469 6.492187-14.472656 14.46875-14.472656h443.0625c7.992187 0 14.496094 6.492187 14.496094 14.472656v443.058594c0 7.996094-6.503907 14.5-14.496094 14.5h-443.058594c-7.980469 0-14.472656-6.503906-14.472656-14.5v-179.292969c0-5.519531-4.472656-9.992187-9.992187-9.992187-5.515626 0-9.992188 4.472656-9.992188 9.992187v179.292969c0 19.015625 15.457031 34.484375 34.457031 34.484375h443.058594c19.015625 0 34.484375-15.46875 34.484375-34.484375v-443.058594c0-19-15.46875-34.457031-34.484375-34.457031zm0 0"/><path d="m48.757812 162.328125v279.046875c0 14.011719 11.398438 25.410156 25.410157 25.410156h368.140625c14.011718 0 25.414062-11.398437 25.414062-25.410156v-279.046875c0-13.996094-11.402344-25.386719-25.414062-25.386719h-368.140625c-14.011719.003906-25.410157 11.390625-25.410157 25.386719zm160.9375 103.480469c5.519532 0 9.992188-4.472656 9.992188-9.992188v-16.03125c8-1.773437 16.339844-2.964844 24.773438-3.546875v3.988281c0 5.519532 4.476562 9.992188 9.992187 9.992188 5.519531 0 9.992187-4.476562 9.992187-9.992188v-4.371093c9.339844.203125 18.382813 1.144531 26.929688 2.714843v17.246094c0 5.519532 4.472656 9.992188 9.992188 9.992188 5.519531 0 9.992187-4.472656 9.992187-9.992188v-12.144531c25.464844 8.519531 43.34375 23.179687 45.75 40.023437h-197.386719c2.214844-15.382812 16.78125-29.050781 39.980469-37.964843v10.085937c0 5.519532 4.472656 9.992188 9.992187 9.992188zm238.042969 37.871094v18.167968h-378.996093v-18.167968zm-5.429687 143.121093h-368.140625c-2.941407 0-5.425781-2.484375-5.425781-5.425781v-99.539062h378.996093v99.539062c0 2.941406-2.484375 5.425781-5.429687 5.425781zm5.429687-284.472656v121.367187h-70.53125c-.015625-.226562-.03125-.429687-.042969-.578124-3.074218-31.855469-34.734374-52.878907-72.425781-62.039063-.703125-.253906-1.4375-.433594-2.207031-.523437-13.667969-3.136719-28.0625-4.734376-42.128906-4.734376-.65625 0-1.320313.003907-1.976563.011719-1.3125-.015625-2.628906-.011719-3.941406.003907-.011719 0-.019531-.003907-.03125-.003907-.015625 0-.03125.003907-.050781.003907-16.171875.167968-32.449219 2.382812-47.367188 6.480468-.09375.027344-.183594.054688-.277344.082032-.015624.003906-.03125.007812-.046874.011718-39.398438 10.96875-64.457032 33.65625-67.0625 60.8125-.011719.132813-.023438.292969-.035157.472656h-70.871093v-121.367187c0-2.925781 2.484374-5.398437 5.425781-5.398437h368.140625c2.945312 0 5.429687 2.472656 5.429687 5.398437zm0 0"/><path d="m368.089844 116.148438c2.246094.414062 4.492187.617187 6.726562.617187 7.347656 0 14.507813-2.214844 20.671875-6.460937 8.085938-5.539063 13.523438-13.898438 15.316407-23.53125 1.789062-9.636719-.285157-19.394532-5.839844-27.472657-11.4375-16.652343-34.3125-20.902343-51.015625-9.457031-16.644531 11.472656-20.882813 34.347656-9.453125 50.992188.003906 0 .003906 0 .003906.003906 5.566406 8.089844 13.945312 13.527344 23.589844 15.308594zm-2.820313-49.835938c7.59375-5.207031 18.011719-3.277344 23.222657 4.304688 2.53125 3.683593 3.476562 8.121093 2.660156 12.503906-.8125 4.378906-3.285156 8.179687-6.984375 10.714844-3.660157 2.523437-8.078125 3.46875-12.453125 2.65625-4.394532-.808594-8.210938-3.289063-10.75-6.980469-5.199219-7.574219-3.257813-17.988281 4.304687-23.199219zm0 0"/><path d="m247.519531 116.136719c2.257813.421875 4.523438.628906 6.773438.628906 7.347656 0 14.515625-2.214844 20.703125-6.464844 16.652344-11.441406 20.902344-34.316406 9.457031-51.015625-11.472656-16.644531-34.347656-20.882812-50.996094-9.449218-8.09375 5.566406-13.53125 13.941406-15.308593 23.59375-1.777344 9.621093.300781 19.355468 5.847656 27.410156 5.542968 8.074218 13.894531 13.507812 23.523437 15.296875zm-9.71875-39.085938c.808594-4.394531 3.289063-8.210937 6.976563-10.746093 2.875-1.976563 6.15625-2.917969 9.410156-2.917969 5.320312 0 10.558594 2.527343 13.792969 7.21875 5.207031 7.597656 3.277343 18.015625-4.304688 23.222656-3.679687 2.53125-8.125 3.476563-12.503906 2.660156-4.378906-.8125-8.179687-3.285156-10.699219-6.960937-.003906-.007813-.007812-.015625-.015625-.023438-2.519531-3.65625-3.464843-8.078125-2.65625-12.453125zm0 0"/><path d="m127.058594 116.148438c2.246094.414062 4.492187.617187 6.726562.617187 7.347656 0 14.507813-2.214844 20.671875-6.460937 8.082031-5.539063 13.523438-13.898438 15.3125-23.527344 1.792969-9.636719-.28125-19.398438-5.835937-27.476563-11.441406-16.652343-34.316406-20.902343-51.015625-9.457031-16.644531 11.472656-20.886719 34.347656-9.453125 50.992188.003906 0 .003906 0 .003906.003906 5.5625 8.089844 13.941406 13.527344 23.589844 15.308594zm-2.820313-49.835938c7.59375-5.207031 18.011719-3.277344 23.222657 4.304688 2.53125 3.683593 3.476562 8.121093 2.660156 12.503906-.8125 4.378906-3.285156 8.179687-6.988282 10.714844-3.65625 2.523437-8.078124 3.46875-12.449218 2.65625-4.394532-.808594-8.210938-3.289063-10.75-6.980469-5.199219-7.574219-3.261719-17.988281 4.304687-23.199219zm0 0"/><path d="m9.992188 265.976562c5.519531 0 9.992187-4.472656 9.992187-9.992187v-.167969c0-5.519531-4.472656-9.992187-9.992187-9.992187-5.519532 0-9.992188 4.472656-9.992188 9.992187v.167969c0 5.519531 4.472656 9.992187 9.992188 9.992187zm0 0"/></svg>