<svg height="511pt" viewBox="-28 1 511 511.999" width="511pt" xmlns="http://www.w3.org/2000/svg"><g fill-rule="evenodd"><path d="m278.453125 501.992188c29.949219-123.878907 13.117187-218.132813-35.816406-285.828126-48.230469-66.730468-127.710938-107.632812-224.363281-125.605468-8.953126 17.746094-10.597657 38.4375-2.410157 61.996094l100.28125 289.285156c10.878907 31.351562 27.996094 60.152344 62.195313 60.152344zm0 0" fill="#fbc2c7"/><path d="m340.648438 441.839844 100.28125-289.285156c9.097656-26.167969 6.632812-48.703126-4.222657-67.609376-88.09375 0-168.765625 41.839844-194.070312 131.21875 48.933593 67.695313 65.765625 161.949219 35.816406 285.828126 34.199219 0 51.316406-28.800782 62.195313-60.152344zm0 0" fill="#fbc2c7"/><path d="m242.636719 216.164062c25.304687-89.378906 105.976562-131.21875 194.070312-131.21875-58.9375-102.761718-365.671875-98.960937-418.433593 5.613282 96.652343 17.96875 176.136718 58.875 224.363281 125.605468zm0 0" fill="#f8a2aa"/><path d="m217.390625 104.871094c-7.652344-24.972656-30.859375-43.113282-58.316406-43.113282-30.179688 0-55.253907 21.9375-60.128907 50.769532 26.125 9.722656 50.238282 21.65625 71.972657 35.945312 7.195312-21.234375 24.652343-37.730468 46.472656-43.601562zm0 0" fill="#ffc15a"/><path d="m263.632812 168.882812c-8.386718-10.433593-13.402343-23.699218-13.402343-38.15625 0-8.902343 1.898437-17.378906 5.328125-25.003906-6.460938-2.039062-13.375-3.175781-20.542969-3.175781-6.09375 0-12.015625.824219-17.625 2.324219-21.820313 5.871094-39.273437 22.367187-46.472656 43.601562 9.746093 6.40625 19.042969 13.292969 27.796875 20.636719 16.605468 13.972656 31.339844 29.621094 43.921875 47.054687 4.988281-17.574218 12.097656-33.335937 20.996093-47.28125zm0 0" fill="#ffd89e"/><path d="m292.648438 134.722656c19.582031-17.546875 43.070312-30.332031 68.828124-38.550781-11.023437-15.988281-29.414062-26.449219-50.265624-26.449219-24.765626 0-46.105469 14.769532-55.652344 36-3.429688 7.625-5.328125 16.101563-5.328125 25.003906 0 14.457032 5.015625 27.722657 13.402343 38.15625 8.246094-12.898437 18.019532-24.296874 29.015626-34.160156zm0 0" fill="#ffc15a"/><path d="m222.292969 191.445312c-15.105469-16.128906-32.304688-30.445312-51.375-42.972656-15.160157-9.953125-31.507813-18.796875-48.851563-26.535156l.3125 120.136719c-.398437 26.277343 40.066406 28.347656 39.019532-1.644531v-14.683594c-.339844-20.75 31.792968-22.167969 32.359374-2.097656v12.359374c0 22.875 31.082032 22.847657 30.203126-.398437zm0 0" fill="#c68a65"/></g><path d="m451.566406 93.289062c-1.601562-4.414062-3.585937-8.710937-5.949218-12.878906-.203126-.398437-.425782-.78125-.679688-1.148437-7.015625-11.964844-17.152344-22.875-30.316406-32.558594-39.84375-29.3125-108.21875-46.703125-183.351563-46.703125-.925781 0-1.867187.00390625-2.796875.0078125-76.046875.4374995-145.605468 18.5429685-186.074218 48.4335935-18.042969 13.324219-30.4375 28.839844-36.84375 46.109375-7.019532 18.917969-6.726563 39.542969.863281 61.296875l43.355469 124.304688c1.820312 5.214844 7.523437 7.96875 12.742187 6.152344 5.214844-1.820313 7.96875-7.527344 6.148437-12.742188l-43.351562-124.304688c-5.96875-17.105468-6.3125-32.917968-1.09375-47.34375 31.929688 6.425782 61.285156 15.40625 87.863281 26.746094l.292969 113.363282c-.140625 11.3125 5.140625 20.878906 14.5 26.261718 4.710938 2.710938 10.050781 4.066406 15.355469 4.066406 5.363281 0 10.691406-1.386718 15.285156-4.152343 9.203125-5.542969 14.257813-15.714844 13.886719-27.929688v-14.523437c0-.054688 0-.109375-.003906-.164063-.089844-5.625 5.085937-6.179687 6.675781-6.214843 2.5-.074219 5.515625.675781 5.679687 4.453124v12.1875c0 10.542969 4.753906 19.257813 13.050782 23.910157 7.894531 4.425781 17.550781 4.265625 25.207031-.414063 7.992187-4.886718 12.347656-13.734375 11.949219-24.273437l-.558594-14.714844c2.8125 3.820313 5.519531 7.710937 8.089844 11.679687 43.347656 66.914063 53.085937 154.292969 29.015624 259.789063h-92.164062c-23.65625 0-39.921875-16.476563-52.746094-53.425781l-30.261718-87.253906c-1.8125-5.21875-7.515626-7.984376-12.730469-6.171876-5.222657 1.808594-7.984375 7.511719-6.175781 12.730469l30.265624 87.253907c5.738282 16.542968 23.207032 66.878906 71.648438 66.878906h100.085938c.007812 0 .019531.003906.03125.003906.027343 0 .054687-.003906.082031-.003906 48.367187-.0625 65.820312-50.347656 71.558593-66.878906l100.28125-289.285157c7.742188-22.320312 8.136719-43.363281 1.183594-62.542969zm-359.5625 6.152344c-18.195312-6.253906-37.421875-11.542968-57.597656-15.84375 5.183594-6.734375 11.800781-13.09375 19.878906-19.0625 37.183594-27.460937 102.34375-44.105468 174.300782-44.519531.914062-.003906 1.820312-.007813 2.730468-.007813 70.984375 0 134.921875 15.941407 171.449219 42.8125 5.527344 4.0625 10.359375 8.332032 14.527344 12.785157-18.445313 1.273437-36.167969 4.359375-52.867188 9.191406-13.207031-15.820313-32.648437-25.082031-53.300781-25.082031-25.433594 0-47.730469 13.859375-59.972656 34.527344-5.296875-1.125-10.695313-1.703126-16.136719-1.703126-3.824219 0-7.59375.292969-11.296875.835938-11.378906-25.226562-36.332031-41.625-64.644531-41.625-30.765625 0-57.347657 19.476562-67.070313 47.691406zm251.316406-7.667968c-14.199218 5.734374-27.34375 12.871093-39.296874 21.277343-15.042969 10.417969-28.164063 22.808594-39.167969 36.914063-2.40625-6.03125-3.65625-12.519532-3.65625-19.238282 0-28.121093 22.394531-51 49.925781-51 11.921875 0 23.296875 4.359376 32.195312 12.046876zm-217.914062 20.742187c-4.785156-2.117187-9.648438-4.167969-14.605469-6.136719-.007812-.007812-.019531-.015625-.027343-.023437 6.878906-20.453125 26.070312-34.59375 48.300781-34.59375 19.289062 0 36.410156 10.59375 45.09375 27.144531-.445313.191406-.882813.40625-1.324219.605469-.136719.0625-.277344.125-.417969.191406-.835937.382813-1.660156.78125-2.480469 1.195313-.011718.007812-.027343.011718-.039062.019531-14.28125 7.21875-26 18.671875-33.519531 32.871093-.34375-.207031-.6875-.402343-1.03125-.601562-1.953125-1.175781-3.910157-2.347656-5.902344-3.492188-10.328125-5.933593-21.191406-11.425781-32.527344-16.503906-.484375-.265625-.992187-.488281-1.519531-.675781zm86.167969 129.914063c-1.441407.882812-3.445313.898437-4.984375.035156-2.335938-1.3125-2.828125-4.234375-2.828125-6.457032v-12.359374c0-.09375 0-.1875-.003907-.28125-.402343-14.234376-11.390624-24.292969-26.128906-24.003907-12.902344.289063-26.460937 9.660157-26.234375 26.460938v14.605469c0 .117187 0 .234374.003907.351562.121093 3.460938-.507813 8.050781-4.203126 10.273438-2.917968 1.757812-7.171874 1.710937-10.34375-.113282-3.027343-1.738281-4.53125-4.671875-4.46875-8.714844 0-.058593 0-.117187 0-.175781l-.269531-104.15625c10.570313 5.289063 20.636719 10.988281 30.171875 17.089844.679688.964844 1.609375 1.628906 2.820313 1.804687 17.675781 11.585938 33.492187 24.589844 47.335937 38.933594l1.523438 40.265625c.085937 2.222657-.261719 5.140625-2.390625 6.441407zm27.507812-47.078126c-.007812-.003906-.011719-.007812-.019531-.007812-2.902344-3.457031-5.902344-6.847656-8.996094-10.175781-.335937-.414063-.699218-.804688-1.09375-1.160157-13.488281-14.335937-28.738281-27.433593-45.6875-39.222656-.007812-.011718-.015625-.027344-.023437-.042968 9.605469-19.519532 29.5625-32.1875 51.75-32.1875 2.796875 0 5.582031.199218 8.332031.597656-.019531.085937-.023438.171875-.042969.257812-1.375 5.542969-2.113281 11.34375-2.113281 17.316406 0 13.3125 3.742188 26.402344 10.632812 37.628907.066407.113281.132813.226562.203126.339843-4.964844 8.40625-9.289063 17.316407-12.941407 26.65625zm192.394531-46.078124-100.277343 289.285156c-10.335938 29.773437-22.90625 46.246094-39.773438 51.527344 23.480469-108.144532 12.371094-198.519532-33.140625-268.769532-1.515625-2.339844-3.070312-4.652344-4.660156-6.945312.039062-.128906.074219-.261719.113281-.390625 22.929688-72.976563 88.421875-117.019531 176.863281-118.957031 7.476563 16.160156 7.796876 34.292968.875 54.25zm0 0"/><path d="m81.664062 311.46875-.054687-.171875c-1.738281-5.246094-7.398437-8.089844-12.644531-6.347656-5.246094 1.738281-8.085938 7.398437-6.351563 12.644531l.058594.167969c1.390625 4.203125 5.300781 6.859375 9.496094 6.859375 1.042969 0 2.101562-.160156 3.148437-.507813 5.242188-1.738281 8.085938-7.398437 6.347656-12.644531zm0 0"/></svg>