<svg height="512pt" viewBox="0 0 512 512" width="512pt" xmlns="http://www.w3.org/2000/svg"><g fill-rule="evenodd"><path d="m45.511719 256.140625c0-21.023437 3.117187-40.96875 8.816406-59.582031-11.679687-7.28125-20.523437-18.726563-24.4375-32.242188-12.191406 10.371094-19.902344 22.609375-19.902344 43.066406 0 20.457032 15.054688 43.886719 35.664063 52.355469-.167969-1.554687-.140625-2.832031-.140625-3.597656zm0 0" fill="#ffc15a"/><path d="m79.613281 143.578125c-8.132812-9.804687-13.011719-22.382813-13.011719-36.097656 0-4.53125.511719-8.953125 1.53125-13.171875-23.386718 6.96875-40.453124 28.613281-40.453124 54.253906 0 5.46875.765624 10.738281 2.210937 15.753906 3.914063 13.515625 12.757813 24.960938 24.4375 32.242188 5.894531-19.179688 14.515625-36.945313 25.285156-52.980469zm0 0" fill="#ffc15a"/><path d="m119.527344 99.550781c-2.292969-6.148437-3.570313-12.808593-3.570313-19.75 0-10.566406 2.890625-20.429687 7.9375-28.898437h-.707031c-26.707031 0-49.128906 18.527344-55.054688 43.40625-1.019531 4.21875-1.53125 8.640625-1.53125 13.171875 0 13.714843 4.875 26.292969 13.011719 36.097656 11.199219-16.632813 24.722657-31.421875 39.914063-44.027344zm0 0" fill="#ffc15a"/><path d="m171.011719 66.570312c0-16.148437 6.773437-30.710937 17.632812-41.023437-5.105469-1.503906-10.488281-2.324219-16.074219-2.324219-20.695312 0-38.808593 11.105469-48.675781 27.679688-5.046875 8.472656-7.9375 18.332031-7.9375 28.898437 0 6.941407 1.277344 13.601563 3.570313 19.75 15.621094-12.976562 33.027344-23.660156 51.511718-31.675781zm0 0" fill="#ffc15a"/><path d="m229.691406 52.121094c4.113282-14.648438 13.949219-26.886719 26.929688-34.140625-8.472656-5.074219-18.394532-7.992188-29-7.992188-15.109375 0-28.832032 5.921875-38.976563 15.554688-10.859375 10.3125-17.632812 24.875-17.632812 41.023437l.027343 1.304688c18.710938-8.101563 38.527344-13.484375 58.652344-15.75zm0 0" fill="#ffc15a"/><path d="m290.101562 53.59375c7.511719-12.664062 19.816407-22.128906 34.417969-25.925781-10.261719-10.425781-24.523437-16.855469-40.3125-16.855469-10.007812 0-19.421875 2.605469-27.585937 7.167969-12.980469 7.25-22.820313 19.492187-26.929688 34.140625 8.277344-.9375 16.613282-1.332032 24.949219-1.191406 11.875-.199219 23.753906.707031 35.460937 2.664062zm0 0" fill="#ffc15a"/><path d="m389.492188 57.21875c-9.269532-18.585938-28.488282-31.363281-50.683594-31.363281-4.933594 0-9.726563.625-14.289063 1.8125-14.601562 3.796875-26.902343 13.261719-34.414062 25.925781 20.722656 3.457031 40.933593 10.199219 59.816406 19.773438 10.628906-10.367188 24.71875-16.148438 39.570313-16.148438zm0 0" fill="#ffc15a"/><path d="m445.257812 103.769531c-4.734374-26.460937-27.898437-46.550781-55.734374-46.550781h-.03125c-14.851563 0-28.941407 5.78125-39.574219 16.148438 17.691406 8.984374 34.191406 20.429687 48.847656 34.085937 8.363281-4.617187 17.746094-7 27.296875-7 6.71875 0 13.183594 1.164063 19.195312 3.316406zm0 0" fill="#ffc15a"/><path d="m482.648438 157.007812c0-24.507812-15.59375-45.359374-37.390626-53.238281-6.011718-2.152343-12.476562-3.316406-19.195312-3.316406-9.550781 0-18.933594 2.382813-27.296875 7 13.179687 12.269531 24.886719 26.292969 34.613281 41.847656 2.4375-.3125 4.875-.484375 7.339844-.484375 7.058594 0 14.0625 1.304688 20.609375 3.882813 7.683594 3.003906 14.910156 7.820312 20.523437 13.828125.542969-3.089844.796876-6.261719.796876-9.519532zm0 0" fill="#ffc15a"/><path d="m497.332031 205.398438c0-15.046876-5.898437-28.730469-15.476562-38.871094-5.613281-6.007813-12.84375-10.824219-20.527344-13.828125-6.546875-2.578125-13.550781-3.882813-20.605469-3.882813-2.46875 0-4.90625.171875-7.34375.484375 19.023438 30.429688 30.390625 66.664063 30.390625 106.839844 0 .3125-.027343.625-.085937.964844 19.8125-8.8125 33.648437-28.644531 33.648437-51.707031zm0 0" fill="#ffc15a"/><path d="m463.765625 256.140625c0-40.171875-11.367187-76.410156-30.386719-106.839844-9.726562-15.554687-21.433594-29.578125-34.617187-41.847656-14.65625-13.65625-31.152344-25.101563-48.84375-34.082031-18.878907-9.578125-39.09375-16.320313-59.816407-19.777344-11.707031-1.953125-23.585937-2.863281-35.464843-2.664062-8.332031-.140626-16.667969.257812-24.945313 1.191406-20.128906 2.265625-39.945312 7.648437-58.652344 15.753906-18.484374 8.015625-35.890624 18.699219-51.511718 31.675781-15.195313 12.605469-28.714844 27.394531-39.914063 44.027344-10.773437 16.035156-19.390625 33.800781-25.289062 52.984375-5.695313 18.613281-8.8125 38.558594-8.8125 59.582031 0 .765625-.03125 2.039063.140625 3.597657.539062 4.25 2.890625 10.625 13.210937 14.363281 80.421875 29.183593 287.085938 30.574219 388.6875-2.292969 10.261719-3.316406 15.476563-10.085938 16.128907-14.707031.058593-.339844.085937-.652344.085937-.964844zm0 0" fill="#ffd89e"/><path d="m50.21875 461.921875c0-21.023437 3.117188-40.972656 8.8125-59.558594-11.679688-7.308593-20.523438-18.726562-24.433594-32.269531-12.191406 10.398438-19.902344 22.636719-19.902344 43.09375 0 20.429688 15.050782 43.886719 35.664063 52.332031-.199219-1.558593-.140625-2.835937-.140625-3.597656zm0 0" fill="#ffc15a"/><path d="m84.320312 349.382812c-8.136718-9.804687-13.039062-22.382812-13.039062-36.09375 0-4.535156.539062-8.953124 1.558594-13.175781-23.417969 6.941407-40.484375 28.585938-40.484375 54.226563 0 5.46875.796875 10.765625 2.242187 15.753906 3.910156 13.542969 12.757813 24.960938 24.4375 32.269531 5.867188-19.179687 14.511719-36.941406 25.285156-52.980469zm0 0" fill="#ffc15a"/><path d="m124.207031 305.328125c-2.296875-6.148437-3.542969-12.777344-3.542969-19.75 0-10.539063 2.890626-20.425781 7.9375-28.871094h-.710937c-26.730469 0-49.125 18.503907-55.050781 43.40625-1.023438 4.222657-1.558594 8.640625-1.558594 13.175781 0 13.710938 4.902344 26.289063 13.039062 36.09375 11.199219-16.660156 24.71875-31.449218 39.886719-44.054687zm0 0" fill="#ffc15a"/><path d="m175.71875 272.347656c0-16.148437 6.773438-30.710937 17.632812-41.023437-5.105468-1.503907-10.492187-2.296875-16.074218-2.296875-20.695313 0-38.808594 11.105468-48.675782 27.683594-5.046874 8.441406-7.9375 18.328124-7.9375 28.867187 0 6.972656 1.246094 13.601563 3.542969 19.75 15.648438-12.976563 33.054688-23.65625 51.539063-31.648437zm0 0" fill="#ffc15a"/><path d="m234.398438 257.925781c4.082031-14.648437 13.917968-26.886719 26.929687-34.167969-8.476563-5.070312-18.398437-7.988281-29-7.988281-15.109375 0-28.832031 5.917969-38.980469 15.550781-10.855468 10.316407-17.632812 24.878907-17.632812 41.027344l.027344 1.332032c18.710937-8.132813 38.527343-13.488282 58.65625-15.753907zm0 0" fill="#ffc15a"/><path d="m294.78125 259.398438c7.511719-12.664063 19.84375-22.15625 34.445312-25.949219-10.261718-10.398438-24.523437-16.859375-40.3125-16.859375-10.007812 0-19.421874 2.605468-27.585937 7.167968-13.011719 7.28125-22.847656 19.519532-26.929687 34.167969 8.277343-.933593 16.613281-1.332031 24.949218-1.1875 11.875-.199219 23.726563.707031 35.433594 2.660157zm0 0" fill="#ffc15a"/><path d="m394.199219 263.027344c-9.269531-18.617188-28.488281-31.394532-50.6875-31.394532-4.933594 0-9.722657.652344-14.285157 1.8125-14.601562 3.796876-26.933593 13.289063-34.445312 25.953126 20.722656 3.457031 40.964844 10.171874 59.84375 19.777343 10.601562-10.398437 24.71875-16.148437 39.574219-16.148437zm0 0" fill="#ffc15a"/><path d="m449.933594 309.574219c-4.707032-26.460938-27.867188-46.546875-55.707032-46.546875h-.027343c-14.855469 0-28.972657 5.75-39.574219 16.148437 17.660156 8.953125 34.1875 20.425781 48.816406 34.054688 8.363282-4.589844 17.773438-6.996094 27.300782-6.996094 6.746093 0 13.210937 1.1875 19.191406 3.339844zm0 0" fill="#ffc15a"/><path d="m487.355469 362.8125c0-24.507812-15.59375-45.386719-37.421875-53.238281-5.980469-2.152344-12.445313-3.339844-19.191406-3.339844-9.523438 0-18.9375 2.40625-27.300782 6.996094 13.210938 12.296875 24.917969 26.320312 34.613282 41.847656 2.4375-.3125 4.90625-.453125 7.371093-.453125 7.03125 0 14.0625 1.304688 20.609375 3.851562 7.683594 3.003907 14.886719 7.820313 20.527344 13.855469.507812-3.089843.792969-6.289062.792969-9.519531zm0 0" fill="#ffc15a"/><path d="m502.011719 411.175781c0-15.042969-5.871094-28.699219-15.453125-38.84375-5.640625-6.035156-12.839844-10.851562-20.523438-13.855469-6.546875-2.550781-13.578125-3.851562-20.609375-3.851562-2.464843 0-4.933593.140625-7.371093.453125 19.023437 30.457031 30.417968 66.664063 30.417968 106.839844 0 .3125-.027344.652343-.085937.992187 19.816406-8.808594 33.625-28.644531 33.625-51.734375zm0 0" fill="#ffc15a"/><path d="m468.472656 461.921875c0-40.175781-11.394531-76.386719-30.417968-106.84375-9.695313-15.523437-21.402344-29.550781-34.613282-41.847656-14.628906-13.625-31.15625-25.101563-48.816406-34.054688-18.878906-9.605469-39.121094-16.320312-59.84375-19.777343-11.707031-1.953126-23.558594-2.859376-35.4375-2.660157-8.332031-.144531-16.667969.253907-24.945312 1.1875-20.128907 2.269531-39.945313 7.621094-58.652344 15.753907-18.484375 7.992187-35.890625 18.671874-51.539063 31.648437-15.167969 12.605469-28.6875 27.394531-39.886719 44.054687-10.773437 16.039063-19.417968 33.800782-25.289062 52.984376-5.695312 18.585937-8.8125 38.53125-8.8125 59.554687 0 .765625-.058594 2.039063.140625 3.597656.539063 4.277344 2.890625 10.652344 13.210937 14.390625 80.421876 29.15625 287.085938 30.574219 388.660157-2.292968 10.289062-3.316407 15.476562-10.113282 16.15625-14.703126.058593-.34375.085937-.683593.085937-.992187zm0 0" fill="#ffd89e"/></g><path d="m497.03125 369.148438c.199219-2.125.3125-4.242188.3125-6.335938 0-26.101562-15.382812-49.742188-38.800781-60.496094-1.992188-7.476562-5.230469-14.378906-9.457031-20.515625.507812-.160156 1.019531-.316406 1.519531-.480469 11.210937-3.597656 18.097656-10.382812 21.203125-17.070312 21.710937-11.472656 35.515625-34.101562 35.515625-58.851562 0-15.4375-5.308594-30.195313-14.988281-42.042969.195312-2.078125.304687-4.199219.304687-6.347657 0-26.058593-15.363281-49.691406-38.777344-60.484374-7.199219-26.964844-30.535156-46.554688-58.363281-49.027344-12.082031-19.648438-33.289062-31.628906-56.691406-31.628906-3.8125 0-7.59375.324218-11.296875.957031-12.039063-10.347657-27.207031-16.003907-43.304688-16.003907-9.464843 0-18.835937 2.035157-27.417969 5.90625-9.042968-4.410156-19.015624-6.726562-29.167968-6.726562-15.253906 0-29.820313 5.15625-41.609375 14.609375-4.425781-.910156-8.925781-1.378906-13.441407-1.378906-21.484374 0-41.753906 10.554687-54.171874 27.863281-27.042969 1.910156-50.050782 19.847656-58.453126 45.488281-25.136718 9.917969-42.253906 34.644531-42.253906 61.980469 0 4.164062.390625 8.296875 1.148438 12.355469-12.96875 12.761719-18.839844 27.328125-18.839844 46.464843 0 23.621094 15.679688 48.261719 37.167969 59.414063 3.371093 9.316406 11.328125 14.179687 18.289062 16.699219 3.464844 1.257812 7.191407 2.476562 11.15625 3.652344-.722656 1.703124-1.378906 3.449218-1.960937 5.230468-25.15625 9.890625-42.285156 34.605469-42.285156 61.960938 0 4.15625.398437 8.296875 1.171874 12.371094-12.964843 12.789062-18.832031 27.355468-18.832031 46.476562 0 23.632812 15.675781 48.257812 37.164063 59.390625 3.371094 9.335937 11.328125 14.203125 18.292968 16.722656 32.023438 11.613281 83.972657 19.378907 146.28125 21.871094.136719.003906.273438.007813.40625.007813 5.335938 0 9.761719-4.214844 9.976563-9.59375.21875-5.511719-4.070313-10.160157-9.585937-10.378907-59.433594-2.375-110.558594-9.917969-140.269532-20.691406-5.097656-1.84375-6.371094-3.976563-6.675781-6.039063-.003906-.035156-.011719-.074218-.015625-.113281-.085938-.65625-.082031-1.304687-.074219-1.9375l.003907-.507812c0-52.070313 20.546874-100.929688 57.855468-137.582031 17.777344-17.464844 114.933594-92.703126 231.0625-36.824219.605469.402343 29.878906 13.496093 51.496094 36.832031 35.445312 38.261719 58.386719 77.667969 57.859375 137.136719-.453125 1.070312-2.957031 4.566406-9.328125 6.628906-37.730469 12.207031-93.554688 20.378906-157.195312 23.007813-5.511719.230468-9.796876 4.882812-9.566407 10.398437.226563 5.511719 4.863281 9.796875 10.394531 9.566406 65.394532-2.703125 123.113282-11.214843 162.519532-23.964843 11.183594-3.621094 18.070312-10.386719 21.183594-17.050782 21.707031-11.460937 35.507812-34.109375 35.507812-58.890625 0-15.441406-5.304688-30.191406-14.96875-42.027343zm-22.4375-195.761719c8.222656 8.703125 12.75 20.074219 12.75 32.011719 0 12.847656-5.324219 24.878906-14.28125 33.515624-2.21875-27.820312-9.792969-54.546874-22.246094-79 2.335938.519532 4.632813 1.207032 6.875 2.089844 6.363282 2.488282 12.351563 6.515625 16.902344 11.382813zm-32.769531-60.234375c.011719.003906.023437.007812.035156.011718v.003907c14.988281 5.414062 25.972656 18.082031 29.546875 33.15625-2.085938-1.082031-4.222656-2.0625-6.417969-2.917969-7.710937-3.039062-15.878906-4.578125-24.269531-4.578125-.738281 0-1.476562.015625-2.214844.039063-6.414062-9.648438-13.65625-18.84375-21.695312-27.484376 3.03125-.613281 6.132812-.9375 9.253906-.9375 5.429688 0 10.742188.914063 15.761719 2.707032zm-52.347657-45.941406c.007813 0 .015626.003906.027344.003906.011719 0 .027344-.003906.042969-.003906 17.125.007812 32.339844 9.253906 40.441406 23.382812-1.304687-.074219-2.609375-.128906-3.925781-.128906-8.804688 0-17.523438 1.753906-25.578125 5.097656-10.011719-8.765625-20.726563-16.570312-31.972656-23.347656 6.4375-3.257813 13.578125-4.996094 20.964843-5.003906zm-62.4375-29.875c3.792969-.988282 7.75-1.488282 11.765626-1.488282 12.71875 0 24.515624 5.054688 33.117187 13.75-8.515625 2.324219-16.492187 6.328125-23.523437 11.855469-12.894532-6.066406-26.308594-10.855469-40.015626-14.277344 5.371094-4.625 11.761719-8.046875 18.65625-9.839843zm-65.542968-10.636719c6.90625-3.859375 14.761718-5.898438 22.710937-5.898438 7.15625 0 14.050781 1.59375 20.289063 4.609375-7.410156 4.476563-13.949219 10.378906-19.148438 17.351563-10.175781-1.371094-20.4375-1.996094-30.707031-1.824219-2.9375-.046875-5.875-.015625-8.808594.066406 4.039063-5.855468 9.390625-10.800781 15.664063-14.304687zm-65.976563 6.089843c8.703125-8.257812 20.105469-12.808593 32.101563-12.808593 3.042968 0 6.0625.304687 9.015625.886719-6.1875 6.339843-11.117188 13.875-14.390625 22.132812-13.253906 1.894531-26.339844 5.074219-39.078125 9.441406 2.339843-7.394531 6.535156-14.125 12.351562-19.652344zm-63.039062 23.222657c7.914062-13.300781 22.082031-21.824219 37.429687-22.710938-4.929687 8.5-7.890625 18.003907-8.664062 27.988281-12.28125 5.75-24.089844 12.664063-35.25 20.648438-.03125-.710938-.050782-1.421875-.050782-2.136719 0-8.390625 2.257813-16.613281 6.535157-23.789062zm-54.628907 40.609375c3.789063-15.90625 15.375-28.183594 30.175782-33.226563-1.355469 5.335938-2.058594 10.847657-2.058594 16.40625 0 5.566407.707031 11.0625 2.078125 16.417969-2.964844 2.621094-5.871094 5.316406-8.707031 8.101562-6.871094 6.75-13.21875 13.890626-19.039063 21.347657-2.421875-5.714844-3.707031-11.898438-3.707031-18.1875 0-3.75.417969-7.390625 1.257812-10.859375zm-41.828124 144.941406c-9.515626-9.058594-16.042969-22.171875-16.042969-34.179688 0-10.117187 2.097656-18.03125 6.875-25.101562 4.132812 7.019531 9.535156 13.242188 15.972656 18.351562-3.574219 13.28125-5.863281 26.96875-6.804687 40.929688zm13.613281-61.824219c-4.6875-5.1875-8.175781-11.386719-10.148438-18.191406-1.207031-4.1875-1.816406-8.554687-1.816406-12.984375 0-15.007812 7.375-28.886719 19.046875-37.53125.628906 11.746094 4.375 23.125 10.789062 32.917969-7.101562 11.375-13.078124 23.347656-17.871093 35.789062zm-8.910157 267.621094c-9.511718-9.046875-16.039062-22.15625-16.039062-34.171875 0-10.109375 2.097656-18.03125 6.878906-25.113281 4.128906 7.011719 9.527344 13.230469 15.960938 18.351562-3.570313 13.28125-5.859375 26.972657-6.800782 40.933594zm13.613282-61.839844c-4.691406-5.195312-8.183594-11.402343-10.148438-18.207031-1.222656-4.222656-1.84375-8.585938-1.84375-12.972656 0-15.011719 7.378906-28.882813 19.050782-37.511719.628906 11.734375 4.382812 23.109375 10.808593 32.917969-7.101562 11.371094-13.074219 23.339844-17.867187 35.773437zm49.722656-75.433593c-6.886719 6.761718-13.242188 13.910156-19.070312 21.382812-2.429688-5.71875-3.722657-11.902344-3.722657-18.179688 0-3.671874.429688-7.316406 1.289063-10.863281 1.339844-5.636719 3.667968-10.8125 6.765625-15.378906.257812-.320313.492187-.664063.710937-1.023437 5.605469-7.808594 13.53125-13.699219 22.691406-16.820313-1.351562 5.324219-2.050781 10.820313-2.050781 16.375 0 5.597656.699219 11.097656 2.058594 16.4375-2.953125 2.609375-5.847656 5.292969-8.671875 8.070313zm61.890625-43.023438c-12.28125 5.75-24.089844 12.667969-35.25 20.65625-.03125-.710938-.050781-1.421875-.050781-2.140625 0-8.394531 2.257812-16.605469 6.535156-23.757813 7.910156-13.296874 22.074219-21.816406 37.414062-22.710937-4.921874 8.488281-7.875 17.980469-8.648437 27.953125zm11.324219-48.023438c-21.488282 0-41.761719 10.558594-54.175782 27.859376-17.972656 1.269531-34.160156 9.621093-45.460937 22.605468-5.011719-1.355468-9.648437-2.777344-13.851563-4.25-.515624-.179687-1.019531-.359375-1.519531-.539062-.011719-.003906-.023437-.011719-.035156-.015625-5.074219-1.839844-6.339844-3.960938-6.644531-6.007813-.003906-.027344-.007813-.046875-.011719-.074218-.09375-.667969-.085937-1.328126-.082031-1.964844l.003906-.511719c0-52.0625 20.542969-100.917969 57.84375-137.570313 3.941406-3.875 44.652344-45.199218 116.929688-56.480468.328124-.019532.65625-.050782.980468-.101563 7.707032-.835937 15.457032-1.207031 23.210938-1.066406h.351562c11.050782-.195313 22.097656.628906 33.015625 2.402344.390625.089843.78125.148437 1.175781.191406 62.246094 11.480469 89.027344 38.308594 102.832032 51.140625.015625.015625.03125.027344.046875.042969 1.367187 1.269531 2.71875 2.554687 4.054687 3.867187 37.191406 36.542969 57.722656 85.230469 57.835938 137.132813-.457032 1.074219-2.949219 4.566406-9.304688 6.609375-3.652344 1.183594-7.394531 2.304687-11.167968 3.355468-9.503907-6.871093-20.859376-11.273437-33.09375-12.359374-12.078126-19.667969-33.285157-31.660157-56.699219-31.660157-3.75 0-7.523438.332031-11.289063.972657-12.058594-10.359376-27.230468-16.015626-43.308594-16.015626-9.464843 0-18.835937 2.03125-27.417968 5.90625-9.042969-4.410156-19.015625-6.730468-29.167969-6.730468-15.253906 0-29.828125 5.160156-41.613281 14.617187-4.394532-.894531-8.894532-1.355469-13.4375-1.355469zm49.675781 29.742188c-13.25 1.890625-26.339844 5.0625-39.078125 9.429688 2.34375-7.390626 6.535156-14.117188 12.351562-19.640626 8.703126-8.261718 20.101563-12.8125 32.101563-12.8125 3.042969 0 6.0625.308594 9.015625.886719-6.195312 6.34375-11.121094 13.882813-14.390625 22.136719zm63.074219-.21875c-10.164063-1.367188-20.421875-1.992188-30.683594-1.820312-2.941406-.050782-5.882812-.019532-8.820312.058593 4.035156-5.855469 9.394531-10.804687 15.675781-14.320312 6.910156-3.863281 14.761719-5.902344 22.710937-5.902344 7.148438 0 14.039063 1.597656 20.28125 4.617187-7.414062 4.480469-13.960937 10.386719-19.164062 17.367188zm23.035156 4.410156c5.371094-4.636718 11.757812-8.058594 18.628906-9.84375 3.917969-.996094 7.898438-1.503906 11.820313-1.503906 12.726562 0 24.527343 5.0625 33.125 13.773438-8.527344 2.320312-16.507813 6.324218-23.53125 11.855468-12.90625-6.070312-26.328125-10.859375-40.042969-14.28125zm60.148438 25.039063c6.433593-3.25 13.574218-4.988281 20.96875-4.996094.011718 0 .019531.003906.027343.003906.015625 0 .027344-.003906.042969-.003906 11.292969.007813 21.753906 4.023437 29.886719 10.804687.238281.230469.488281.445313.746093.648438 3.875 3.375 7.195313 7.386719 9.785157 11.902344-1.304688-.074219-2.613281-.128906-3.925781-.128906-8.773438 0-17.488282 1.753906-25.570313 5.101562-10.007813-8.757812-20.71875-16.558594-31.960937-23.332031zm69.996093 66.65625c-6.417969-9.65625-13.664062-18.855469-21.710937-27.503907 3.035156-.613281 6.136718-.941406 9.246094-.941406 5.394531 0 10.695312.921875 15.753906 2.738282.011718.003906.023437.007812.035156.011718.007812 0 .015625.003906.023438.003906 14.984374 5.390626 25.972656 18.046876 29.554687 33.128907-2.09375-1.089844-4.246094-2.074219-6.449219-2.9375-7.726562-3.007813-15.878906-4.53125-24.234375-4.53125-.742187 0-1.484375.007812-2.21875.03125zm34.5625 100.042969c-2.21875-27.816407-9.792969-54.535157-22.242187-78.984376 2.355468.515626 4.660156 1.195313 6.871094 2.054688 6.332031 2.476562 12.320312 6.515625 16.898437 11.410156 8.203125 8.6875 12.722656 20.046875 12.722656 31.984375 0 12.859375-5.3125 24.894531-14.25 33.535157zm0 0"/><path d="m191.449219 385.605469c-5.515625 0-9.988281 4.46875-9.988281 9.988281s4.472656 9.992188 9.988281 9.992188h.226562c5.519531 0 9.992188-4.472657 9.992188-9.992188s-4.472657-9.988281-9.992188-9.988281zm0 0"/><path d="m289.378906 340.203125c0-5.515625-4.472656-9.988281-9.992187-9.988281h-.226563c-5.515625 0-9.988281 4.472656-9.988281 9.988281 0 5.519531 4.472656 9.992187 9.988281 9.992187h.226563c5.519531 0 9.992187-4.472656 9.992187-9.992187zm0 0"/><path d="m354 429.46875c5.519531 0 9.992188-4.472656 9.992188-9.992188 0-5.515624-4.472657-9.988281-9.992188-9.988281h-.226562c-5.515626 0-9.988282 4.472657-9.988282 9.988281 0 5.519532 4.472656 9.992188 9.988282 9.992188zm0 0"/><path d="m345.582031 162.578125h.199219c5.515625 0 9.988281-4.472656 9.988281-9.992187 0-5.515626-4.472656-9.988282-9.988281-9.988282h-.199219c-5.515625 0-9.988281 4.472656-9.988281 9.988282 0 5.519531 4.46875 9.992187 9.988281 9.992187zm0 0"/><path d="m179.371094 142.597656h-.195313c-5.519531 0-9.992187 4.472656-9.992187 9.988282 0 5.519531 4.472656 9.992187 9.992187 9.992187h.195313c5.519531 0 9.992187-4.472656 9.992187-9.992187 0-5.515626-4.472656-9.988282-9.992187-9.988282zm0 0"/><path d="m261.554688 129.539062h.199218c5.515625 0 9.988282-4.46875 9.988282-9.988281s-4.472657-9.988281-9.988282-9.988281h-.199218c-5.515626 0-9.988282 4.46875-9.988282 9.988281s4.472656 9.988281 9.988282 9.988281zm0 0"/><path d="m248.375 512h-.199219c-5.515625 0-9.988281-4.472656-9.988281-9.988281 0-5.519531 4.472656-9.992188 9.988281-9.992188h.199219c5.515625 0 9.988281 4.472657 9.988281 9.992188 0 5.515625-4.472656 9.988281-9.988281 9.988281zm0 0"/></svg>