<svg height="512pt" viewBox="0 0 512 512.00219" width="512pt" xmlns="http://www.w3.org/2000/svg"><g fill-rule="evenodd"><path d="m476.820312 219.726562c-57.113281-32.683593-120.402343-41.125-186.785156-17.621093 49.234375-72.984375 46.316406-133.292969 5.359375-174.503907 107.875-46.695312 232.160157 83.757813 181.425781 192.125zm0 0" fill="#ffcb7c"/><path d="m399.925781 221.886719c-7.511719 1.335937-13.039062 4.601562-16.980469 8.609375-3.96875 3.949218-7.253906 9.492187-8.585937 17.023437-1.789063 10.03125-5.414063 20.492188-13.292969 28.363281-7.9375 7.988282-18.285156 12.421876-28.601562 13.386719-6.40625.597657-27.125 10.660157-30.355469 31.234375-3.910156 24.585938-41.296875 41.664063-70.40625 19.011719l2.75-2.726563 252.175781-252.886718 2.71875-2.726563c.796875-.765625 1.558594-1.589843 2.269532-2.414062 22.703124 29.1875 4.335937 64.910156-18.90625 70.652343-20.351563 5.058594-30.554688 24.042969-31.148438 30.464844-.964844 10.316406-5.386719 20.71875-13.324219 28.675782-7.878906 7.875-18.28125 11.539062-28.3125 13.332031zm0 0" fill="#cbe558"/><path d="m486.628906 83.902344-252.175781 252.886718c-1.5 1.476563-3.058594 2.84375-4.703125 4.035157-16.101562 11.910156-39.085938 10.574219-53.65625-4.035157-14.570312-14.609374-15.902344-37.65625-4.023438-53.800781 1.1875-1.648437 2.550782-3.210937 4.023438-4.71875l252.203125-252.855469c16.042969-16.085937 42.289063-16.085937 58.332031 0 16.042969 16.085938 16.042969 42.402344 0 58.488282zm0 0" fill="#ff6977"/><path d="m428.296875 25.414062-252.203125 252.855469-2.722656 2.757813c-22.589844-29.1875-5.554688-66.671875 18.964844-70.59375 20.519531-3.242188 30.554687-24.015625 31.148437-30.4375.964844-10.347656 5.386719-20.71875 13.351563-28.679688 7.851562-7.898437 18.28125-11.539062 28.285156-13.328125 7.511718-1.335937 13.039062-4.632812 16.980468-8.609375 3.996094-3.949218 7.253907-9.492187 8.585938-17.023437 1.785156-10.0625 5.441406-20.492188 13.292969-28.394531 7.9375-7.957032 18.308593-12.390626 28.597656-13.355469 6.40625-.597657 25.339844-10.828125 30.386719-31.234375 5.726562-23.304688 41.355468-41.722656 70.464844-18.957032-.824219.710938-1.644532 1.476563-2.410157 2.273438zm0 0" fill="#cbe558"/><path d="m441.277344 266.5625-224.625 202.464844c-26.527344 16.402344-46.425782 4.777344-62.382813-11.222656l-51.074219-51.214844-23.355468-23.417969c71.027344-99.386719 142.226562-156.964844 210.195312-181.066406 66.382813-23.503907 129.671875-15.0625 186.785156 17.621093-7.652343 16.339844-19.273437 32.199219-35.542968 46.835938zm0 0" fill="#ffd89e"/><path d="m290.035156 202.105469c-67.96875 24.101562-139.167968 81.679687-210.195312 181.066406l-23.328125-23.390625c-15.957031-16.027344-27.578125-35.980469-11.195313-62.582031l197.554688-229.609375c16.410156-19.070313 34.238281-32.085938 52.523437-39.988282 40.953125 41.210938 43.875 101.519532-5.359375 174.503907zm0 0" fill="#ffd89e"/><path d="m87.972656 419.976562 3.796875 3.804688 67.714844 67.898438c15.785156 15.828124 41.890625 12.476562 61.222656-3.808594l94.128907-79.152344c32.3125-27.167969-5.414063-94.980469-59.011719-149.40625-.199219-.199219-.394531-.394531-.59375-.59375-.453125-.457031-.878907-.882812-1.304688-1.308594-.453125-.453125-.878906-.882812-1.304687-1.308594-.195313-.199218-.394532-.394531-.59375-.59375-54.308594-53.746093-121.933594-91.601562-149.03125-59.171874l-78.910156 94.355468c-16.242188 19.410156-19.585938 45.558594-3.796876 61.386719zm0 0" fill="#fbc2c7"/><path d="m211.070312 378.9375c-21.625 21.683594-56.714843 21.683594-78.34375 0-9.863281-9.890625-15.21875-22.566406-16.097656-35.5-1.050781-15.460938 4.308594-31.261719 16.097656-43.082031 7.851563-7.84375 17.433594-12.875 27.550782-15.035157 4.480468-.964843 9.070312-1.363281 13.664062-1.195312 1.160156.058594 2.324219.113281 3.484375.226562 12.273438 1.25 24.234375 6.566407 33.644531 16.003907 9.496094 9.519531 14.792969 21.597656 15.984376 33.988281.539062 5.683594.199218 11.425781-.992188 17.027344-2.179688 10.113281-7.167969 19.722656-14.992188 27.566406zm0 0" fill="#ffc15a"/></g><path d="m503.191406 77.859375c9.714844-19.269531 6.566406-43.441406-9.46875-59.519531-9.652344-9.679688-22.53125-15.007813-36.261718-15.007813-8.183594 0-16.058594 1.90625-23.136719 5.488281-14.648438-9.210937-31.796875-11.34375-47.929688-5.757812-5.570312 1.925781-10.679687 4.667969-15.175781 8.003906-27.21875-6.023437-54.703125-3.519531-79.804688 7.339844-.007812.003906-.011718.007812-.019531.011719-20.527343 8.875-39.40625 23.222656-56.117187 42.636719l-97.765625 113.613281c-3.265625-.320313-6.429688-.425781-9.476563-.28125-13.457031.632812-24.773437 6.003906-32.726562 15.523437l-78.90625 94.351563c-20.59375 24.613281-21.941406 56.109375-3.210938 74.890625l31.375 31.488281c3.910156 3.921875 10.25 3.933594 14.171875.027344 3.917969-3.90625 3.929688-10.25.023438-14.167969l-31.378907-31.492188c-12.734374-12.773437-7.433593-33.757812 4.390626-47.886718l78.910156-94.359375c4.386718-5.25 10.375-7.988281 18.300781-8.359375 22.214844-1.085938 56.589844 16.539062 91.902344 46.207031.242187.230469.496093.445313.757812.644531 7.757813 6.554688 15.558594 13.679688 23.28125 21.320313l3.761719 3.773437c37.394531 37.972656 62.539062 77.78125 67.269531 105.472656.011719.113282.03125.226563.050781.339844.617188 3.738282.871094 7.257813.71875 10.515625-.375 7.964844-3.101562 13.976563-8.339843 18.378907l-94.128907 79.152343c-14.070312 11.839844-34.964843 17.148438-47.679687 4.402344l-44.441406-44.589844c-3.90625-3.917969-10.25-3.929687-14.167969-.023437-3.921875 3.90625-3.929688 10.25-.023438 14.167968l44.445313 44.59375c8.835937 8.859376 20.480469 13.246094 32.90625 13.246094 13.945313 0 28.863281-5.53125 41.855469-16.460937l94.128906-79.152344c9.484375-7.96875 14.828125-19.304687 15.460938-32.773437.136718-2.9375.039062-5.988282-.25-9.132813l111.484374-100.472656c16.609376-14.941407 29.367188-31.773438 37.917969-50.035157v-.003906c11.351563-24.234375 15.125-51.085937 11.003907-77.996094 5.179687-5.496093 9.351562-12.292968 12.007812-19.957031 5.621094-16.207031 3.503906-33.4375-5.714844-48.160156zm-31.390625 127.738281c-7.738281-4.007812-15.554687-7.578125-23.429687-10.699218 1.640625-4.539063 2.722656-9.257813 3.15625-14.007813.527344-3.367187 8.074218-17.894531 23.585937-21.75 1.023438-.253906 2.03125-.554687 3.03125-.886719 1.214844 16.234375-.941406 32.269532-6.34375 47.34375zm18.175781-86.144531c-3.488281 10.058594-11.390624 18.1875-19.683593 20.238281-25.054688 6.226563-37.757813 29.015625-38.710938 39.273438-.289062 3.175781-1.019531 6.316406-2.121093 9.324218-8.773438-2.652343-17.609376-4.738281-26.488282-6.292968l86.609375-86.867188c3.949219 10.167969 2.183594 19.164063.394531 24.324219zm-54.585937-86.964844c5.867187-5.878906 13.703125-9.117187 22.070313-9.117187 8.367187 0 16.207031 3.238281 22.074218 9.117187 12.191406 12.226563 12.191406 32.117188-.003906 44.34375l-101.9375 102.238281c-21.644531-1.210937-43.523438.792969-65.382812 6.027344 9.289062-16.847656 15.941406-33.242187 19.917968-49.09375zm-42.445313-10.492187c5.128907-1.773438 14.070313-3.519532 24.171876.441406l-80.566407 80.761719c0-.054688.003907-.105469.003907-.15625.082031-7.78125-.554688-15.320313-1.890626-22.617188 10.691407-1.734375 32.039063-14.4375 38.03125-38.664062 2.046876-8.339844 10.1875-16.28125 20.25-19.765625zm-36.738281 6.800781c-1.277343 2.628906-2.28125 5.359375-2.96875 8.167969-3.847656 15.558594-18.324219 23.140625-21.582031 23.664062-.828125.074219-1.648438.183594-2.46875.296875-3.9375-10.214843-9.449219-19.855469-16.507812-28.875 14.046874-4.007812 28.75-5.101562 43.527343-3.253906zm-163.945312 166.601563c-11.625-6.925782-22.53125-12.132813-32.6875-15.652344l90.890625-105.621094c12.957031-15.058594 27.257812-26.589844 42.589844-34.363281 9.210937 10.492187 15.726562 21.96875 19.554687 34.339843.082031.566407.203125 1.136719.390625 1.703126.113281.351562.253906.691406.40625 1.019531 4.242188 15.445312 4.375 32.234375.40625 50.1875-.449219 1.058593-.703125 2.175781-.773438 3.304687-4.90625 19.859375-14.746093 41.105469-29.519531 63.496094-18.363281 6.785156-36.820312 15.898438-54.996093 27.148438-12.203126-9.875-24.421876-18.507813-36.261719-25.5625zm242.308593 63.722656-103.148437 92.957031c-3.507813-10.191406-8.707031-21.148437-15.621094-32.820313-12.960937-21.875-31.230469-45.035156-52.875-67.011718l-3.851562-3.863282c-4.792969-4.742187-9.640625-9.3125-14.523438-13.710937 16.226563-9.605469 32.601563-17.363281 48.832031-23.125 29.003907-10.269531 57.78125-14.378906 86.148438-12.347656.640625.125 1.289062.191406 1.941406.191406.066406 0 .132813-.007813.203125-.011719 16.511719 1.363282 32.882813 4.808594 49.074219 10.335938.449219.1875.90625.339844 1.367188.460937 10.519531 3.667969 20.960937 8.210938 31.320312 13.636719-7.179688 12.660156-16.859375 24.503906-28.867188 35.308594zm0 0"/><path d="m384.554688 250.023438-.195313-.171876c-4.195313-3.617187-10.519531-3.144531-14.132813 1.046876-3.613281 4.191406-3.144531 10.515624 1.046876 14.128906l.199218.171875c1.890625 1.632812 4.21875 2.429687 6.535156 2.429687 2.816407 0 5.613282-1.179687 7.59375-3.476562 3.613282-4.191406 3.144532-10.519532-1.046874-14.128906zm0 0"/><path d="m331.917969 249.011719c-3.898438-3.921875-10.246094-3.941407-14.167969-.042969-3.925781 3.902344-3.941406 10.246094-.042969 14.167969l.171875.171875c1.957032 1.96875 4.53125 2.957031 7.105469 2.957031 2.550781 0 5.109375-.972656 7.0625-2.914063 3.925781-3.902343 3.941406-10.246093.042969-14.167968zm0 0"/><path d="m248.523438 119.558594c1.957031 1.96875 4.53125 2.957031 7.101562 2.957031 2.558594 0 5.109375-.972656 7.066406-2.914063 3.921875-3.902343 3.941406-10.246093.039063-14.167968l-.167969-.171875c-3.902344-3.925781-10.246094-3.941407-14.171875-.042969-3.921875 3.902344-3.941406 10.246094-.039063 14.167969zm0 0"/><path d="m264.441406 158.96875c-3.589844-4.210938-9.914062-4.710938-14.125-1.121094-4.210937 3.589844-4.714844 9.914063-1.121094 14.125l.167969.199219c1.984375 2.324219 4.796875 3.515625 7.628907 3.515625 2.296874 0 4.609374-.789062 6.496093-2.394531 4.210938-3.589844 4.710938-9.914063 1.121094-14.125zm0 0"/><path d="m171.898438 405.21875c17.484374 0 33.914062-6.824219 46.265624-19.207031 25.496094-25.566407 25.496094-67.167969 0-92.734375-12.351562-12.382813-28.78125-19.207032-46.265624-19.207032-17.480469 0-33.910157 6.824219-46.269532 19.210938-25.460937 25.566406-25.460937 67.160156.003906 92.730469 12.355469 12.386719 28.785157 19.207031 46.265626 19.207031zm-32.078126-97.789062c8.566407-8.589844 19.960938-13.320313 32.078126-13.320313 12.121093 0 23.511718 4.730469 32.078124 13.320313 17.714844 17.765624 17.714844 46.667968 0 64.433593-8.566406 8.589844-19.957031 13.320313-32.078124 13.320313-12.117188 0-23.511719-4.730469-32.074219-13.316406-17.691407-17.769532-17.691407-46.675782-.003907-64.4375zm0 0"/><path d="m92.167969 409.878906c-3.914063-3.914062-10.257813-3.914062-14.171875 0-3.910156 3.914063-3.910156 10.257813 0 14.167969l.144531.140625c1.953125 1.957031 4.519531 2.9375 7.082031 2.9375 2.566406 0 5.128906-.980469 7.085938-2.9375 3.914062-3.910156 3.914062-10.253906 0-14.167969zm0 0"/></svg>