<svg height="512pt" viewBox="-15 0 512 512" width="512pt" xmlns="http://www.w3.org/2000/svg"><g fill-rule="evenodd"><path d="m10.207031 185.519531h461.613281v-37.25c0-13.054687-10.6875-23.734375-23.75-23.734375h-414.117187c-13.058594 0-23.746094 10.679688-23.746094 23.734375zm0 0" fill="#c68a65"/><path d="m418.269531 501.792969c29.453125 0 53.546875-24.082031 53.546875-53.546875v-41.792969h-461.609375v41.792969c0 29.464844 24.09375 53.546875 53.546875 53.546875zm0 0" fill="#c68a65"/><path d="m10.207031 185.519531h461.613281v220.933594h-461.613281zm0 0" fill="#cbe558"/><path d="m40.46875 124.535156h407.601562v-48.742187h-407.601562zm0 0" fill="#ffd89e"/><path d="m46.40625 75.792969h392.597656c18.042969 0 32.8125-14.761719 32.8125-32.792969s-14.769531-32.792969-32.8125-32.792969h-392.597656c-18.042969 0-32.785156 14.761719-32.785156 32.792969s14.742187 32.792969 32.785156 32.792969zm0 0" fill="#ffc15a"/><path d="m181.191406 242.339844c-15.636718 16.234375-12.480468 44.628906 7.039063 63.414062 6.457031 6.195313 13.871093 10.566406 21.460937 13.085938 2.808594 7.496094 7.472656 14.730468 13.902344 20.925781 19.546875 18.8125 48.046875 20.867187 63.683594 4.628906 15.640625-16.238281 12.484375-44.628906-7.066406-63.414062-6.429688-6.195313-13.84375-10.566407-21.460938-13.054688-2.808594-7.527343-7.441406-14.761719-13.898438-20.957031-19.523437-18.785156-48.046874-20.867188-63.660156-4.628906zm0 0" fill="#ffc15a"/></g><path d="m458.277344 115.898438v-34.472657c14.066406-7.078125 23.746094-21.636719 23.746094-38.425781 0-23.710938-19.296876-43-43.019532-43h-392.597656c-23.703125 0-42.988281 19.289062-42.988281 43 0 18 11.121093 33.445312 26.847656 39.84375v31.691406c-16.992187 1.84375-30.265625 16.265625-30.265625 33.734375v299.976563c0 35.152344 28.601562 63.753906 63.753906 63.753906h354.515625c35.15625 0 63.753907-28.601562 63.753907-63.753906v-299.976563c0-15.160156-9.996094-28.03125-23.746094-32.371093zm-434.449219-72.898438c0-12.453125 10.128906-22.585938 22.578125-22.585938h392.597656c12.46875 0 22.609375 10.132813 22.609375 22.585938s-10.140625 22.585938-22.609375 22.585938h-392.597656c-12.449219.003906-22.578125-10.132813-22.578125-22.585938zm414.035156 43v28.328125h-387.1875v-28.328125zm-403.910156 48.742188h414.117187c7.464844 0 13.539063 6.066406 13.539063 13.527343v27.046875h-441.199219v-27.046875c0-7.457031 6.078125-13.527343 13.542969-13.527343zm384.316406 356.84375h-354.515625c-23.898437 0-43.34375-19.441407-43.34375-43.339844v-31.589844h177.261719c5.636719 0 10.207031-4.566406 10.207031-10.207031 0-5.636719-4.570312-10.203125-10.207031-10.203125h-177.261719v-200.519532h441.203125v200.519532h-179.984375c-5.636718 0-10.203125 4.566406-10.203125 10.203125 0 5.640625 4.566407 10.207031 10.203125 10.207031h179.984375v31.589844c0 23.898437-19.445312 43.339844-43.34375 43.339844zm0 0"/><path d="m241.027344 396.246094h-.203125c-5.636719 0-10.207031 4.570312-10.207031 10.207031s4.570312 10.203125 10.207031 10.203125h.203125c5.636718 0 10.207031-4.566406 10.207031-10.203125s-4.570313-10.207031-10.207031-10.207031zm0 0"/><path d="m307.414062 317.550781c-.308593-15.921875-7.648437-31.933593-20.125-43.921875-6.109374-5.886718-13.238281-10.574218-20.835937-13.726562-3.472656-7.5-8.4375-14.445313-14.539063-20.296875-11.15625-10.730469-25.222656-17.214844-39.617187-18.261719-15.125-1.109375-28.773437 3.84375-38.457031 13.914062-9.703125 10.078126-14.128906 23.914063-12.457032 38.960938 1.59375 14.339844 8.613282 28.152344 19.78125 38.902344 6.113282 5.863281 13.238282 10.546875 20.820313 13.722656 3.460937 7.457031 8.425781 14.390625 14.53125 20.273438 12.640625 12.167968 28.589844 18.367187 43.675781 18.367187 13.019532-.003906 25.394532-4.621094 34.4375-14.007813 8.496094-8.824218 13.035156-20.871093 12.785156-33.925781zm-27.488281 19.765625c-11.710937 12.160156-33.808593 9.960938-49.253906-4.902344-5.113281-4.925781-9.066406-10.859374-11.425781-17.15625-1.082032-2.890624-3.410156-5.132812-6.339844-6.105468-6.390625-2.121094-12.480469-5.84375-17.597656-10.75-7.730469-7.4375-12.570313-16.824219-13.636719-26.4375-.988281-8.910156 1.449219-16.917969 6.878906-22.554688 4.882813-5.078125 11.804688-7.804687 19.691407-7.804687.847656 0 1.703124.03125 2.570312.09375 9.65625.703125 19.230469 5.1875 26.960938 12.625.003906.003906.007812.007812.011718.011719 5.09375 4.886718 9.035156 10.820312 11.402344 17.15625 1.085938 2.910156 3.441406 5.167968 6.390625 6.132812 6.375 2.085938 12.445313 5.785156 17.5625 10.714844 8.605469 8.269531 13.660156 19.0625 13.863281 29.605468.105469 5.375-1.039062 13.101563-7.078125 19.371094zm0 0"/></svg>