<svg height="512pt" viewBox="-57 0 512 512.00087" width="512pt" xmlns="http://www.w3.org/2000/svg"><g fill-rule="evenodd"><path d="m47.882812 333.761719 59.378907-92.867188c-3.460938.679688-6.894531 1.417969-10.269531 2.183594-17.761719 3.996094-34.328126 9.214844-49.109376 15.589844zm0 0" fill="#c68a65"/><path d="m349.117188 284.832031v-26.164062c-17.390626-7.511719-37.5625-13.40625-59.292969-17.632813l59.292969 92.726563zm0 0" fill="#c68a65"/><path d="m349.117188 356.609375c43.292968 0 57.253906-71.777344 0-71.777344zm0 0" fill="#ffcbbe"/><path d="m47.882812 333.761719v-48.929688c-57.25 0-43.292968 71.777344 0 71.777344zm0 0" fill="#ffcbbe"/><path d="m47.882812 365.507812c0 74.753907 74.925782 136.011719 150.617188 136.492188 30.441406.199219 60.941406-9.835938 86.445312-26.84375 37.476563-25.003906 64.175782-65 64.175782-109.648438v-31.75l-59.296875-92.722656c-28.878907-5.613281-60.539063-8.332031-92.089844-8.105468-31.292969-.199219-62.1875 2.4375-90.472656 7.964843l-59.378907 92.867188zm0 0" fill="#ffddcf"/><path d="m107.261719 240.894531c28.285156-5.527343 59.179687-8.164062 90.472656-7.964843 31.546875-.226563 63.210937 2.496093 92.089844 8.105468 21.730469 4.226563 41.902343 10.121094 59.292969 17.632813v-114.097657c55.210937-34.296874 21.5625-99.042968-37.390626-99.042968h-43.859374c-24.570313-48.390625-112.546876-46.347656-140.265626 0h-40.796874c-58.953126 0-94.105469 64.746094-38.921876 99.042968v114.097657c14.78125-6.378907 31.347657-11.59375 49.109376-15.589844 3.375-.765625 6.808593-1.503906 10.269531-2.183594zm0 0" fill="#ffd89e"/></g><path d="m397 317.042969c0-11.519531-4.25-22-11.96875-29.507813-4.8125-4.683594-12.976562-10.09375-25.914062-11.992187v-125.617188c23.15625-16.460937 32.8125-40.203125 25.898437-64.4375-8.394531-29.414062-38.53125-49.957031-73.289063-49.957031h-38.066406c-13.535156-21.273438-39.171875-34.398438-69.933594-35.4648438-33.761718-1.1484372-64.996093 12.6093748-81.496093 35.4648438h-35.421875c-17.621094 0-34.167969 5.082031-47.855469 14.703125-13.101563 9.207031-22.519531 21.992187-26.519531 36-6.84375 23.972656 2.648437 47.433594 25.453125 63.683594v125.625c-12.941407 1.898437-21.101563 7.304687-25.917969 11.992187-7.71875 7.507813-11.96875 17.988282-11.96875 29.507813 0 21.019531 14.242188 43.496093 37.886719 48.519531.015625 38.339844 17.886719 75.117188 50.328125 103.5625 30.792968 26.996094 70.96875 42.621094 110.21875 42.871094.3125.003906.625.003906.9375.003906 31.183594 0 63.507812-10.113281 91.121094-28.527344 42.953124-28.65625 68.601562-72.730468 68.621093-117.910156 23.644531-5.023438 37.886719-27.5 37.886719-48.519531zm-57.878906-32.210938v14.738281l-27.679688-43.292968c9.859375 2.664062 19.121094 5.699218 27.679688 9.085937zm-281.242188 0v-19.472656c8.621094-3.417969 17.894532-6.476563 27.726563-9.152344l-27.726563 43.363281zm-30.09375 52.558594c-4.878906-5.5625-7.789062-13.171875-7.789062-20.347656 0-11.199219 6.394531-18.609375 17.890625-21.195313v48.855469c-4.523438-1.84375-7.839844-4.730469-10.101563-7.3125zm311.335938 28.121094c0 38.5-22.324219 76.378906-59.722656 101.328125-24.363282 16.246094-52.746094 25.167968-80.023438 25.167968-.269531 0-.542969 0-.8125-.003906-73.628906-.46875-140.6875-60.761718-140.6875-126.492187v-28.828125l55.472656-86.753906c14.378906-2.648438 29.53125-4.570313 45.230469-5.726563 5.507813-.402344 9.640625-5.195313 9.234375-10.703125s-5.222656-9.632812-10.703125-9.234375c-17.742187 1.308594-34.832031 3.570313-50.996094 6.703125-.472656.054688-.9375.152344-1.394531.273438-3.34375.660156-6.664062 1.347656-9.925781 2.085937-13.097657 2.949219-25.457031 6.515625-36.917969 10.652344v-99.40625c0-3.457031-1.785156-6.667969-4.71875-8.492188-18.441406-11.460937-26.277344-27.628906-21.5-44.359375 5.136719-17.988281 25.726562-36.199218 55.148438-36.199218h40.792968c3.519532 0 6.777344-1.847657 8.582032-4.863282 11.71875-19.59375 37.945312-31.628906 66.851562-30.609375 25.929688.894531 46.832031 12.113281 55.917969 30.003907 1.703125 3.355468 5.148437 5.46875 8.914062 5.46875h43.859375c30.195313 0 49.191406 18.378906 54.0625 35.457031 4.847656 16.988281-3.152344 33.425781-21.945312 45.101562-2.9375 1.824219-4.722656 5.035157-4.722656 8.492188v99.417969c-13.964844-5.015626-29.417969-9.203126-46.007813-12.496094-.996094-.355469-2.039063-.558594-3.097656-.589844-15.375-2.925781-31.691407-5.097656-48.714844-6.4375-5.5-.421875-10.320313 3.675781-10.75 9.179688-.433594 5.503906 3.675781 10.320312 9.179687 10.753906 15.367188 1.210937 30.101563 3.109375 43.996094 5.648437l55.394532 86.632813v28.828125zm30.09375-28.121094c-2.261719 2.582031-5.578125 5.46875-10.101563 7.3125v-48.851563c11.496094 2.582032 17.894531 9.992188 17.894531 21.191407 0 7.175781-2.914062 14.785156-7.792968 20.347656zm0 0"/><path d="m198.5 174.070312c5.519531 0 9.996094-4.476562 9.996094-9.996093v-51.023438c0-5.523437-4.476563-9.996093-9.996094-9.996093s-9.996094 4.476562-9.996094 9.996093v51.023438c0 5.519531 4.476563 9.996093 9.996094 9.996093zm0 0"/><path d="m122.949219 126.101562c-5.519531 0-9.996094 4.472657-9.996094 9.996094v50.996094c0 5.519531 4.476563 9.992188 9.996094 9.992188s9.996093-4.472657 9.996093-9.992188v-50.996094c0-5.523437-4.472656-9.996094-9.996093-9.996094zm0 0"/><path d="m274.078125 197.085938c5.523437 0 9.996094-4.472657 9.996094-9.992188v-50.996094c0-5.523437-4.476563-9.996094-9.996094-9.996094s-9.996094 4.472657-9.996094 9.996094v50.996094c0 5.519531 4.476563 9.992188 9.996094 9.992188zm0 0"/><path d="m149.644531 318.039062h-.226562c-5.519531 0-9.996094 4.476563-9.996094 9.996094 0 5.519532 4.476563 9.996094 9.996094 9.996094h.226562c5.523438 0 9.996094-4.476562 9.996094-9.996094 0-5.519531-4.472656-9.996094-9.996094-9.996094zm0 0"/><path d="m246.019531 318.039062h-.226562c-5.519531 0-9.996094 4.476563-9.996094 9.996094 0 5.519532 4.476563 9.996094 9.996094 9.996094h.226562c5.523438 0 9.996094-4.476562 9.996094-9.996094 0-5.519531-4.472656-9.996094-9.996094-9.996094zm0 0"/><path d="m230.578125 392.007812c-4.871094-2.597656-10.925781-.75-13.523437 4.121094-4.507813 8.460938-11.496094 13.308594-19.1875 13.308594-.019532 0-.042969 0-.066407 0-7.757812-.03125-14.792969-4.980469-19.296875-13.585938-2.558594-4.890624-8.597656-6.777343-13.492187-4.21875-4.890625 2.5625-6.78125 8.601563-4.21875 13.492188 7.9375 15.164062 21.746093 24.246094 36.9375 24.304688h.140625c15.089844 0 28.851562-8.925782 36.832031-23.898438 2.59375-4.871094.75-10.925781-4.125-13.523438zm0 0"/><path d="m197.734375 242.925781h.199219c5.519531 0 9.996094-4.476562 9.996094-9.996093 0-5.519532-4.476563-9.996094-9.996094-9.996094h-.199219c-5.519531 0-9.996094 4.476562-9.996094 9.996094 0 5.519531 4.476563 9.996093 9.996094 9.996093zm0 0"/></svg>