<svg height="512pt" viewBox="0 -29 512.00232 512" width="512pt" xmlns="http://www.w3.org/2000/svg"><g fill-rule="evenodd"><path d="m362.554688 47.082031c-87.734376-59.117187-206.734376-44.84375-281.632813 22.800781l.367187 42.476563c-.226562 16.160156 8.328126 22.972656 17.335938 23.789063 9.992188.871093 29.046875-2.730469 27.246094-26.09375-.140625-4.957032.027344-11.035157-.082032-15.992188-.421874-27.78125 36.222657-29.667969 36.871094-2.8125v12.976562c0 7.515626 7.851563 13.539063 17.394532 13.398438 9.570312-.140625 17.054687-6.390625 17.054687-13.90625v-24.207031c0-18.777344 36.535156-19.679688 36.535156.109375v18.496094c0 7.515624 7.488281 13.765624 17.058594 13.90625 9.539063.140624 17.675781-5.882813 17.675781-13.398438l.027344-6.585938c.617188-26.855468 44.441406-21.59375 44.441406 1.265626-.113281 4.984374.140625 16.722656 0 21.675781-4.980468 39.890625 50.101563 39.609375 49.960938 6.222656zm0 0" fill="#c68a65"/><path d="m394.921875 188.449219c23.417969-2.167969 71.855469-.84375 42.21875-56.832031-19.503906-36.847657-45.316406-64.773438-74.585937-84.535157l.25 74.117188c.140624 33.386719-54.941407 33.667969-49.957032-6.21875.140625-4.957031-.113281-16.695313 0-21.675781 0-22.859376-43.824218-28.125-44.445312-1.269532l-.027344 6.585938c0 7.519531-8.132812 13.542968-17.675781 13.402344-9.570313-.140626-17.058594-6.390626-17.058594-13.90625v-18.496094c0-19.789063-36.53125-18.890625-36.53125-.113282v24.210938c0 7.515625-7.488281 13.761719-17.058594 13.902344-9.542969.144531-17.394531-5.882813-17.394531-13.398438v-12.976562c-.644531-26.855469-37.292969-24.96875-36.871094 2.816406.113282 4.953125-.054687 11.035156.082032 15.988281 1.804687 23.363281-17.253907 26.96875-27.246094 26.09375-9.003906-.816406-17.5625-7.628906-17.335938-23.785156l-.367187-42.476563c-64.960938 58.691407-96.707031 157.582032-46.019531 283.554688 29.640624 55.988281 55.789062 15.199219 70.734374-2.957031 76.136719-92.5 169.976563-151.078125 289.289063-162.03125zm0 0" fill="#ffc15a"/><path d="m104.847656 420.4375c112.863282-40.257812 223.453125-42.3125 331.449219 9.597656 17.476563 8.390625 48.355469 27.558594 60.511719-1.464844 2.5625-6.164062 4.308594-14.523437 4.898437-25.617187 1.183594-22.773437-.589843-44.222656-4.898437-64.210937-14.804688-68.429688-59.21875-119.832032-114.976563-148.882813-121.085937-63.140625-295.589843-21.085937-336.179687 180.074219-1.097656 5.460937-2.082032 11.035156-2.980469 16.722656-3.351563 63.253906 40.050781 41.660156 62.175781 33.78125zm0 0" fill="#ffcb7c"/><path d="m235.386719 233.941406c0-13.765625 19.703125-17.933594 30.175781-11.34375 3.796875 2.390625 6.386719 6.191406 6.386719 11.457032v18.496093c0 7.515625 7.488281 13.761719 17.03125 13.902344 9.539062.144531 17.675781-5.882813 17.703125-13.398437v-6.585938c.644531-26.855469 44.46875-21.589844 44.46875 1.265625-.140625 4.984375.113281 16.722656 0 21.675781-5.007813 39.890625 50.074218 39.609375 49.960937 6.222656l-.28125-74.710937c-6.164062-3.996094-12.496093-7.683594-18.996093-11.0625-82.5-43.011719-189.765626-37.214844-262.605469 34.457031l.335937 42.476563c-.222656 16.160156 8.332032 22.972656 17.339844 23.789062 9.992188.871094 29.046875-2.730469 27.246094-26.097656-.113282-4.953125.027344-11.035156-.085938-15.988281-.421875-27.78125 36.226563-29.667969 36.875-2.8125v12.976562c0 .503906.027344.984375.113282 1.433594.925781 6.839844 8.386718 12.105469 17.308593 11.964844 9.542969-.140625 17.027344-6.390625 17.027344-13.90625v-24.210938zm0 0" fill="#ff6977"/></g><path d="m450.335938 229.328125c-11.347657-12.097656-23.9375-22.933594-37.636719-32.429687 15.261719-1.695313 31.984375-5.683594 39.820312-19.871094 6.832031-12.367188 4.671875-28.742188-6.609375-50.050782-31.558594-59.640624-80.664062-100.421874-142.007812-117.9375-27.832032-7.945312-56.9375-10.671874-86.507813-8.101562-29.011719 2.523438-57.089843 10.007812-83.457031 22.25-21.953125 10.191406-41.820312 23.332031-59.121094 38.886719-.363281.285156-.707031.585937-1.027344.914062-25.527343 23.226563-45.375 51.765625-57.9375 83.933594-24.078124 61.671875-20.671874 134.363281 9.847657 210.222656.128906.320313.277343.636719.441406.945313 2.902344 5.476562 5.902344 10.304687 8.941406 14.414062-.792969 4.15625-1.539062 8.351563-2.210937 12.601563-.054688.339843-.089844.683593-.105469 1.023437-1.277344 24.078125 3.644531 39.835938 15.046875 48.183594 16.382812 11.992188 39.613281 3.25 54.988281-2.539062 1.894531-.714844 3.699219-1.394532 5.378907-1.992188 41.632812-14.847656 82.464843-24.136719 121.367187-27.613281 5.457031-.488281 9.484375-5.308594 8.996094-10.765625-.484375-5.457032-5.308594-9.484375-10.765625-9-40.566406 3.625-83.050782 13.273437-126.261719 28.6875-1.777344.632812-3.691406 1.351562-5.707031 2.109375-11.371094 4.28125-28.554688 10.75-36.277344 5.097656-5.28125-3.867187-7.753906-14.730469-6.976562-30.609375.84375-5.296875 1.777343-10.472656 2.789062-15.542969.050781-.214843.09375-.429687.128906-.648437 10.492188-52.03125 29.71875-92.09375 54.035156-122.15625l.136719 17.425781c-.273437 23.078125 14.023438 32.574219 26.398438 33.699219 4.242187.371094 18.867187.785156 29.152343-9.398438 4.613282-4.566406 9.878907-12.960937 8.871094-27.058594-.046875-2.296874-.042968-4.9375-.035156-7.496093.007812-2.773438.015625-5.644531-.042969-8.167969-.132812-8.621094 4.835938-11.777344 9.128907-11.863281 2.300781-.070313 7.648437.777343 7.902343 9.328125v12.847656c0 5.699219 2.363281 11.171875 6.660157 15.40625 5.222656 5.144531 12.792968 8.011719 20.828124 7.914062 15.03125-.222656 26.804688-10.691406 26.804688-23.828124v-24.210938c0-3.058594 5.15625-4.484375 8.640625-4.484375.328125 0 8.078125.054687 8.078125 4.597656v18.496094c0 13.140625 11.773438 23.605469 26.804688 23.828125 8.089843.117188 15.773437-2.804688 21.082031-8.015625 4.292969-4.214844 6.667969-9.636719 6.6875-15.304687v-6.453126c.222656-6.960937 5.902343-8.390624 10.632812-8.300781 5.613281.066407 13.902344 3.078125 13.996094 9.324219-.074219 2.792969-.039063 7.257812-.003906 11.574219.027343 3.566406.054687 7.242187.015625 9.519531-1.707032 14.867188 3.40625 27.601562 14.082031 34.992188 5.953125 4.125 13.265625 6.222656 20.625 6.222656 5.988281 0 12.011719-1.386719 17.359375-4.199219 11.308594-5.949219 17.773438-16.9375 17.726562-30.144531l-.210937-55.757813c50.667969 38.972657 85.273437 101.085938 80.976563 182.59375-.855469 16.164063-4.480469 26.898438-10.203126 30.226563-8.28125 4.808594-24.683593-3.417969-35.542968-8.863282-1.925782-.96875-3.757813-1.886718-5.457032-2.699218-39.792968-19.140625-81.351562-31.621094-123.515624-37.097656-5.4375-.699219-10.410157 3.125-11.117188 8.5625-.707031 5.433593 3.125 10.410156 8.558594 11.117187 40.066406 5.203125 79.589844 17.082031 117.484375 35.308594 1.609375.769531 3.332031 1.636719 5.148437 2.546875 10.996094 5.515625 24.863282 12.472656 38.246094 12.46875 5.550781 0 11.019531-1.195313 16.164062-4.183594 12.214844-7.101562 18.773438-22.257812 20.050782-46.339844 3.546875-67.382812-17.644532-127.601562-61.285156-174.144531zm-308.042969-188.140625c64.613281-30 145.464843-30.59375 210.355469 10.90625l.238281 69.148438c.027343 7.21875-3.84375 10.777343-7.101563 12.496093-5.460937 2.875-12.636718 2.5625-17.445312-.765625-5.890625-4.074218-6.320313-11.363281-5.648438-16.761718.039063-.316407.066406-.632813.074219-.949219.078125-2.757813.042969-7.3125.011719-11.710938-.03125-3.828125-.058594-7.785156-.011719-10.023437.003906-.074219.003906-.148438.003906-.222656 0-18.082032-17.09375-29.085938-33.617187-29.277344-17.664063-.175782-30.285156 11.21875-30.667969 27.78125 0 .0625-.003906.125-.003906.1875l-.027344 6.628906c0 .214844-.222656.652344-.726563 1.148438-1.121093 1.105468-3.601562 2.363281-6.882812 2.328124-4.375-.0625-7.28125-2.4375-7.28125-3.984374v-18.492188c0-14.164062-11.734375-24.445312-27.90625-24.445312-16.230469 0-28.46875 10.460937-28.46875 24.332031v24.210937c0 1.542969-2.90625 3.917969-7.28125 3.980469-3.148438.03125-5.464844-1.105469-6.578125-2.199219-.222656-.222656-.75-.792968-.75-1.277344v-12.976562c0-.078125 0-.160156 0-.238281-.464844-19.261719-14.496094-29.082031-28.132813-28.800781-14.085937.277343-28.890624 11.589843-28.578124 32.078124.050781 2.226563.042968 4.703126.03125 7.328126-.011719 2.929687-.023438 5.960937.054687 8.71875.003906.160156.011719.320312.023437.480468.417969 5.378906-.601562 9.320313-3.023437 11.71875-3.144531 3.113282-9.027344 4.117188-13.433594 3.730469-7.019531-.636719-8.394531-7.835937-8.3125-13.765625 0-.074219 0-.148438 0-.222656l-.324219-37.824219c15.957032-13.832031 33.492188-24.945313 51.410157-33.265625zm241.777343 246.984375c-5.46875 2.875-12.640624 2.558594-17.449218-.773437-5.875-4.070313-6.300782-11.355469-5.625-16.75.042968-.335938.070312-.675782.078125-1.011719.054687-2.523438.027343-6.4375-.003907-10.585938-.035156-4.234375-.066406-8.613281 0-11.035156.003907-.09375.003907-.1875.003907-.28125 0-18.074219-17.082031-29.078125-33.597657-29.273437-.164062-.003907-.324218-.003907-.488281-.003907-17.425781 0-29.828125 11.359375-30.222656 27.769531-.003906.082032-.003906.160157-.003906.242188v6.550781c0 .222657-.234375.675781-.746094 1.179688-1.179687 1.160156-3.628906 2.382812-6.890625 2.332031-4.359375-.0625-7.253906-2.4375-7.253906-3.984375v-18.492187c0-14.164063-11.742188-24.445313-27.921875-24.445313-16.238281 0-28.484375 10.460937-28.484375 24.332031v24.210938c0 1.542968-2.890625 3.917968-7.25 3.984375-3.164063.046875-5.496094-1.113281-6.609375-2.207031-.222657-.222657-.746094-.789063-.746094-1.273438v-12.976562c0-.078126-.003906-.160157-.003906-.238282-.457031-19.007812-14.132813-28.804687-27.585938-28.804687-.179687 0-.363281 0-.542969.003906-14.089843.277344-28.894531 11.589844-28.582031 32.078125.054688 2.351562.046875 5.09375.039063 7.746094-.003906 2.773437-.011719 5.640625.046875 8.246094.003906.179687.011719.355468.027343.535156.414063 5.378906-.605468 9.320312-3.027343 11.71875-3.144531 3.113281-9.03125 4.113281-13.429688 3.730468-7.023437-.636718-8.398437-7.835937-8.3125-13.765624 0-.074219 0-.144532 0-.21875l-.308593-38.578126c48.859374-45.878906 111.636718-59.949218 165.972656-54.238281 27.691406 2.914063 55.203125 10.960938 80.5 23.792969.960937.746094 2.058594 1.316406 3.242187 1.671875 4.074219 2.148437 8.085938 4.433594 12.035157 6.832031l.261718 69.472656c.023438 7.226563-3.859375 10.789063-7.121094 12.507813zm16.019532-110.089844c-2.152344.160157-4.195313.316407-6.046875.484375-3.332031.296875-6.757813.652344-10.382813 1.074219-1.128906-.574219-2.257812-1.148437-3.398437-1.703125-26.1875-12.738281-54.125-20.738281-83.035157-23.777344-60.257812-6.332031-118.800781 9.832032-164.851562 45.515625-6.8125 5.277344-13.3125 10.960938-19.507812 17.023438-.414063.347656-.796876.738281-1.152344 1.148437-32.34375 32.097656-56.070313 74.765625-69.984375 125.796875-43-111.957031-18.40625-195.890625 29.472656-249.78125l.160156 18.480469c-.269531 23.078125 14.023438 32.570312 26.398438 33.6875 4.234375.371094 18.867187.789062 29.148437-9.390625 4.617188-4.570313 9.890625-12.972656 8.871094-27.089844-.0625-2.390625-.050781-5.167969-.042969-7.855469.011719-2.636718.023438-5.367187-.03125-7.78125-.132812-8.617187 4.835938-11.773437 9.128907-11.859374 2.292968-.050782 7.648437.773437 7.898437 9.328124v12.84375c0 5.703126 2.367187 11.175782 6.667969 15.414063 5.21875 5.144531 12.785156 8.007813 20.792968 7.90625 15.046876-.21875 26.832032-10.6875 26.832032-23.828125v-24.207031c0-3.0625 5.148437-4.484375 8.625-4.484375.332031 0 8.066406.050781 8.066406 4.59375v18.496094c0 13.140624 11.785156 23.605468 26.832031 23.828124 8.121094.101563 15.796875-2.8125 21.101563-8.039062 4.28125-4.21875 6.640625-9.648438 6.640625-15.242188l.027343-6.480468c.203126-6.964844 5.863282-8.367188 10.597657-8.3125 5.621093.066406 13.929687 3.082031 14.003906 9.347656-.054687 2.539062-.023437 6.398438.007813 10.480469.027343 3.984375.058593 8.09375.007812 10.566406-1.710938 14.886719 3.417969 27.632813 14.109375 35.03125 5.953125 4.117187 13.257813 6.210937 20.613281 6.210937 5.996094 0 12.023438-1.394531 17.375-4.210937 11.296875-5.957031 17.746094-16.941406 17.6875-30.128906l-.183594-54.558594c21.445313 17.703125 40.523438 40.726563 55.828126 69.648437 7.574218 14.308594 9.980468 25.378907 6.78125 31.171876-4.625 8.378906-22.9375 9.746093-35.058594 10.652343zm0 0"/><path d="m271.976562 380.730469h-.167968c-5.480469 0-9.921875 4.441406-9.921875 9.921875 0 5.480468 4.441406 9.921875 9.921875 9.921875h.167968c5.480469 0 9.921876-4.441407 9.921876-9.921875 0-5.480469-4.441407-9.921875-9.921876-9.921875zm0 0"/></svg>