<svg height="511pt" viewBox="-3 0 511 511.99944" width="511pt" xmlns="http://www.w3.org/2000/svg"><g fill-rule="evenodd"><path d="m31.996094 501.765625c-24.148438 0-37.789063-53.792969 15.757812-56.523437 37.5-1.886719 87.421875-24.628907 89.105469-68.804688 17.617187 0 35.726563 44.496094 24.234375 55.9375 52.097656-8.945312 45.566406 69.390625 1.769531 69.390625zm0 0" fill="#ff6977"/><path d="m198.445312 384.105469 172.054688-66.367188c55.84375-21.550781 56.046875-84.433593 31.375-133.75-4.238281.144531-8.53125-1.308593-11.871094-4.386719l-57.292968-52.804687c-3.222657-2.933594-4.992188-6.855469-5.339844-10.921875-52.097656-21.113281-117.226563-16.730469-133.597656 39.066406l-52.328126 178.625zm0 0" fill="#ff6977"/><path d="m138.484375 392.527344c12.769531 11.734375 28.734375 3.632812 45.449219-2.816406l14.511718-5.605469-57-50.539063-3.917968 13.390625c-5.050782 17.222657-11.8125 33.808594.957031 45.570313zm0 0" fill="#fbc2c7"/><path d="m332.710938 126.796875 57.292968 52.804687c3.339844 3.078126 7.632813 4.53125 11.871094 4.386719 4.355469-.117187 8.648438-1.945312 11.8125-5.375 6.242188-6.765625 5.804688-17.425781-.988281-23.667969l-2.144531-2.007812-55.148438-50.796875c-.433594-.40625-.898438-.753906-1.332031-1.105469-6.792969-5.050781-16.515625-4.269531-22.347657 2.09375-3.308593 3.570313-4.734374 8.246094-4.355468 12.75.347656 4.066406 2.117187 7.984375 5.339844 10.917969zm0 0" fill="#ffc15a"/><path d="m355.40625 102.140625 55.148438 50.796875 66.753906-7.898438c17.007812-2.003906 26.324218-27.332031 7.71875-37.378906l-60.628906-32.765625-31.257813-51.875c-12.570313-20.851562-35.238281-15.101562-36.253906 9.644531l-2.8125 68.371094c.433593.347656.898437.699219 1.332031 1.105469zm0 0" fill="#fbc2c7"/></g><path d="m489.894531 98.65625-58.171875-31.4375-29.816406-49.480469c-8.230469-13.652343-21.140625-20.140625-33.691406-16.929687-12.632813 3.234375-20.890625 15.28125-21.554688 31.433594l-2.273437 55.253906c-.484375-.003906-.964844 0-1.453125.019531-7.21875.300781-13.878906 3.386719-18.734375 8.671875-1.703125 1.851562-3.113281 3.894531-4.222657 6.082031-34.78125-11.480469-69.808593-11.132812-95.542968 1.304688-20.011719 9.671875-34.011719 26.4375-40.480469 48.492187l-56.25 192.011719c-.472656 1.609375-.960937 3.214844-1.445313 4.8125-3.847656 12.671875-8.429687 27.777344-2.296874 40.949219-9.835938 27.351562-46.09375 43.632812-76.726563 45.179687-35.214844 1.796875-47.1757812 23.261719-46.722656 41.09375.503906 19.789063 14.628906 35.886719 31.484375 35.886719h130.867187c17.042969 0 31.445313-9.179688 39.511719-25.183594 8.542969-16.941406 7.644531-37.300781-2.238281-50.652344-3.835938-5.183593-11.59375-12.664062-25.160157-14.382812.113282-5.390625-.859374-11.152344-2.480468-16.746094 3.613281-1.226562 7.121094-2.621094 10.457031-3.941406 1.546875-.617188 3.101563-1.230469 4.664063-1.835938l89.132812-34.386718c5.273438-2.035156 7.898438-7.960938 5.863281-13.234375-2.035156-5.273438-7.960937-7.898438-13.230469-5.863281l-68.742187 26.519531-47.546875-42.082031 50.5-172.386719c4.863281-16.582031 14.871094-28.632813 29.746094-35.820313 21.886718-10.578125 54.160156-9.9375 85.269531 1.472656 1.445313 4.109376 3.878906 7.824219 7.164063 10.847657l57.300781 52.808593c3.445312 3.171876 7.566406 5.34375 12.007812 6.390626 13.09375 28.6875 15.898438 58.378906 7.40625 80.316406-6.214843 16.054687-18.214843 27.609375-35.675781 34.347656l-19.792969 7.640625c-5.277343 2.035156-7.902343 7.960937-5.863281 13.230469 1.566406 4.0625 5.441406 6.554687 9.550781 6.554687 1.222657 0 2.46875-.222656 3.679688-.691406l19.796875-7.636719c22.742187-8.777344 39.128906-24.703125 47.394531-46.054687 9.933594-25.65625 7.71875-59.070313-5.695313-91.210938 1.941407-1.238281 3.734376-2.734375 5.328126-4.46875 4.871093-5.285156 7.390624-12.171875 7.09375-19.390625-.070313-1.683594-.296876-3.332031-.660157-4.941406l50.859375-6.015625c12.984375-1.53125 23.855469-12.019531 26.4375-25.507813 2.453125-12.808593-3.3125-24.703124-15.046875-31.039062zm-306.210937 349.683594c5.226562 7.0625 5.402344 19.371094.414062 29.261718-2.621094 5.203126-8.867187 13.929688-21.234375 13.929688h-130.867187c-5.457032 0-10.8125-7.746094-11.019532-15.941406-.304687-11.886719 9.648438-19.226563 27.296876-20.125 35.140624-1.777344 74.742187-19.308594 91.09375-49.976563 4.1875 2.074219 8.496093 3.023438 12.832031 3.191407 2.921875 8.863281 2.515625 15.066406 1.613281 16.503906-3.109375 3.144531-3.847656 7.9375-1.820312 11.878906 2.046874 3.972656 6.429687 6.152344 10.832031 5.402344 9.726562-1.671875 16.742187.304687 20.859375 5.875zm-38.265625-63.339844c-6.179688-5.691406-4.617188-13.5625.425781-30.160156.296875-.972656.589844-1.953125.882812-2.929688l32.414063 28.6875c-1.25.488282-2.496094.976563-3.734375 1.46875-16.113281 6.394532-23.820312 8.601563-29.988281 2.933594zm194.21875-265.734375c-1.269531-1.167969-2.007813-2.777344-2.078125-4.53125-.074219-1.75.527344-3.410156 1.703125-4.6875 1.167969-1.265625 2.769531-2.007813 4.519531-2.078125.097656-.003906.191406-.007812.285156-.007812 1.648438 0 3.207032.601562 4.40625 1.703124l57.292969 52.800782c0 .003906.003906.007812.007813.007812 1.269531 1.167969 2.007812 2.777344 2.082031 4.53125.070312 1.75-.53125 3.410156-1.707031 4.6875-1.140626 1.242188-2.703126 1.972656-4.410157 2.070313-.175781 0-.347656-.003907-.523437.007812-1.601563-.027343-3.109375-.625-4.273438-1.695312zm145.203125 6.585937c-.757813 3.964844-4.078125 8.472657-8.734375 9.023438l-62.101563 7.347656-49.503906-45.621094 2.613281-63.515624c.273438-6.671876 2.699219-11.554688 6.175781-12.445313 3.402344-.863281 7.753907 2.136719 11.082032 7.664063l31.261718 51.875c.941407 1.566406 2.289063 2.851562 3.898438 3.71875l60.632812 32.765624c3.867188 2.089844 5.441407 5.179688 4.675782 9.1875zm0 0"/><path d="m308.058594 330.886719-.171875.085937c-5.058594 2.523438-7.117188 8.667969-4.59375 13.726563 1.792969 3.589843 5.410156 5.667969 9.167969 5.667969 1.53125 0 3.09375-.347657 4.558593-1.078126l.171875-.085937c5.0625-2.523437 7.117188-8.667969 4.59375-13.726563-2.523437-5.058593-8.667968-7.117187-13.726562-4.589843zm0 0"/></svg>