<svg height="511pt" viewBox="-6 0 511 511.99961" width="511pt" xmlns="http://www.w3.org/2000/svg"><g fill-rule="evenodd"><path d="m479.632812 331.382812c34.527344-76.183593-29.714843-146.253906-95.40625-140.886718-15.25 1.246094-30.554687 6.582031-44.761718 16.820312-14 10.121094-27.191406 4.175782-29.367188-11.453125-5.273437-37.703125-21.191406-58.410156-57.253906-74.765625-49.136719-22.273437-107.117188-.464844-129.410156 48.691406-19.742188 43.53125-21.742188 89.554688-12.640625 142.222657 5.886719 34.105469 16.40625 70.96875 29.800781 111.714843 24.351562 74.152344 73.230469 93.09375 131.035156 66.699219 99.4375-45.359375 175.476563-87.292969 208.003906-159.042969zm0 0" fill="#ffcb7c"/><path d="m401.824219 110.480469c0-103.070313-132.746094-135.722657-178.839844-55.070313-8.582031 14.992188-23.046875 15.050782-31.511719 1.679688-20.351562-32.160156-43.398437-44.398438-82.96875-44.398438-53.980468 0-97.78125 43.820313-97.78125 97.789063 0 71.199219 38.148438 131.230469 100.070313 201.53125-9.101563-52.667969-7.101563-98.691407 12.640625-142.222657 22.292968-49.15625 80.273437-70.964843 129.410156-48.695312 36.0625 16.359375 51.980469 37.066406 57.257812 74.765625 2.171876 15.632813 15.363282 21.578125 29.367188 11.457031 14.203125-10.238281 29.511719-15.574218 44.757812-16.820312 11.277344-26.160156 17.597657-52.519532 17.597657-80.015625zm0 0" fill="#ffc15a"/><path d="m301.226562 387.472656c28.035157-19.257812 36.964844-55.914062 22.324219-85.523437-1.421875-2.84375-3.046875-5.628907-4.898437-8.355469-21.105469-30.710938-63.113282-38.511719-93.839844-17.398438-30.730469 21.113282-38.53125 63.132813-17.425781 93.847657 5.742187 8.351562 12.988281 14.992187 21.164062 19.835937 21.917969 13.023438 50.296875 12.992188 72.675781-2.40625zm0 0" fill="#ff6977"/><path d="m207.386719 370.042969c21.105469 30.738281 63.113281 38.542969 93.839843 17.429687 30.730469-21.113281 38.527344-63.136718 17.425782-93.878906-21.105469-30.710938-63.113282-38.511719-93.839844-17.398438-30.730469 21.113282-38.527344 63.132813-17.425781 93.847657zm0 0" fill="#ff6977"/></g><path d="m495.941406 261.328125c-5.835937-21.71875-18.945312-41.773437-36.914062-56.464844-17.285156-14.132812-38.507813-22.847656-59.777344-24.546875 8.585938-23.691406 12.792969-46.667968 12.792969-69.832031 0-26.816406-8.398438-51.207031-24.289063-70.539063-14.28125-17.375-34.5-30.222656-56.929687-36.179687-21.605469-5.738281-44.566407-4.894531-64.652344 2.378906-22.109375 8.003907-40.113281 23.285157-52.058594 44.1875-2.242187 3.917969-5 6.289063-7.375 6.34375-.023437 0-.050781 0-.078125 0-2.101562 0-4.542968-1.878906-6.550781-5.046875-22.089844-34.917968-48.632813-49.160156-91.605469-49.160156-59.554687 0-108.003906 48.453125-108.003906 108.011719 0 75.363281 40.179688 137.058593 100.707031 206.132812 5.414063 30.28125 14.835938 65.101563 29.679688 110.296875 13.136719 40.007813 33.53125 66.304688 60.617187 78.160156 10.558594 4.621094 21.804688 6.929688 33.683594 6.929688 15.824219 0 32.765625-4.09375 50.675781-12.269531 16.335938-7.4375 30.992188-14.347657 44.800781-21.125 5.066407-2.492188 7.15625-8.613281 4.667969-13.683594-2.488281-5.066406-8.609375-7.15625-13.679687-4.667969-13.628906 6.695313-28.105469 13.519532-44.269532 20.875-25.851562 11.804688-48.628906 13.558594-67.683593 5.21875-21.527344-9.425781-38.144531-31.566406-49.390625-65.8125-13.316406-40.542968-23.554688-76.464844-29.328125-109.207031-.046875-.691406-.167969-1.382813-.359375-2.058594-8.730469-50.96875-6.476563-94.234375 12.121094-135.257812 19.941406-43.96875 71.921874-63.527344 115.878906-43.605469 33.109375 15.015625 46.546875 32.515625 51.355468 66.863281 1.539063 11.082031 7.429688 19.570313 16.164063 23.296875 8.964844 3.828125 19.652344 2.019532 29.308594-4.960937 12.621093-9.117188 24.199219-14.429688 40.945312-15.101563 23.285157-1.445312 44.917969 8.101563 59.691407 20.183594 24.402343 19.949219 45.394531 59.808594 24.238281 106.472656-16 35.253906-43.953125 65.039063-87.972657 93.746094-4.726562 3.082031-6.0625 9.414062-2.976562 14.144531 3.082031 4.726563 9.414062 6.0625 14.144531 2.976563 47.421875-30.921875 77.742188-63.46875 95.421875-102.421875 11.070313-24.421875 13.492188-50.105469 7-74.277344zm-162.464844-62.292969c-3.652343 2.636719-7.136718 3.65625-9.3125 2.726563-1.945312-.828125-3.421874-3.5625-3.941406-7.316407-5.734375-40.964843-24.03125-64.910156-63.160156-82.65625-54.21875-24.578124-118.34375-.453124-142.9375 53.78125-15.308594 33.769532-21.148438 71.03125-17.808594 113.714844-46.011718-56.167968-75.375-108.277344-75.375-168.800781 0-48.289063 39.28125-87.574219 87.5625-87.574219 36.359375 0 55.808594 10.375 74.332032 39.648438 5.992187 9.460937 14.882812 14.738281 24.359374 14.554687 9.75-.21875 18.738282-6.28125 24.664063-16.632812 22.652344-39.632813 64.640625-44.675781 93.71875-36.957031 30.457031 8.085937 66.023437 35.714843 66.023437 86.960937 0 23.214844-4.753906 46.359375-14.507812 70.574219-15.503906 2.300781-30.300781 8.359375-43.617188 17.976562zm0 0"/><path d="m186.613281 317.652344c-3.789062 20.410156.59375 41.070312 12.347657 58.175781 11.753906 17.117187 29.464843 28.632813 49.871093 32.421875 4.785157.890625 9.582031 1.328125 14.347657 1.328125 15.554687 0 30.738281-4.679687 43.835937-13.683594 35.320313-24.265625 44.316406-72.75 20.058594-108.089843-24.265625-35.3125-72.742188-44.296876-108.050781-20.03125-17.113282 11.753906-28.621094 29.46875-32.410157 49.878906zm43.988281-33.035156c9.886719-6.792969 21.167969-10.046876 32.347657-10.046876 18.238281 0 36.1875 8.675782 47.277343 24.808594 17.878907 26.042969 11.246094 61.785156-14.785156 79.667969-12.613281 8.664063-27.835937 11.902344-42.875 9.105469-15.039062-2.792969-28.089844-11.277344-36.75-23.894532-.003906 0-.003906-.003906-.003906-.003906-8.660156-12.605468-11.894531-27.828125-9.101562-42.871094 2.792968-15.042968 11.277343-28.097656 23.890624-36.765624zm0 0"/><path d="m387.792969 251.269531h-.234375c-5.644532 0-10.21875 4.578125-10.21875 10.222657 0 5.644531 4.574218 10.21875 10.21875 10.21875h.234375c5.644531 0 10.21875-4.574219 10.21875-10.21875.003906-5.644532-4.574219-10.222657-10.21875-10.222657zm0 0"/><path d="m224 204.109375c5.644531 0 10.222656-4.574219 10.222656-10.21875s-4.578125-10.222656-10.222656-10.222656h-.230469c-5.648437 0-10.222656 4.578125-10.222656 10.222656s4.574219 10.21875 10.222656 10.21875zm0 0"/><path d="m391.601562 331.820312c0 5.644532 4.578126 10.21875 10.222657 10.21875h.230469c5.644531 0 10.21875-4.574218 10.21875-10.21875 0-5.648437-4.574219-10.222656-10.21875-10.222656h-.230469c-5.644531 0-10.222657 4.574219-10.222657 10.222656zm0 0"/><path d="m163.0625 226.9375c-5.644531 0-10.21875 4.578125-10.21875 10.222656 0 5.644532 4.574219 10.21875 10.21875 10.21875h.230469c5.648437 0 10.222656-4.574218 10.222656-10.21875 0-5.644531-4.574219-10.222656-10.222656-10.222656zm0 0"/><path d="m108.214844 61.894531h-.234375c-5.644531 0-10.21875 4.574219-10.21875 10.21875s4.574219 10.222657 10.21875 10.222657h.234375c5.644531 0 10.21875-4.578126 10.21875-10.222657s-4.574219-10.21875-10.21875-10.21875zm0 0"/><path d="m62.03125 112.527344h-.230469c-5.644531 0-10.222656 4.578125-10.222656 10.222656s4.578125 10.21875 10.222656 10.21875h.230469c5.648438 0 10.222656-4.574219 10.222656-10.21875s-4.574218-10.222656-10.222656-10.222656zm0 0"/><path d="m308.332031 59.136719h-.234375c-5.644531 0-10.21875 4.578125-10.21875 10.222656s4.574219 10.222656 10.21875 10.222656h.234375c5.644531 0 10.21875-4.578125 10.21875-10.222656s-4.574219-10.222656-10.21875-10.222656zm0 0"/><path d="m354.511719 109.773438h-.230469c-5.644531 0-10.222656 4.578124-10.222656 10.222656 0 5.644531 4.578125 10.21875 10.222656 10.21875h.230469c5.644531 0 10.222656-4.574219 10.222656-10.21875 0-5.644532-4.578125-10.222656-10.222656-10.222656zm0 0"/><path d="m348.191406 441.328125-.171875.117187c-4.695312 3.136719-5.957031 9.480469-2.816406 14.175782 1.96875 2.949218 5.207031 4.542968 8.503906 4.542968 1.953125 0 3.929688-.558593 5.671875-1.726562l.175782-.117188c4.691406-3.136718 5.953124-9.484374 2.816406-14.175781-3.136719-4.691406-9.484375-5.953125-14.179688-2.816406zm0 0"/></svg>