<svg height="512pt" viewBox="0 -28 512.001 512" width="512pt" xmlns="http://www.w3.org/2000/svg"><g fill-rule="evenodd"><path d="m500.4375 425.179688v-265.570313c-4.210938-12.644531-16.164062-21.835937-30.179688-21.835937h-108.703124c-5.960938 5.996093-13.648438 10.238281-22.269532 11.90625l-9.945312 66.273437c-.875 5.742187-4.773438 10.582031-10.566406 10.582031h-115.996094c-5.792969 0-9.691406-4.839844-10.566406-10.582031l-9.890626-65.761719c-9.890624-1.160156-18.792968-5.683594-25.488281-12.417968h-115.09375c-17.460937 0-31.757812 14.3125-31.757812 31.792968v245.660156c0 17.480469 14.296875 31.792969 31.757812 31.792969h428.523438c14.011719-.003906 25.964843-9.195312 30.175781-21.839843zm0 0" fill="#ffd89e"/><path d="m228.519531 226.53125-5.226562-75.492188c-4.15625-2.261718-8.054688-4.921874-11.671875-7.890624-6.894532 4.636718-15.199219 7.351562-24.160156 7.351562-1.722657 0-3.445313-.113281-5.140626-.308594l9.890626 65.761719c.875 5.742187 4.773437 10.578125 10.566406 10.578125zm0 0" fill="#cbe558"/><path d="m260.761719 226.53125v-66.382812c-.507813.027343-1.046875.027343-1.554688.027343-13.027343 0-25.261719-3.308593-35.914062-9.136719l5.226562 75.492188zm0 0" fill="#d8ec84"/><path d="m293.03125 226.53125 5.367188-77.414062c-10.992188 6.757812-23.847657 10.746093-37.636719 11.03125v66.382812zm0 0" fill="#cbe558"/><path d="m329.339844 215.953125 9.949218-66.273437c-2.714843.539062-5.511718.820312-8.363281.820312-8.960937 0-17.238281-2.714844-24.160156-7.351562-2.628906 2.175781-5.425781 4.15625-8.367187 5.964843l-5.367188 77.417969h25.742188c5.792968 0 9.691406-4.835938 10.566406-10.578125zm0 0" fill="#d8ec84"/><path d="m361.554688 137.773438c7.796874-7.835938 12.628906-18.640626 12.628906-30.574219 0-23.847657-19.214844-43.195313-43.003906-43.335938-9.128907-31.140625-37.894532-53.882812-71.972657-53.882812s-62.84375 22.742187-72 53.882812c-23.761719.140625-43.007812 19.488281-43.007812 43.335938 0 11.933593 4.832031 22.738281 12.632812 30.574219 6.695313 6.730468 15.597657 11.257812 25.488281 12.417968 1.695313.195313 3.417969.308594 5.144532.308594 8.957031 0 17.261718-2.714844 24.15625-7.351562 3.617187 2.96875 7.519531 5.628906 11.671875 7.890624 10.652343 5.828126 22.886719 9.136719 35.914062 9.136719l1.554688-.027343c13.789062-.285157 26.644531-4.273438 37.640625-11.03125 2.9375-1.8125 5.734375-3.789063 8.363281-5.96875 6.921875 4.640624 15.203125 7.355468 24.160156 7.355468 2.851563 0 5.648438-.285156 8.363281-.820312 8.617188-1.671875 16.304688-5.914063 22.265626-11.910156zm0 0" fill="#ff6977"/></g><path d="m61.4375 188.539062h.222656c5.515625 0 9.980469-4.464843 9.980469-9.980468 0-5.511719-4.464844-9.976563-9.980469-9.976563h-.222656c-5.511719 0-9.980469 4.464844-9.980469 9.976563 0 5.515625 4.46875 9.980468 9.980469 9.980468zm0 0"/><path d="m449.292969 188.539062c5.511719 0 9.980469-4.464843 9.980469-9.980468 0-5.511719-4.46875-9.976563-9.980469-9.976563h-.226563c-5.511718 0-9.980468 4.464844-9.980468 9.976563 0 5.515625 4.46875 9.980468 9.980468 9.980468zm0 0"/><path d="m61.4375 408.0625h.222656c5.515625 0 9.980469-4.46875 9.980469-9.980469s-4.464844-9.980469-9.980469-9.980469h-.222656c-5.511719 0-9.980469 4.46875-9.980469 9.980469s4.46875 9.980469 9.980469 9.980469zm0 0"/><path d="m450.339844 388.101562c-5.511719 0-9.980469 4.46875-9.980469 9.980469s4.46875 9.980469 9.980469 9.980469h.226562c5.511719 0 9.980469-4.46875 9.980469-9.980469s-4.46875-9.980469-9.980469-9.980469zm0 0"/><path d="m255.394531 437.035156h-.199219c-5.511718 0-9.980468 4.46875-9.980468 9.980469s4.46875 9.980469 9.980468 9.980469h.199219c5.511719 0 9.976563-4.46875 9.976563-9.980469s-4.464844-9.980469-9.976563-9.980469zm0 0"/><path d="m252.652344 304.402344 14.015625-12.390625c2.429687-2.175781 3.617187-4.550781 3.617187-7.125 0-2.265625-.820312-4.246094-2.488281-5.96875-1.695313-1.726563-3.703125-2.574219-6.019531-2.574219-2.257813 0-4.804688 1.328125-7.601563 3.988281l-17.546875 17.195313v-33.515625c0-2.519531-.875-4.667969-2.683594-6.449219-1.78125-1.78125-3.925781-2.6875-6.414062-2.6875-2.429688 0-4.519531.90625-6.300781 2.6875-1.808594 1.78125-2.710938 3.929688-2.710938 6.449219v68.136719c0 2.320312.847657 4.527343 2.710938 6.421874 1.808593 1.867188 4.011719 2.6875 6.414062 2.6875 2.429688 0 4.519531-.90625 6.300781-2.6875 1.808594-1.78125 2.683594-3.933593 2.683594-6.421874v-21.070313l20.941406 26.078125c2.316407 2.828125 4.859376 4.214844 7.601563 4.214844 2.570313 0 4.6875-.851563 6.414063-2.574219 1.722656-1.699219 2.570312-3.734375 2.570312-6.082031 0-2.261719-.792969-4.269532-2.34375-6.082032zm0 0"/><path d="m343.609375 312.546875c1.214844-1.128906 1.839844-3.023437 1.839844-5.683594 0-8.34375-3.023438-15.558593-9.070313-21.695312-6.050781-6.109375-13.199218-9.164063-21.449218-9.164063-8.789063 0-16.191407 3.167969-22.210938 9.53125-5.988281 6.335938-8.984375 14.226563-8.984375 23.675782 0 9.363281 3.109375 17.082031 9.296875 23.164062s14.070312 9.109375 23.652344 9.109375c7.089844 0 13.503906-1.5 19.214844-4.554687 5.734374-3.027344 8.589843-6.363282 8.589843-9.925782 0-2.039062-.765625-3.761718-2.316406-5.148437-1.554687-1.414063-3.363281-2.121094-5.371094-2.121094-1.496093 0-3.871093.933594-7.148437 2.800781-3.898438 2.203125-7.828125 3.28125-11.785156 3.28125-5.308594 0-9.238282-1.699218-11.808594-5.148437-.398438-.453125-.847656-1.246094-1.355469-2.378907-.511719-1.128906-1.074219-2.488281-1.695313-4.042968h34.585938c2.824219 0 4.832031-.566406 6.015625-1.699219zm-40.941406-9.757813c1.863281-8.285156 6.074219-12.414062 12.628906-12.414062 6.527344 0 10.625 4.128906 12.265625 12.414062zm0 0"/><path d="m426.660156 283.019531c-1.667968-4.496093-4.636718-6.675781-8.507812-6.675781-2.570313 0-4.773438.847656-6.554688 2.574219-1.78125 1.726562-2.796875 3.875-2.683594 6.421875.058594 1.496094.3125 2.601562.59375 3.28125l19.042969 46.667968-8.308593 19.433594c-.394532.933594-.648438 1.640625-.761719 2.09375-.113281.480469-.167969 1.101563-.167969 1.867188 0 2.433594.902344 4.441406 2.683594 6.023437 1.777344 1.613281 3.925781 2.40625 6.414062 2.40625 3.898438 0 6.808594-2.265625 8.644532-6.789062l29.105468-71.335938c.453125-1.074219.820313-2.234375.820313-3.648437 0-2.574219-.875-4.695313-2.628907-6.367188-1.75-1.667968-3.871093-2.515625-6.359374-2.515625-4.066407 0-6.894532 2.152344-8.53125 6.449219l-11.582032 30.292969zm0 0"/><path d="m98.394531 341.257812c7.800781 0 14.160157-2.347656 19.101563-7.070312 4.976562-4.726562 7.433594-10.691406 7.433594-17.960938 0-11.230468-5.652344-18.132812-16.953126-20.707031 2.742188-1.46875 4.691407-2.828125 5.847657-4.101562 1.1875-1.242188 2.148437-2.941407 2.941406-5.117188.761719-2.207031 1.15625-4.613281 1.15625-7.269531 0-6.703125-2.316406-12.078125-6.949219-16.066406-4.632812-4.015625-10.851562-6.023438-18.652344-6.023438h-20.089843c-2.742188 0-5.03125.875-6.894531 2.683594-1.867188 1.785156-2.796876 4.074219-2.796876 6.902344v64.917968c0 2.882813.929688 5.230469 2.796876 7.070313 1.863281 1.835937 4.238281 2.742187 7.121093 2.742187zm-16.8125-67.601562h9.101563c2.429687 0 4.464844.820312 6.128906 2.460938 1.695312 1.640624 2.515625 3.535156 2.515625 5.714843 0 2.261719-.875 4.183594-2.683594 5.742188-1.78125 1.554687-3.84375 2.347656-6.1875 2.347656h-8.871093v-16.265625zm-.113281 32.640625h14.722656c2.570313 0 4.777344.90625 6.585938 2.746094 1.835937 1.835937 2.769531 4.042969 2.769531 6.589843 0 2.433594-.933594 4.523438-2.769531 6.277344-1.808594 1.753906-4.070313 2.632813-6.699219 2.632813h-14.609375zm0 0"/><path d="m191.898438 276.117188c-2.34375 0-5.140626 2.207031-8.421876 6.644531-2.964843-2.570313-5.507812-4.328125-7.65625-5.316407-2.148437-.960937-4.859374-1.441406-8.109374-1.441406-8.109376 0-14.921876 3.167969-20.457032 9.53125-5.539062 6.335938-8.308594 14.113282-8.308594 23.335938 0 9.019531 2.738282 16.714844 8.25 23.023437 5.480469 6.335938 12.234376 9.476563 20.257813 9.476563 3.28125 0 6.019531-.511719 8.253906-1.5 2.203125-1.019532 4.71875-3.027344 7.542969-5.96875 3.503906 4.894531 6.332031 7.355468 8.507812 7.355468 2.570313 0 4.71875-.820312 6.441407-2.519531 1.722656-1.667969 2.570312-3.589843 2.570312-5.769531v-49.128906c0-2.207032-.902343-3.988282-2.683593-5.40625-1.808594-1.554688-3.871094-2.316406-6.1875-2.316406zm-12.800782 44.324218c-2.457031 3.054688-5.566406 4.550782-9.296875 4.550782-3.671875 0-6.726562-1.496094-9.183593-4.496094-2.429688-2.996094-3.671876-6.871094-3.671876-11.625 0-4.695313 1.242188-8.570313 3.671876-11.652344 2.457031-3.085938 5.511718-4.613281 9.183593-4.613281 3.898438 0 7.035157 1.5 9.410157 4.496093 2.375 3 3.5625 6.933594 3.5625 11.769532 0 4.667968-1.214844 8.542968-3.675782 11.570312zm0 0"/><path d="m375.230469 338.457031c1.753906-1.839843 2.683593-3.902343 2.683593-6.308593v-25.230469c0-5.851563 6.21875-11.058594 12.972657-11.820313 11.953125-1.332031 11.613281-20.707031-1.359375-18.21875-3.164063.625-8.644532 2.660156-11.726563 6.847656-3.585937-5.007812-6.496093-7.496093-8.757812-7.496093-2.429688 0-4.605469.847656-6.558594 2.574219-1.777344 1.78125-2.683594 3.847656-2.683594 6.195312v47.261719c0 2.40625.90625 4.5 2.683594 6.253906 1.808594 1.753906 3.957031 2.628906 6.445313 2.628906 2.570312 0 4.632812-.933593 6.300781-2.6875zm0 0"/><path d="m470.257812 127.792969h-90.234374c2.667968-6.339844 4.140624-13.296875 4.140624-20.59375 0-26.757813-19.902343-49.066407-45.660156-52.773438-5.652344-14.597656-15.390625-27.601562-27.910156-37.125-14.878906-11.316406-32.648438-17.300781-51.386719-17.300781-18.734375 0-36.503906 5.984375-51.386719 17.300781-12.523437 9.523438-22.265624 22.527344-27.929687 37.125-25.761719 3.703125-45.667969 26.015625-45.667969 52.773438 0 7.296875 1.484375 14.253906 4.148438 20.59375h-96.628906c-23.019532 0-41.742188 18.738281-41.742188 41.773437v245.65625c0 23.035156 18.722656 41.773438 41.742188 41.773438h173.640624c5.511719 0 9.976563-4.46875 9.976563-9.980469s-4.464844-9.980469-9.976563-9.980469h-173.640624c-12.011719 0-21.78125-9.785156-21.78125-21.8125v-245.65625c0-12.027344 9.769531-21.8125 21.78125-21.8125h111.246093c5.878907 5.007813 12.851563 8.769532 20.503907 10.855469l8.851562 58.847656c1.710938 11.21875 10.113281 19.054688 20.433594 19.054688h115.996094c10.320312 0 18.722656-7.835938 20.4375-19.078125l8.980468-59.847656c6.363282-2.1875 12.179688-5.558594 17.199219-9.835938h104.871094c12.007812 0 21.78125 9.785156 21.78125 21.816406v245.65625c0 12.027344-9.773438 21.8125-21.78125 21.8125h-175.25c-5.515625 0-9.980469 4.46875-9.980469 9.980469s4.464844 9.980469 9.980469 9.980469h175.25c23.015625 0 41.738281-18.742188 41.738281-41.773438v-245.65625c0-23.035156-18.722656-41.773437-41.742188-41.773437zm-267.347656 88.757812c-.242187-.261719-.664062-.980469-.832031-2.082031l-8.175781-54.371094c.128906-.015625.25-.039062.371094-.0625 5.785156-.738281 11.382812-2.402344 16.605468-4.957031.007813.003906.015625.007813.023438.011719.921875.636718 1.851562 1.25 2.796875 1.847656l4.125 59.613281zm47.871094 0h-12.949219l-3.46875-50.125c1.261719.382813 2.53125.734375 3.8125 1.0625.148438.039063.300781.078125.453125.113281 3.984375.996094 8.046875 1.707032 12.152344 2.117188zm32.9375 0h-12.976562v-47.203125c2.808593-.386718 5.59375-.90625 8.34375-1.570312.03125-.011719.0625-.019532.097656-.027344 1.246094-.300781 2.480468-.632812 3.714844-.992188.199218-.058593.398437-.117187.597656-.175781 1.269531-.378906 2.527344-.777343 3.773437-1.214843zm35.757812-2.101562c-.171874 1.117187-.59375 1.839843-.835937 2.101562h-14.914063l4.25-61.269531c6.105469 2.917969 12.699219 4.640625 19.480469 5.078125zm17.886719-74.558594c-.003906 0-.007812 0-.015625 0-.523437.105469-1.050781.195313-1.582031.273437-.027344.003907-.050781.007813-.078125.011719-.5.070313-1.003906.132813-1.511719.183594-.144531.015625-.292969.019531-.4375.035156-.390625.03125-.78125.066407-1.171875.085938-.542968.027343-1.089844.042969-1.640625.042969-6.644531 0-13.074219-1.960938-18.605469-5.667969-3.660156-2.449219-8.492187-2.214844-11.894531.582031-11.578125 9.515625-26.21875 14.757812-41.21875 14.757812-15.019531 0-29.667969-5.242187-41.25-14.757812-1.832031-1.507812-4.078125-2.269531-6.335937-2.269531-1.9375 0-3.878906.5625-5.570313 1.699219-5.5 3.699218-11.925781 5.652343-18.589843 5.652343-18.351563 0-33.28125-14.949219-33.28125-33.324219 0-18.28125 14.84375-33.242187 33.089843-33.351562 4.40625-.027344 8.269531-2.9375 9.515625-7.167969 8.085938-27.503906 33.753906-46.714843 62.421875-46.714843 28.675781 0 54.335938 19.207031 62.394531 46.707031 1.238282 4.234375 5.109376 7.148437 9.515626 7.175781 18.246093.109375 33.089843 15.070312 33.089843 33.351562-.003906 16.171876-11.5625 29.683594-26.84375 32.695313zm0 0"/></svg>