<svg height="511pt" viewBox="-20 0 511 511.99979" width="511pt" xmlns="http://www.w3.org/2000/svg"><g fill-rule="evenodd"><path d="m386.984375 288.027344c-45.128906 28.347656-136.808594 17.679687-151.097656-12.871094-13.636719 34.484375-112.304688 40.511719-150.671875 14.34375v69.25c-.058594 0-.113282 0-.199219 0v7.808594c0 54.542968 39.726563 101.929687 90.601563 123.910156 12.988281 5.601562 26.683593 9.53125 40.660156 11.542969h40.886718c13.726563-2.011719 27.25-5.941407 40.039063-11.542969 8.886719-3.90625 17.429687-8.574219 25.46875-13.949219 37.519531-25.035156 64.3125-65.148437 64.3125-109.960937zm0 0" fill="#ffddcf"/><path d="m85.214844 289.5c38.367187 26.167969 137.035156 20.140625 150.671875-14.34375 14.289062 30.550781 105.96875 41.21875 151.101562 12.871094v-28.601563c-26.796875-9.785156-62.082031-16.039062-100.421875-18.726562-16.328125-1.160157-33.21875-1.667969-50.253906-1.527344h-.199219c-13.835937.113281-27.757812.648437-41.5625 1.609375-39.417969 2.746094-77.671875 8.941406-109.535156 18.644531v29.875h.199219zm0 0" fill="#c68a65"/><path d="m386.984375 144.96875c55.320313-34.402344 21.621094-99.324219-37.492187-99.324219h-45.496094c-10.132813-19.972656-31.011719-31.375-54.015625-34.65625h-28.523438c-23.910156 3.339844-46.347656 15.050781-58.0625 34.65625h-40.886719c-59.109374 0-92.8125 64.921875-37.492187 99.324219v114.457031c88.90625-27.042969 227.921875-27.042969 301.96875 0zm0 0" fill="#ffd89e"/><path d="m85.214844 358.75v-69.449219h-.199219c-55.0625.140625-41.679687 69.253907 0 69.449219zm0 0" fill="#ffcbbe"/><path d="m387.410156 358.808594c41.539063-.480469 54.753906-69.453125-.421875-69.453125v69.453125zm0 0" fill="#ffcbbe"/><path d="m461.515625 490.324219c-34.433594-42.628907-64.003906-85.742188-74.105469-131.515625-.140625 0-.28125 0-.421875 0v7.75c0 44.8125-26.796875 84.925781-64.316406 109.960937-8.035156 5.375-16.582031 10.042969-25.46875 13.945313zm0 0" fill="#c68a65"/><path d="m175.617188 490.464844c-50.875-21.980469-90.601563-69.363282-90.601563-123.90625v-7.808594c-9.988281 46-39.925781 88.886719-74.53125 131.714844zm0 0" fill="#c68a65"/></g><path d="m235.886719 181.152344c5.515625 0 9.984375-4.472656 9.984375-9.988282v-51.148437c0-5.519531-4.46875-9.992187-9.984375-9.992187s-9.984375 4.476562-9.984375 9.992187v51.148437c0 5.515626 4.472656 9.988282 9.984375 9.988282zm0 0"/><path d="m160.140625 204.265625c5.515625 0 9.984375-4.472656 9.984375-9.988281v-51.148438c0-5.519531-4.46875-9.992187-9.984375-9.992187-5.511719 0-9.984375 4.476562-9.984375 9.992187v51.148438c0 5.515625 4.472656 9.988281 9.984375 9.988281zm0 0"/><path d="m311.636719 204.265625c5.511719 0 9.980469-4.472656 9.980469-9.988281v-51.148438c0-5.519531-4.46875-9.992187-9.980469-9.992187-5.515625 0-9.984375 4.476562-9.984375 9.992187v51.148438c0 5.515625 4.46875 9.988281 9.984375 9.988281zm0 0"/><path d="m236.3125 229.179688h-.199219c-5.511719 0-9.984375 4.472656-9.984375 9.992187 0 5.515625 4.472656 9.988281 9.984375 9.988281h.199219c5.511719 0 9.984375-4.472656 9.984375-9.988281 0-5.519531-4.472656-9.992187-9.984375-9.992187zm0 0"/><path d="m469.28125 484.042969c-27.714844-34.289063-57.144531-74.609375-69.441406-117.050781 21.148437-6.121094 33.773437-26.9375 33.773437-46.46875 0-18.230469-11.429687-36.59375-36.640625-40.421876v-129.78125c23.199219-16.503906 32.878906-40.300781 25.953125-64.59375-8.410156-29.484374-38.605469-50.074218-73.429687-50.074218h-39.714844c-13.570312-21.351563-39.277344-34.519532-70.113281-35.5820315-33.769531-1.1796875-65.117188 12.6562495-81.644531 35.5820315h-35.515626c-34.828124 0-65.023437 20.589844-73.429687 50.074218-6.929687 24.292969 2.75 48.089844 25.953125 64.59375v129.757813c-25.074219 3.890625-36.445312 22.207031-36.445312 40.390625 0 19.609375 12.71875 40.53125 34.027343 46.558594-11.964843 41.539062-40.488281 80.761718-69.894531 117.15625-2.417969 2.996094-2.902344 7.113281-1.246094 10.589844 1.660156 3.472656 5.164063 5.683593 9.011719 5.683593h163.160156c13.355469 5.570313 27.207031 9.429688 41.214844 11.441407.46875.066406.945313.101562 1.417969.101562h40.886718c.484376 0 .964844-.035156 1.445313-.105469 13.8125-2.019531 27.453125-5.878906 40.597656-11.4375l162.316407-.140625c3.847656-.003906 7.347656-2.21875 9.003906-5.691406s1.171875-7.589844-1.246094-10.582031zm-61.261719-177.976563c4.648438 4.527344 5.625 10.359375 5.625 14.457032 0 10.5625-6.402343 21.703124-16.675781 26.214843v-46.320312c4.578125 1.085937 8.320312 2.988281 11.050781 5.648437zm-339.738281-214.859375c4.882812-17.132812 23.9375-35.574219 54.226562-35.574219h40.886719c3.511719 0 6.765625-1.847656 8.570313-4.863281 11.75-19.664062 38.046875-31.71875 67.015625-30.730469 26.015625.894532 46.992187 12.160157 56.113281 30.128907 1.703125 3.351562 5.144531 5.464843 8.902344 5.464843h45.5c30.285156 0 49.339844 18.441407 54.226562 35.574219 4.863282 17.050781-3.15625 33.554688-22.003906 45.273438-2.933594 1.824219-4.714844 5.035156-4.714844 8.488281v100.652344c-24.007812-7.136719-53.621094-12.171875-86.652344-14.6875-.066406-.003906-.132812-.007813-.203124-.011719-1.242188-.070313-11.390626-.695313-12.359376-.773437-5.5-.457032-10.324218 3.613281-10.792968 9.109374-.464844 5.5 3.609375 10.335938 9.105468 10.800782 1.171876.101562 11.378907.722656 12.824219.808594 34.367188 2.621093 64.605469 8.027343 88.078125 15.695312v15.695312c-29.113281 15.367188-73.988281 15.015626-103.183594 6.414063-14.949218-4.402344-25.75-11.039063-28.886718-17.753906-.082032-.167969-.160156-.300781-.238282-.421875-1.773437-3.355469-5.269531-5.441406-9.109374-5.328125-3.984376.121093-7.511719 2.601562-8.980469 6.3125-2.785157 7.042969-12.714844 13.640625-27.242188 18.105469-33.320312 10.234374-80.269531 7.367187-104.359375-5.808594v-16.847656c28.652344-8.019532 63.105469-13.59375 100.238282-16.179688 5.5-.382812 9.648437-5.15625 9.265624-10.660156-.382812-5.503906-5.132812-9.667969-10.652343-9.273438-36.167969 2.515625-70.027344 7.804688-98.851563 15.398438v-101.246094c0-3.453125-1.785156-6.664062-4.714844-8.488281-18.851562-11.71875-26.871093-28.21875-22.007812-45.273438zm-9.726562 229.261719c0-10.539062 5.957031-17.558594 16.675781-20.105469v46.320313c-10.273438-4.515625-16.675781-15.652344-16.675781-26.214844zm-27.40625 160.007812c19.035156-24.570312 36.820312-50.429687 49.328124-77.710937 4.6875 15.40625 12.359376 30.257813 22.820313 44.011719 9.699219 12.75 21.398437 24.097656 34.644531 33.699218zm262.171874.785157c-.011718.003906-.023437.011719-.039062.015625-.023438.011718-.050781.027344-.078125.039062-11.894531 5.207032-24.265625 8.804688-36.777344 10.703125h-39.421875c-12.722656-1.890625-25.3125-5.5-37.429687-10.726562-.007813-.003907-.015625-.007813-.023438-.011719-.023437-.007812-.042969-.015625-.0625-.027344-50.539062-21.871094-84.488281-67.953125-84.488281-114.695312v-5.820313c.050781-.246093.082031-.496093.113281-.75.007813-.0625.019531-.121093.027344-.183593.035156-.347657.054687-.699219.054687-1.054688v-52.832031c32.339844 12.957031 79.140626 12.261719 110.027344 2.769531 13.464844-4.136719 23.984375-9.878906 31.152344-16.929688 9.070312 8.023438 21.496094 13.046876 31.804688 16.085938 30.878906 9.09375 75.304687 9.988281 108.820312-3.605469v62.320313c0 38.632812-22.382812 76.632812-59.878906 101.652344-7.449219 4.984374-15.460938 9.375-23.800782 13.050781zm41.140626-.816407c28.320312-20.722656 48.289062-48.378906 57.222656-78.355468 12.703125 28.003906 30.785156 54.441406 49.246094 78.355468zm0 0"/><path d="m189.398438 340.726562h-.226563c-5.515625 0-9.984375 4.472657-9.984375 9.988282 0 5.519531 4.46875 9.992187 9.984375 9.992187h.226563c5.511718 0 9.984374-4.472656 9.984374-9.992187 0-5.515625-4.472656-9.988282-9.984374-9.988282zm0 0"/><path d="m285.519531 340.726562h-.226562c-5.515625 0-9.984375 4.472657-9.984375 9.988282 0 5.519531 4.46875 9.992187 9.984375 9.992187h.226562c5.511719 0 9.984375-4.472656 9.984375-9.992187 0-5.515625-4.472656-9.988282-9.984375-9.988282zm0 0"/><path d="m270.160156 414.550781c-4.863281-2.601562-10.914062-.761719-13.507812 4.105469-4.507813 8.445312-11.484375 13.28125-19.152344 13.28125-.027344 0-.054688 0-.082031 0-7.722657-.035156-14.71875-4.96875-19.195313-13.539062-2.550781-4.890626-8.582031-6.785157-13.46875-4.230469-4.886718 2.558593-6.78125 8.59375-4.226562 13.484375 7.898437 15.128906 21.65625 24.199218 36.800781 24.265625h.171875c15.054688 0 28.789062-8.902344 36.765625-23.847657 2.59375-4.867187.757813-10.917968-4.105469-13.519531zm0 0"/></svg>