<svg height="511pt" viewBox="0 -63 511.99955 511" width="511pt" xmlns="http://www.w3.org/2000/svg"><g fill-rule="evenodd"><path d="m261.355469 72.714844 61.804687 105.136718 34.550782 58.785157 32.640624 55.558593c2.390626 4.09375 4.367188 8.308594 5.921876 12.550782 12.503906 0 45.980468-27.734375 14.597656-64.671875-1.105469-1.316407-2.332032-2.75-3.558594-4.273438-5.503906-6.695312-11.699219-14.703125-14.75-19.484375-15.792969-24.269531 1.167969-54.902344-45.261719-76.328125-10.140625-4.691406-12.472656-21.816406-14.835937-33.5625-.210938-.925781-.390625-1.792969-.570313-2.660156-1.582031-7.082031-3.828125-13.808594-8.585937-17.929687-22.285156-19.308594-63.359375-15.660157-61.953125-13.152344zm0 0" fill="#cbe558"/><path d="m386.160156 109.59375-53.699218-3.167969c1.230468 6.125 2.425781 13.507813 4.667968 19.875 2.125 6.15625 5.234375 11.382813 10.171875 13.6875 46.429688 21.425781 29.464844 52.058594 45.261719 76.328125 2.304688 3.585938 6.164062 8.726563 10.203125 13.835938 1.523437 1.914062 3.050781 3.824218 4.546875 5.648437l17.949219-59.683593 18.964843-63.089844zm0 0" fill="#ffc15a"/><path d="m351.609375 50.839844c-35.929687-58.964844-82.925781-44.769532-105.09375-6.816406l-2.183594 3.765624c4.1875 4.691407 8.257813 10.253907 12.207031 16.738282l4.816407 8.15625c-1.40625-2.507813 39.664062-6.15625 61.953125 13.152344 4.757812 4.125 7 10.847656 8.585937 17.929687 0 .089844.027344.148437.027344.210937.183594.804688.359375 1.613282.539063 2.449219l53.699218 3.167969zm0 0" fill="#ffd89e"/><path d="m410.871094 240.074219c31.378906 36.9375-2.09375 64.671875-14.597656 64.671875 12.144531 33.234375-2.574219 68.796875-60.640626 70.441406l97.046876-.269531c69.582031-1.285157 80.679687-48.652344 58.511718-86.609375l-65.929687-112.191406-17.949219 59.683593c1.226562 1.492188 2.421875 2.957031 3.558594 4.273438zm0 0" fill="#ffd89e"/><path d="m261.355469 72.714844v-.03125zm-137.910157 41.03125-100.15625 172.679687c-32.246093 57.769531 2.1875 89.539063 44.664063 89.539063l53.996094-.121094 79.15625-.238281 133.152343-.390625c.449219 0 .925782 0 1.375-.027344 58.066407-1.644531 72.785157-37.210938 60.640626-70.441406-1.558594-4.246094-3.53125-8.457032-5.925782-12.554688l-32.636718-55.554687-34.550782-58.785157-61.804687-105.140624s0 0 0-.027344l-4.816407-8.160156c-3.949218-6.484376-8.015624-12.042969-12.207031-16.734376-32.246093-36.34375-69.730469-21.996093-88.546875 10.21875zm0 0" fill="#ffedd1"/></g><path d="m500.289062 282.976562-63.605468-108.230468 17.644531-58.683594c.925781-3.085938.390625-6.425781-1.457031-9.066406s-4.800782-4.292969-8.019532-4.480469l-52.445312-3.101563-31.703125-53.910156c-.03125-.050781-.058594-.097656-.085937-.144531-22.765626-37.363281-47.925782-45.015625-65.066407-44.855469-20.019531.183594-39.390625 11.46875-53.191406 30.605469-14.394531-12.050781-28.320313-15.269531-39.066406-15.269531-.171875 0-.34375 0-.511719.003906-21.785156.207031-42.757812 13.984375-56.121094 36.882812l-32.339844 55.738282-100.152343 172.679687c-.03125.050781-.058594.101563-.085938.152344-20.464843 36.660156-14.878906 61.160156-6.59375 75.257813 11.027344 18.75 33.628907 29.945312 60.488281 29.945312l54-.121094c5.820313-.011718 10.535157-4.738281 10.519532-10.558594-.011719-5.808593-4.730469-10.511718-10.542969-10.511718-.007813 0-.015625 0-.023437 0l-53.976563.121094c-19.277344 0-35.082031-7.304688-42.277344-19.546876-7.878906-13.398437-5.53125-32.15625 6.785157-54.253906l100.109374-172.597656 32.324219-55.714844c9.570313-16.398437 23.808594-26.269531 38.085938-26.40625.105469 0 .207031-.003906.308593-.003906 11.4375 0 22.625 6.03125 32.949219 17.617188.152344.183593.304688.363281.46875.535156 3.71875 4.242187 7.324219 9.203125 10.78125 14.871094l101.128907 172.039062 32.621093 55.53125c9.492188 16.265625 11.058594 33.261719 4.191407 45.464844-7.726563 13.71875-25.457032 21.226562-51.285157 21.71875l-133.070312.386718c-5.824219.019532-10.53125 4.746094-10.515625 10.566407.019531 5.804687 4.734375 10.503906 10.546875 10.503906h.03125l133.152343-.386719c.054688 0 .109376-.003906.160157-.003906.3125-.003906.609375-.019531.914062-.027344l97.34375-.269531c.054688 0 .109375 0 .164063-.003906 44.296875-.816407 63.589844-18.75 71.976562-33.648438 10.949219-19.460937 9.25-45.179687-4.558594-68.824219zm-70-160.21875-27.167968 90.359376c-.652344-.929688-1.234375-1.792969-1.71875-2.546876-4.226563-6.496093-5.519532-13.960937-7.011719-22.601562-3.171875-18.328125-7.117187-41.136719-42.660156-57.542969-2.65625-1.230469-4.660157-6.855469-6.132813-12.671875zm-163.898437-62.28125-.757813-1.285156c-.027343-.050781-.058593-.097656-.085937-.144531-2.757813-4.523437-5.550781-8.59375-8.363281-12.253906 10.023437-15.71875 24.269531-25.089844 38.5625-25.222657.109375-.003906.214844-.003906.320312-.003906 16.578125 0 32.648438 11.984375 46.496094 34.679688l24.503906 41.671875-26.167968-1.546875c-1.863282-6.476563-4.886719-13.476563-10.675782-18.492188-.007812-.007812-.015625-.015625-.027344-.023437-13.296874-11.507813-30.925781-15.609375-43.378906-17.023438-2.628906-.300781-12.09375-1.234375-20.425781-.355469zm100.414063 170.824219-88.214844-150.070312c11.480468.59375 27.515625 3.640625 37.808594 12.5625 2.734374 2.375 4.28125 8.136719 5.203124 12.261719.378907 1.699218.757813 3.664062 1.160157 5.746093 2.535156 13.179688 6.015625 31.226563 20.117187 37.75 25.496094 11.765625 27.804688 25.109375 30.726563 42.003907 1.652343 9.550781 3.523437 20.375 10.066406 30.425781 4.019531 6.296875 12.683594 17.300781 19.160156 24.910156 9.898438 11.652344 12.855469 22.578125 8.789063 32.472656-2.3125 5.621094-6.289063 9.609375-9.703125 12.03125-.773438-1.515625-1.597657-3.03125-2.472657-4.53125zm119.65625 110.175781c-8.140626 14.46875-26.777344 22.390626-53.894532 22.90625l-37.175781.101563c3.628906-3.707031 6.367187-7.542969 8.421875-11.191406 6.820312-12.117188 8.554688-26.746094 5.363281-41.726563 8.105469-4.277344 16.378907-12.058594 21.148438-22.355468 4.75-10.253907 9.582031-31.113282-11.285157-55.796876l9.363282-31.140624 53.683594 91.347656c9.984374 17.09375 11.617187 34.980468 4.375 47.855468zm0 0"/><path d="m134.15625 271.347656h-.238281c-5.824219 0-10.546875 4.71875-10.546875 10.535156 0 5.820313 4.722656 10.535157 10.546875 10.535157h.238281c5.824219 0 10.542969-4.714844 10.542969-10.535157.003906-5.816406-4.71875-10.535156-10.542969-10.535156zm0 0"/><path d="m178.25 190.65625h-.207031c-5.824219 0-10.546875 4.71875-10.546875 10.535156 0 5.820313 4.722656 10.535156 10.546875 10.535156h.207031c5.824219 0 10.546875-4.714843 10.546875-10.535156 0-5.816406-4.722656-10.535156-10.546875-10.535156zm0 0"/><path d="m233.894531 160.5625h-.210937c-5.824219 0-10.542969 4.71875-10.542969 10.535156 0 5.820313 4.71875 10.535156 10.542969 10.535156h.210937c5.824219 0 10.542969-4.714843 10.542969-10.535156 0-5.816406-4.71875-10.535156-10.542969-10.535156zm0 0"/><path d="m236.945312 263.132812c-5.824218 0-10.546874 4.714844-10.546874 10.535157 0 5.816406 4.722656 10.53125 10.546874 10.53125h.238282c5.824218 0 10.546875-4.714844 10.546875-10.53125 0-5.820313-4.722657-10.535157-10.546875-10.535157zm0 0"/><path d="m164.371094 365.160156h-.179688c-5.824218 0-10.546875 4.71875-10.546875 10.535156 0 5.816407 4.722657 10.535157 10.546875 10.535157h.179688c5.824218 0 10.542968-4.71875 10.542968-10.535157 0-5.816406-4.71875-10.535156-10.542968-10.535156zm0 0"/></svg>