<svg height="512pt" viewBox="-47 0 512 512" width="512pt" xmlns="http://www.w3.org/2000/svg"><g fill-rule="evenodd"><path d="m376.746094 191.738281h-355.320313c-6.261719 0-11.378906 5.074219-11.378906 11.277344v27.125c0 6.207031 5.175781 9.605469 11.40625 10.171875l249.539063 22.53125 18.898437 19.101562c23.644531 23.890626 21.183594 24.429688 48.515625-2.636718l9.40625-9.523438 48.777344 4.394532c6.261718.566406 11.378906-3.96875 11.378906-10.171876v-60.988281c0-6.207031-5.148438-11.28125-11.410156-11.28125zm0 0" fill="#fbc2c7"/><path d="m49.675781 242.863281v93.296875c2.171875-1.871094 4.488281-3.65625 6.917969-5.300781 24.671875-16.804687 55.691406-17.398437 80.339844-4.195313 3.542968-9.09375 9.804687-17.285156 18.554687-23.265624 23.015625-15.671876 54.519531-9.863282 70.359375 12.953124 12.722656 18.363282 11.4375 42.140626-1.515625 58.917969h152.414063v-102.875l-28.929688-2.605469-9.40625 9.519532c-27.332031 27.066406-24.875 26.527344-48.519531 2.636718l-18.898437-19.101562zm0 0" fill="#ff6977"/><path d="m56.59375 330.859375c-2.429688 1.644531-4.746094 3.429687-6.917969 5.300781v115.261719c25.84375 22.273437 64.554688 25.390625 94.117188 5.269531 7.890625-5.382812 14.46875-11.960937 19.613281-19.328125 8.894531-12.695312 13.640625-27.6875 13.78125-42.90625-13.609375-1.871093-26.386719-9.183593-34.765625-21.285156-9.835937-14.167969-11.292969-31.570313-5.488281-46.503906-24.648438-13.207031-55.667969-12.613281-80.339844 4.191406zm0 0" fill="#ffd89e"/><path d="m376.746094 375.269531h-152.414063c-3.175781 4.082031-7.03125 7.765625-11.550781 10.855469-10.835938 7.367188-23.53125 10.003906-35.59375 8.332031-.144531 15.21875-4.890625 30.238281-13.78125 42.90625h213.339844zm0 0" fill="#ffc15a"/><path d="m212.78125 386.125c4.519531-3.089844 8.378906-6.773438 11.550781-10.855469h-.027343c-3.03125 3.941407-6.691407 7.484375-11.007813 10.488281-.171875.109376-.34375.226563-.515625.367188zm13.066406-69.773438c-15.839844-22.816406-47.34375-28.625-70.359375-12.953124-8.75 5.980468-15.011719 14.171874-18.554687 23.265624-5.804688 14.9375-4.347656 32.339844 5.488281 46.507813 8.375 12.101563 21.15625 19.414063 34.765625 21.285156 12.066406 1.671875 24.757812-.964843 35.59375-8.332031.171875-.144531.34375-.257812.515625-.367188.113281-.085937.230469-.144531.34375-.230468 4.144531-2.945313 7.71875-6.429688 10.691406-10.257813 12.953125-16.777343 14.238281-40.554687 1.515625-58.917969zm0 0" fill="#c68a65"/><path d="m376.746094 437.363281h-213.339844c-5.144531 7.367188-11.722656 13.945313-19.613281 19.328125-29.5625 20.121094-68.273438 17.003906-94.121094-5.269531v27.941406c0 12.414063 10.265625 22.589844 22.789063 22.589844h281.527343c12.523438 0 22.757813-10.175781 22.757813-22.589844zm0 0" fill="#ff6977"/><path d="m49.675781 26.769531v164.96875h327.070313v-164.96875c0-9.210937-7.574219-16.71875-16.839844-16.71875h-293.363281c-9.265625 0-16.867188 7.507813-16.867188 16.71875zm0 0" fill="#c68a65"/><path d="m105.796875 67.609375v67.363281c0 4.703125 3.886719 8.558594 8.632813 8.558594h67.960937c4.746094 0 8.632813-3.851562 8.632813-8.558594v-67.363281c0-4.707031-3.886719-8.558594-8.632813-8.558594h-67.960937c-4.746094 0-8.632813 3.851563-8.632813 8.558594zm0 0" fill="#dca98b"/><path d="m241.457031 67.609375v67.363281c0 4.703125 3.890625 8.558594 8.636719 8.558594h67.957031c4.773438 0 8.664063-3.851562 8.664063-8.558594v-67.363281c0-4.707031-3.890625-8.558594-8.664063-8.558594h-67.957031c-4.746094 0-8.636719 3.851563-8.636719 8.558594zm0 0" fill="#dca98b"/></g><path d="m318.050781 153.578125c10.316407 0 18.710938-8.34375 18.710938-18.605469v-67.363281c0-10.261719-8.394531-18.609375-18.710938-18.609375h-67.957031c-10.304688 0-18.683594 8.347656-18.683594 18.609375v67.363281c0 10.261719 8.378906 18.609375 18.683594 18.609375h67.957031zm-66.542969-84.480469h65.15625v64.386719h-65.15625zm0 0"/><path d="m201.074219 67.609375c0-10.261719-8.382813-18.609375-18.683594-18.609375h-67.960937c-10.300782 0-18.683594 8.347656-18.683594 18.609375v67.363281c0 10.261719 8.382812 18.609375 18.683594 18.609375h67.960937c10.300781 0 18.683594-8.347656 18.683594-18.609375zm-20.097657 65.871094h-65.132812v-64.382813h65.132812zm0 0"/><path d="m396.5625 181.691406h-9.765625v-154.921875c0-14.761719-12.0625-26.769531-26.890625-26.769531h-293.363281c-14.84375 0-26.917969 12.007812-26.917969 26.769531v154.921875h-18.199219c-11.8125 0-21.425781 9.566406-21.425781 21.324219v27.125c0 10.953125 8.257812 19.0625 20.550781 20.179687l19.074219 1.722657v227.320312c0 17.996094 14.730469 32.636719 32.835938 32.636719h281.53125c18.085937 0 32.804687-14.640625 32.804687-32.636719v-195.976562l8.886719.800781c5.839844.519531 11.601562-1.371094 15.808594-5.214844 4.207031-3.84375 6.527343-9.160156 6.527343-14.964844v-60.992187c-.003906-11.757813-9.628906-21.324219-21.457031-21.324219zm-29.863281 297.671875c0 6.914063-5.703125 12.539063-12.710938 12.539063h-281.527343c-7.023438 0-12.738282-5.625-12.738282-12.539063v-9.078125c12.589844 6.558594 26.492188 9.878906 40.4375 9.878906 17.152344 0 34.367188-5.011718 49.292969-15.167968 7.257813-4.945313 13.617187-10.894532 18.953125-17.585938h198.292969zm-232.539063-100.472656c7.8125 11.289063 18.859375 19.082031 31.070313 23.039063.429687.167968.871093.328124 1.335937.464843-.003906.035157-.011718.066407-.015625.101563-2.484375 18.453125-12.738281 35.207031-28.410156 45.890625-23.957031 16.300781-55.574219 15.410156-78.417969-1.769531v-105.648438c.832032-.625 1.675782-1.226562 2.527344-1.800781 18.59375-12.667969 41.929688-15.144531 62.582031-7.042969-.027343.125-.042969.25-.066406.375-.097656.460938-.207031.914062-.292969 1.378906-2.925781 15.796875.515625 31.78125 9.6875 45.011719zm10.074219-41.351563c1.957031-10.5625 7.960937-19.738281 16.90625-25.835937 7.003906-4.769531 15-7.054687 22.921875-7.054687 12.933594 0 25.660156 6.09375 33.523438 17.421874 6.097656 8.808594 8.382812 19.445313 6.433593 29.945313-1.164062 6.265625-3.765625 12.039063-7.546875 16.96875-.039062.054687-.085937.097656-.128906.152344-.042969.054687-.078125.117187-.117188.171875-2.539062 3.242187-5.585937 6.117187-9.09375 8.507812-18.476562 12.5625-43.800781 7.914063-56.449218-10.363281 0-.003906-.003906-.003906-.003906-.007813-6.101563-8.792968-8.390626-19.414062-6.445313-29.90625zm222.464844 89.777344h-186.28125c3.035156-7.140625 5.085937-14.652344 6.09375-22.371094.464843-.019531.902343-.058593 1.328125-.105468 10.621094-.628906 21.207031-4.023438 30.601562-10.410156 3.902344-2.664063 7.421875-5.726563 10.539063-9.113282h137.71875zm0-62.09375h-125.523438c1.109375-3.078125 1.992188-6.261718 2.601563-9.539062 2.933594-15.804688-.5-31.804688-9.675782-45.0625-18.953124-27.300782-56.753906-34.265625-84.273437-15.527344-7.210937 4.914062-13.132813 11.179688-17.539063 18.378906-23.671874-9.332031-50.085937-7.941406-72.566406 3.824219v-63.4375l206.707032 18.664063 16.316406 16.492187c1.234375 1.246094 2.394531 2.425781 3.492187 3.542969 10.527344 10.710937 16.882813 17.179687 26.0625 17.234375h.125c9.542969 0 16.40625-6.816407 30.023438-20.339844l3.027343-3.003906c.027344-.023438.054688-.050781.078126-.078125l6.078124-6.148438 15.066407 1.355469zm31.222656-101.214844c0 .066407-.007813.113282-.007813.132813-.050781.019531-.179687.054687-.425781.03125l-48.773437-4.394531c-2.988282-.273438-5.941406.8125-8.050782 2.949218l-9.363281 9.480469-3.011719 2.988281c-6.71875 6.671876-13.089843 12.996094-15.824218 14.347657-2.234375-1.242188-7.140625-6.234375-11.894532-11.070313-1.109374-1.132812-2.289062-2.332031-3.539062-3.59375l-18.898438-19.101562c-1.667968-1.683594-3.875-2.726563-6.238281-2.941406l-249.53125-22.527344c-1.125-.105469-1.871093-.359375-2.269531-.554688v-26.738281c0-.65625.621094-1.230469 1.332031-1.230469h145.351563c5.550781 0 10.046875-4.496094 10.046875-10.046875s-4.496094-10.046875-10.046875-10.046875h-107.054688v-154.921875c0-3.617187 3.121094-6.671875 6.820313-6.671875h293.363281c3.746094 0 6.792969 2.992188 6.792969 6.671875v154.921875h-117.0625c-5.550781 0-10.050781 4.496094-10.050781 10.046875s4.5 10.046875 10.050781 10.046875h146.925781c.710938 0 1.359375.585938 1.359375 1.230469zm0 0"/><path d="m209.550781 181.691406h-.199219c-5.550781 0-10.046874 4.496094-10.046874 10.046875s4.496093 10.050781 10.046874 10.050781h.199219c5.550781 0 10.046875-4.5 10.046875-10.050781.003906-5.550781-4.496094-10.046875-10.046875-10.046875zm0 0"/></svg>