<svg height="512pt" viewBox="0 -94 512 512" width="512pt" xmlns="http://www.w3.org/2000/svg"><g fill-rule="evenodd"><path d="m52.722656 186.429688h406.554688c13.464844 0 24.449218-11.003907 24.449218-24.429688s-10.984374-24.429688-24.449218-24.429688h-406.554688c-13.464844 0-24.449218 11.003907-24.449218 24.429688s10.984374 24.429688 24.449218 24.429688zm0 0" fill="#c68a65"/><path d="m54.890625 235.832031h422.332031c13.578125 0 24.707032-11.117187 24.707032-24.714843 0-13.570313-11.128907-24.6875-24.707032-24.6875h-442.445312c-13.578125 0-24.707032 11.117187-24.707032 24.6875 0 13.597656 11.128907 24.714843 24.707032 24.714843zm0 0" fill="#ffd89e"/><path d="m52.722656 137.570312h424.5c13.578125 0 24.707032-11.089843 24.707032-24.6875 0-13.597656-11.128907-24.714843-24.707032-24.714843h-442.445312c-13.578125 0-24.707032 11.117187-24.707032 24.714843 0 13.597657 11.128907 24.6875 24.707032 24.6875zm0 0" fill="#ffd89e"/><path d="m54.890625 88.167969h402.21875c-31.839844-45.75-109.871094-78.105469-201.109375-78.105469s-169.269531 32.355469-201.109375 78.105469zm0 0" fill="#ffc15a"/><path d="m54.890625 235.832031c31.839844 45.78125 109.871094 78.105469 201.109375 78.105469s169.269531-32.324219 201.109375-78.105469zm0 0" fill="#ffc15a"/><path d="m231.949219 186.429688v60.089843c0 32.382813 38.429687 25.542969 38.515625 4.734375.113281-6.957031 3.9375-12.34375 9.070312-15.421875 6.136719-3.679687 14.125-4.078125 19.859375 0 3.910157 2.765625 6.789063 7.640625 7.332031 14.964844-2.226562 32.097656 47.730469 36.117187 47.730469-2.453125v-61.914062zm0 0" fill="#dca98b"/></g><path d="m489.515625 178.617188c2.726563-4.933594 4.28125-10.597657 4.28125-16.617188s-1.554687-11.683594-4.28125-16.617188c13.125-4.972656 22.484375-17.660156 22.484375-32.5 0-19.175781-15.601562-34.777343-34.777344-34.777343h-15.003906c-36.476562-47.601563-116.554688-78.105469-206.21875-78.105469s-169.742188 30.503906-206.214844 78.105469h-15.007812c-19.175782 0-34.777344 15.601562-34.777344 34.777343 0 14.839844 9.359375 27.527344 22.484375 32.5-2.726563 4.933594-4.28125 10.597657-4.28125 16.617188s1.554687 11.683594 4.28125 16.617188c-13.125 4.972656-22.484375 17.660156-22.484375 32.5 0 19.175781 15.601562 34.777343 34.777344 34.777343h15.003906c36.457031 47.601563 116.535156 78.105469 206.21875 78.105469s169.761719-30.503906 206.21875-78.105469h15.003906c19.175782 0 34.777344-15.601562 34.777344-34.777343 0-14.839844-9.359375-27.527344-22.484375-32.5zm-172.742187 71.449218c-1.375-18.890625-14.359376-27.214844-26.894532-27.214844-.269531 0-.542968.003907-.8125.011719-13.890625.398438-28.414062 11.070313-28.671875 28.238281v.109376c-.019531 4.464843-5.167969 7.566406-9.789062 7.566406-.007813 0-.011719 0-.019531 0-7.078126-.011719-8.5625-6.671875-8.5625-12.257813v-50.027343h102.363281v51.855468c0 7.792969-2.585938 13.324219-7.480469 16-4.425781 2.421875-10.300781 2.1875-14.617188-.574218-2.78125-1.777344-5.992187-5.351563-5.511718-12.28125.03125-.476563.03125-.949219-.003906-1.425782zm37.683593-73.699218h-301.734375c-7.925781 0-14.375-6.445313-14.375-14.367188s6.449219-14.367188 14.375-14.367188h406.554688c7.925781 0 14.378906 6.445313 14.378906 14.367188s-6.453125 14.367188-14.378906 14.367188zm-319.679687-78.136719h19.960937.027344 158.722656c5.566407 0 10.074219-4.503907 10.074219-10.0625 0-5.554688-4.507812-10.0625-10.074219-10.0625h-136.757812c14.902343-14.433594 35.324219-26.96875 60.148437-36.792969 35.03125-13.859375 76.222656-21.1875 119.121094-21.1875s84.089844 7.328125 119.121094 21.1875c24.824218 9.828125 45.246094 22.359375 60.148437 36.792969h-139.070312c-5.5625 0-10.070313 4.503906-10.070313 10.0625 0 5.558593 4.507813 10.0625 10.070313 10.0625h160.902343.015626.027343 20.078125c8.070313 0 14.636719 6.574219 14.636719 14.652343 0 8.0625-6.566406 14.625-14.636719 14.625h-442.445312c-8.066406 0-14.632813-6.5625-14.632813-14.625 0-8.078124 6.5625-14.652343 14.632813-14.652343zm-14.632813 112.886719c0-8.0625 6.5625-14.625 14.632813-14.625h187.101562v29.277343h-167.105468c-.011719 0-.023438 0-.035157 0h-19.960937c-8.070313 0-14.632813-6.574219-14.632813-14.652343zm354.976563 71.578124c-35.019532 13.855469-76.214844 21.179688-119.121094 21.179688s-84.097656-7.324219-119.121094-21.179688c-24.832031-9.824218-45.253906-22.359374-60.15625-36.800781h145.15625v.625c0 22.332031 14.394532 32.355469 28.664063 32.386719h.058593c14.332032 0 29.820313-10.515625 29.933594-27.539062.109375-5.605469 5.386719-8.277344 9.109375-8.386719 1.546875-.039063 6.179688-.175781 6.984375 7.949219-.609375 12.539062 4.75 23.363281 14.796875 29.792968 5.613281 3.59375 12.175781 5.40625 18.726563 5.40625 5.6875 0 11.371094-1.367187 16.417968-4.125 11.414063-6.238281 17.957032-18.507812 17.957032-33.660156v-2.449219h70.75c-14.902344 14.441407-35.324219 26.976563-60.15625 36.800781zm102.101562-56.925781h-19.96875c-.003906 0-.007812 0-.011718 0h-92.714844v-29.277343h112.695312c8.070313 0 14.636719 6.5625 14.636719 14.625 0 8.078124-6.566406 14.652343-14.636719 14.652343zm0 0"/><path d="m256 98.230469h.199219c5.5625 0 10.070312-4.503907 10.070312-10.0625 0-5.554688-4.507812-10.0625-10.070312-10.0625h-.199219c-5.5625 0-10.070312 4.503906-10.070312 10.0625 0 5.558593 4.507812 10.0625 10.070312 10.0625zm0 0"/></svg>