<svg height="512pt" viewBox="-91 0 512 512.001" width="512pt" xmlns="http://www.w3.org/2000/svg"><g fill-rule="evenodd"><path d="m10.011719 157.261719v153.910156c0 23.527344 19.261719 42.773437 42.808593 42.773437h69.871094c23.546875 0 42.808594-19.246093 42.808594-42.773437v-173.214844c-3.917969 6.71875-11.773438 12.019531-20.996094 12.160157-13.273437.199218-24.167968-10.34375-24.167968-20.71875v-17.972657c-.910157-37.128906-51.773438-34.550781-51.207032 3.914063.171875 6.859375-.027344 15.25.113282 22.136718 2.527343 32.3125-23.941407 37.300782-37.8125 36.054688-8.796876-.765625-17.277344-5.667969-21.417969-16.269531zm0 0" fill="#ffc15a"/><path d="m165.5 157.261719v153.910156c0 23.527344 19.261719 42.773437 42.804688 42.773437h69.875c23.542968 0 42.808593-19.246093 42.808593-42.773437v-173.214844c-3.917969 6.71875-11.773437 12.019531-20.996093 12.160157-13.273438.199218-24.167969-10.34375-24.167969-20.71875v-17.972657c-.910157-37.128906-51.773438-34.550781-51.207031 3.914063.171874 6.859375-.027344 15.25.113281 22.136718 2.527343 32.3125-23.941407 37.300782-37.8125 36.054688-8.796875-.765625-17.277344-5.667969-21.417969-16.269531zm0 0" fill="#ffc15a"/><path d="m208.304688 10.011719c-23.542969 0-42.804688 19.246093-42.804688 42.769531v104.480469c4.140625 10.601562 12.621094 15.503906 21.417969 16.269531 13.871093 1.246094 40.339843-3.742188 37.8125-36.054688-.140625-6.886718.058593-15.277343-.113281-22.136718-.566407-38.464844 50.296874-41.042969 51.207031-3.914063v17.972657c0 10.375 10.890625 20.917968 24.167969 20.71875 9.222656-.140626 17.078124-5.441407 20.996093-12.160157v-85.175781c0-23.523438-19.265625-42.769531-42.808593-42.769531zm0 0" fill="#c68a65"/><path d="m52.820312 10.011719c-23.546874 0-42.808593 19.246093-42.808593 42.769531v104.480469c4.140625 10.601562 12.621093 15.503906 21.417969 16.269531 13.871093 1.246094 40.339843-3.742188 37.8125-36.054688-.140626-6.886718.058593-15.277343-.113282-22.136718-.566406-38.464844 50.296875-41.042969 51.207032-3.914063v17.972657c0 10.375 10.894531 20.917968 24.167968 20.71875 9.222656-.140626 17.078125-5.441407 20.996094-12.160157v-85.175781c0-23.523438-19.261719-42.769531-42.808594-42.769531zm0 0" fill="#ff6977"/><path d="m67.96875 353.945312v128.257813c0 10.886719 8.90625 19.785156 19.773438 19.785156 10.890624 0 19.800781-8.898437 19.800781-19.785156v-128.257813zm0 0" fill="#ffd89e"/><path d="m223.457031 353.945312v128.257813c0 10.886719 8.90625 19.785156 19.769531 19.785156 10.894532 0 19.804688-8.898437 19.804688-19.785156v-128.257813zm0 0" fill="#ffd89e"/></g><path d="m47.796875 238.132812c5.527344 0 10.007813-4.480468 10.007813-10.011718 0-5.527344-4.480469-10.007813-10.007813-10.007813h-.226563c-5.527343 0-10.011718 4.480469-10.011718 10.007813 0 5.53125 4.484375 10.011718 10.011718 10.011718zm0 0"/><path d="m97.15625 277.957031c5.527344 0 10.011719-4.480469 10.011719-10.011719 0-5.527343-4.484375-10.007812-10.011719-10.007812h-.226562c-5.527344 0-10.007813 4.480469-10.007813 10.007812 0 5.53125 4.480469 10.011719 10.007813 10.011719zm0 0"/><path d="m127.824219 201.738281c5.527343 0 10.011719-4.480469 10.011719-10.007812 0-5.53125-4.484376-10.011719-10.011719-10.011719h-.226563c-5.527344 0-10.007812 4.480469-10.007812 10.011719 0 5.527343 4.480468 10.007812 10.007812 10.007812zm0 0"/><path d="m222.71875 232.851562h-.226562c-5.53125 0-10.011719 4.484376-10.011719 10.011719 0 5.527344 4.480469 10.007813 10.011719 10.007813h.226562c5.527344 0 10.007812-4.480469 10.007812-10.007813 0-5.527343-4.480468-10.011719-10.007812-10.011719zm0 0"/><path d="m278.007812 193.539062h-.226562c-5.527344 0-10.011719 4.480469-10.011719 10.007813s4.484375 10.011719 10.011719 10.011719h.226562c5.527344 0 10.007813-4.484375 10.007813-10.011719s-4.480469-10.007813-10.007813-10.007813zm0 0"/><path d="m261.382812 291.214844h-.226562c-5.527344 0-10.007812 4.480468-10.007812 10.007812s4.480468 10.011719 10.007812 10.011719h.226562c5.527344 0 10.011719-4.484375 10.011719-10.011719s-4.484375-10.007812-10.011719-10.007812zm0 0"/><path d="m278.179688 0h-69.875c-17.597657 0-33.203126 8.652344-42.804688 21.917969-9.605469-13.265625-25.210938-21.917969-42.808594-21.917969h-69.871094c-29.125 0-52.820312 23.679688-52.820312 52.78125v158.191406c0 5.53125 4.484375 10.011719 10.011719 10.011719 5.527343 0 10.007812-4.480469 10.007812-10.011719v-29.96875c3.257813 1.3125 6.773438 2.171875 10.511719 2.496094 1.082031.097656 2.6875.199219 4.667969.199219 8.054687 0 22.316406-1.675781 32.875-12.109375 5.84375-5.777344 12.507812-16.460938 11.171875-34.59375-.058594-3.121094-.050782-6.671875-.039063-10.113282.011719-3.957031.019531-8.046874-.070312-11.738281-.179688-13.695312 8.089843-19.988281 16.375-20.148437.105469-.003906.214843-.003906.320312-.003906 6.847657 0 14.152344 4.339843 14.492188 16.566406v17.839844c0 7.34375 3.355469 14.859374 9.203125 20.621093 6.660156 6.5625 15.84375 10.207031 25.132812 10.109375 3.730469-.058594 7.382813-.722656 10.828125-1.914062v152.957031c0 18.066406-14.710937 32.761719-32.796875 32.761719h-69.871094c-18.085937 0-32.800781-14.695313-32.800781-32.761719v-18.027344c0-5.527343-4.480469-10.007812-10.007812-10.007812-5.527344 0-10.011719 4.480469-10.011719 10.007812v18.027344c0 29.105469 23.695312 52.78125 52.820312 52.78125h5.136719v118.25c0 16.429687 13.359375 29.796875 29.78125 29.796875 16.4375 0 29.8125-13.367188 29.8125-29.796875v-118.246094h5.140625c17.597656 0 33.203125-8.65625 42.804688-21.921875 9.605468 13.265625 25.210937 21.921875 42.808594 21.921875h5.140624v118.246094c0 16.429687 13.359376 29.796875 29.78125 29.796875 16.4375 0 29.8125-13.367188 29.8125-29.796875v-118.246094h5.136719c29.125 0 52.820313-23.679687 52.820313-52.785156v-258.390625c0-29.101562-23.695313-52.78125-52.816406-52.78125zm-180.648438 482.203125c0 5.390625-4.390625 9.777344-9.789062 9.777344-5.382813 0-9.765626-4.386719-9.765626-9.777344v-118.246094h19.554688zm110.773438-462.183594h69.875c18.085937 0 32.796874 14.699219 32.796874 32.761719v82.039062c-2.292968 2.6875-6.132812 5.210938-11.132812 5.289063-4.019531.066406-7.914062-1.527344-10.777344-4.351563-2.023437-1.992187-3.230468-4.371093-3.230468-6.359374v-17.972657c0-.082031-.003907-.160156-.003907-.242187-.59375-24.210938-18.179687-36.582032-35.222656-36.203125-17.738281.347656-36.382813 14.660156-36 40.503906 0 .035156 0 .070313.003906.105469.085938 3.425781.070313 7.398437.0625 11.238281-.011719 3.652344-.023437 7.433594.046875 10.855469.003906.191406.015625.382812.03125.570312.667969 8.558594-1.105468 14.980469-5.265625 19.09375-5.585937 5.519532-15.164062 6.800782-21.703125 6.210938-3.976562-.347656-9.191406-2.125-12.277344-8.394532v-102.382812c0-18.0625 14.714844-32.761719 32.796876-32.761719zm-63.949219 120.089844c-4.023438.023437-7.914063-1.53125-10.78125-4.351563-2.019531-1.996093-3.230469-4.371093-3.230469-6.359374v-17.972657c0-.082031 0-.164062 0-.242187-.585938-23.894532-17.707031-36.210938-34.546875-36.210938-.226563 0-.453125 0-.675781.007813-17.738282.347656-36.378906 14.660156-36 40.503906 0 .035156 0 .070313.003906.105469.085938 3.425781.074219 7.398437.0625 11.238281-.011719 3.652344-.023438 7.433594.050781 10.855469.003907.191406.011719.382812.027344.570312.667969 8.558594-1.105469 14.980469-5.265625 19.09375-5.585938 5.519532-15.167969 6.800782-21.703125 6.210938-3.976563-.347656-9.191406-2.125-12.277344-8.394532v-102.382812c0-18.0625 14.714844-32.761719 32.800781-32.761719h69.871094c18.085938 0 32.796875 14.699219 32.796875 32.761719v82.039062c-2.289062 2.6875-6.132812 5.210938-11.132812 5.289063zm108.664062 342.09375c0 5.390625-4.390625 9.777344-9.792969 9.777344-5.382812 0-9.761718-4.386719-9.761718-9.777344v-118.246094h19.554687zm25.160157-138.269531h-69.871094c-18.085938 0-32.800782-14.695313-32.800782-32.761719v-130.167969c3.257813 1.3125 6.773438 2.171875 10.515626 2.496094 1.078124.097656 2.683593.199219 4.664062.199219 8.054688 0 22.316406-1.675781 32.875-12.109375 5.84375-5.777344 12.507812-16.460938 11.171875-34.59375-.058594-3.121094-.050781-6.671875-.039063-10.113282.011719-3.957031.023438-8.046874-.066406-11.738281-.183594-13.695312 8.085938-19.988281 16.371094-20.148437.109375-.003906.214844-.003906.320312-.003906 6.851563 0 14.152344 4.339843 14.496094 16.566406v17.839844c0 7.34375 3.351563 14.859374 9.199219 20.621093 6.660156 6.5625 15.8125 10.207031 25.132813 10.109375 3.730468-.058594 7.382812-.722656 10.828124-1.914062v152.957031c0 18.066406-14.714843 32.761719-32.796874 32.761719zm0 0"/><path d="m10.011719 260.921875c5.527343 0 10.007812-4.480469 10.007812-10.011719v-.195312c0-5.527344-4.480469-10.011719-10.007812-10.011719-5.527344 0-10.011719 4.484375-10.011719 10.011719v.195312c0 5.527344 4.484375 10.011719 10.011719 10.011719zm0 0"/></svg>