<svg height="512pt" viewBox="-31 0 512 512" width="512pt" xmlns="http://www.w3.org/2000/svg"><g fill-rule="evenodd"><path d="m89.328125 334.78125v122.695312h120.695313v-122.695312c0-14.941406-13.429688-27.167969-29.835938-27.167969h-61.023438c-16.40625 0-29.835937 12.226563-29.835937 27.167969zm0 0" fill="#ffd89e"/><path d="m411.761719 227.746094h-374.523438v229.730468h52.089844v-122.695312c0-14.941406 13.429687-27.167969 29.835937-27.167969h61.023438c16.40625 0 29.835938 12.226563 29.835938 27.167969v122.695312h201.738281zm-141.601563 57.425781h83.957032c4.953124 0 9.019531 4.035156 9.019531 8.988281v70.824219c0 4.953125-4.066407 9.019531-9.019531 9.019531h-83.957032c-4.957031 0-9.019531-4.066406-9.019531-9.019531v-70.824219c0-4.953125 4.0625-8.988281 9.019531-8.988281zm0 0" fill="#fbc2c7"/><path d="m210.023438 457.476562h-177.710938c-12.226562 0-22.21875 9.992188-22.21875 22.214844 0 12.226563 9.992188 22.214844 22.21875 22.214844h384.375c12.226562 0 22.21875-9.988281 22.21875-22.214844 0-12.222656-9.992188-22.214844-22.21875-22.214844zm0 0" fill="#ffc15a"/><path d="m261.140625 294.160156v70.824219c0 4.953125 4.0625 9.019531 9.019531 9.019531h83.957032c4.953124 0 9.019531-4.066406 9.019531-9.019531v-70.824219c0-4.953125-4.066407-8.988281-9.019531-8.988281h-83.957032c-4.957031 0-9.019531 4.035156-9.019531 8.988281zm0 0" fill="#f9fceb"/><path d="m391.574219 183.316406h-359.261719c-12.226562 0-22.21875 9.992188-22.21875 22.214844s9.992188 22.214844 22.21875 22.214844h384.375c12.226562 0 22.21875-9.992188 22.21875-22.214844s-9.992188-22.214844-22.21875-22.214844zm0 0" fill="#ffc15a"/><path d="m62.980469 53.203125c-19.042969.117187-34.445313 15.574219-34.445313 34.640625 0 17.75 13.34375 32.378906 30.554688 34.410156 1.34375.171875 2.71875.230469 4.09375.230469 7.160156 0 13.832031-2.148437 19.355468-5.871094 10.367188 8.503907 23.625 13.628907 38.085938 13.628907 14.492188 0 27.75-5.125 38.113281-13.628907 5.527344 3.722657 12.171875 5.871094 19.332031 5.871094 2.316407 0 4.550782-.203125 6.726563-.632813 15.921875-3.117187 27.949219-17.175781 27.949219-34.007812 0-6.46875-1.773438-12.507812-4.839844-17.691406-6.011719-10.105469-17.007812-16.890625-29.609375-16.949219-7.328125-24.933594-30.351563-43.109375-57.671875-43.109375-27.289062 0-50.3125 18.175781-57.644531 43.109375zm0 0" fill="#ff6977"/><path d="m59.089844 122.253906 9.191406 61.0625h107.265625l9.25-61.460937c-2.175781.425781-4.410156.628906-6.730469.628906-7.160156 0-13.800781-2.148437-19.328125-5.871094-10.367187 8.503907-23.625 13.628907-38.113281 13.628907-14.460938 0-27.71875-5.125-38.085938-13.628907-5.527343 3.722657-12.199218 5.871094-19.359374 5.871094-1.371094 0-2.746094-.058594-4.089844-.230469zm0 0" fill="#cbe558"/><path d="m184.796875 121.851562-9.25 61.464844h216.027344v-103.058594c0-5.554687-4.554688-10.105468-10.109375-10.105468h-173.558594c3.0625 5.183594 4.839844 11.222656 4.839844 17.691406 0 16.832031-12.027344 30.890625-27.949219 34.007812zm0 0" fill="#ffd89e"/></g><path d="m270.160156 384.09375h83.957032c10.539062 0 19.113281-8.574219 19.113281-19.109375v-70.824219c0-10.523437-8.574219-19.082031-19.113281-19.082031h-83.957032c-10.539062 0-19.113281 8.558594-19.113281 19.082031v70.824219c0 10.535156 8.574219 19.109375 19.113281 19.109375zm1.070313-88.832031h81.816406v68.644531h-81.816406zm0 0"/><path d="m421.851562 447.804688v-210.382813c15.371094-2.484375 27.148438-15.835937 27.148438-31.890625 0-17.816406-14.496094-32.308594-32.3125-32.308594h-15.023438v-92.964844c0-11.136718-9.0625-20.199218-20.199218-20.199218h-168.367188c-6.710937-8.425782-16.386718-14.402344-27.425781-16.300782-10.640625-26.078124-36.457031-43.757812-65.046875-43.757812-28.574219 0-54.382812 17.679688-65.015625 43.757812-21.058594 3.621094-37.167969 22.058594-37.167969 44.085938 0 20.132812 13.371094 37.195312 31.703125 42.789062l6.410157 42.589844h-24.242188c-17.816406 0-32.3125 14.496094-32.3125 32.308594 0 15.238281 13.027344 27.273438 27.148438 30.957031v211.316407c-15.371094 2.480468-27.148438 15.832031-27.148438 31.886718 0 17.816406 14.496094 32.308594 32.3125 32.308594h384.375c17.816406 0 32.3125-14.492188 32.3125-32.308594 0-16.054687-11.777344-29.40625-27.148438-31.886718zm-199.011718-359.960938c0-2.589844-.230469-5.125-.660156-7.597656l159.300781.011718v92.964844h-194.207031l6.546874-43.511718c16.9375-6.386719 29.019532-22.738282 29.019532-41.867188zm-184.214844 0c0-13.453125 10.953125-24.464844 24.417969-24.542969 4.453125-.027343 8.363281-2.972656 9.621093-7.246093 6.207032-21.117188 25.929688-35.867188 47.960938-35.867188 22.046875 0 41.78125 14.75 47.988281 35.867188 1.257813 4.273437 5.167969 7.21875 9.625 7.246093 13.460938.078125 24.414063 11.089844 24.414063 24.542969 0 13.535156-11.027344 24.546875-24.585938 24.546875-4.925781 0-9.660156-1.433594-13.6875-4.148437-3.699218-2.488282-8.59375-2.261719-12.039062.566406-9.042969 7.417968-20.011719 11.339844-31.714844 11.339844-11.519531 0-22.769531-4.027344-31.683594-11.339844-1.855468-1.519532-4.125-2.289063-6.402344-2.289063-1.960937 0-3.929687.570313-5.636718 1.722657-4.03125 2.714843-8.773438 4.148437-13.71875 4.148437-13.542969 0-24.558594-11.011719-24.558594-24.546875zm138.042969 44.695312-9.164063 40.683594h-90.539062l-6.210938-41.277344c.019532-.003906.039063-.015624.0625-.019531 3.785156-.648437 7.460938-1.765625 10.945313-3.351562 11.464843 7.625 25.027343 11.761719 38.863281 11.761719 13.851562 0 27.425781-4.140626 38.890625-11.761719 5.363281 2.441406 11.175781 3.78125 17.152344 3.964843zm-156.484375 72.992188c0-6.683594 5.441406-12.121094 12.128906-12.121094h143.222656.027344.019531 241.105469c6.6875 0 12.128906 5.4375 12.128906 12.121094s-5.441406 12.121094-12.128906 12.121094h-159.15625c-5.574219 0-10.09375 4.519531-10.09375 10.09375 0 5.574218 4.519531 10.09375 10.09375 10.09375h144.136719v209.546875h-181.550781v-112.605469c0-20.546875-17.914063-37.257812-39.929688-37.257812h-61.023438c-22.019531 0-39.929687 16.710937-39.929687 37.257812v112.605469h-31.902344v-209.722657h127.15625c5.574219 0 10.089844-4.515624 10.089844-10.089843s-4.515625-10.09375-10.089844-10.09375h-138.539062c-7.511719 0-15.765625-6.253907-15.765625-11.949219zm79.234375 241.855469v-112.605469c0-9.414062 8.859375-17.074219 19.746093-17.074219h61.023438c10.886719 0 19.746094 7.660157 19.746094 17.074219v112.605469zm317.269531 44.425781h-384.375c-6.6875 0-12.128906-5.433594-12.128906-12.121094 0-6.683594 5.441406-12.121094 12.128906-12.121094h384.375c6.6875 0 12.128906 5.4375 12.128906 12.121094 0 6.6875-5.441406 12.121094-12.128906 12.121094zm0 0"/><path d="m240.148438 136.839844h95.957031c5.574219 0 10.09375-4.519532 10.09375-10.09375 0-5.570313-4.519531-10.089844-10.09375-10.089844h-95.957031c-5.574219 0-10.089844 4.519531-10.089844 10.089844 0 5.574218 4.515625 10.09375 10.089844 10.09375zm0 0"/><path d="m217.183594 237.839844h.199218c5.574219 0 10.09375-4.519532 10.09375-10.09375 0-5.574219-4.519531-10.09375-10.09375-10.09375h-.199218c-5.574219 0-10.089844 4.519531-10.089844 10.09375 0 5.574218 4.515625 10.09375 10.089844 10.09375zm0 0"/></svg>